<?xml version="1.0" encoding="UTF-8" standalone="no"?>
<!DOCTYPE svg PUBLIC "-//W3C//DTD SVG 1.1//EN"
 "http://www.w3.org/Graphics/SVG/1.1/DTD/svg11.dtd">
<!-- Generated by graphviz version 2.47.0 (20210316.0004)
 -->
<!-- Title: dependencies Pages: 1 -->
<svg width="2192pt" height="284pt"
 viewBox="0.00 0.00 2192.00 284.00" xmlns="http://www.w3.org/2000/svg" xmlns:xlink="http://www.w3.org/1999/xlink">
<g id="graph0" class="graph" transform="scale(1 1) rotate(0) translate(4 280)">
<title>dependencies</title>
<polygon fill="white" stroke="transparent" points="-4,4 -4,-280 2188,-280 2188,4 -4,4"/>
<text text-anchor="start" x="1071.01" y="-42.4" font-family="Times-12" font-weight="bold" font-size="14.00">Legend</text>
<polygon fill="#ffffb3" stroke="transparent" points="858,-10 858,-30 878,-30 878,-10 858,-10"/>
<text text-anchor="start" x="881.63" y="-15.4" font-family="Times-12" font-size="14.00"> &#160;Declarations</text>
<polygon fill="#8dd3c7" stroke="transparent" points="971,-10 971,-30 991,-30 991,-10 971,-10"/>
<text text-anchor="start" x="994.73" y="-15.4" font-family="Times-12" font-size="14.00"> &#160;Module</text>
<polygon fill="#80b1d3" stroke="transparent" points="1057,-10 1057,-30 1077,-30 1077,-10 1057,-10"/>
<text text-anchor="start" x="1080.78" y="-15.4" font-family="Times-12" font-size="14.00"> &#160;Bootstrap</text>
<polygon fill="#fdb462" stroke="transparent" points="1154,-10 1154,-30 1174,-30 1174,-10 1154,-10"/>
<text text-anchor="start" x="1177.67" y="-15.4" font-family="Times-12" font-size="14.00"> &#160;Providers</text>
<polygon fill="#fb8072" stroke="transparent" points="1250,-10 1250,-30 1270,-30 1270,-10 1250,-10"/>
<text text-anchor="start" x="1273.73" y="-15.4" font-family="Times-12" font-size="14.00"> &#160;Exports</text>
<g id="clust1" class="cluster">
<title>cluster_LayoutModule</title>
<polygon fill="none" stroke="black" stroke-dasharray="1,5" points="8,-70 8,-268 2176,-268 2176,-70 8,-70"/>
</g>
<g id="clust4" class="cluster">
<title>cluster_LayoutModule_imports</title>
<polygon fill="none" stroke="black" points="160,-78 160,-130 2168,-130 2168,-78 160,-78"/>
</g>
<g id="clust5" class="cluster">
<title>cluster_LayoutModule_exports</title>
<polygon fill="none" stroke="black" points="80,-208 80,-260 2029,-260 2029,-208 80,-208"/>
</g>
<g id="clust2" class="cluster">
<title>cluster_LayoutModule_declarations</title>
<polygon fill="none" stroke="black" points="16,-78 16,-130 152,-130 152,-78 16,-78"/>
</g>
<!-- LayoutComponent -->
<g id="node1" class="node">
<title>LayoutComponent</title>
<polygon fill="#ffffb3" stroke="black" points="144.49,-122 23.51,-122 23.51,-86 144.49,-86 144.49,-122"/>
<text text-anchor="middle" x="84" y="-99.8" font-family="Times,serif" font-size="14.00">LayoutComponent</text>
</g>
<!-- LayoutModule -->
<g id="node2" class="node">
<title>LayoutModule</title>
<polygon fill="#8dd3c7" stroke="black" points="1078.71,-187 1075.71,-191 1054.71,-191 1051.71,-187 979.29,-187 979.29,-151 1078.71,-151 1078.71,-187"/>
<text text-anchor="middle" x="1029" y="-164.8" font-family="Times,serif" font-size="14.00">LayoutModule</text>
</g>
<!-- LayoutComponent&#45;&gt;LayoutModule -->
<g id="edge1" class="edge">
<title>LayoutComponent&#45;&gt;LayoutModule</title>
<path fill="none" stroke="black" d="M116.46,-122.11C116.46,-141.34 116.46,-169 116.46,-169 116.46,-169 969.29,-169 969.29,-169"/>
<polygon fill="black" stroke="black" points="969.29,-172.5 979.29,-169 969.29,-165.5 969.29,-172.5"/>
</g>
<!-- CenteredLayoutModule  -->
<g id="node16" class="node">
<title>CenteredLayoutModule </title>
<polygon fill="#fb8072" stroke="black" points="2020.74,-252 1867.26,-252 1867.26,-216 2020.74,-216 2020.74,-252"/>
<text text-anchor="middle" x="1944" y="-229.8" font-family="Times,serif" font-size="14.00">CenteredLayoutModule </text>
</g>
<!-- LayoutModule&#45;&gt;CenteredLayoutModule  -->
<g id="edge15" class="edge">
<title>LayoutModule&#45;&gt;CenteredLayoutModule </title>
<path fill="none" stroke="black" stroke-dasharray="5,2" d="M1078.7,-172C1267.5,-172 1929.6,-172 1929.6,-172 1929.6,-172 1929.6,-205.73 1929.6,-205.73"/>
<polygon fill="black" stroke="black" points="1926.1,-205.73 1929.6,-215.73 1933.1,-205.73 1926.1,-205.73"/>
</g>
<!-- ClassicLayoutModule  -->
<g id="node17" class="node">
<title>ClassicLayoutModule </title>
<polygon fill="#fb8072" stroke="black" points="1849.64,-252 1706.36,-252 1706.36,-216 1849.64,-216 1849.64,-252"/>
<text text-anchor="middle" x="1778" y="-229.8" font-family="Times,serif" font-size="14.00">ClassicLayoutModule </text>
</g>
<!-- LayoutModule&#45;&gt;ClassicLayoutModule  -->
<g id="edge16" class="edge">
<title>LayoutModule&#45;&gt;ClassicLayoutModule </title>
<path fill="none" stroke="black" stroke-dasharray="5,2" d="M1078.79,-175C1245.01,-175 1770.35,-175 1770.35,-175 1770.35,-175 1770.35,-205.98 1770.35,-205.98"/>
<polygon fill="black" stroke="black" points="1766.85,-205.98 1770.35,-215.98 1773.85,-205.98 1766.85,-205.98"/>
</g>
<!-- ClassyLayoutModule  -->
<g id="node18" class="node">
<title>ClassyLayoutModule </title>
<polygon fill="#fb8072" stroke="black" points="1688.04,-252 1547.96,-252 1547.96,-216 1688.04,-216 1688.04,-252"/>
<text text-anchor="middle" x="1618" y="-229.8" font-family="Times,serif" font-size="14.00">ClassyLayoutModule </text>
</g>
<!-- LayoutModule&#45;&gt;ClassyLayoutModule  -->
<g id="edge17" class="edge">
<title>LayoutModule&#45;&gt;ClassyLayoutModule </title>
<path fill="none" stroke="black" stroke-dasharray="5,2" d="M1078.62,-178C1219.85,-178 1613.93,-178 1613.93,-178 1613.93,-178 1613.93,-205.97 1613.93,-205.97"/>
<polygon fill="black" stroke="black" points="1610.43,-205.97 1613.93,-215.97 1617.43,-205.97 1610.43,-205.97"/>
</g>
<!-- CompactLayoutModule  -->
<g id="node19" class="node">
<title>CompactLayoutModule </title>
<polygon fill="#fb8072" stroke="black" points="1529.75,-252 1376.25,-252 1376.25,-216 1529.75,-216 1529.75,-252"/>
<text text-anchor="middle" x="1453" y="-229.8" font-family="Times,serif" font-size="14.00">CompactLayoutModule </text>
</g>
<!-- LayoutModule&#45;&gt;CompactLayoutModule  -->
<g id="edge18" class="edge">
<title>LayoutModule&#45;&gt;CompactLayoutModule </title>
<path fill="none" stroke="black" stroke-dasharray="5,2" d="M1078.85,-181C1184.78,-181 1422.64,-181 1422.64,-181 1422.64,-181 1422.64,-205.76 1422.64,-205.76"/>
<polygon fill="black" stroke="black" points="1419.14,-205.76 1422.64,-215.76 1426.14,-205.76 1419.14,-205.76"/>
</g>
<!-- DenseLayoutModule  -->
<g id="node20" class="node">
<title>DenseLayoutModule </title>
<polygon fill="#fb8072" stroke="black" points="1358.69,-252 1221.31,-252 1221.31,-216 1358.69,-216 1358.69,-252"/>
<text text-anchor="middle" x="1290" y="-229.8" font-family="Times,serif" font-size="14.00">DenseLayoutModule </text>
</g>
<!-- LayoutModule&#45;&gt;DenseLayoutModule  -->
<g id="edge19" class="edge">
<title>LayoutModule&#45;&gt;DenseLayoutModule </title>
<path fill="none" stroke="black" stroke-dasharray="5,2" d="M1078.61,-184C1160.21,-184 1313.81,-184 1313.81,-184 1313.81,-184 1313.81,-205.95 1313.81,-205.95"/>
<polygon fill="black" stroke="black" points="1310.31,-205.95 1313.81,-215.95 1317.31,-205.95 1310.31,-205.95"/>
</g>
<!-- EmptyLayoutModule  -->
<g id="node21" class="node">
<title>EmptyLayoutModule </title>
<polygon fill="#fb8072" stroke="black" points="1203.04,-252 1062.96,-252 1062.96,-216 1203.04,-216 1203.04,-252"/>
<text text-anchor="middle" x="1133" y="-229.8" font-family="Times,serif" font-size="14.00">EmptyLayoutModule </text>
</g>
<!-- LayoutModule&#45;&gt;EmptyLayoutModule  -->
<g id="edge20" class="edge">
<title>LayoutModule&#45;&gt;EmptyLayoutModule </title>
<path fill="none" stroke="black" stroke-dasharray="5,2" d="M1070.79,-187.11C1070.79,-187.11 1070.79,-205.99 1070.79,-205.99"/>
<polygon fill="black" stroke="black" points="1067.29,-205.99 1070.79,-215.99 1074.29,-205.99 1067.29,-205.99"/>
</g>
<!-- EnterpriseLayoutModule  -->
<g id="node22" class="node">
<title>EnterpriseLayoutModule </title>
<polygon fill="#fb8072" stroke="black" points="1045.24,-252 884.76,-252 884.76,-216 1045.24,-216 1045.24,-252"/>
<text text-anchor="middle" x="965" y="-229.8" font-family="Times,serif" font-size="14.00">EnterpriseLayoutModule </text>
</g>
<!-- LayoutModule&#45;&gt;EnterpriseLayoutModule  -->
<g id="edge21" class="edge">
<title>LayoutModule&#45;&gt;EnterpriseLayoutModule </title>
<path fill="none" stroke="black" stroke-dasharray="5,2" d="M1012.26,-187.11C1012.26,-187.11 1012.26,-205.99 1012.26,-205.99"/>
<polygon fill="black" stroke="black" points="1008.76,-205.99 1012.26,-215.99 1015.76,-205.99 1008.76,-205.99"/>
</g>
<!-- FuturisticLayoutModule  -->
<g id="node23" class="node">
<title>FuturisticLayoutModule </title>
<polygon fill="#fb8072" stroke="black" points="867.37,-252 710.63,-252 710.63,-216 867.37,-216 867.37,-252"/>
<text text-anchor="middle" x="789" y="-229.8" font-family="Times,serif" font-size="14.00">FuturisticLayoutModule </text>
</g>
<!-- LayoutModule&#45;&gt;FuturisticLayoutModule  -->
<g id="edge22" class="edge">
<title>LayoutModule&#45;&gt;FuturisticLayoutModule </title>
<path fill="none" stroke="black" stroke-dasharray="5,2" d="M979.27,-184C930.45,-184 863.25,-184 863.25,-184 863.25,-184 863.25,-205.95 863.25,-205.95"/>
<polygon fill="black" stroke="black" points="859.75,-205.95 863.25,-215.95 866.75,-205.95 859.75,-205.95"/>
</g>
<!-- LayoutComponent  -->
<g id="node24" class="node">
<title>LayoutComponent </title>
<polygon fill="#fb8072" stroke="black" points="693.49,-252 568.51,-252 568.51,-216 693.49,-216 693.49,-252"/>
<text text-anchor="middle" x="631" y="-229.8" font-family="Times,serif" font-size="14.00">LayoutComponent </text>
</g>
<!-- LayoutModule&#45;&gt;LayoutComponent  -->
<g id="edge23" class="edge">
<title>LayoutModule&#45;&gt;LayoutComponent </title>
<path fill="none" stroke="black" stroke-dasharray="5,2" d="M979.29,-181C876.85,-181 651.75,-181 651.75,-181 651.75,-181 651.75,-205.76 651.75,-205.76"/>
<polygon fill="black" stroke="black" points="648.25,-205.76 651.75,-215.76 655.25,-205.76 648.25,-205.76"/>
</g>
<!-- MaterialLayoutModule  -->
<g id="node25" class="node">
<title>MaterialLayoutModule </title>
<polygon fill="#fb8072" stroke="black" points="551.13,-252 400.87,-252 400.87,-216 551.13,-216 551.13,-252"/>
<text text-anchor="middle" x="476" y="-229.8" font-family="Times,serif" font-size="14.00">MaterialLayoutModule </text>
</g>
<!-- LayoutModule&#45;&gt;MaterialLayoutModule  -->
<g id="edge24" class="edge">
<title>LayoutModule&#45;&gt;MaterialLayoutModule </title>
<path fill="none" stroke="black" stroke-dasharray="5,2" d="M979.19,-178C855.12,-178 542.2,-178 542.2,-178 542.2,-178 542.2,-205.97 542.2,-205.97"/>
<polygon fill="black" stroke="black" points="538.7,-205.97 542.2,-215.97 545.7,-205.97 538.7,-205.97"/>
</g>
<!-- ModernLayoutModule  -->
<g id="node26" class="node">
<title>ModernLayoutModule </title>
<polygon fill="#fb8072" stroke="black" points="382.53,-252 235.47,-252 235.47,-216 382.53,-216 382.53,-252"/>
<text text-anchor="middle" x="309" y="-229.8" font-family="Times,serif" font-size="14.00">ModernLayoutModule </text>
</g>
<!-- LayoutModule&#45;&gt;ModernLayoutModule  -->
<g id="edge25" class="edge">
<title>LayoutModule&#45;&gt;ModernLayoutModule </title>
<path fill="none" stroke="black" stroke-dasharray="5,2" d="M979.14,-175C821.95,-175 347.15,-175 347.15,-175 347.15,-175 347.15,-205.98 347.15,-205.98"/>
<polygon fill="black" stroke="black" points="343.65,-205.98 347.15,-215.98 350.65,-205.98 343.65,-205.98"/>
</g>
<!-- ThinLayoutModule  -->
<g id="node27" class="node">
<title>ThinLayoutModule </title>
<polygon fill="#fb8072" stroke="black" points="217.65,-252 88.35,-252 88.35,-216 217.65,-216 217.65,-252"/>
<text text-anchor="middle" x="153" y="-229.8" font-family="Times,serif" font-size="14.00">ThinLayoutModule </text>
</g>
<!-- LayoutModule&#45;&gt;ThinLayoutModule  -->
<g id="edge26" class="edge">
<title>LayoutModule&#45;&gt;ThinLayoutModule </title>
<path fill="none" stroke="black" stroke-dasharray="5,2" d="M979.2,-172C799.2,-172 192.88,-172 192.88,-172 192.88,-172 192.88,-205.73 192.88,-205.73"/>
<polygon fill="black" stroke="black" points="189.38,-205.73 192.88,-215.73 196.38,-205.73 189.38,-205.73"/>
</g>
<!-- CenteredLayoutModule -->
<g id="node3" class="node">
<title>CenteredLayoutModule</title>
<polygon fill="#8dd3c7" stroke="black" points="2159.74,-122 2156.74,-126 2135.74,-126 2132.74,-122 2010.26,-122 2010.26,-86 2159.74,-86 2159.74,-122"/>
<text text-anchor="middle" x="2085" y="-99.8" font-family="Times,serif" font-size="14.00">CenteredLayoutModule</text>
</g>
<!-- CenteredLayoutModule&#45;&gt;LayoutModule -->
<g id="edge2" class="edge">
<title>CenteredLayoutModule&#45;&gt;LayoutModule</title>
<path fill="none" stroke="black" d="M2015.38,-122.11C2015.38,-141.34 2015.38,-169 2015.38,-169 2015.38,-169 1088.93,-169 1088.93,-169"/>
<polygon fill="black" stroke="black" points="1088.93,-165.5 1078.93,-169 1088.93,-172.5 1088.93,-165.5"/>
</g>
<!-- ClassicLayoutModule -->
<g id="node4" class="node">
<title>ClassicLayoutModule</title>
<polygon fill="#8dd3c7" stroke="black" points="1991.64,-122 1988.64,-126 1967.64,-126 1964.64,-122 1852.36,-122 1852.36,-86 1991.64,-86 1991.64,-122"/>
<text text-anchor="middle" x="1922" y="-99.8" font-family="Times,serif" font-size="14.00">ClassicLayoutModule</text>
</g>
<!-- ClassicLayoutModule&#45;&gt;LayoutModule -->
<g id="edge3" class="edge">
<title>ClassicLayoutModule&#45;&gt;LayoutModule</title>
<path fill="none" stroke="black" d="M1859.78,-122.27C1859.78,-140.56 1859.78,-166 1859.78,-166 1859.78,-166 1088.79,-166 1088.79,-166"/>
<polygon fill="black" stroke="black" points="1088.79,-162.5 1078.79,-166 1088.79,-169.5 1088.79,-162.5"/>
</g>
<!-- ClassyLayoutModule -->
<g id="node5" class="node">
<title>ClassyLayoutModule</title>
<polygon fill="#8dd3c7" stroke="black" points="1834.04,-122 1831.04,-126 1810.04,-126 1807.04,-122 1697.96,-122 1697.96,-86 1834.04,-86 1834.04,-122"/>
<text text-anchor="middle" x="1766" y="-99.8" font-family="Times,serif" font-size="14.00">ClassyLayoutModule</text>
</g>
<!-- ClassyLayoutModule&#45;&gt;LayoutModule -->
<g id="edge4" class="edge">
<title>ClassyLayoutModule&#45;&gt;LayoutModule</title>
<path fill="none" stroke="black" d="M1702.08,-122.02C1702.08,-139.37 1702.08,-163 1702.08,-163 1702.08,-163 1088.77,-163 1088.77,-163"/>
<polygon fill="black" stroke="black" points="1088.77,-159.5 1078.77,-163 1088.77,-166.5 1088.77,-159.5"/>
</g>
<!-- CompactLayoutModule -->
<g id="node6" class="node">
<title>CompactLayoutModule</title>
<polygon fill="#8dd3c7" stroke="black" points="1679.75,-122 1676.75,-126 1655.75,-126 1652.75,-122 1530.25,-122 1530.25,-86 1679.75,-86 1679.75,-122"/>
<text text-anchor="middle" x="1605" y="-99.8" font-family="Times,serif" font-size="14.00">CompactLayoutModule</text>
</g>
<!-- CompactLayoutModule&#45;&gt;LayoutModule -->
<g id="edge5" class="edge">
<title>CompactLayoutModule&#45;&gt;LayoutModule</title>
<path fill="none" stroke="black" d="M1539.05,-122.03C1539.05,-138.4 1539.05,-160 1539.05,-160 1539.05,-160 1088.83,-160 1088.83,-160"/>
<polygon fill="black" stroke="black" points="1088.83,-156.5 1078.83,-160 1088.83,-163.5 1088.83,-156.5"/>
</g>
<!-- DenseLayoutModule -->
<g id="node7" class="node">
<title>DenseLayoutModule</title>
<polygon fill="#8dd3c7" stroke="black" points="1512.19,-122 1509.19,-126 1488.19,-126 1485.19,-122 1377.81,-122 1377.81,-86 1512.19,-86 1512.19,-122"/>
<text text-anchor="middle" x="1445" y="-99.8" font-family="Times,serif" font-size="14.00">DenseLayoutModule</text>
</g>
<!-- DenseLayoutModule&#45;&gt;LayoutModule -->
<g id="edge6" class="edge">
<title>DenseLayoutModule&#45;&gt;LayoutModule</title>
<path fill="none" stroke="black" d="M1467.36,-122.24C1467.36,-137.57 1467.36,-157 1467.36,-157 1467.36,-157 1088.86,-157 1088.86,-157"/>
<polygon fill="black" stroke="black" points="1088.86,-153.5 1078.86,-157 1088.86,-160.5 1088.86,-153.5"/>
</g>
<!-- EmptyLayoutModule -->
<g id="node8" class="node">
<title>EmptyLayoutModule</title>
<polygon fill="#8dd3c7" stroke="black" points="1360.04,-122 1357.04,-126 1336.04,-126 1333.04,-122 1223.96,-122 1223.96,-86 1360.04,-86 1360.04,-122"/>
<text text-anchor="middle" x="1292" y="-99.8" font-family="Times,serif" font-size="14.00">EmptyLayoutModule</text>
</g>
<!-- EmptyLayoutModule&#45;&gt;LayoutModule -->
<g id="edge7" class="edge">
<title>EmptyLayoutModule&#45;&gt;LayoutModule</title>
<path fill="none" stroke="black" d="M1268.77,-122.05C1268.77,-136.37 1268.77,-154 1268.77,-154 1268.77,-154 1088.68,-154 1088.68,-154"/>
<polygon fill="black" stroke="black" points="1088.68,-150.5 1078.68,-154 1088.68,-157.5 1088.68,-150.5"/>
</g>
<!-- EnterpriseLayoutModule -->
<g id="node9" class="node">
<title>EnterpriseLayoutModule</title>
<polygon fill="#8dd3c7" stroke="black" points="1205.24,-122 1202.24,-126 1181.24,-126 1178.24,-122 1048.76,-122 1048.76,-86 1205.24,-86 1205.24,-122"/>
<text text-anchor="middle" x="1127" y="-99.8" font-family="Times,serif" font-size="14.00">EnterpriseLayoutModule</text>
</g>
<!-- EnterpriseLayoutModule&#45;&gt;LayoutModule -->
<g id="edge8" class="edge">
<title>EnterpriseLayoutModule&#45;&gt;LayoutModule</title>
<path fill="none" stroke="black" d="M1063.62,-122.11C1063.62,-122.11 1063.62,-140.99 1063.62,-140.99"/>
<polygon fill="black" stroke="black" points="1060.12,-140.99 1063.62,-150.99 1067.12,-140.99 1060.12,-140.99"/>
</g>
<!-- FuturisticLayoutModule -->
<g id="node10" class="node">
<title>FuturisticLayoutModule</title>
<polygon fill="#8dd3c7" stroke="black" points="1030.37,-122 1027.37,-126 1006.37,-126 1003.37,-122 877.63,-122 877.63,-86 1030.37,-86 1030.37,-122"/>
<text text-anchor="middle" x="954" y="-99.8" font-family="Times,serif" font-size="14.00">FuturisticLayoutModule</text>
</g>
<!-- FuturisticLayoutModule&#45;&gt;LayoutModule -->
<g id="edge9" class="edge">
<title>FuturisticLayoutModule&#45;&gt;LayoutModule</title>
<path fill="none" stroke="black" d="M1004.92,-122.11C1004.92,-122.11 1004.92,-140.99 1004.92,-140.99"/>
<polygon fill="black" stroke="black" points="1001.42,-140.99 1004.92,-150.99 1008.42,-140.99 1001.42,-140.99"/>
</g>
<!-- MaterialLayoutModule -->
<g id="node11" class="node">
<title>MaterialLayoutModule</title>
<polygon fill="#8dd3c7" stroke="black" points="859.13,-122 856.13,-126 835.13,-126 832.13,-122 712.87,-122 712.87,-86 859.13,-86 859.13,-122"/>
<text text-anchor="middle" x="786" y="-99.8" font-family="Times,serif" font-size="14.00">MaterialLayoutModule</text>
</g>
<!-- MaterialLayoutModule&#45;&gt;LayoutModule -->
<g id="edge10" class="edge">
<title>MaterialLayoutModule&#45;&gt;LayoutModule</title>
<path fill="none" stroke="black" d="M786,-122.05C786,-136.37 786,-154 786,-154 786,-154 969.24,-154 969.24,-154"/>
<polygon fill="black" stroke="black" points="969.24,-157.5 979.24,-154 969.24,-150.5 969.24,-157.5"/>
</g>
<!-- ModernLayoutModule -->
<g id="node12" class="node">
<title>ModernLayoutModule</title>
<polygon fill="#8dd3c7" stroke="black" points="694.53,-122 691.53,-126 670.53,-126 667.53,-122 551.47,-122 551.47,-86 694.53,-86 694.53,-122"/>
<text text-anchor="middle" x="623" y="-99.8" font-family="Times,serif" font-size="14.00">ModernLayoutModule</text>
</g>
<!-- ModernLayoutModule&#45;&gt;LayoutModule -->
<g id="edge11" class="edge">
<title>ModernLayoutModule&#45;&gt;LayoutModule</title>
<path fill="none" stroke="black" d="M610.25,-122.24C610.25,-137.57 610.25,-157 610.25,-157 610.25,-157 969.32,-157 969.32,-157"/>
<polygon fill="black" stroke="black" points="969.32,-160.5 979.32,-157 969.32,-153.5 969.32,-160.5"/>
</g>
<!-- SettingsModule -->
<g id="node13" class="node">
<title>SettingsModule</title>
<polygon fill="#8dd3c7" stroke="black" points="533.16,-122 530.16,-126 509.16,-126 506.16,-122 428.84,-122 428.84,-86 533.16,-86 533.16,-122"/>
<text text-anchor="middle" x="481" y="-99.8" font-family="Times,serif" font-size="14.00">SettingsModule</text>
</g>
<!-- SettingsModule&#45;&gt;LayoutModule -->
<g id="edge12" class="edge">
<title>SettingsModule&#45;&gt;LayoutModule</title>
<path fill="none" stroke="black" d="M481,-122.03C481,-138.4 481,-160 481,-160 481,-160 968.92,-160 968.92,-160"/>
<polygon fill="black" stroke="black" points="968.92,-163.5 978.92,-160 968.92,-156.5 968.92,-163.5"/>
</g>
<!-- SharedModule -->
<g id="node14" class="node">
<title>SharedModule</title>
<polygon fill="#8dd3c7" stroke="black" points="410.42,-122 407.42,-126 386.42,-126 383.42,-122 311.58,-122 311.58,-86 410.42,-86 410.42,-122"/>
<text text-anchor="middle" x="361" y="-99.8" font-family="Times,serif" font-size="14.00">SharedModule</text>
</g>
<!-- SharedModule&#45;&gt;LayoutModule -->
<g id="edge13" class="edge">
<title>SharedModule&#45;&gt;LayoutModule</title>
<path fill="none" stroke="black" d="M405.57,-122.02C405.57,-139.37 405.57,-163 405.57,-163 405.57,-163 969.3,-163 969.3,-163"/>
<polygon fill="black" stroke="black" points="969.3,-166.5 979.3,-163 969.3,-159.5 969.3,-166.5"/>
</g>
<!-- ThinLayoutModule -->
<g id="node15" class="node">
<title>ThinLayoutModule</title>
<polygon fill="#8dd3c7" stroke="black" points="293.65,-122 290.65,-126 269.65,-126 266.65,-122 168.35,-122 168.35,-86 293.65,-86 293.65,-122"/>
<text text-anchor="middle" x="231" y="-99.8" font-family="Times,serif" font-size="14.00">ThinLayoutModule</text>
</g>
<!-- ThinLayoutModule&#45;&gt;LayoutModule -->
<g id="edge14" class="edge">
<title>ThinLayoutModule&#45;&gt;LayoutModule</title>
<path fill="none" stroke="black" d="M264.66,-122.27C264.66,-140.56 264.66,-166 264.66,-166 264.66,-166 969.14,-166 969.14,-166"/>
<polygon fill="black" stroke="black" points="969.14,-169.5 979.14,-166 969.14,-162.5 969.14,-169.5"/>
</g>
</g>
</svg>
