<?xml version="1.0" encoding="UTF-8" standalone="no"?>
<!DOCTYPE svg PUBLIC "-//W3C//DTD SVG 1.1//EN"
 "http://www.w3.org/Graphics/SVG/1.1/DTD/svg11.dtd">
<!-- Generated by graphviz version 2.47.0 (20210316.0004)
 -->
<!-- Title: dependencies Pages: 1 -->
<svg width="504pt" height="211pt"
 viewBox="0.00 0.00 504.00 211.00" xmlns="http://www.w3.org/2000/svg" xmlns:xlink="http://www.w3.org/1999/xlink">
<g id="graph0" class="graph" transform="scale(1 1) rotate(0) translate(4 207)">
<title>dependencies</title>
<polygon fill="white" stroke="transparent" points="-4,4 -4,-207 500,-207 500,4 -4,4"/>
<text text-anchor="start" x="227.01" y="-42.4" font-family="Times-12" font-weight="bold" font-size="14.00">Legend</text>
<polygon fill="#ffffb3" stroke="transparent" points="14,-10 14,-30 34,-30 34,-10 14,-10"/>
<text text-anchor="start" x="37.63" y="-15.4" font-family="Times-12" font-size="14.00"> &#160;Declarations</text>
<polygon fill="#8dd3c7" stroke="transparent" points="127,-10 127,-30 147,-30 147,-10 127,-10"/>
<text text-anchor="start" x="150.73" y="-15.4" font-family="Times-12" font-size="14.00"> &#160;Module</text>
<polygon fill="#80b1d3" stroke="transparent" points="213,-10 213,-30 233,-30 233,-10 213,-10"/>
<text text-anchor="start" x="236.78" y="-15.4" font-family="Times-12" font-size="14.00"> &#160;Bootstrap</text>
<polygon fill="#fdb462" stroke="transparent" points="310,-10 310,-30 330,-30 330,-10 310,-10"/>
<text text-anchor="start" x="333.67" y="-15.4" font-family="Times-12" font-size="14.00"> &#160;Providers</text>
<polygon fill="#fb8072" stroke="transparent" points="406,-10 406,-30 426,-30 426,-10 406,-10"/>
<text text-anchor="start" x="429.73" y="-15.4" font-family="Times-12" font-size="14.00"> &#160;Exports</text>
<g id="clust1" class="cluster">
<title>cluster_PricingTableModule</title>
<polygon fill="none" stroke="black" stroke-dasharray="1,5" points="28,-70 28,-195 468,-195 468,-70 28,-70"/>
</g>
<g id="clust2" class="cluster">
<title>cluster_PricingTableModule_declarations</title>
<polygon fill="none" stroke="black" points="290,-78 290,-130 460,-130 460,-78 290,-78"/>
</g>
<g id="clust4" class="cluster">
<title>cluster_PricingTableModule_imports</title>
<polygon fill="none" stroke="black" points="36,-78 36,-130 282,-130 282,-78 36,-78"/>
</g>
<!-- PricingTableComponent -->
<g id="node1" class="node">
<title>PricingTableComponent</title>
<polygon fill="#ffffb3" stroke="black" points="451.64,-122 298.36,-122 298.36,-86 451.64,-86 451.64,-122"/>
<text text-anchor="middle" x="375" y="-99.8" font-family="Times,serif" font-size="14.00">PricingTableComponent</text>
</g>
<!-- PricingTableModule -->
<g id="node2" class="node">
<title>PricingTableModule</title>
<polygon fill="#8dd3c7" stroke="black" points="282.86,-187 279.86,-191 258.86,-191 255.86,-187 151.14,-187 151.14,-151 282.86,-151 282.86,-187"/>
<text text-anchor="middle" x="217" y="-164.8" font-family="Times,serif" font-size="14.00">PricingTableModule</text>
</g>
<!-- PricingTableComponent&#45;&gt;PricingTableModule -->
<g id="edge1" class="edge">
<title>PricingTableComponent&#45;&gt;PricingTableModule</title>
<path fill="none" stroke="black" d="M298.31,-104C286.57,-104 278.27,-104 278.27,-104 278.27,-104 278.27,-140.89 278.27,-140.89"/>
<polygon fill="black" stroke="black" points="274.77,-140.89 278.27,-150.89 281.77,-140.89 274.77,-140.89"/>
</g>
<!-- FuseCardModule -->
<g id="node3" class="node">
<title>FuseCardModule</title>
<polygon fill="#8dd3c7" stroke="black" points="273.7,-122 270.7,-126 249.7,-126 246.7,-122 160.3,-122 160.3,-86 273.7,-86 273.7,-122"/>
<text text-anchor="middle" x="217" y="-99.8" font-family="Times,serif" font-size="14.00">FuseCardModule</text>
</g>
<!-- FuseCardModule&#45;&gt;PricingTableModule -->
<g id="edge2" class="edge">
<title>FuseCardModule&#45;&gt;PricingTableModule</title>
<path fill="none" stroke="black" d="M217,-122.11C217,-122.11 217,-140.99 217,-140.99"/>
<polygon fill="black" stroke="black" points="213.5,-140.99 217,-150.99 220.5,-140.99 213.5,-140.99"/>
</g>
<!-- SharedModule -->
<g id="node4" class="node">
<title>SharedModule</title>
<polygon fill="#8dd3c7" stroke="black" points="142.42,-122 139.42,-126 118.42,-126 115.42,-122 43.58,-122 43.58,-86 142.42,-86 142.42,-122"/>
<text text-anchor="middle" x="93" y="-99.8" font-family="Times,serif" font-size="14.00">SharedModule</text>
</g>
<!-- SharedModule&#45;&gt;PricingTableModule -->
<g id="edge3" class="edge">
<title>SharedModule&#45;&gt;PricingTableModule</title>
<path fill="none" stroke="black" d="M142.43,-104C150.2,-104 155.73,-104 155.73,-104 155.73,-104 155.73,-140.89 155.73,-140.89"/>
<polygon fill="black" stroke="black" points="152.23,-140.89 155.73,-150.89 159.23,-140.89 152.23,-140.89"/>
</g>
</g>
</svg>
