<?xml version="1.0" encoding="UTF-8" standalone="no"?>
<!DOCTYPE svg PUBLIC "-//W3C//DTD SVG 1.1//EN"
 "http://www.w3.org/Graphics/SVG/1.1/DTD/svg11.dtd">
<!-- Generated by graphviz version 2.47.0 (20210316.0004)
 -->
<!-- Title: dependencies Pages: 1 -->
<svg width="1620pt" height="284pt"
 viewBox="0.00 0.00 1620.00 284.00" xmlns="http://www.w3.org/2000/svg" xmlns:xlink="http://www.w3.org/1999/xlink">
<g id="graph0" class="graph" transform="scale(1 1) rotate(0) translate(4 280)">
<title>dependencies</title>
<polygon fill="white" stroke="transparent" points="-4,4 -4,-280 1616,-280 1616,4 -4,4"/>
<text text-anchor="start" x="785.01" y="-42.4" font-family="Times-12" font-weight="bold" font-size="14.00">Legend</text>
<polygon fill="#ffffb3" stroke="transparent" points="572,-10 572,-30 592,-30 592,-10 572,-10"/>
<text text-anchor="start" x="595.63" y="-15.4" font-family="Times-12" font-size="14.00"> &#160;Declarations</text>
<polygon fill="#8dd3c7" stroke="transparent" points="685,-10 685,-30 705,-30 705,-10 685,-10"/>
<text text-anchor="start" x="708.73" y="-15.4" font-family="Times-12" font-size="14.00"> &#160;Module</text>
<polygon fill="#80b1d3" stroke="transparent" points="771,-10 771,-30 791,-30 791,-10 771,-10"/>
<text text-anchor="start" x="794.78" y="-15.4" font-family="Times-12" font-size="14.00"> &#160;Bootstrap</text>
<polygon fill="#fdb462" stroke="transparent" points="868,-10 868,-30 888,-30 888,-10 868,-10"/>
<text text-anchor="start" x="891.67" y="-15.4" font-family="Times-12" font-size="14.00"> &#160;Providers</text>
<polygon fill="#fb8072" stroke="transparent" points="964,-10 964,-30 984,-30 984,-10 964,-10"/>
<text text-anchor="start" x="987.73" y="-15.4" font-family="Times-12" font-size="14.00"> &#160;Exports</text>
<g id="clust1" class="cluster">
<title>cluster_CenteredLayoutModule</title>
<polygon fill="none" stroke="black" stroke-dasharray="1,5" points="8,-70 8,-268 1604,-268 1604,-70 8,-70"/>
</g>
<g id="clust5" class="cluster">
<title>cluster_CenteredLayoutModule_exports</title>
<polygon fill="none" stroke="black" points="656,-208 656,-260 848,-260 848,-208 656,-208"/>
</g>
<g id="clust4" class="cluster">
<title>cluster_CenteredLayoutModule_imports</title>
<polygon fill="none" stroke="black" points="212,-78 212,-130 1596,-130 1596,-78 212,-78"/>
</g>
<g id="clust2" class="cluster">
<title>cluster_CenteredLayoutModule_declarations</title>
<polygon fill="none" stroke="black" points="16,-78 16,-130 204,-130 204,-78 16,-78"/>
</g>
<!-- CenteredLayoutComponent -->
<g id="node1" class="node">
<title>CenteredLayoutComponent</title>
<polygon fill="#ffffb3" stroke="black" points="195.52,-122 24.48,-122 24.48,-86 195.52,-86 195.52,-122"/>
<text text-anchor="middle" x="110" y="-99.8" font-family="Times,serif" font-size="14.00">CenteredLayoutComponent</text>
</g>
<!-- CenteredLayoutModule -->
<g id="node2" class="node">
<title>CenteredLayoutModule</title>
<polygon fill="#8dd3c7" stroke="black" points="826.74,-187 823.74,-191 802.74,-191 799.74,-187 677.26,-187 677.26,-151 826.74,-151 826.74,-187"/>
<text text-anchor="middle" x="752" y="-164.8" font-family="Times,serif" font-size="14.00">CenteredLayoutModule</text>
</g>
<!-- CenteredLayoutComponent&#45;&gt;CenteredLayoutModule -->
<g id="edge1" class="edge">
<title>CenteredLayoutComponent&#45;&gt;CenteredLayoutModule</title>
<path fill="none" stroke="black" d="M110,-122.01C110,-144.49 110,-180 110,-180 110,-180 667.1,-180 667.1,-180"/>
<polygon fill="black" stroke="black" points="667.1,-183.5 677.1,-180 667.1,-176.5 667.1,-183.5"/>
</g>
<!-- CenteredLayoutComponent  -->
<g id="node13" class="node">
<title>CenteredLayoutComponent </title>
<polygon fill="#fb8072" stroke="black" points="839.52,-252 664.48,-252 664.48,-216 839.52,-216 839.52,-252"/>
<text text-anchor="middle" x="752" y="-229.8" font-family="Times,serif" font-size="14.00">CenteredLayoutComponent </text>
</g>
<!-- CenteredLayoutModule&#45;&gt;CenteredLayoutComponent  -->
<g id="edge12" class="edge">
<title>CenteredLayoutModule&#45;&gt;CenteredLayoutComponent </title>
<path fill="none" stroke="black" stroke-dasharray="5,2" d="M752,-187.11C752,-187.11 752,-205.99 752,-205.99"/>
<polygon fill="black" stroke="black" points="748.5,-205.99 752,-215.99 755.5,-205.99 748.5,-205.99"/>
</g>
<!-- FuseFullscreenModule -->
<g id="node3" class="node">
<title>FuseFullscreenModule</title>
<polygon fill="#8dd3c7" stroke="black" points="1588.3,-122 1585.3,-126 1564.3,-126 1561.3,-122 1443.7,-122 1443.7,-86 1588.3,-86 1588.3,-122"/>
<text text-anchor="middle" x="1516" y="-99.8" font-family="Times,serif" font-size="14.00">FuseFullscreenModule</text>
</g>
<!-- FuseFullscreenModule&#45;&gt;CenteredLayoutModule -->
<g id="edge2" class="edge">
<title>FuseFullscreenModule&#45;&gt;CenteredLayoutModule</title>
<path fill="none" stroke="black" d="M1516,-122.01C1516,-144.49 1516,-180 1516,-180 1516,-180 837,-180 837,-180"/>
<polygon fill="black" stroke="black" points="837,-176.5 827,-180 837,-183.5 837,-176.5"/>
</g>
<!-- FuseLoadingBarModule -->
<g id="node4" class="node">
<title>FuseLoadingBarModule</title>
<polygon fill="#8dd3c7" stroke="black" points="1425.36,-122 1422.36,-126 1401.36,-126 1398.36,-122 1272.64,-122 1272.64,-86 1425.36,-86 1425.36,-122"/>
<text text-anchor="middle" x="1349" y="-99.8" font-family="Times,serif" font-size="14.00">FuseLoadingBarModule</text>
</g>
<!-- FuseLoadingBarModule&#45;&gt;CenteredLayoutModule -->
<g id="edge3" class="edge">
<title>FuseLoadingBarModule&#45;&gt;CenteredLayoutModule</title>
<path fill="none" stroke="black" d="M1349,-122.13C1349,-142.57 1349,-173 1349,-173 1349,-173 837.01,-173 837.01,-173"/>
<polygon fill="black" stroke="black" points="837.01,-169.5 827.01,-173 837.01,-176.5 837.01,-169.5"/>
</g>
<!-- FuseNavigationModule -->
<g id="node5" class="node">
<title>FuseNavigationModule</title>
<polygon fill="#8dd3c7" stroke="black" points="1254.2,-122 1251.2,-126 1230.2,-126 1227.2,-122 1105.8,-122 1105.8,-86 1254.2,-86 1254.2,-122"/>
<text text-anchor="middle" x="1180" y="-99.8" font-family="Times,serif" font-size="14.00">FuseNavigationModule</text>
</g>
<!-- FuseNavigationModule&#45;&gt;CenteredLayoutModule -->
<g id="edge4" class="edge">
<title>FuseNavigationModule&#45;&gt;CenteredLayoutModule</title>
<path fill="none" stroke="black" d="M1180,-122.27C1180,-140.56 1180,-166 1180,-166 1180,-166 837.04,-166 837.04,-166"/>
<polygon fill="black" stroke="black" points="837.04,-162.5 827.04,-166 837.04,-169.5 837.04,-162.5"/>
</g>
<!-- LanguagesModule -->
<g id="node6" class="node">
<title>LanguagesModule</title>
<polygon fill="#8dd3c7" stroke="black" points="1088.19,-122 1085.19,-126 1064.19,-126 1061.19,-122 967.81,-122 967.81,-86 1088.19,-86 1088.19,-122"/>
<text text-anchor="middle" x="1028" y="-99.8" font-family="Times,serif" font-size="14.00">LanguagesModule</text>
</g>
<!-- LanguagesModule&#45;&gt;CenteredLayoutModule -->
<g id="edge5" class="edge">
<title>LanguagesModule&#45;&gt;CenteredLayoutModule</title>
<path fill="none" stroke="black" d="M1028,-122.01C1028,-138.05 1028,-159 1028,-159 1028,-159 837.05,-159 837.05,-159"/>
<polygon fill="black" stroke="black" points="837.05,-155.5 827.05,-159 837.05,-162.5 837.05,-155.5"/>
</g>
<!-- MessagesModule -->
<g id="node7" class="node">
<title>MessagesModule</title>
<polygon fill="#8dd3c7" stroke="black" points="949.97,-122 946.97,-126 925.97,-126 922.97,-122 836.03,-122 836.03,-86 949.97,-86 949.97,-122"/>
<text text-anchor="middle" x="893" y="-99.8" font-family="Times,serif" font-size="14.00">MessagesModule</text>
</g>
<!-- MessagesModule&#45;&gt;CenteredLayoutModule -->
<g id="edge6" class="edge">
<title>MessagesModule&#45;&gt;CenteredLayoutModule</title>
<path fill="none" stroke="black" d="M835.84,-104C828.01,-104 822.6,-104 822.6,-104 822.6,-104 822.6,-140.89 822.6,-140.89"/>
<polygon fill="black" stroke="black" points="819.1,-140.89 822.6,-150.89 826.1,-140.89 819.1,-140.89"/>
</g>
<!-- NotificationsModule -->
<g id="node8" class="node">
<title>NotificationsModule</title>
<polygon fill="#8dd3c7" stroke="black" points="818.14,-122 815.14,-126 794.14,-126 791.14,-122 685.86,-122 685.86,-86 818.14,-86 818.14,-122"/>
<text text-anchor="middle" x="752" y="-99.8" font-family="Times,serif" font-size="14.00">NotificationsModule</text>
</g>
<!-- NotificationsModule&#45;&gt;CenteredLayoutModule -->
<g id="edge7" class="edge">
<title>NotificationsModule&#45;&gt;CenteredLayoutModule</title>
<path fill="none" stroke="black" d="M752,-122.11C752,-122.11 752,-140.99 752,-140.99"/>
<polygon fill="black" stroke="black" points="748.5,-140.99 752,-150.99 755.5,-140.99 748.5,-140.99"/>
</g>
<!-- SearchModule -->
<g id="node9" class="node">
<title>SearchModule</title>
<polygon fill="#8dd3c7" stroke="black" points="667.64,-122 664.64,-126 643.64,-126 640.64,-122 570.36,-122 570.36,-86 667.64,-86 667.64,-122"/>
<text text-anchor="middle" x="619" y="-99.8" font-family="Times,serif" font-size="14.00">SearchModule</text>
</g>
<!-- SearchModule&#45;&gt;CenteredLayoutModule -->
<g id="edge8" class="edge">
<title>SearchModule&#45;&gt;CenteredLayoutModule</title>
<path fill="none" stroke="black" d="M667.86,-104C675.76,-104 681.4,-104 681.4,-104 681.4,-104 681.4,-140.89 681.4,-140.89"/>
<polygon fill="black" stroke="black" points="677.9,-140.89 681.4,-150.89 684.9,-140.89 677.9,-140.89"/>
</g>
<!-- SharedModule -->
<g id="node10" class="node">
<title>SharedModule</title>
<polygon fill="#8dd3c7" stroke="black" points="552.42,-122 549.42,-126 528.42,-126 525.42,-122 453.58,-122 453.58,-86 552.42,-86 552.42,-122"/>
<text text-anchor="middle" x="503" y="-99.8" font-family="Times,serif" font-size="14.00">SharedModule</text>
</g>
<!-- SharedModule&#45;&gt;CenteredLayoutModule -->
<g id="edge9" class="edge">
<title>SharedModule&#45;&gt;CenteredLayoutModule</title>
<path fill="none" stroke="black" d="M503,-122.01C503,-138.05 503,-159 503,-159 503,-159 666.95,-159 666.95,-159"/>
<polygon fill="black" stroke="black" points="666.95,-162.5 676.95,-159 666.95,-155.5 666.95,-162.5"/>
</g>
<!-- ShortcutsModule -->
<g id="node11" class="node">
<title>ShortcutsModule</title>
<polygon fill="#8dd3c7" stroke="black" points="436.43,-122 433.43,-126 412.43,-126 409.43,-122 323.57,-122 323.57,-86 436.43,-86 436.43,-122"/>
<text text-anchor="middle" x="380" y="-99.8" font-family="Times,serif" font-size="14.00">ShortcutsModule</text>
</g>
<!-- ShortcutsModule&#45;&gt;CenteredLayoutModule -->
<g id="edge10" class="edge">
<title>ShortcutsModule&#45;&gt;CenteredLayoutModule</title>
<path fill="none" stroke="black" d="M380,-122.27C380,-140.56 380,-166 380,-166 380,-166 667.17,-166 667.17,-166"/>
<polygon fill="black" stroke="black" points="667.17,-169.5 677.17,-166 667.17,-162.5 667.17,-169.5"/>
</g>
<!-- UserModule -->
<g id="node12" class="node">
<title>UserModule</title>
<polygon fill="#8dd3c7" stroke="black" points="305.98,-122 302.98,-126 281.98,-126 278.98,-122 220.02,-122 220.02,-86 305.98,-86 305.98,-122"/>
<text text-anchor="middle" x="263" y="-99.8" font-family="Times,serif" font-size="14.00">UserModule</text>
</g>
<!-- UserModule&#45;&gt;CenteredLayoutModule -->
<g id="edge11" class="edge">
<title>UserModule&#45;&gt;CenteredLayoutModule</title>
<path fill="none" stroke="black" d="M263,-122.13C263,-142.57 263,-173 263,-173 263,-173 667.2,-173 667.2,-173"/>
<polygon fill="black" stroke="black" points="667.2,-176.5 677.2,-173 667.2,-169.5 667.2,-176.5"/>
</g>
</g>
</svg>
