<?xml version="1.0" encoding="UTF-8" standalone="no"?>
<!DOCTYPE svg PUBLIC "-//W3C//DTD SVG 1.1//EN"
 "http://www.w3.org/Graphics/SVG/1.1/DTD/svg11.dtd">
<!-- Generated by graphviz version 2.47.0 (20210316.0004)
 -->
<!-- Title: dependencies Pages: 1 -->
<svg width="504pt" height="211pt"
 viewBox="0.00 0.00 504.00 211.00" xmlns="http://www.w3.org/2000/svg" xmlns:xlink="http://www.w3.org/1999/xlink">
<g id="graph0" class="graph" transform="scale(1 1) rotate(0) translate(4 207)">
<title>dependencies</title>
<polygon fill="white" stroke="transparent" points="-4,4 -4,-207 500,-207 500,4 -4,4"/>
<text text-anchor="start" x="227.01" y="-42.4" font-family="Times-12" font-weight="bold" font-size="14.00">Legend</text>
<polygon fill="#ffffb3" stroke="transparent" points="14,-10 14,-30 34,-30 34,-10 14,-10"/>
<text text-anchor="start" x="37.63" y="-15.4" font-family="Times-12" font-size="14.00"> &#160;Declarations</text>
<polygon fill="#8dd3c7" stroke="transparent" points="127,-10 127,-30 147,-30 147,-10 127,-10"/>
<text text-anchor="start" x="150.73" y="-15.4" font-family="Times-12" font-size="14.00"> &#160;Module</text>
<polygon fill="#80b1d3" stroke="transparent" points="213,-10 213,-30 233,-30 233,-10 213,-10"/>
<text text-anchor="start" x="236.78" y="-15.4" font-family="Times-12" font-size="14.00"> &#160;Bootstrap</text>
<polygon fill="#fdb462" stroke="transparent" points="310,-10 310,-30 330,-30 330,-10 310,-10"/>
<text text-anchor="start" x="333.67" y="-15.4" font-family="Times-12" font-size="14.00"> &#160;Providers</text>
<polygon fill="#fb8072" stroke="transparent" points="406,-10 406,-30 426,-30 426,-10 406,-10"/>
<text text-anchor="start" x="429.73" y="-15.4" font-family="Times-12" font-size="14.00"> &#160;Exports</text>
<g id="clust1" class="cluster">
<title>cluster_AuthSignOutModule</title>
<polygon fill="none" stroke="black" stroke-dasharray="1,5" points="27,-70 27,-195 469,-195 469,-70 27,-70"/>
</g>
<g id="clust2" class="cluster">
<title>cluster_AuthSignOutModule_declarations</title>
<polygon fill="none" stroke="black" points="289,-78 289,-130 461,-130 461,-78 289,-78"/>
</g>
<g id="clust4" class="cluster">
<title>cluster_AuthSignOutModule_imports</title>
<polygon fill="none" stroke="black" points="35,-78 35,-130 281,-130 281,-78 35,-78"/>
</g>
<!-- AuthSignOutComponent -->
<g id="node1" class="node">
<title>AuthSignOutComponent</title>
<polygon fill="#ffffb3" stroke="black" points="453,-122 297,-122 297,-86 453,-86 453,-122"/>
<text text-anchor="middle" x="375" y="-99.8" font-family="Times,serif" font-size="14.00">AuthSignOutComponent</text>
</g>
<!-- AuthSignOutModule -->
<g id="node2" class="node">
<title>AuthSignOutModule</title>
<polygon fill="#8dd3c7" stroke="black" points="283.22,-187 280.22,-191 259.22,-191 256.22,-187 148.78,-187 148.78,-151 283.22,-151 283.22,-187"/>
<text text-anchor="middle" x="216" y="-164.8" font-family="Times,serif" font-size="14.00">AuthSignOutModule</text>
</g>
<!-- AuthSignOutComponent&#45;&gt;AuthSignOutModule -->
<g id="edge1" class="edge">
<title>AuthSignOutComponent&#45;&gt;AuthSignOutModule</title>
<path fill="none" stroke="black" d="M296.59,-104C285.54,-104 277.86,-104 277.86,-104 277.86,-104 277.86,-140.89 277.86,-140.89"/>
<polygon fill="black" stroke="black" points="274.36,-140.89 277.86,-150.89 281.36,-140.89 274.36,-140.89"/>
</g>
<!-- FuseCardModule -->
<g id="node3" class="node">
<title>FuseCardModule</title>
<polygon fill="#8dd3c7" stroke="black" points="272.7,-122 269.7,-126 248.7,-126 245.7,-122 159.3,-122 159.3,-86 272.7,-86 272.7,-122"/>
<text text-anchor="middle" x="216" y="-99.8" font-family="Times,serif" font-size="14.00">FuseCardModule</text>
</g>
<!-- FuseCardModule&#45;&gt;AuthSignOutModule -->
<g id="edge2" class="edge">
<title>FuseCardModule&#45;&gt;AuthSignOutModule</title>
<path fill="none" stroke="black" d="M216,-122.11C216,-122.11 216,-140.99 216,-140.99"/>
<polygon fill="black" stroke="black" points="212.5,-140.99 216,-150.99 219.5,-140.99 212.5,-140.99"/>
</g>
<!-- SharedModule -->
<g id="node4" class="node">
<title>SharedModule</title>
<polygon fill="#8dd3c7" stroke="black" points="141.42,-122 138.42,-126 117.42,-126 114.42,-122 42.58,-122 42.58,-86 141.42,-86 141.42,-122"/>
<text text-anchor="middle" x="92" y="-99.8" font-family="Times,serif" font-size="14.00">SharedModule</text>
</g>
<!-- SharedModule&#45;&gt;AuthSignOutModule -->
<g id="edge3" class="edge">
<title>SharedModule&#45;&gt;AuthSignOutModule</title>
<path fill="none" stroke="black" d="M141.27,-104C148.81,-104 154.14,-104 154.14,-104 154.14,-104 154.14,-140.89 154.14,-140.89"/>
<polygon fill="black" stroke="black" points="150.64,-140.89 154.14,-150.89 157.64,-140.89 150.64,-140.89"/>
</g>
</g>
</svg>
