<?xml version="1.0" encoding="UTF-8" standalone="no"?>
<!DOCTYPE svg PUBLIC "-//W3C//DTD SVG 1.1//EN"
 "http://www.w3.org/Graphics/SVG/1.1/DTD/svg11.dtd">
<!-- Generated by graphviz version 2.47.0 (20210316.0004)
 -->
<!-- Title: dependencies Pages: 1 -->
<svg width="791pt" height="211pt"
 viewBox="0.00 0.00 791.00 211.00" xmlns="http://www.w3.org/2000/svg" xmlns:xlink="http://www.w3.org/1999/xlink">
<g id="graph0" class="graph" transform="scale(1 1) rotate(0) translate(4 207)">
<title>dependencies</title>
<polygon fill="white" stroke="transparent" points="-4,4 -4,-207 787,-207 787,4 -4,4"/>
<text text-anchor="start" x="370.51" y="-42.4" font-family="Times-12" font-weight="bold" font-size="14.00">Legend</text>
<polygon fill="#ffffb3" stroke="transparent" points="157.5,-10 157.5,-30 177.5,-30 177.5,-10 157.5,-10"/>
<text text-anchor="start" x="181.13" y="-15.4" font-family="Times-12" font-size="14.00"> &#160;Declarations</text>
<polygon fill="#8dd3c7" stroke="transparent" points="270.5,-10 270.5,-30 290.5,-30 290.5,-10 270.5,-10"/>
<text text-anchor="start" x="294.23" y="-15.4" font-family="Times-12" font-size="14.00"> &#160;Module</text>
<polygon fill="#80b1d3" stroke="transparent" points="356.5,-10 356.5,-30 376.5,-30 376.5,-10 356.5,-10"/>
<text text-anchor="start" x="380.28" y="-15.4" font-family="Times-12" font-size="14.00"> &#160;Bootstrap</text>
<polygon fill="#fdb462" stroke="transparent" points="453.5,-10 453.5,-30 473.5,-30 473.5,-10 453.5,-10"/>
<text text-anchor="start" x="477.17" y="-15.4" font-family="Times-12" font-size="14.00"> &#160;Providers</text>
<polygon fill="#fb8072" stroke="transparent" points="549.5,-10 549.5,-30 569.5,-30 569.5,-10 549.5,-10"/>
<text text-anchor="start" x="573.23" y="-15.4" font-family="Times-12" font-size="14.00"> &#160;Exports</text>
<g id="clust1" class="cluster">
<title>cluster_TransactionModule</title>
<polygon fill="none" stroke="black" stroke-dasharray="1,5" points="8,-70 8,-195 775,-195 775,-70 8,-70"/>
</g>
<g id="clust2" class="cluster">
<title>cluster_TransactionModule_declarations</title>
<polygon fill="none" stroke="black" points="138,-78 138,-130 767,-130 767,-78 138,-78"/>
</g>
<g id="clust6" class="cluster">
<title>cluster_TransactionModule_imports</title>
<polygon fill="none" stroke="black" points="16,-78 16,-130 130,-130 130,-78 16,-78"/>
</g>
<!-- NewTransactionFormComponent -->
<g id="node1" class="node">
<title>NewTransactionFormComponent</title>
<polygon fill="#ffffb3" stroke="black" points="759.18,-122 554.82,-122 554.82,-86 759.18,-86 759.18,-122"/>
<text text-anchor="middle" x="657" y="-99.8" font-family="Times,serif" font-size="14.00">NewTransactionFormComponent</text>
</g>
<!-- TransactionModule -->
<g id="node4" class="node">
<title>TransactionModule</title>
<polygon fill="#8dd3c7" stroke="black" points="423.63,-187 420.63,-191 399.63,-191 396.63,-187 298.37,-187 298.37,-151 423.63,-151 423.63,-187"/>
<text text-anchor="middle" x="361" y="-164.8" font-family="Times,serif" font-size="14.00">TransactionModule</text>
</g>
<!-- NewTransactionFormComponent&#45;&gt;TransactionModule -->
<g id="edge1" class="edge">
<title>NewTransactionFormComponent&#45;&gt;TransactionModule</title>
<path fill="none" stroke="black" d="M657,-122.11C657,-141.34 657,-169 657,-169 657,-169 433.77,-169 433.77,-169"/>
<polygon fill="black" stroke="black" points="433.77,-165.5 423.77,-169 433.77,-172.5 433.77,-165.5"/>
</g>
<!-- TransactionComponent -->
<g id="node2" class="node">
<title>TransactionComponent</title>
<polygon fill="#ffffb3" stroke="black" points="536.92,-122 389.08,-122 389.08,-86 536.92,-86 536.92,-122"/>
<text text-anchor="middle" x="463" y="-99.8" font-family="Times,serif" font-size="14.00">TransactionComponent</text>
</g>
<!-- TransactionComponent&#45;&gt;TransactionModule -->
<g id="edge2" class="edge">
<title>TransactionComponent&#45;&gt;TransactionModule</title>
<path fill="none" stroke="black" d="M406.55,-122.11C406.55,-122.11 406.55,-140.99 406.55,-140.99"/>
<polygon fill="black" stroke="black" points="403.05,-140.99 406.55,-150.99 410.05,-140.99 403.05,-140.99"/>
</g>
<!-- TransactionDetailsDialogComponent -->
<g id="node3" class="node">
<title>TransactionDetailsDialogComponent</title>
<polygon fill="#ffffb3" stroke="black" points="371.67,-122 146.33,-122 146.33,-86 371.67,-86 371.67,-122"/>
<text text-anchor="middle" x="259" y="-99.8" font-family="Times,serif" font-size="14.00">TransactionDetailsDialogComponent</text>
</g>
<!-- TransactionDetailsDialogComponent&#45;&gt;TransactionModule -->
<g id="edge3" class="edge">
<title>TransactionDetailsDialogComponent&#45;&gt;TransactionModule</title>
<path fill="none" stroke="black" d="M334.88,-122.11C334.88,-122.11 334.88,-140.99 334.88,-140.99"/>
<polygon fill="black" stroke="black" points="331.38,-140.99 334.88,-150.99 338.38,-140.99 331.38,-140.99"/>
</g>
<!-- SharedModule -->
<g id="node5" class="node">
<title>SharedModule</title>
<polygon fill="#8dd3c7" stroke="black" points="122.42,-122 119.42,-126 98.42,-126 95.42,-122 23.58,-122 23.58,-86 122.42,-86 122.42,-122"/>
<text text-anchor="middle" x="73" y="-99.8" font-family="Times,serif" font-size="14.00">SharedModule</text>
</g>
<!-- SharedModule&#45;&gt;TransactionModule -->
<g id="edge4" class="edge">
<title>SharedModule&#45;&gt;TransactionModule</title>
<path fill="none" stroke="black" d="M73,-122.11C73,-141.34 73,-169 73,-169 73,-169 288.15,-169 288.15,-169"/>
<polygon fill="black" stroke="black" points="288.15,-172.5 298.15,-169 288.15,-165.5 288.15,-172.5"/>
</g>
</g>
</svg>
