<?xml version="1.0" encoding="UTF-8" standalone="no"?>
<!DOCTYPE svg PUBLIC "-//W3C//DTD SVG 1.1//EN"
 "http://www.w3.org/Graphics/SVG/1.1/DTD/svg11.dtd">
<!-- Generated by graphviz version 2.47.0 (20210316.0004)
 -->
<!-- Title: dependencies Pages: 1 -->
<svg width="504pt" height="211pt"
 viewBox="0.00 0.00 504.00 211.00" xmlns="http://www.w3.org/2000/svg" xmlns:xlink="http://www.w3.org/1999/xlink">
<g id="graph0" class="graph" transform="scale(1 1) rotate(0) translate(4 207)">
<title>dependencies</title>
<polygon fill="white" stroke="transparent" points="-4,4 -4,-207 500,-207 500,4 -4,4"/>
<text text-anchor="start" x="227.01" y="-42.4" font-family="Times-12" font-weight="bold" font-size="14.00">Legend</text>
<polygon fill="#ffffb3" stroke="transparent" points="14,-10 14,-30 34,-30 34,-10 14,-10"/>
<text text-anchor="start" x="37.63" y="-15.4" font-family="Times-12" font-size="14.00"> &#160;Declarations</text>
<polygon fill="#8dd3c7" stroke="transparent" points="127,-10 127,-30 147,-30 147,-10 127,-10"/>
<text text-anchor="start" x="150.73" y="-15.4" font-family="Times-12" font-size="14.00"> &#160;Module</text>
<polygon fill="#80b1d3" stroke="transparent" points="213,-10 213,-30 233,-30 233,-10 213,-10"/>
<text text-anchor="start" x="236.78" y="-15.4" font-family="Times-12" font-size="14.00"> &#160;Bootstrap</text>
<polygon fill="#fdb462" stroke="transparent" points="310,-10 310,-30 330,-30 330,-10 310,-10"/>
<text text-anchor="start" x="333.67" y="-15.4" font-family="Times-12" font-size="14.00"> &#160;Providers</text>
<polygon fill="#fb8072" stroke="transparent" points="406,-10 406,-30 426,-30 426,-10 406,-10"/>
<text text-anchor="start" x="429.73" y="-15.4" font-family="Times-12" font-size="14.00"> &#160;Exports</text>
<g id="clust1" class="cluster">
<title>cluster_CardsModule</title>
<polygon fill="none" stroke="black" stroke-dasharray="1,5" points="48,-70 48,-195 448,-195 448,-70 48,-70"/>
</g>
<g id="clust2" class="cluster">
<title>cluster_CardsModule_declarations</title>
<polygon fill="none" stroke="black" points="310,-78 310,-130 440,-130 440,-78 310,-78"/>
</g>
<g id="clust4" class="cluster">
<title>cluster_CardsModule_imports</title>
<polygon fill="none" stroke="black" points="56,-78 56,-130 302,-130 302,-78 56,-78"/>
</g>
<!-- CardsComponent -->
<g id="node1" class="node">
<title>CardsComponent</title>
<polygon fill="#ffffb3" stroke="black" points="431.99,-122 318.01,-122 318.01,-86 431.99,-86 431.99,-122"/>
<text text-anchor="middle" x="375" y="-99.8" font-family="Times,serif" font-size="14.00">CardsComponent</text>
</g>
<!-- CardsModule -->
<g id="node2" class="node">
<title>CardsModule</title>
<polygon fill="#8dd3c7" stroke="black" points="283.21,-187 280.21,-191 259.21,-191 256.21,-187 190.79,-187 190.79,-151 283.21,-151 283.21,-187"/>
<text text-anchor="middle" x="237" y="-164.8" font-family="Times,serif" font-size="14.00">CardsModule</text>
</g>
<!-- CardsComponent&#45;&gt;CardsModule -->
<g id="edge1" class="edge">
<title>CardsComponent&#45;&gt;CardsModule</title>
<path fill="none" stroke="black" d="M375,-122.11C375,-141.34 375,-169 375,-169 375,-169 293.34,-169 293.34,-169"/>
<polygon fill="black" stroke="black" points="293.34,-165.5 283.34,-169 293.34,-172.5 293.34,-165.5"/>
</g>
<!-- FuseCardModule -->
<g id="node3" class="node">
<title>FuseCardModule</title>
<polygon fill="#8dd3c7" stroke="black" points="293.7,-122 290.7,-126 269.7,-126 266.7,-122 180.3,-122 180.3,-86 293.7,-86 293.7,-122"/>
<text text-anchor="middle" x="237" y="-99.8" font-family="Times,serif" font-size="14.00">FuseCardModule</text>
</g>
<!-- FuseCardModule&#45;&gt;CardsModule -->
<g id="edge2" class="edge">
<title>FuseCardModule&#45;&gt;CardsModule</title>
<path fill="none" stroke="black" d="M237,-122.11C237,-122.11 237,-140.99 237,-140.99"/>
<polygon fill="black" stroke="black" points="233.5,-140.99 237,-150.99 240.5,-140.99 233.5,-140.99"/>
</g>
<!-- SharedModule -->
<g id="node4" class="node">
<title>SharedModule</title>
<polygon fill="#8dd3c7" stroke="black" points="162.42,-122 159.42,-126 138.42,-126 135.42,-122 63.58,-122 63.58,-86 162.42,-86 162.42,-122"/>
<text text-anchor="middle" x="113" y="-99.8" font-family="Times,serif" font-size="14.00">SharedModule</text>
</g>
<!-- SharedModule&#45;&gt;CardsModule -->
<g id="edge3" class="edge">
<title>SharedModule&#45;&gt;CardsModule</title>
<path fill="none" stroke="black" d="M113,-122.11C113,-141.34 113,-169 113,-169 113,-169 180.83,-169 180.83,-169"/>
<polygon fill="black" stroke="black" points="180.83,-172.5 190.83,-169 180.83,-165.5 180.83,-172.5"/>
</g>
</g>
</svg>
