<?xml version="1.0" encoding="UTF-8" standalone="no"?>
<!DOCTYPE svg PUBLIC "-//W3C//DTD SVG 1.1//EN"
 "http://www.w3.org/Graphics/SVG/1.1/DTD/svg11.dtd">
<!-- Generated by graphviz version 2.47.0 (20210316.0004)
 -->
<!-- Title: dependencies Pages: 1 -->
<svg width="512pt" height="211pt"
 viewBox="0.00 0.00 512.00 211.00" xmlns="http://www.w3.org/2000/svg" xmlns:xlink="http://www.w3.org/1999/xlink">
<g id="graph0" class="graph" transform="scale(1 1) rotate(0) translate(4 207)">
<title>dependencies</title>
<polygon fill="white" stroke="transparent" points="-4,4 -4,-207 508,-207 508,4 -4,4"/>
<text text-anchor="start" x="231.01" y="-42.4" font-family="Times-12" font-weight="bold" font-size="14.00">Legend</text>
<polygon fill="#ffffb3" stroke="transparent" points="18,-10 18,-30 38,-30 38,-10 18,-10"/>
<text text-anchor="start" x="41.63" y="-15.4" font-family="Times-12" font-size="14.00"> &#160;Declarations</text>
<polygon fill="#8dd3c7" stroke="transparent" points="131,-10 131,-30 151,-30 151,-10 131,-10"/>
<text text-anchor="start" x="154.73" y="-15.4" font-family="Times-12" font-size="14.00"> &#160;Module</text>
<polygon fill="#80b1d3" stroke="transparent" points="217,-10 217,-30 237,-30 237,-10 217,-10"/>
<text text-anchor="start" x="240.78" y="-15.4" font-family="Times-12" font-size="14.00"> &#160;Bootstrap</text>
<polygon fill="#fdb462" stroke="transparent" points="314,-10 314,-30 334,-30 334,-10 314,-10"/>
<text text-anchor="start" x="337.67" y="-15.4" font-family="Times-12" font-size="14.00"> &#160;Providers</text>
<polygon fill="#fb8072" stroke="transparent" points="410,-10 410,-30 430,-30 430,-10 410,-10"/>
<text text-anchor="start" x="433.73" y="-15.4" font-family="Times-12" font-size="14.00"> &#160;Exports</text>
<g id="clust1" class="cluster">
<title>cluster_AdvancedSearchModule</title>
<polygon fill="none" stroke="black" stroke-dasharray="1,5" points="8,-70 8,-195 496,-195 496,-70 8,-70"/>
</g>
<g id="clust2" class="cluster">
<title>cluster_AdvancedSearchModule_declarations</title>
<polygon fill="none" stroke="black" points="296,-78 296,-130 488,-130 488,-78 296,-78"/>
</g>
<g id="clust4" class="cluster">
<title>cluster_AdvancedSearchModule_imports</title>
<polygon fill="none" stroke="black" points="16,-78 16,-130 288,-130 288,-78 16,-78"/>
</g>
<!-- AdvancedSearchComponent -->
<g id="node1" class="node">
<title>AdvancedSearchComponent</title>
<polygon fill="#ffffb3" stroke="black" points="480.17,-122 303.83,-122 303.83,-86 480.17,-86 480.17,-122"/>
<text text-anchor="middle" x="392" y="-99.8" font-family="Times,serif" font-size="14.00">AdvancedSearchComponent</text>
</g>
<!-- AdvancedSearchModule -->
<g id="node2" class="node">
<title>AdvancedSearchModule</title>
<polygon fill="#8dd3c7" stroke="black" points="287.39,-187 284.39,-191 263.39,-191 260.39,-187 132.61,-187 132.61,-151 287.39,-151 287.39,-187"/>
<text text-anchor="middle" x="210" y="-164.8" font-family="Times,serif" font-size="14.00">AdvancedSearchModule</text>
</g>
<!-- AdvancedSearchComponent&#45;&gt;AdvancedSearchModule -->
<g id="edge1" class="edge">
<title>AdvancedSearchComponent&#45;&gt;AdvancedSearchModule</title>
<path fill="none" stroke="black" d="M303.66,-104C291.74,-104 283.51,-104 283.51,-104 283.51,-104 283.51,-140.89 283.51,-140.89"/>
<polygon fill="black" stroke="black" points="280.01,-140.89 283.51,-150.89 287.01,-140.89 280.01,-140.89"/>
</g>
<!-- FuseHighlightModule -->
<g id="node3" class="node">
<title>FuseHighlightModule</title>
<polygon fill="#8dd3c7" stroke="black" points="279.66,-122 276.66,-126 255.66,-126 252.66,-122 140.34,-122 140.34,-86 279.66,-86 279.66,-122"/>
<text text-anchor="middle" x="210" y="-99.8" font-family="Times,serif" font-size="14.00">FuseHighlightModule</text>
</g>
<!-- FuseHighlightModule&#45;&gt;AdvancedSearchModule -->
<g id="edge2" class="edge">
<title>FuseHighlightModule&#45;&gt;AdvancedSearchModule</title>
<path fill="none" stroke="black" d="M210,-122.11C210,-122.11 210,-140.99 210,-140.99"/>
<polygon fill="black" stroke="black" points="206.5,-140.99 210,-150.99 213.5,-140.99 206.5,-140.99"/>
</g>
<!-- SharedModule -->
<g id="node4" class="node">
<title>SharedModule</title>
<polygon fill="#8dd3c7" stroke="black" points="122.42,-122 119.42,-126 98.42,-126 95.42,-122 23.58,-122 23.58,-86 122.42,-86 122.42,-122"/>
<text text-anchor="middle" x="73" y="-99.8" font-family="Times,serif" font-size="14.00">SharedModule</text>
</g>
<!-- SharedModule&#45;&gt;AdvancedSearchModule -->
<g id="edge3" class="edge">
<title>SharedModule&#45;&gt;AdvancedSearchModule</title>
<path fill="none" stroke="black" d="M122.4,-104C130.59,-104 136.49,-104 136.49,-104 136.49,-104 136.49,-140.89 136.49,-140.89"/>
<polygon fill="black" stroke="black" points="132.99,-140.89 136.49,-150.89 139.99,-140.89 132.99,-140.89"/>
</g>
</g>
</svg>
