<?xml version="1.0" encoding="UTF-8" standalone="no"?>
<!DOCTYPE svg PUBLIC "-//W3C//DTD SVG 1.1//EN"
 "http://www.w3.org/Graphics/SVG/1.1/DTD/svg11.dtd">
<!-- Generated by graphviz version 2.47.0 (20210316.0004)
 -->
<!-- Title: dependencies Pages: 1 -->
<svg width="1552pt" height="211pt"
 viewBox="0.00 0.00 1552.00 211.00" xmlns="http://www.w3.org/2000/svg" xmlns:xlink="http://www.w3.org/1999/xlink">
<g id="graph0" class="graph" transform="scale(1 1) rotate(0) translate(4 207)">
<title>dependencies</title>
<polygon fill="white" stroke="transparent" points="-4,4 -4,-207 1548,-207 1548,4 -4,4"/>
<text text-anchor="start" x="751.01" y="-42.4" font-family="Times-12" font-weight="bold" font-size="14.00">Legend</text>
<polygon fill="#ffffb3" stroke="transparent" points="538,-10 538,-30 558,-30 558,-10 538,-10"/>
<text text-anchor="start" x="561.63" y="-15.4" font-family="Times-12" font-size="14.00"> &#160;Declarations</text>
<polygon fill="#8dd3c7" stroke="transparent" points="651,-10 651,-30 671,-30 671,-10 651,-10"/>
<text text-anchor="start" x="674.73" y="-15.4" font-family="Times-12" font-size="14.00"> &#160;Module</text>
<polygon fill="#80b1d3" stroke="transparent" points="737,-10 737,-30 757,-30 757,-10 737,-10"/>
<text text-anchor="start" x="760.78" y="-15.4" font-family="Times-12" font-size="14.00"> &#160;Bootstrap</text>
<polygon fill="#fdb462" stroke="transparent" points="834,-10 834,-30 854,-30 854,-10 834,-10"/>
<text text-anchor="start" x="857.67" y="-15.4" font-family="Times-12" font-size="14.00"> &#160;Providers</text>
<polygon fill="#fb8072" stroke="transparent" points="930,-10 930,-30 950,-30 950,-10 930,-10"/>
<text text-anchor="start" x="953.73" y="-15.4" font-family="Times-12" font-size="14.00"> &#160;Exports</text>
<g id="clust1" class="cluster">
<title>cluster_HelpCenterModule</title>
<polygon fill="none" stroke="black" stroke-dasharray="1,5" points="8,-70 8,-195 1536,-195 1536,-70 8,-70"/>
</g>
<g id="clust9" class="cluster">
<title>cluster_HelpCenterModule_imports</title>
<polygon fill="none" stroke="black" points="1281,-78 1281,-130 1528,-130 1528,-78 1281,-78"/>
</g>
<g id="clust2" class="cluster">
<title>cluster_HelpCenterModule_declarations</title>
<polygon fill="none" stroke="black" points="16,-78 16,-130 1273,-130 1273,-78 16,-78"/>
</g>
<!-- HelpCenterComponent -->
<g id="node1" class="node">
<title>HelpCenterComponent</title>
<polygon fill="#ffffb3" stroke="black" points="1264.86,-122 1119.14,-122 1119.14,-86 1264.86,-86 1264.86,-122"/>
<text text-anchor="middle" x="1192" y="-99.8" font-family="Times,serif" font-size="14.00">HelpCenterComponent</text>
</g>
<!-- HelpCenterModule -->
<g id="node7" class="node">
<title>HelpCenterModule</title>
<polygon fill="#8dd3c7" stroke="black" points="965.08,-187 962.08,-191 941.08,-191 938.08,-187 840.92,-187 840.92,-151 965.08,-151 965.08,-187"/>
<text text-anchor="middle" x="903" y="-164.8" font-family="Times,serif" font-size="14.00">HelpCenterModule</text>
</g>
<!-- HelpCenterComponent&#45;&gt;HelpCenterModule -->
<g id="edge1" class="edge">
<title>HelpCenterComponent&#45;&gt;HelpCenterModule</title>
<path fill="none" stroke="black" d="M1192,-122.03C1192,-138.4 1192,-160 1192,-160 1192,-160 975.35,-160 975.35,-160"/>
<polygon fill="black" stroke="black" points="975.35,-156.5 965.35,-160 975.35,-163.5 975.35,-156.5"/>
</g>
<!-- HelpCenterFaqsComponent -->
<g id="node2" class="node">
<title>HelpCenterFaqsComponent</title>
<polygon fill="#ffffb3" stroke="black" points="1101.3,-122 928.7,-122 928.7,-86 1101.3,-86 1101.3,-122"/>
<text text-anchor="middle" x="1015" y="-99.8" font-family="Times,serif" font-size="14.00">HelpCenterFaqsComponent</text>
</g>
<!-- HelpCenterFaqsComponent&#45;&gt;HelpCenterModule -->
<g id="edge2" class="edge">
<title>HelpCenterFaqsComponent&#45;&gt;HelpCenterModule</title>
<path fill="none" stroke="black" d="M946.94,-122.11C946.94,-122.11 946.94,-140.99 946.94,-140.99"/>
<polygon fill="black" stroke="black" points="943.44,-140.99 946.94,-150.99 950.44,-140.99 943.44,-140.99"/>
</g>
<!-- HelpCenterGuidesCategoryComponent -->
<g id="node3" class="node">
<title>HelpCenterGuidesCategoryComponent</title>
<polygon fill="#ffffb3" stroke="black" points="910.33,-122 673.67,-122 673.67,-86 910.33,-86 910.33,-122"/>
<text text-anchor="middle" x="792" y="-99.8" font-family="Times,serif" font-size="14.00">HelpCenterGuidesCategoryComponent</text>
</g>
<!-- HelpCenterGuidesCategoryComponent&#45;&gt;HelpCenterModule -->
<g id="edge3" class="edge">
<title>HelpCenterGuidesCategoryComponent&#45;&gt;HelpCenterModule</title>
<path fill="none" stroke="black" d="M875.69,-122.11C875.69,-122.11 875.69,-140.99 875.69,-140.99"/>
<polygon fill="black" stroke="black" points="872.19,-140.99 875.69,-150.99 879.19,-140.99 872.19,-140.99"/>
</g>
<!-- HelpCenterGuidesComponent -->
<g id="node4" class="node">
<title>HelpCenterGuidesComponent</title>
<polygon fill="#ffffb3" stroke="black" points="655.52,-122 470.48,-122 470.48,-86 655.52,-86 655.52,-122"/>
<text text-anchor="middle" x="563" y="-99.8" font-family="Times,serif" font-size="14.00">HelpCenterGuidesComponent</text>
</g>
<!-- HelpCenterGuidesComponent&#45;&gt;HelpCenterModule -->
<g id="edge4" class="edge">
<title>HelpCenterGuidesComponent&#45;&gt;HelpCenterModule</title>
<path fill="none" stroke="black" d="M563,-122.03C563,-138.4 563,-160 563,-160 563,-160 830.64,-160 830.64,-160"/>
<polygon fill="black" stroke="black" points="830.64,-163.5 840.64,-160 830.64,-156.5 830.64,-163.5"/>
</g>
<!-- HelpCenterGuidesGuideComponent -->
<g id="node5" class="node">
<title>HelpCenterGuidesGuideComponent</title>
<polygon fill="#ffffb3" stroke="black" points="451.73,-122 232.27,-122 232.27,-86 451.73,-86 451.73,-122"/>
<text text-anchor="middle" x="342" y="-99.8" font-family="Times,serif" font-size="14.00">HelpCenterGuidesGuideComponent</text>
</g>
<!-- HelpCenterGuidesGuideComponent&#45;&gt;HelpCenterModule -->
<g id="edge5" class="edge">
<title>HelpCenterGuidesGuideComponent&#45;&gt;HelpCenterModule</title>
<path fill="none" stroke="black" d="M342,-122.11C342,-141.34 342,-169 342,-169 342,-169 830.82,-169 830.82,-169"/>
<polygon fill="black" stroke="black" points="830.82,-172.5 840.82,-169 830.82,-165.5 830.82,-172.5"/>
</g>
<!-- HelpCenterSupportComponent -->
<g id="node6" class="node">
<title>HelpCenterSupportComponent</title>
<polygon fill="#ffffb3" stroke="black" points="214.2,-122 23.8,-122 23.8,-86 214.2,-86 214.2,-122"/>
<text text-anchor="middle" x="119" y="-99.8" font-family="Times,serif" font-size="14.00">HelpCenterSupportComponent</text>
</g>
<!-- HelpCenterSupportComponent&#45;&gt;HelpCenterModule -->
<g id="edge6" class="edge">
<title>HelpCenterSupportComponent&#45;&gt;HelpCenterModule</title>
<path fill="none" stroke="black" d="M119,-122.29C119,-144.21 119,-178 119,-178 119,-178 830.83,-178 830.83,-178"/>
<polygon fill="black" stroke="black" points="830.83,-181.5 840.83,-178 830.83,-174.5 830.83,-181.5"/>
</g>
<!-- FuseAlertModule -->
<g id="node8" class="node">
<title>FuseAlertModule</title>
<polygon fill="#8dd3c7" stroke="black" points="1520.25,-122 1517.25,-126 1496.25,-126 1493.25,-122 1405.75,-122 1405.75,-86 1520.25,-86 1520.25,-122"/>
<text text-anchor="middle" x="1463" y="-99.8" font-family="Times,serif" font-size="14.00">FuseAlertModule</text>
</g>
<!-- FuseAlertModule&#45;&gt;HelpCenterModule -->
<g id="edge7" class="edge">
<title>FuseAlertModule&#45;&gt;HelpCenterModule</title>
<path fill="none" stroke="black" d="M1463,-122.29C1463,-144.21 1463,-178 1463,-178 1463,-178 975.07,-178 975.07,-178"/>
<polygon fill="black" stroke="black" points="975.07,-174.5 965.07,-178 975.07,-181.5 975.07,-174.5"/>
</g>
<!-- SharedModule -->
<g id="node9" class="node">
<title>SharedModule</title>
<polygon fill="#8dd3c7" stroke="black" points="1387.42,-122 1384.42,-126 1363.42,-126 1360.42,-122 1288.58,-122 1288.58,-86 1387.42,-86 1387.42,-122"/>
<text text-anchor="middle" x="1338" y="-99.8" font-family="Times,serif" font-size="14.00">SharedModule</text>
</g>
<!-- SharedModule&#45;&gt;HelpCenterModule -->
<g id="edge8" class="edge">
<title>SharedModule&#45;&gt;HelpCenterModule</title>
<path fill="none" stroke="black" d="M1338,-122.11C1338,-141.34 1338,-169 1338,-169 1338,-169 975.32,-169 975.32,-169"/>
<polygon fill="black" stroke="black" points="975.32,-165.5 965.32,-169 975.32,-172.5 975.32,-165.5"/>
</g>
</g>
</svg>
