<?xml version="1.0" encoding="UTF-8" standalone="no"?>
<!DOCTYPE svg PUBLIC "-//W3C//DTD SVG 1.1//EN"
 "http://www.w3.org/Graphics/SVG/1.1/DTD/svg11.dtd">
<!-- Generated by graphviz version 2.47.0 (20210316.0004)
 -->
<!-- Title: dependencies Pages: 1 -->
<svg width="680pt" height="211pt"
 viewBox="0.00 0.00 680.00 211.00" xmlns="http://www.w3.org/2000/svg" xmlns:xlink="http://www.w3.org/1999/xlink">
<g id="graph0" class="graph" transform="scale(1 1) rotate(0) translate(4 207)">
<title>dependencies</title>
<polygon fill="white" stroke="transparent" points="-4,4 -4,-207 676,-207 676,4 -4,4"/>
<text text-anchor="start" x="315.01" y="-42.4" font-family="Times-12" font-weight="bold" font-size="14.00">Legend</text>
<polygon fill="#ffffb3" stroke="transparent" points="102,-10 102,-30 122,-30 122,-10 102,-10"/>
<text text-anchor="start" x="125.63" y="-15.4" font-family="Times-12" font-size="14.00"> &#160;Declarations</text>
<polygon fill="#8dd3c7" stroke="transparent" points="215,-10 215,-30 235,-30 235,-10 215,-10"/>
<text text-anchor="start" x="238.73" y="-15.4" font-family="Times-12" font-size="14.00"> &#160;Module</text>
<polygon fill="#80b1d3" stroke="transparent" points="301,-10 301,-30 321,-30 321,-10 301,-10"/>
<text text-anchor="start" x="324.78" y="-15.4" font-family="Times-12" font-size="14.00"> &#160;Bootstrap</text>
<polygon fill="#fdb462" stroke="transparent" points="398,-10 398,-30 418,-30 418,-10 398,-10"/>
<text text-anchor="start" x="421.67" y="-15.4" font-family="Times-12" font-size="14.00"> &#160;Providers</text>
<polygon fill="#fb8072" stroke="transparent" points="494,-10 494,-30 514,-30 514,-10 494,-10"/>
<text text-anchor="start" x="517.73" y="-15.4" font-family="Times-12" font-size="14.00"> &#160;Exports</text>
<g id="clust1" class="cluster">
<title>cluster_AcademyModule</title>
<polygon fill="none" stroke="black" stroke-dasharray="1,5" points="8,-70 8,-195 664,-195 664,-70 8,-70"/>
</g>
<g id="clust2" class="cluster">
<title>cluster_AcademyModule_declarations</title>
<polygon fill="none" stroke="black" points="138,-78 138,-130 656,-130 656,-78 138,-78"/>
</g>
<g id="clust6" class="cluster">
<title>cluster_AcademyModule_imports</title>
<polygon fill="none" stroke="black" points="16,-78 16,-130 130,-130 130,-78 16,-78"/>
</g>
<!-- AcademyComponent -->
<g id="node1" class="node">
<title>AcademyComponent</title>
<polygon fill="#ffffb3" stroke="black" points="648.47,-122 513.53,-122 513.53,-86 648.47,-86 648.47,-122"/>
<text text-anchor="middle" x="581" y="-99.8" font-family="Times,serif" font-size="14.00">AcademyComponent</text>
</g>
<!-- AcademyModule -->
<g id="node4" class="node">
<title>AcademyModule</title>
<polygon fill="#8dd3c7" stroke="black" points="372.69,-187 369.69,-191 348.69,-191 345.69,-187 259.31,-187 259.31,-151 372.69,-151 372.69,-187"/>
<text text-anchor="middle" x="316" y="-164.8" font-family="Times,serif" font-size="14.00">AcademyModule</text>
</g>
<!-- AcademyComponent&#45;&gt;AcademyModule -->
<g id="edge1" class="edge">
<title>AcademyComponent&#45;&gt;AcademyModule</title>
<path fill="none" stroke="black" d="M581,-122.11C581,-141.34 581,-169 581,-169 581,-169 382.85,-169 382.85,-169"/>
<polygon fill="black" stroke="black" points="382.85,-165.5 372.85,-169 382.85,-172.5 382.85,-165.5"/>
</g>
<!-- AcademyDetailsComponent -->
<g id="node2" class="node">
<title>AcademyDetailsComponent</title>
<polygon fill="#ffffb3" stroke="black" points="495.13,-122 320.87,-122 320.87,-86 495.13,-86 495.13,-122"/>
<text text-anchor="middle" x="408" y="-99.8" font-family="Times,serif" font-size="14.00">AcademyDetailsComponent</text>
</g>
<!-- AcademyDetailsComponent&#45;&gt;AcademyModule -->
<g id="edge2" class="edge">
<title>AcademyDetailsComponent&#45;&gt;AcademyModule</title>
<path fill="none" stroke="black" d="M346.64,-122.11C346.64,-122.11 346.64,-140.99 346.64,-140.99"/>
<polygon fill="black" stroke="black" points="343.14,-140.99 346.64,-150.99 350.14,-140.99 343.14,-140.99"/>
</g>
<!-- AcademyListComponent -->
<g id="node3" class="node">
<title>AcademyListComponent</title>
<polygon fill="#ffffb3" stroke="black" points="302.25,-122 145.75,-122 145.75,-86 302.25,-86 302.25,-122"/>
<text text-anchor="middle" x="224" y="-99.8" font-family="Times,serif" font-size="14.00">AcademyListComponent</text>
</g>
<!-- AcademyListComponent&#45;&gt;AcademyModule -->
<g id="edge3" class="edge">
<title>AcademyListComponent&#45;&gt;AcademyModule</title>
<path fill="none" stroke="black" d="M280.89,-122.11C280.89,-122.11 280.89,-140.99 280.89,-140.99"/>
<polygon fill="black" stroke="black" points="277.39,-140.99 280.89,-150.99 284.39,-140.99 277.39,-140.99"/>
</g>
<!-- SharedModule -->
<g id="node5" class="node">
<title>SharedModule</title>
<polygon fill="#8dd3c7" stroke="black" points="122.42,-122 119.42,-126 98.42,-126 95.42,-122 23.58,-122 23.58,-86 122.42,-86 122.42,-122"/>
<text text-anchor="middle" x="73" y="-99.8" font-family="Times,serif" font-size="14.00">SharedModule</text>
</g>
<!-- SharedModule&#45;&gt;AcademyModule -->
<g id="edge4" class="edge">
<title>SharedModule&#45;&gt;AcademyModule</title>
<path fill="none" stroke="black" d="M73,-122.11C73,-141.34 73,-169 73,-169 73,-169 249.33,-169 249.33,-169"/>
<polygon fill="black" stroke="black" points="249.33,-172.5 259.33,-169 249.33,-165.5 249.33,-172.5"/>
</g>
</g>
</svg>
