<?xml version="1.0" encoding="UTF-8" standalone="no"?>
<!DOCTYPE svg PUBLIC "-//W3C//DTD SVG 1.1//EN"
 "http://www.w3.org/Graphics/SVG/1.1/DTD/svg11.dtd">
<!-- Generated by graphviz version 2.47.0 (20210316.0004)
 -->
<!-- Title: dependencies Pages: 1 -->
<svg width="1817pt" height="211pt"
 viewBox="0.00 0.00 1817.00 211.00" xmlns="http://www.w3.org/2000/svg" xmlns:xlink="http://www.w3.org/1999/xlink">
<g id="graph0" class="graph" transform="scale(1 1) rotate(0) translate(4 207)">
<title>dependencies</title>
<polygon fill="white" stroke="transparent" points="-4,4 -4,-207 1813,-207 1813,4 -4,4"/>
<text text-anchor="start" x="883.51" y="-42.4" font-family="Times-12" font-weight="bold" font-size="14.00">Legend</text>
<polygon fill="#ffffb3" stroke="transparent" points="670.5,-10 670.5,-30 690.5,-30 690.5,-10 670.5,-10"/>
<text text-anchor="start" x="694.13" y="-15.4" font-family="Times-12" font-size="14.00"> &#160;Declarations</text>
<polygon fill="#8dd3c7" stroke="transparent" points="783.5,-10 783.5,-30 803.5,-30 803.5,-10 783.5,-10"/>
<text text-anchor="start" x="807.23" y="-15.4" font-family="Times-12" font-size="14.00"> &#160;Module</text>
<polygon fill="#80b1d3" stroke="transparent" points="869.5,-10 869.5,-30 889.5,-30 889.5,-10 869.5,-10"/>
<text text-anchor="start" x="893.28" y="-15.4" font-family="Times-12" font-size="14.00"> &#160;Bootstrap</text>
<polygon fill="#fdb462" stroke="transparent" points="966.5,-10 966.5,-30 986.5,-30 986.5,-10 966.5,-10"/>
<text text-anchor="start" x="990.17" y="-15.4" font-family="Times-12" font-size="14.00"> &#160;Providers</text>
<polygon fill="#fb8072" stroke="transparent" points="1062.5,-10 1062.5,-30 1082.5,-30 1082.5,-10 1062.5,-10"/>
<text text-anchor="start" x="1086.23" y="-15.4" font-family="Times-12" font-size="14.00"> &#160;Exports</text>
<g id="clust1" class="cluster">
<title>cluster_SignUpModule</title>
<polygon fill="none" stroke="black" stroke-dasharray="1,5" points="8,-70 8,-195 1801,-195 1801,-70 8,-70"/>
</g>
<g id="clust10" class="cluster">
<title>cluster_SignUpModule_imports</title>
<polygon fill="none" stroke="black" points="1546,-78 1546,-130 1793,-130 1793,-78 1546,-78"/>
</g>
<g id="clust2" class="cluster">
<title>cluster_SignUpModule_declarations</title>
<polygon fill="none" stroke="black" points="16,-78 16,-130 1538,-130 1538,-78 16,-78"/>
</g>
<!-- SignUpClassicComponent -->
<g id="node1" class="node">
<title>SignUpClassicComponent</title>
<polygon fill="#ffffb3" stroke="black" points="1530.05,-122 1365.95,-122 1365.95,-86 1530.05,-86 1530.05,-122"/>
<text text-anchor="middle" x="1448" y="-99.8" font-family="Times,serif" font-size="14.00">SignUpClassicComponent</text>
</g>
<!-- SignUpModule -->
<g id="node8" class="node">
<title>SignUpModule</title>
<polygon fill="#8dd3c7" stroke="black" points="1082.33,-187 1079.33,-191 1058.33,-191 1055.33,-187 979.67,-187 979.67,-151 1082.33,-151 1082.33,-187"/>
<text text-anchor="middle" x="1031" y="-164.8" font-family="Times,serif" font-size="14.00">SignUpModule</text>
</g>
<!-- SignUpClassicComponent&#45;&gt;SignUpModule -->
<g id="edge1" class="edge">
<title>SignUpClassicComponent&#45;&gt;SignUpModule</title>
<path fill="none" stroke="black" d="M1448,-122.27C1448,-140.56 1448,-166 1448,-166 1448,-166 1092.55,-166 1092.55,-166"/>
<polygon fill="black" stroke="black" points="1092.55,-162.5 1082.55,-166 1092.55,-169.5 1092.55,-162.5"/>
</g>
<!-- SignUpFullscreenComponent -->
<g id="node2" class="node">
<title>SignUpFullscreenComponent</title>
<polygon fill="#ffffb3" stroke="black" points="1348.43,-122 1165.57,-122 1165.57,-86 1348.43,-86 1348.43,-122"/>
<text text-anchor="middle" x="1257" y="-99.8" font-family="Times,serif" font-size="14.00">SignUpFullscreenComponent</text>
</g>
<!-- SignUpFullscreenComponent&#45;&gt;SignUpModule -->
<g id="edge2" class="edge">
<title>SignUpFullscreenComponent&#45;&gt;SignUpModule</title>
<path fill="none" stroke="black" d="M1257,-122.01C1257,-138.05 1257,-159 1257,-159 1257,-159 1092.28,-159 1092.28,-159"/>
<polygon fill="black" stroke="black" points="1092.28,-155.5 1082.28,-159 1092.28,-162.5 1092.28,-155.5"/>
</g>
<!-- SignUpFullscreenReversedComponent -->
<g id="node3" class="node">
<title>SignUpFullscreenReversedComponent</title>
<polygon fill="#ffffb3" stroke="black" points="1148.01,-122 913.99,-122 913.99,-86 1148.01,-86 1148.01,-122"/>
<text text-anchor="middle" x="1031" y="-99.8" font-family="Times,serif" font-size="14.00">SignUpFullscreenReversedComponent</text>
</g>
<!-- SignUpFullscreenReversedComponent&#45;&gt;SignUpModule -->
<g id="edge3" class="edge">
<title>SignUpFullscreenReversedComponent&#45;&gt;SignUpModule</title>
<path fill="none" stroke="black" d="M1031,-122.11C1031,-122.11 1031,-140.99 1031,-140.99"/>
<polygon fill="black" stroke="black" points="1027.5,-140.99 1031,-150.99 1034.5,-140.99 1027.5,-140.99"/>
</g>
<!-- SignUpModernComponent -->
<g id="node4" class="node">
<title>SignUpModernComponent</title>
<polygon fill="#ffffb3" stroke="black" points="896.43,-122 727.57,-122 727.57,-86 896.43,-86 896.43,-122"/>
<text text-anchor="middle" x="812" y="-99.8" font-family="Times,serif" font-size="14.00">SignUpModernComponent</text>
</g>
<!-- SignUpModernComponent&#45;&gt;SignUpModule -->
<g id="edge4" class="edge">
<title>SignUpModernComponent&#45;&gt;SignUpModule</title>
<path fill="none" stroke="black" d="M812,-122.01C812,-138.05 812,-159 812,-159 812,-159 969.65,-159 969.65,-159"/>
<polygon fill="black" stroke="black" points="969.65,-162.5 979.65,-159 969.65,-155.5 969.65,-162.5"/>
</g>
<!-- SignUpModernReversedComponent -->
<g id="node5" class="node">
<title>SignUpModernReversedComponent</title>
<polygon fill="#ffffb3" stroke="black" points="710.02,-122 489.98,-122 489.98,-86 710.02,-86 710.02,-122"/>
<text text-anchor="middle" x="600" y="-99.8" font-family="Times,serif" font-size="14.00">SignUpModernReversedComponent</text>
</g>
<!-- SignUpModernReversedComponent&#45;&gt;SignUpModule -->
<g id="edge5" class="edge">
<title>SignUpModernReversedComponent&#45;&gt;SignUpModule</title>
<path fill="none" stroke="black" d="M600,-122.27C600,-140.56 600,-166 600,-166 600,-166 969.44,-166 969.44,-166"/>
<polygon fill="black" stroke="black" points="969.44,-169.5 979.44,-166 969.44,-162.5 969.44,-169.5"/>
</g>
<!-- SignUpSplitScreenComponent -->
<g id="node6" class="node">
<title>SignUpSplitScreenComponent</title>
<polygon fill="#ffffb3" stroke="black" points="471.15,-122 282.85,-122 282.85,-86 471.15,-86 471.15,-122"/>
<text text-anchor="middle" x="377" y="-99.8" font-family="Times,serif" font-size="14.00">SignUpSplitScreenComponent</text>
</g>
<!-- SignUpSplitScreenComponent&#45;&gt;SignUpModule -->
<g id="edge6" class="edge">
<title>SignUpSplitScreenComponent&#45;&gt;SignUpModule</title>
<path fill="none" stroke="black" d="M377,-122.13C377,-142.57 377,-173 377,-173 377,-173 969.68,-173 969.68,-173"/>
<polygon fill="black" stroke="black" points="969.68,-176.5 979.68,-173 969.68,-169.5 969.68,-176.5"/>
</g>
<!-- SignUpSplitScreenReversedComponent -->
<g id="node7" class="node">
<title>SignUpSplitScreenReversedComponent</title>
<polygon fill="#ffffb3" stroke="black" points="264.24,-122 23.76,-122 23.76,-86 264.24,-86 264.24,-122"/>
<text text-anchor="middle" x="144" y="-99.8" font-family="Times,serif" font-size="14.00">SignUpSplitScreenReversedComponent</text>
</g>
<!-- SignUpSplitScreenReversedComponent&#45;&gt;SignUpModule -->
<g id="edge7" class="edge">
<title>SignUpSplitScreenReversedComponent&#45;&gt;SignUpModule</title>
<path fill="none" stroke="black" d="M144,-122.01C144,-144.49 144,-180 144,-180 144,-180 969.8,-180 969.8,-180"/>
<polygon fill="black" stroke="black" points="969.8,-183.5 979.8,-180 969.8,-176.5 969.8,-183.5"/>
</g>
<!-- FuseAlertModule -->
<g id="node9" class="node">
<title>FuseAlertModule</title>
<polygon fill="#8dd3c7" stroke="black" points="1785.25,-122 1782.25,-126 1761.25,-126 1758.25,-122 1670.75,-122 1670.75,-86 1785.25,-86 1785.25,-122"/>
<text text-anchor="middle" x="1728" y="-99.8" font-family="Times,serif" font-size="14.00">FuseAlertModule</text>
</g>
<!-- FuseAlertModule&#45;&gt;SignUpModule -->
<g id="edge8" class="edge">
<title>FuseAlertModule&#45;&gt;SignUpModule</title>
<path fill="none" stroke="black" d="M1728,-122.01C1728,-144.49 1728,-180 1728,-180 1728,-180 1092.25,-180 1092.25,-180"/>
<polygon fill="black" stroke="black" points="1092.25,-176.5 1082.25,-180 1092.25,-183.5 1092.25,-176.5"/>
</g>
<!-- SharedModule -->
<g id="node10" class="node">
<title>SharedModule</title>
<polygon fill="#8dd3c7" stroke="black" points="1652.42,-122 1649.42,-126 1628.42,-126 1625.42,-122 1553.58,-122 1553.58,-86 1652.42,-86 1652.42,-122"/>
<text text-anchor="middle" x="1603" y="-99.8" font-family="Times,serif" font-size="14.00">SharedModule</text>
</g>
<!-- SharedModule&#45;&gt;SignUpModule -->
<g id="edge9" class="edge">
<title>SharedModule&#45;&gt;SignUpModule</title>
<path fill="none" stroke="black" d="M1603,-122.13C1603,-142.57 1603,-173 1603,-173 1603,-173 1092.26,-173 1092.26,-173"/>
<polygon fill="black" stroke="black" points="1092.26,-169.5 1082.26,-173 1092.26,-176.5 1092.26,-169.5"/>
</g>
</g>
</svg>
