<?xml version="1.0" encoding="UTF-8" standalone="no"?>
<!DOCTYPE svg PUBLIC "-//W3C//DTD SVG 1.1//EN"
 "http://www.w3.org/Graphics/SVG/1.1/DTD/svg11.dtd">
<!-- Generated by graphviz version 2.47.0 (20210316.0004)
 -->
<!-- Title: dependencies Pages: 1 -->
<svg width="12806pt" height="211pt"
 viewBox="0.00 0.00 12806.00 211.00" xmlns="http://www.w3.org/2000/svg" xmlns:xlink="http://www.w3.org/1999/xlink">
<g id="graph0" class="graph" transform="scale(1 1) rotate(0) translate(4 207)">
<title>dependencies</title>
<polygon fill="white" stroke="transparent" points="-4,4 -4,-207 12802,-207 12802,4 -4,4"/>
<text text-anchor="start" x="6378.01" y="-42.4" font-family="Times-12" font-weight="bold" font-size="14.00">Legend</text>
<polygon fill="#ffffb3" stroke="transparent" points="6165,-10 6165,-30 6185,-30 6185,-10 6165,-10"/>
<text text-anchor="start" x="6188.63" y="-15.4" font-family="Times-12" font-size="14.00"> &#160;Declarations</text>
<polygon fill="#8dd3c7" stroke="transparent" points="6278,-10 6278,-30 6298,-30 6298,-10 6278,-10"/>
<text text-anchor="start" x="6301.73" y="-15.4" font-family="Times-12" font-size="14.00"> &#160;Module</text>
<polygon fill="#80b1d3" stroke="transparent" points="6364,-10 6364,-30 6384,-30 6384,-10 6364,-10"/>
<text text-anchor="start" x="6387.78" y="-15.4" font-family="Times-12" font-size="14.00"> &#160;Bootstrap</text>
<polygon fill="#fdb462" stroke="transparent" points="6461,-10 6461,-30 6481,-30 6481,-10 6461,-10"/>
<text text-anchor="start" x="6484.67" y="-15.4" font-family="Times-12" font-size="14.00"> &#160;Providers</text>
<polygon fill="#fb8072" stroke="transparent" points="6557,-10 6557,-30 6577,-30 6577,-10 6557,-10"/>
<text text-anchor="start" x="6580.73" y="-15.4" font-family="Times-12" font-size="14.00"> &#160;Exports</text>
<g id="clust1" class="cluster">
<title>cluster_PageLayoutsModule</title>
<polygon fill="none" stroke="black" stroke-dasharray="1,5" points="8,-70 8,-195 12790,-195 12790,-70 8,-70"/>
</g>
<g id="clust47" class="cluster">
<title>cluster_PageLayoutsModule_imports</title>
<polygon fill="none" stroke="black" points="12164,-78 12164,-130 12782,-130 12782,-78 12164,-78"/>
</g>
<g id="clust2" class="cluster">
<title>cluster_PageLayoutsModule_declarations</title>
<polygon fill="none" stroke="black" points="16,-78 16,-130 12156,-130 12156,-78 16,-78"/>
</g>
<!-- CardedFullwidthContentScrollComponent -->
<g id="node1" class="node">
<title>CardedFullwidthContentScrollComponent</title>
<polygon fill="#ffffb3" stroke="black" points="12147.98,-122 11894.02,-122 11894.02,-86 12147.98,-86 12147.98,-122"/>
<text text-anchor="middle" x="12021" y="-99.8" font-family="Times,serif" font-size="14.00">CardedFullwidthContentScrollComponent</text>
</g>
<!-- PageLayoutsModule -->
<g id="node45" class="node">
<title>PageLayoutsModule</title>
<polygon fill="#8dd3c7" stroke="black" points="6849.86,-187 6846.86,-191 6825.86,-191 6822.86,-187 6718.14,-187 6718.14,-151 6849.86,-151 6849.86,-187"/>
<text text-anchor="middle" x="6784" y="-164.8" font-family="Times,serif" font-size="14.00">PageLayoutsModule</text>
</g>
<!-- CardedFullwidthContentScrollComponent&#45;&gt;PageLayoutsModule -->
<g id="edge1" class="edge">
<title>CardedFullwidthContentScrollComponent&#45;&gt;PageLayoutsModule</title>
<path fill="none" stroke="black" d="M12021,-122.01C12021,-144.49 12021,-180 12021,-180 12021,-180 6860.22,-180 6860.22,-180"/>
<polygon fill="black" stroke="black" points="6860.22,-176.5 6850.22,-180 6860.21,-183.5 6860.22,-176.5"/>
</g>
<!-- CardedFullwidthNormalScrollComponent -->
<g id="node2" class="node">
<title>CardedFullwidthNormalScrollComponent</title>
<polygon fill="#ffffb3" stroke="black" points="11876.41,-122 11623.59,-122 11623.59,-86 11876.41,-86 11876.41,-122"/>
<text text-anchor="middle" x="11750" y="-99.8" font-family="Times,serif" font-size="14.00">CardedFullwidthNormalScrollComponent</text>
</g>
<!-- CardedFullwidthNormalScrollComponent&#45;&gt;PageLayoutsModule -->
<g id="edge2" class="edge">
<title>CardedFullwidthNormalScrollComponent&#45;&gt;PageLayoutsModule</title>
<path fill="none" stroke="black" d="M11750,-122.29C11750,-144.21 11750,-178 11750,-178 11750,-178 6859.98,-178 6859.98,-178"/>
<polygon fill="black" stroke="black" points="6859.98,-174.5 6849.98,-178 6859.98,-181.5 6859.98,-174.5"/>
</g>
<!-- CardedFullwidthPageScrollComponent -->
<g id="node3" class="node">
<title>CardedFullwidthPageScrollComponent</title>
<polygon fill="#ffffb3" stroke="black" points="11605.36,-122 11368.64,-122 11368.64,-86 11605.36,-86 11605.36,-122"/>
<text text-anchor="middle" x="11487" y="-99.8" font-family="Times,serif" font-size="14.00">CardedFullwidthPageScrollComponent</text>
</g>
<!-- CardedFullwidthPageScrollComponent&#45;&gt;PageLayoutsModule -->
<g id="edge3" class="edge">
<title>CardedFullwidthPageScrollComponent&#45;&gt;PageLayoutsModule</title>
<path fill="none" stroke="black" d="M11487,-122.04C11487,-143.66 11487,-177 11487,-177 11487,-177 6860.03,-177 6860.03,-177"/>
<polygon fill="black" stroke="black" points="6860.03,-173.5 6850.03,-177 6860.03,-180.5 6860.03,-173.5"/>
</g>
<!-- CardedLeftSidebar1ContentScrollComponent -->
<g id="node4" class="node">
<title>CardedLeftSidebar1ContentScrollComponent</title>
<polygon fill="#ffffb3" stroke="black" points="11350.11,-122 11077.89,-122 11077.89,-86 11350.11,-86 11350.11,-122"/>
<text text-anchor="middle" x="11214" y="-99.8" font-family="Times,serif" font-size="14.00">CardedLeftSidebar1ContentScrollComponent</text>
</g>
<!-- CardedLeftSidebar1ContentScrollComponent&#45;&gt;PageLayoutsModule -->
<g id="edge4" class="edge">
<title>CardedLeftSidebar1ContentScrollComponent&#45;&gt;PageLayoutsModule</title>
<path fill="none" stroke="black" d="M11214,-122.28C11214,-143.32 11214,-175 11214,-175 11214,-175 6860.06,-175 6860.06,-175"/>
<polygon fill="black" stroke="black" points="6860.06,-171.5 6850.06,-175 6860.06,-178.5 6860.06,-171.5"/>
</g>
<!-- CardedLeftSidebar1NormalScrollComponent -->
<g id="node5" class="node">
<title>CardedLeftSidebar1NormalScrollComponent</title>
<polygon fill="#ffffb3" stroke="black" points="11059.54,-122 10788.46,-122 10788.46,-86 11059.54,-86 11059.54,-122"/>
<text text-anchor="middle" x="10924" y="-99.8" font-family="Times,serif" font-size="14.00">CardedLeftSidebar1NormalScrollComponent</text>
</g>
<!-- CardedLeftSidebar1NormalScrollComponent&#45;&gt;PageLayoutsModule -->
<g id="edge5" class="edge">
<title>CardedLeftSidebar1NormalScrollComponent&#45;&gt;PageLayoutsModule</title>
<path fill="none" stroke="black" d="M10924,-122.03C10924,-142.77 10924,-174 10924,-174 10924,-174 6859.87,-174 6859.87,-174"/>
<polygon fill="black" stroke="black" points="6859.87,-170.5 6849.87,-174 6859.87,-177.5 6859.87,-170.5"/>
</g>
<!-- CardedLeftSidebar1PageScrollComponent -->
<g id="node6" class="node">
<title>CardedLeftSidebar1PageScrollComponent</title>
<polygon fill="#ffffb3" stroke="black" points="10770.99,-122 10515.01,-122 10515.01,-86 10770.99,-86 10770.99,-122"/>
<text text-anchor="middle" x="10643" y="-99.8" font-family="Times,serif" font-size="14.00">CardedLeftSidebar1PageScrollComponent</text>
</g>
<!-- CardedLeftSidebar1PageScrollComponent&#45;&gt;PageLayoutsModule -->
<g id="edge6" class="edge">
<title>CardedLeftSidebar1PageScrollComponent&#45;&gt;PageLayoutsModule</title>
<path fill="none" stroke="black" d="M10643,-122.22C10643,-142.37 10643,-172 10643,-172 10643,-172 6860.17,-172 6860.17,-172"/>
<polygon fill="black" stroke="black" points="6860.17,-168.5 6850.17,-172 6860.17,-175.5 6860.17,-168.5"/>
</g>
<!-- CardedLeftSidebar2ContentScrollComponent -->
<g id="node7" class="node">
<title>CardedLeftSidebar2ContentScrollComponent</title>
<polygon fill="#ffffb3" stroke="black" points="10497.11,-122 10224.89,-122 10224.89,-86 10497.11,-86 10497.11,-122"/>
<text text-anchor="middle" x="10361" y="-99.8" font-family="Times,serif" font-size="14.00">CardedLeftSidebar2ContentScrollComponent</text>
</g>
<!-- CardedLeftSidebar2ContentScrollComponent&#45;&gt;PageLayoutsModule -->
<g id="edge7" class="edge">
<title>CardedLeftSidebar2ContentScrollComponent&#45;&gt;PageLayoutsModule</title>
<path fill="none" stroke="black" d="M10361,-122.31C10361,-142.15 10361,-171 10361,-171 10361,-171 6859.91,-171 6859.91,-171"/>
<polygon fill="black" stroke="black" points="6859.91,-167.5 6849.91,-171 6859.91,-174.5 6859.91,-167.5"/>
</g>
<!-- CardedLeftSidebar2NormalScrollComponent -->
<g id="node8" class="node">
<title>CardedLeftSidebar2NormalScrollComponent</title>
<polygon fill="#ffffb3" stroke="black" points="10206.54,-122 9935.46,-122 9935.46,-86 10206.54,-86 10206.54,-122"/>
<text text-anchor="middle" x="10071" y="-99.8" font-family="Times,serif" font-size="14.00">CardedLeftSidebar2NormalScrollComponent</text>
</g>
<!-- CardedLeftSidebar2NormalScrollComponent&#45;&gt;PageLayoutsModule -->
<g id="edge8" class="edge">
<title>CardedLeftSidebar2NormalScrollComponent&#45;&gt;PageLayoutsModule</title>
<path fill="none" stroke="black" d="M10071,-122.11C10071,-141.34 10071,-169 10071,-169 10071,-169 6860.03,-169 6860.03,-169"/>
<polygon fill="black" stroke="black" points="6860.03,-165.5 6850.03,-169 6860.03,-172.5 6860.03,-165.5"/>
</g>
<!-- CardedLeftSidebar2PageScrollComponent -->
<g id="node9" class="node">
<title>CardedLeftSidebar2PageScrollComponent</title>
<polygon fill="#ffffb3" stroke="black" points="9917.99,-122 9662.01,-122 9662.01,-86 9917.99,-86 9917.99,-122"/>
<text text-anchor="middle" x="9790" y="-99.8" font-family="Times,serif" font-size="14.00">CardedLeftSidebar2PageScrollComponent</text>
</g>
<!-- CardedLeftSidebar2PageScrollComponent&#45;&gt;PageLayoutsModule -->
<g id="edge9" class="edge">
<title>CardedLeftSidebar2PageScrollComponent&#45;&gt;PageLayoutsModule</title>
<path fill="none" stroke="black" d="M9790,-122.17C9790,-141.09 9790,-168 9790,-168 9790,-168 6859.93,-168 6859.93,-168"/>
<polygon fill="black" stroke="black" points="6859.93,-164.5 6849.93,-168 6859.93,-171.5 6859.93,-164.5"/>
</g>
<!-- CardedRightSidebar1ContentScrollComponent -->
<g id="node10" class="node">
<title>CardedRightSidebar1ContentScrollComponent</title>
<polygon fill="#ffffb3" stroke="black" points="9644.41,-122 9363.59,-122 9363.59,-86 9644.41,-86 9644.41,-122"/>
<text text-anchor="middle" x="9504" y="-99.8" font-family="Times,serif" font-size="14.00">CardedRightSidebar1ContentScrollComponent</text>
</g>
<!-- CardedRightSidebar1ContentScrollComponent&#45;&gt;PageLayoutsModule -->
<g id="edge10" class="edge">
<title>CardedRightSidebar1ContentScrollComponent&#45;&gt;PageLayoutsModule</title>
<path fill="none" stroke="black" d="M9504,-122.22C9504,-140.83 9504,-167 9504,-167 9504,-167 6859.89,-167 6859.89,-167"/>
<polygon fill="black" stroke="black" points="6859.89,-163.5 6849.89,-167 6859.89,-170.5 6859.89,-163.5"/>
</g>
<!-- CardedRightSidebar1NormalScrollComponent -->
<g id="node11" class="node">
<title>CardedRightSidebar1NormalScrollComponent</title>
<polygon fill="#ffffb3" stroke="black" points="9345.34,-122 9066.66,-122 9066.66,-86 9345.34,-86 9345.34,-122"/>
<text text-anchor="middle" x="9206" y="-99.8" font-family="Times,serif" font-size="14.00">CardedRightSidebar1NormalScrollComponent</text>
</g>
<!-- CardedRightSidebar1NormalScrollComponent&#45;&gt;PageLayoutsModule -->
<g id="edge11" class="edge">
<title>CardedRightSidebar1NormalScrollComponent&#45;&gt;PageLayoutsModule</title>
<path fill="none" stroke="black" d="M9206,-122.3C9206,-140.27 9206,-165 9206,-165 9206,-165 6860.04,-165 6860.04,-165"/>
<polygon fill="black" stroke="black" points="6860.04,-161.5 6850.04,-165 6860.04,-168.5 6860.04,-161.5"/>
</g>
<!-- CardedRightSidebar1PageScrollComponent -->
<g id="node12" class="node">
<title>CardedRightSidebar1PageScrollComponent</title>
<polygon fill="#ffffb3" stroke="black" points="9048.79,-122 8785.21,-122 8785.21,-86 9048.79,-86 9048.79,-122"/>
<text text-anchor="middle" x="8917" y="-99.8" font-family="Times,serif" font-size="14.00">CardedRightSidebar1PageScrollComponent</text>
</g>
<!-- CardedRightSidebar1PageScrollComponent&#45;&gt;PageLayoutsModule -->
<g id="edge12" class="edge">
<title>CardedRightSidebar1PageScrollComponent&#45;&gt;PageLayoutsModule</title>
<path fill="none" stroke="black" d="M8917,-122.02C8917,-139.37 8917,-163 8917,-163 8917,-163 6859.88,-163 6859.88,-163"/>
<polygon fill="black" stroke="black" points="6859.88,-159.5 6849.88,-163 6859.88,-166.5 6859.88,-159.5"/>
</g>
<!-- CardedRightSidebar2ContentScrollComponent -->
<g id="node13" class="node">
<title>CardedRightSidebar2ContentScrollComponent</title>
<polygon fill="#ffffb3" stroke="black" points="8767.41,-122 8486.59,-122 8486.59,-86 8767.41,-86 8767.41,-122"/>
<text text-anchor="middle" x="8627" y="-99.8" font-family="Times,serif" font-size="14.00">CardedRightSidebar2ContentScrollComponent</text>
</g>
<!-- CardedRightSidebar2ContentScrollComponent&#45;&gt;PageLayoutsModule -->
<g id="edge13" class="edge">
<title>CardedRightSidebar2ContentScrollComponent&#45;&gt;PageLayoutsModule</title>
<path fill="none" stroke="black" d="M8627,-122.03C8627,-139.06 8627,-162 8627,-162 8627,-162 6859.86,-162 6859.86,-162"/>
<polygon fill="black" stroke="black" points="6859.86,-158.5 6849.86,-162 6859.86,-165.5 6859.86,-158.5"/>
</g>
<!-- CardedRightSidebar2NormalScrollComponent -->
<g id="node14" class="node">
<title>CardedRightSidebar2NormalScrollComponent</title>
<polygon fill="#ffffb3" stroke="black" points="8468.34,-122 8189.66,-122 8189.66,-86 8468.34,-86 8468.34,-122"/>
<text text-anchor="middle" x="8329" y="-99.8" font-family="Times,serif" font-size="14.00">CardedRightSidebar2NormalScrollComponent</text>
</g>
<!-- CardedRightSidebar2NormalScrollComponent&#45;&gt;PageLayoutsModule -->
<g id="edge14" class="edge">
<title>CardedRightSidebar2NormalScrollComponent&#45;&gt;PageLayoutsModule</title>
<path fill="none" stroke="black" d="M8329,-122.03C8329,-138.4 8329,-160 8329,-160 8329,-160 6859.89,-160 6859.89,-160"/>
<polygon fill="black" stroke="black" points="6859.89,-156.5 6849.89,-160 6859.89,-163.5 6859.89,-156.5"/>
</g>
<!-- CardedRightSidebar2PageScrollComponent -->
<g id="node15" class="node">
<title>CardedRightSidebar2PageScrollComponent</title>
<polygon fill="#ffffb3" stroke="black" points="8171.79,-122 7908.21,-122 7908.21,-86 8171.79,-86 8171.79,-122"/>
<text text-anchor="middle" x="8040" y="-99.8" font-family="Times,serif" font-size="14.00">CardedRightSidebar2PageScrollComponent</text>
</g>
<!-- CardedRightSidebar2PageScrollComponent&#45;&gt;PageLayoutsModule -->
<g id="edge15" class="edge">
<title>CardedRightSidebar2PageScrollComponent&#45;&gt;PageLayoutsModule</title>
<path fill="none" stroke="black" d="M8040,-122.01C8040,-138.05 8040,-159 8040,-159 8040,-159 6860.2,-159 6860.2,-159"/>
<polygon fill="black" stroke="black" points="6860.2,-155.5 6850.2,-159 6860.2,-162.5 6860.2,-155.5"/>
</g>
<!-- EmptyNormalScrollComponent -->
<g id="node16" class="node">
<title>EmptyNormalScrollComponent</title>
<polygon fill="#ffffb3" stroke="black" points="7890.37,-122 7695.63,-122 7695.63,-86 7890.37,-86 7890.37,-122"/>
<text text-anchor="middle" x="7793" y="-99.8" font-family="Times,serif" font-size="14.00">EmptyNormalScrollComponent</text>
</g>
<!-- EmptyNormalScrollComponent&#45;&gt;PageLayoutsModule -->
<g id="edge16" class="edge">
<title>EmptyNormalScrollComponent&#45;&gt;PageLayoutsModule</title>
<path fill="none" stroke="black" d="M7793,-122.24C7793,-137.57 7793,-157 7793,-157 7793,-157 6860.2,-157 6860.2,-157"/>
<polygon fill="black" stroke="black" points="6860.2,-153.5 6850.2,-157 6860.2,-160.5 6860.2,-153.5"/>
</g>
<!-- EmptyPageScrollComponent -->
<g id="node17" class="node">
<title>EmptyPageScrollComponent</title>
<polygon fill="#ffffb3" stroke="black" points="7677.82,-122 7498.18,-122 7498.18,-86 7677.82,-86 7677.82,-122"/>
<text text-anchor="middle" x="7588" y="-99.8" font-family="Times,serif" font-size="14.00">EmptyPageScrollComponent</text>
</g>
<!-- EmptyPageScrollComponent&#45;&gt;PageLayoutsModule -->
<g id="edge17" class="edge">
<title>EmptyPageScrollComponent&#45;&gt;PageLayoutsModule</title>
<path fill="none" stroke="black" d="M7588,-122.19C7588,-137.18 7588,-156 7588,-156 7588,-156 6860.14,-156 6860.14,-156"/>
<polygon fill="black" stroke="black" points="6860.14,-152.5 6850.14,-156 6860.14,-159.5 6860.14,-152.5"/>
</g>
<!-- OverviewComponent -->
<g id="node18" class="node">
<title>OverviewComponent</title>
<polygon fill="#ffffb3" stroke="black" points="7480.03,-122 7343.97,-122 7343.97,-86 7480.03,-86 7480.03,-122"/>
<text text-anchor="middle" x="7412" y="-99.8" font-family="Times,serif" font-size="14.00">OverviewComponent</text>
</g>
<!-- OverviewComponent&#45;&gt;PageLayoutsModule -->
<g id="edge18" class="edge">
<title>OverviewComponent&#45;&gt;PageLayoutsModule</title>
<path fill="none" stroke="black" d="M7412,-122.05C7412,-136.37 7412,-154 7412,-154 7412,-154 6860.02,-154 6860.02,-154"/>
<polygon fill="black" stroke="black" points="6860.02,-150.5 6850.02,-154 6860.02,-157.5 6860.02,-150.5"/>
</g>
<!-- SimpleFullwidth1ContentScrollComponent -->
<g id="node19" class="node">
<title>SimpleFullwidth1ContentScrollComponent</title>
<polygon fill="#ffffb3" stroke="black" points="7326.22,-122 7065.78,-122 7065.78,-86 7326.22,-86 7326.22,-122"/>
<text text-anchor="middle" x="7196" y="-99.8" font-family="Times,serif" font-size="14.00">SimpleFullwidth1ContentScrollComponent</text>
</g>
<!-- SimpleFullwidth1ContentScrollComponent&#45;&gt;PageLayoutsModule -->
<g id="edge19" class="edge">
<title>SimpleFullwidth1ContentScrollComponent&#45;&gt;PageLayoutsModule</title>
<path fill="none" stroke="black" d="M7196,-122.25C7196,-136.18 7196,-153 7196,-153 7196,-153 6860.19,-153 6860.19,-153"/>
<polygon fill="black" stroke="black" points="6860.19,-149.5 6850.19,-153 6860.19,-156.5 6860.19,-149.5"/>
</g>
<!-- SimpleFullwidth1NormalScrollComponent -->
<g id="node20" class="node">
<title>SimpleFullwidth1NormalScrollComponent</title>
<polygon fill="#ffffb3" stroke="black" points="7048.16,-122 6789.84,-122 6789.84,-86 7048.16,-86 7048.16,-122"/>
<text text-anchor="middle" x="6919" y="-99.8" font-family="Times,serif" font-size="14.00">SimpleFullwidth1NormalScrollComponent</text>
</g>
<!-- SimpleFullwidth1NormalScrollComponent&#45;&gt;PageLayoutsModule -->
<g id="edge20" class="edge">
<title>SimpleFullwidth1NormalScrollComponent&#45;&gt;PageLayoutsModule</title>
<path fill="none" stroke="black" d="M6819.8,-122.11C6819.8,-122.11 6819.8,-140.99 6819.8,-140.99"/>
<polygon fill="black" stroke="black" points="6816.3,-140.99 6819.8,-150.99 6823.3,-140.99 6816.3,-140.99"/>
</g>
<!-- SimpleFullwidth1PageScrollComponent -->
<g id="node21" class="node">
<title>SimpleFullwidth1PageScrollComponent</title>
<polygon fill="#ffffb3" stroke="black" points="6771.6,-122 6528.4,-122 6528.4,-86 6771.6,-86 6771.6,-122"/>
<text text-anchor="middle" x="6650" y="-99.8" font-family="Times,serif" font-size="14.00">SimpleFullwidth1PageScrollComponent</text>
</g>
<!-- SimpleFullwidth1PageScrollComponent&#45;&gt;PageLayoutsModule -->
<g id="edge21" class="edge">
<title>SimpleFullwidth1PageScrollComponent&#45;&gt;PageLayoutsModule</title>
<path fill="none" stroke="black" d="M6744.81,-122.11C6744.81,-122.11 6744.81,-140.99 6744.81,-140.99"/>
<polygon fill="black" stroke="black" points="6741.31,-140.99 6744.81,-150.99 6748.31,-140.99 6741.31,-140.99"/>
</g>
<!-- SimpleFullwidth2ContentScrollComponent -->
<g id="node22" class="node">
<title>SimpleFullwidth2ContentScrollComponent</title>
<polygon fill="#ffffb3" stroke="black" points="6510.22,-122 6249.78,-122 6249.78,-86 6510.22,-86 6510.22,-122"/>
<text text-anchor="middle" x="6380" y="-99.8" font-family="Times,serif" font-size="14.00">SimpleFullwidth2ContentScrollComponent</text>
</g>
<!-- SimpleFullwidth2ContentScrollComponent&#45;&gt;PageLayoutsModule -->
<g id="edge22" class="edge">
<title>SimpleFullwidth2ContentScrollComponent&#45;&gt;PageLayoutsModule</title>
<path fill="none" stroke="black" d="M6380,-122.25C6380,-136.18 6380,-153 6380,-153 6380,-153 6707.74,-153 6707.74,-153"/>
<polygon fill="black" stroke="black" points="6707.74,-156.5 6717.74,-153 6707.74,-149.5 6707.74,-156.5"/>
</g>
<!-- SimpleFullwidth2NormalScrollComponent -->
<g id="node23" class="node">
<title>SimpleFullwidth2NormalScrollComponent</title>
<polygon fill="#ffffb3" stroke="black" points="6232.16,-122 5973.84,-122 5973.84,-86 6232.16,-86 6232.16,-122"/>
<text text-anchor="middle" x="6103" y="-99.8" font-family="Times,serif" font-size="14.00">SimpleFullwidth2NormalScrollComponent</text>
</g>
<!-- SimpleFullwidth2NormalScrollComponent&#45;&gt;PageLayoutsModule -->
<g id="edge23" class="edge">
<title>SimpleFullwidth2NormalScrollComponent&#45;&gt;PageLayoutsModule</title>
<path fill="none" stroke="black" d="M6103,-122.05C6103,-136.37 6103,-154 6103,-154 6103,-154 6708.08,-154 6708.08,-154"/>
<polygon fill="black" stroke="black" points="6708.08,-157.5 6718.08,-154 6708.08,-150.5 6708.08,-157.5"/>
</g>
<!-- SimpleFullwidth2PageScrollComponent -->
<g id="node24" class="node">
<title>SimpleFullwidth2PageScrollComponent</title>
<polygon fill="#ffffb3" stroke="black" points="5955.6,-122 5712.4,-122 5712.4,-86 5955.6,-86 5955.6,-122"/>
<text text-anchor="middle" x="5834" y="-99.8" font-family="Times,serif" font-size="14.00">SimpleFullwidth2PageScrollComponent</text>
</g>
<!-- SimpleFullwidth2PageScrollComponent&#45;&gt;PageLayoutsModule -->
<g id="edge24" class="edge">
<title>SimpleFullwidth2PageScrollComponent&#45;&gt;PageLayoutsModule</title>
<path fill="none" stroke="black" d="M5834,-122.19C5834,-137.18 5834,-156 5834,-156 5834,-156 6707.95,-156 6707.95,-156"/>
<polygon fill="black" stroke="black" points="6707.95,-159.5 6717.95,-156 6707.95,-152.5 6707.95,-159.5"/>
</g>
<!-- SimpleLeftSidebar1ContentScrollComponent -->
<g id="node25" class="node">
<title>SimpleLeftSidebar1ContentScrollComponent</title>
<polygon fill="#ffffb3" stroke="black" points="5694.85,-122 5423.15,-122 5423.15,-86 5694.85,-86 5694.85,-122"/>
<text text-anchor="middle" x="5559" y="-99.8" font-family="Times,serif" font-size="14.00">SimpleLeftSidebar1ContentScrollComponent</text>
</g>
<!-- SimpleLeftSidebar1ContentScrollComponent&#45;&gt;PageLayoutsModule -->
<g id="edge25" class="edge">
<title>SimpleLeftSidebar1ContentScrollComponent&#45;&gt;PageLayoutsModule</title>
<path fill="none" stroke="black" d="M5559,-122.24C5559,-137.57 5559,-157 5559,-157 5559,-157 6707.7,-157 6707.7,-157"/>
<polygon fill="black" stroke="black" points="6707.7,-160.5 6717.7,-157 6707.7,-153.5 6707.7,-160.5"/>
</g>
<!-- SimpleLeftSidebar1NormalScrollComponent -->
<g id="node26" class="node">
<title>SimpleLeftSidebar1NormalScrollComponent</title>
<polygon fill="#ffffb3" stroke="black" points="5405.28,-122 5134.72,-122 5134.72,-86 5405.28,-86 5405.28,-122"/>
<text text-anchor="middle" x="5270" y="-99.8" font-family="Times,serif" font-size="14.00">SimpleLeftSidebar1NormalScrollComponent</text>
</g>
<!-- SimpleLeftSidebar1NormalScrollComponent&#45;&gt;PageLayoutsModule -->
<g id="edge26" class="edge">
<title>SimpleLeftSidebar1NormalScrollComponent&#45;&gt;PageLayoutsModule</title>
<path fill="none" stroke="black" d="M5270,-122.01C5270,-138.05 5270,-159 5270,-159 5270,-159 6707.97,-159 6707.97,-159"/>
<polygon fill="black" stroke="black" points="6707.97,-162.5 6717.97,-159 6707.97,-155.5 6707.97,-162.5"/>
</g>
<!-- SimpleLeftSidebar1PageScrollComponent -->
<g id="node27" class="node">
<title>SimpleLeftSidebar1PageScrollComponent</title>
<polygon fill="#ffffb3" stroke="black" points="5116.23,-122 4861.77,-122 4861.77,-86 5116.23,-86 5116.23,-122"/>
<text text-anchor="middle" x="4989" y="-99.8" font-family="Times,serif" font-size="14.00">SimpleLeftSidebar1PageScrollComponent</text>
</g>
<!-- SimpleLeftSidebar1PageScrollComponent&#45;&gt;PageLayoutsModule -->
<g id="edge27" class="edge">
<title>SimpleLeftSidebar1PageScrollComponent&#45;&gt;PageLayoutsModule</title>
<path fill="none" stroke="black" d="M4989,-122.03C4989,-138.4 4989,-160 4989,-160 4989,-160 6707.99,-160 6707.99,-160"/>
<polygon fill="black" stroke="black" points="6707.99,-163.5 6717.99,-160 6707.99,-156.5 6707.99,-163.5"/>
</g>
<!-- SimpleLeftSidebar2ContentScrollComponent -->
<g id="node28" class="node">
<title>SimpleLeftSidebar2ContentScrollComponent</title>
<polygon fill="#ffffb3" stroke="black" points="4843.85,-122 4572.15,-122 4572.15,-86 4843.85,-86 4843.85,-122"/>
<text text-anchor="middle" x="4708" y="-99.8" font-family="Times,serif" font-size="14.00">SimpleLeftSidebar2ContentScrollComponent</text>
</g>
<!-- SimpleLeftSidebar2ContentScrollComponent&#45;&gt;PageLayoutsModule -->
<g id="edge28" class="edge">
<title>SimpleLeftSidebar2ContentScrollComponent&#45;&gt;PageLayoutsModule</title>
<path fill="none" stroke="black" d="M4708,-122.03C4708,-139.06 4708,-162 4708,-162 4708,-162 6707.86,-162 6707.86,-162"/>
<polygon fill="black" stroke="black" points="6707.86,-165.5 6717.86,-162 6707.86,-158.5 6707.86,-165.5"/>
</g>
<!-- SimpleLeftSidebar2InnerScrollComponent -->
<g id="node29" class="node">
<title>SimpleLeftSidebar2InnerScrollComponent</title>
<polygon fill="#ffffb3" stroke="black" points="4554.56,-122 4297.44,-122 4297.44,-86 4554.56,-86 4554.56,-122"/>
<text text-anchor="middle" x="4426" y="-99.8" font-family="Times,serif" font-size="14.00">SimpleLeftSidebar2InnerScrollComponent</text>
</g>
<!-- SimpleLeftSidebar2InnerScrollComponent&#45;&gt;PageLayoutsModule -->
<g id="edge29" class="edge">
<title>SimpleLeftSidebar2InnerScrollComponent&#45;&gt;PageLayoutsModule</title>
<path fill="none" stroke="black" d="M4426,-122.02C4426,-139.37 4426,-163 4426,-163 4426,-163 6707.85,-163 6707.85,-163"/>
<polygon fill="black" stroke="black" points="6707.85,-166.5 6717.85,-163 6707.85,-159.5 6707.85,-166.5"/>
</g>
<!-- SimpleLeftSidebar2NormalScrollComponent -->
<g id="node30" class="node">
<title>SimpleLeftSidebar2NormalScrollComponent</title>
<polygon fill="#ffffb3" stroke="black" points="4279.28,-122 4008.72,-122 4008.72,-86 4279.28,-86 4279.28,-122"/>
<text text-anchor="middle" x="4144" y="-99.8" font-family="Times,serif" font-size="14.00">SimpleLeftSidebar2NormalScrollComponent</text>
</g>
<!-- SimpleLeftSidebar2NormalScrollComponent&#45;&gt;PageLayoutsModule -->
<g id="edge30" class="edge">
<title>SimpleLeftSidebar2NormalScrollComponent&#45;&gt;PageLayoutsModule</title>
<path fill="none" stroke="black" d="M4144,-122.3C4144,-140.27 4144,-165 4144,-165 4144,-165 6708.08,-165 6708.08,-165"/>
<polygon fill="black" stroke="black" points="6708.08,-168.5 6718.08,-165 6708.08,-161.5 6708.08,-168.5"/>
</g>
<!-- SimpleLeftSidebar2PageScrollComponent -->
<g id="node31" class="node">
<title>SimpleLeftSidebar2PageScrollComponent</title>
<polygon fill="#ffffb3" stroke="black" points="3990.23,-122 3735.77,-122 3735.77,-86 3990.23,-86 3990.23,-122"/>
<text text-anchor="middle" x="3863" y="-99.8" font-family="Times,serif" font-size="14.00">SimpleLeftSidebar2PageScrollComponent</text>
</g>
<!-- SimpleLeftSidebar2PageScrollComponent&#45;&gt;PageLayoutsModule -->
<g id="edge31" class="edge">
<title>SimpleLeftSidebar2PageScrollComponent&#45;&gt;PageLayoutsModule</title>
<path fill="none" stroke="black" d="M3863,-122.22C3863,-140.83 3863,-167 3863,-167 3863,-167 6707.85,-167 6707.85,-167"/>
<polygon fill="black" stroke="black" points="6707.85,-170.5 6717.85,-167 6707.85,-163.5 6707.85,-170.5"/>
</g>
<!-- SimpleLeftSidebar3NormalScrollComponent -->
<g id="node32" class="node">
<title>SimpleLeftSidebar3NormalScrollComponent</title>
<polygon fill="#ffffb3" stroke="black" points="3717.28,-122 3446.72,-122 3446.72,-86 3717.28,-86 3717.28,-122"/>
<text text-anchor="middle" x="3582" y="-99.8" font-family="Times,serif" font-size="14.00">SimpleLeftSidebar3NormalScrollComponent</text>
</g>
<!-- SimpleLeftSidebar3NormalScrollComponent&#45;&gt;PageLayoutsModule -->
<g id="edge32" class="edge">
<title>SimpleLeftSidebar3NormalScrollComponent&#45;&gt;PageLayoutsModule</title>
<path fill="none" stroke="black" d="M3582,-122.17C3582,-141.09 3582,-168 3582,-168 3582,-168 6707.86,-168 6707.86,-168"/>
<polygon fill="black" stroke="black" points="6707.86,-171.5 6717.86,-168 6707.86,-164.5 6707.86,-171.5"/>
</g>
<!-- SimpleLeftSidebar3PageScrollComponent -->
<g id="node33" class="node">
<title>SimpleLeftSidebar3PageScrollComponent</title>
<polygon fill="#ffffb3" stroke="black" points="3428.23,-122 3173.77,-122 3173.77,-86 3428.23,-86 3428.23,-122"/>
<text text-anchor="middle" x="3301" y="-99.8" font-family="Times,serif" font-size="14.00">SimpleLeftSidebar3PageScrollComponent</text>
</g>
<!-- SimpleLeftSidebar3PageScrollComponent&#45;&gt;PageLayoutsModule -->
<g id="edge33" class="edge">
<title>SimpleLeftSidebar3PageScrollComponent&#45;&gt;PageLayoutsModule</title>
<path fill="none" stroke="black" d="M3301,-122.11C3301,-141.34 3301,-169 3301,-169 3301,-169 6707.92,-169 6707.92,-169"/>
<polygon fill="black" stroke="black" points="6707.92,-172.5 6717.92,-169 6707.92,-165.5 6707.92,-172.5"/>
</g>
<!-- SimpleLeftSidebar3ScrollComponent -->
<g id="node34" class="node">
<title>SimpleLeftSidebar3ScrollComponent</title>
<polygon fill="#ffffb3" stroke="black" points="3155.52,-122 2928.48,-122 2928.48,-86 3155.52,-86 3155.52,-122"/>
<text text-anchor="middle" x="3042" y="-99.8" font-family="Times,serif" font-size="14.00">SimpleLeftSidebar3ScrollComponent</text>
</g>
<!-- SimpleLeftSidebar3ScrollComponent&#45;&gt;PageLayoutsModule -->
<g id="edge34" class="edge">
<title>SimpleLeftSidebar3ScrollComponent&#45;&gt;PageLayoutsModule</title>
<path fill="none" stroke="black" d="M3042,-122.31C3042,-142.15 3042,-171 3042,-171 3042,-171 6707.86,-171 6707.86,-171"/>
<polygon fill="black" stroke="black" points="6707.86,-174.5 6717.86,-171 6707.86,-167.5 6707.86,-174.5"/>
</g>
<!-- SimpleRightSidebar1ContentScrollComponent -->
<g id="node35" class="node">
<title>SimpleRightSidebar1ContentScrollComponent</title>
<polygon fill="#ffffb3" stroke="black" points="2909.65,-122 2630.35,-122 2630.35,-86 2909.65,-86 2909.65,-122"/>
<text text-anchor="middle" x="2770" y="-99.8" font-family="Times,serif" font-size="14.00">SimpleRightSidebar1ContentScrollComponent</text>
</g>
<!-- SimpleRightSidebar1ContentScrollComponent&#45;&gt;PageLayoutsModule -->
<g id="edge35" class="edge">
<title>SimpleRightSidebar1ContentScrollComponent&#45;&gt;PageLayoutsModule</title>
<path fill="none" stroke="black" d="M2770,-122.22C2770,-142.37 2770,-172 2770,-172 2770,-172 6708.09,-172 6708.09,-172"/>
<polygon fill="black" stroke="black" points="6708.09,-175.5 6718.09,-172 6708.09,-168.5 6708.09,-175.5"/>
</g>
<!-- SimpleRightSidebar1NormalScrollComponent -->
<g id="node36" class="node">
<title>SimpleRightSidebar1NormalScrollComponent</title>
<polygon fill="#ffffb3" stroke="black" points="2612.08,-122 2333.92,-122 2333.92,-86 2612.08,-86 2612.08,-122"/>
<text text-anchor="middle" x="2473" y="-99.8" font-family="Times,serif" font-size="14.00">SimpleRightSidebar1NormalScrollComponent</text>
</g>
<!-- SimpleRightSidebar1NormalScrollComponent&#45;&gt;PageLayoutsModule -->
<g id="edge36" class="edge">
<title>SimpleRightSidebar1NormalScrollComponent&#45;&gt;PageLayoutsModule</title>
<path fill="none" stroke="black" d="M2473,-122.03C2473,-142.77 2473,-174 2473,-174 2473,-174 6708.01,-174 6708.01,-174"/>
<polygon fill="black" stroke="black" points="6708.01,-177.5 6718.01,-174 6708.01,-170.5 6708.01,-177.5"/>
</g>
<!-- SimpleRightSidebar1PageScrollComponent -->
<g id="node37" class="node">
<title>SimpleRightSidebar1PageScrollComponent</title>
<polygon fill="#ffffb3" stroke="black" points="2316.03,-122 2053.97,-122 2053.97,-86 2316.03,-86 2316.03,-122"/>
<text text-anchor="middle" x="2185" y="-99.8" font-family="Times,serif" font-size="14.00">SimpleRightSidebar1PageScrollComponent</text>
</g>
<!-- SimpleRightSidebar1PageScrollComponent&#45;&gt;PageLayoutsModule -->
<g id="edge37" class="edge">
<title>SimpleRightSidebar1PageScrollComponent&#45;&gt;PageLayoutsModule</title>
<path fill="none" stroke="black" d="M2185,-122.28C2185,-143.32 2185,-175 2185,-175 2185,-175 6708.1,-175 6708.1,-175"/>
<polygon fill="black" stroke="black" points="6708.1,-178.5 6718.1,-175 6708.1,-171.5 6708.1,-178.5"/>
</g>
<!-- SimpleRightSidebar2ContentScrollComponent -->
<g id="node38" class="node">
<title>SimpleRightSidebar2ContentScrollComponent</title>
<polygon fill="#ffffb3" stroke="black" points="2035.65,-122 1756.35,-122 1756.35,-86 2035.65,-86 2035.65,-122"/>
<text text-anchor="middle" x="1896" y="-99.8" font-family="Times,serif" font-size="14.00">SimpleRightSidebar2ContentScrollComponent</text>
</g>
<!-- SimpleRightSidebar2ContentScrollComponent&#45;&gt;PageLayoutsModule -->
<g id="edge38" class="edge">
<title>SimpleRightSidebar2ContentScrollComponent&#45;&gt;PageLayoutsModule</title>
<path fill="none" stroke="black" d="M1896,-122.04C1896,-143.66 1896,-177 1896,-177 1896,-177 6707.68,-177 6707.68,-177"/>
<polygon fill="black" stroke="black" points="6707.68,-180.5 6717.68,-177 6707.68,-173.5 6707.68,-180.5"/>
</g>
<!-- SimpleRightSidebar2InnerScrollComponent -->
<g id="node39" class="node">
<title>SimpleRightSidebar2InnerScrollComponent</title>
<polygon fill="#ffffb3" stroke="black" points="1738.36,-122 1473.64,-122 1473.64,-86 1738.36,-86 1738.36,-122"/>
<text text-anchor="middle" x="1606" y="-99.8" font-family="Times,serif" font-size="14.00">SimpleRightSidebar2InnerScrollComponent</text>
</g>
<!-- SimpleRightSidebar2InnerScrollComponent&#45;&gt;PageLayoutsModule -->
<g id="edge39" class="edge">
<title>SimpleRightSidebar2InnerScrollComponent&#45;&gt;PageLayoutsModule</title>
<path fill="none" stroke="black" d="M1606,-122.29C1606,-144.21 1606,-178 1606,-178 1606,-178 6708.06,-178 6708.06,-178"/>
<polygon fill="black" stroke="black" points="6708.06,-181.5 6718.06,-178 6708.06,-174.5 6708.06,-181.5"/>
</g>
<!-- SimpleRightSidebar2NormalScrollComponent -->
<g id="node40" class="node">
<title>SimpleRightSidebar2NormalScrollComponent</title>
<polygon fill="#ffffb3" stroke="black" points="1456.08,-122 1177.92,-122 1177.92,-86 1456.08,-86 1456.08,-122"/>
<text text-anchor="middle" x="1317" y="-99.8" font-family="Times,serif" font-size="14.00">SimpleRightSidebar2NormalScrollComponent</text>
</g>
<!-- SimpleRightSidebar2NormalScrollComponent&#45;&gt;PageLayoutsModule -->
<g id="edge40" class="edge">
<title>SimpleRightSidebar2NormalScrollComponent&#45;&gt;PageLayoutsModule</title>
<path fill="none" stroke="black" d="M1317,-122.01C1317,-144.49 1317,-180 1317,-180 1317,-180 6707.83,-180 6707.83,-180"/>
<polygon fill="black" stroke="black" points="6707.83,-183.5 6717.83,-180 6707.83,-176.5 6707.83,-183.5"/>
</g>
<!-- SimpleRightSidebar2PageScrollComponent -->
<g id="node41" class="node">
<title>SimpleRightSidebar2PageScrollComponent</title>
<polygon fill="#ffffb3" stroke="black" points="1160.03,-122 897.97,-122 897.97,-86 1160.03,-86 1160.03,-122"/>
<text text-anchor="middle" x="1029" y="-99.8" font-family="Times,serif" font-size="14.00">SimpleRightSidebar2PageScrollComponent</text>
</g>
<!-- SimpleRightSidebar2PageScrollComponent&#45;&gt;PageLayoutsModule -->
<g id="edge41" class="edge">
<title>SimpleRightSidebar2PageScrollComponent&#45;&gt;PageLayoutsModule</title>
<path fill="none" stroke="black" d="M1029,-122.09C1029,-145.13 1029,-182 1029,-182 1029,-182 6707.88,-182 6707.88,-182"/>
<polygon fill="black" stroke="black" points="6707.88,-185.5 6717.88,-182 6707.88,-178.5 6707.88,-185.5"/>
</g>
<!-- SimpleRightSidebar3ContentScrollComponent -->
<g id="node42" class="node">
<title>SimpleRightSidebar3ContentScrollComponent</title>
<polygon fill="#ffffb3" stroke="black" points="879.65,-122 600.35,-122 600.35,-86 879.65,-86 879.65,-122"/>
<text text-anchor="middle" x="740" y="-99.8" font-family="Times,serif" font-size="14.00">SimpleRightSidebar3ContentScrollComponent</text>
</g>
<!-- SimpleRightSidebar3ContentScrollComponent&#45;&gt;PageLayoutsModule -->
<g id="edge42" class="edge">
<title>SimpleRightSidebar3ContentScrollComponent&#45;&gt;PageLayoutsModule</title>
<path fill="none" stroke="black" d="M740,-122.32C740,-145.66 740,-183 740,-183 740,-183 6707.93,-183 6707.93,-183"/>
<polygon fill="black" stroke="black" points="6707.93,-186.5 6717.93,-183 6707.93,-179.5 6707.93,-186.5"/>
</g>
<!-- SimpleRightSidebar3NormalScrollComponent -->
<g id="node43" class="node">
<title>SimpleRightSidebar3NormalScrollComponent</title>
<polygon fill="#ffffb3" stroke="black" points="582.08,-122 303.92,-122 303.92,-86 582.08,-86 582.08,-122"/>
<text text-anchor="middle" x="443" y="-99.8" font-family="Times,serif" font-size="14.00">SimpleRightSidebar3NormalScrollComponent</text>
</g>
<!-- SimpleRightSidebar3NormalScrollComponent&#45;&gt;PageLayoutsModule -->
<g id="edge43" class="edge">
<title>SimpleRightSidebar3NormalScrollComponent&#45;&gt;PageLayoutsModule</title>
<path fill="none" stroke="black" d="M443,-122.15C443,-145.76 443,-184 443,-184 443,-184 6708.13,-184 6708.13,-184"/>
<polygon fill="black" stroke="black" points="6708.13,-187.5 6718.13,-184 6708.13,-180.5 6708.13,-187.5"/>
</g>
<!-- SimpleRightSidebar3PageScrollComponent -->
<g id="node44" class="node">
<title>SimpleRightSidebar3PageScrollComponent</title>
<polygon fill="#ffffb3" stroke="black" points="286.03,-122 23.97,-122 23.97,-86 286.03,-86 286.03,-122"/>
<text text-anchor="middle" x="155" y="-99.8" font-family="Times,serif" font-size="14.00">SimpleRightSidebar3PageScrollComponent</text>
</g>
<!-- SimpleRightSidebar3PageScrollComponent&#45;&gt;PageLayoutsModule -->
<g id="edge44" class="edge">
<title>SimpleRightSidebar3PageScrollComponent&#45;&gt;PageLayoutsModule</title>
<path fill="none" stroke="black" d="M155,-122.2C155,-146.36 155,-186 155,-186 155,-186 6708.12,-186 6708.12,-186"/>
<polygon fill="black" stroke="black" points="6708.12,-189.5 6718.12,-186 6708.12,-182.5 6708.12,-189.5"/>
</g>
<!-- DemoPlaceholderModule -->
<g id="node46" class="node">
<title>DemoPlaceholderModule</title>
<polygon fill="#8dd3c7" stroke="black" points="12773.84,-122 12770.84,-126 12749.84,-126 12746.84,-122 12614.16,-122 12614.16,-86 12773.84,-86 12773.84,-122"/>
<text text-anchor="middle" x="12694" y="-99.8" font-family="Times,serif" font-size="14.00">DemoPlaceholderModule</text>
</g>
<!-- DemoPlaceholderModule&#45;&gt;PageLayoutsModule -->
<g id="edge45" class="edge">
<title>DemoPlaceholderModule&#45;&gt;PageLayoutsModule</title>
<path fill="none" stroke="black" d="M12694,-122.2C12694,-146.36 12694,-186 12694,-186 12694,-186 6859.87,-186 6859.87,-186"/>
<polygon fill="black" stroke="black" points="6859.87,-182.5 6849.87,-186 6859.87,-189.5 6859.87,-182.5"/>
</g>
<!-- DemoSidebarModule -->
<g id="node47" class="node">
<title>DemoSidebarModule</title>
<polygon fill="#8dd3c7" stroke="black" points="12596.03,-122 12593.03,-126 12572.03,-126 12569.03,-122 12459.97,-122 12459.97,-86 12596.03,-86 12596.03,-122"/>
<text text-anchor="middle" x="12528" y="-99.8" font-family="Times,serif" font-size="14.00">DemoSidebarModule</text>
</g>
<!-- DemoSidebarModule&#45;&gt;PageLayoutsModule -->
<g id="edge46" class="edge">
<title>DemoSidebarModule&#45;&gt;PageLayoutsModule</title>
<path fill="none" stroke="black" d="M12528,-122.15C12528,-145.76 12528,-184 12528,-184 12528,-184 6859.99,-184 6859.99,-184"/>
<polygon fill="black" stroke="black" points="6859.99,-180.5 6849.99,-184 6859.99,-187.5 6859.99,-180.5"/>
</g>
<!-- LayoutOverviewModule -->
<g id="node48" class="node">
<title>LayoutOverviewModule</title>
<polygon fill="#8dd3c7" stroke="black" points="12442.4,-122 12439.4,-126 12418.4,-126 12415.4,-122 12287.6,-122 12287.6,-86 12442.4,-86 12442.4,-122"/>
<text text-anchor="middle" x="12365" y="-99.8" font-family="Times,serif" font-size="14.00">LayoutOverviewModule</text>
</g>
<!-- LayoutOverviewModule&#45;&gt;PageLayoutsModule -->
<g id="edge47" class="edge">
<title>LayoutOverviewModule&#45;&gt;PageLayoutsModule</title>
<path fill="none" stroke="black" d="M12365,-122.32C12365,-145.66 12365,-183 12365,-183 12365,-183 6860.07,-183 6860.07,-183"/>
<polygon fill="black" stroke="black" points="6860.07,-179.5 6850.07,-183 6860.07,-186.5 6860.07,-179.5"/>
</g>
<!-- SharedModule -->
<g id="node49" class="node">
<title>SharedModule</title>
<polygon fill="#8dd3c7" stroke="black" points="12270.42,-122 12267.42,-126 12246.42,-126 12243.42,-122 12171.58,-122 12171.58,-86 12270.42,-86 12270.42,-122"/>
<text text-anchor="middle" x="12221" y="-99.8" font-family="Times,serif" font-size="14.00">SharedModule</text>
</g>
<!-- SharedModule&#45;&gt;PageLayoutsModule -->
<g id="edge48" class="edge">
<title>SharedModule&#45;&gt;PageLayoutsModule</title>
<path fill="none" stroke="black" d="M12221,-122.09C12221,-145.13 12221,-182 12221,-182 12221,-182 6860.3,-182 6860.3,-182"/>
<polygon fill="black" stroke="black" points="6860.3,-178.5 6850.3,-182 6860.3,-185.5 6860.3,-178.5"/>
</g>
</g>
</svg>
