<?xml version="1.0" encoding="UTF-8" standalone="no"?>
<!DOCTYPE svg PUBLIC "-//W3C//DTD SVG 1.1//EN"
 "http://www.w3.org/Graphics/SVG/1.1/DTD/svg11.dtd">
<!-- Generated by graphviz version 2.47.0 (20210316.0004)
 -->
<!-- Title: dependencies Pages: 1 -->
<svg width="666pt" height="211pt"
 viewBox="0.00 0.00 666.00 211.00" xmlns="http://www.w3.org/2000/svg" xmlns:xlink="http://www.w3.org/1999/xlink">
<g id="graph0" class="graph" transform="scale(1 1) rotate(0) translate(4 207)">
<title>dependencies</title>
<polygon fill="white" stroke="transparent" points="-4,4 -4,-207 662,-207 662,4 -4,4"/>
<text text-anchor="start" x="308.01" y="-42.4" font-family="Times-12" font-weight="bold" font-size="14.00">Legend</text>
<polygon fill="#ffffb3" stroke="transparent" points="95,-10 95,-30 115,-30 115,-10 95,-10"/>
<text text-anchor="start" x="118.63" y="-15.4" font-family="Times-12" font-size="14.00"> &#160;Declarations</text>
<polygon fill="#8dd3c7" stroke="transparent" points="208,-10 208,-30 228,-30 228,-10 208,-10"/>
<text text-anchor="start" x="231.73" y="-15.4" font-family="Times-12" font-size="14.00"> &#160;Module</text>
<polygon fill="#80b1d3" stroke="transparent" points="294,-10 294,-30 314,-30 314,-10 294,-10"/>
<text text-anchor="start" x="317.78" y="-15.4" font-family="Times-12" font-size="14.00"> &#160;Bootstrap</text>
<polygon fill="#fdb462" stroke="transparent" points="391,-10 391,-30 411,-30 411,-10 391,-10"/>
<text text-anchor="start" x="414.67" y="-15.4" font-family="Times-12" font-size="14.00"> &#160;Providers</text>
<polygon fill="#fb8072" stroke="transparent" points="487,-10 487,-30 507,-30 507,-10 487,-10"/>
<text text-anchor="start" x="510.73" y="-15.4" font-family="Times-12" font-size="14.00"> &#160;Exports</text>
<g id="clust1" class="cluster">
<title>cluster_ContactsModule</title>
<polygon fill="none" stroke="black" stroke-dasharray="1,5" points="8,-70 8,-195 650,-195 650,-70 8,-70"/>
</g>
<g id="clust6" class="cluster">
<title>cluster_ContactsModule_imports</title>
<polygon fill="none" stroke="black" points="528,-78 528,-130 642,-130 642,-78 528,-78"/>
</g>
<g id="clust2" class="cluster">
<title>cluster_ContactsModule_declarations</title>
<polygon fill="none" stroke="black" points="16,-78 16,-130 520,-130 520,-78 16,-78"/>
</g>
<!-- ContactsComponent -->
<g id="node1" class="node">
<title>ContactsComponent</title>
<polygon fill="#ffffb3" stroke="black" points="512.32,-122 381.68,-122 381.68,-86 512.32,-86 512.32,-122"/>
<text text-anchor="middle" x="447" y="-99.8" font-family="Times,serif" font-size="14.00">ContactsComponent</text>
</g>
<!-- ContactsModule -->
<g id="node4" class="node">
<title>ContactsModule</title>
<polygon fill="#8dd3c7" stroke="black" points="417.04,-187 414.04,-191 393.04,-191 390.04,-187 308.96,-187 308.96,-151 417.04,-151 417.04,-187"/>
<text text-anchor="middle" x="363" y="-164.8" font-family="Times,serif" font-size="14.00">ContactsModule</text>
</g>
<!-- ContactsComponent&#45;&gt;ContactsModule -->
<g id="edge1" class="edge">
<title>ContactsComponent&#45;&gt;ContactsModule</title>
<path fill="none" stroke="black" d="M399.55,-122.11C399.55,-122.11 399.55,-140.99 399.55,-140.99"/>
<polygon fill="black" stroke="black" points="396.05,-140.99 399.55,-150.99 403.05,-140.99 396.05,-140.99"/>
</g>
<!-- ContactsDetailsComponent -->
<g id="node2" class="node">
<title>ContactsDetailsComponent</title>
<polygon fill="#ffffb3" stroke="black" points="363.98,-122 194.02,-122 194.02,-86 363.98,-86 363.98,-122"/>
<text text-anchor="middle" x="279" y="-99.8" font-family="Times,serif" font-size="14.00">ContactsDetailsComponent</text>
</g>
<!-- ContactsDetailsComponent&#45;&gt;ContactsModule -->
<g id="edge2" class="edge">
<title>ContactsDetailsComponent&#45;&gt;ContactsModule</title>
<path fill="none" stroke="black" d="M336.36,-122.11C336.36,-122.11 336.36,-140.99 336.36,-140.99"/>
<polygon fill="black" stroke="black" points="332.86,-140.99 336.36,-150.99 339.86,-140.99 332.86,-140.99"/>
</g>
<!-- ContactsListComponent -->
<g id="node3" class="node">
<title>ContactsListComponent</title>
<polygon fill="#ffffb3" stroke="black" points="176.1,-122 23.9,-122 23.9,-86 176.1,-86 176.1,-122"/>
<text text-anchor="middle" x="100" y="-99.8" font-family="Times,serif" font-size="14.00">ContactsListComponent</text>
</g>
<!-- ContactsListComponent&#45;&gt;ContactsModule -->
<g id="edge3" class="edge">
<title>ContactsListComponent&#45;&gt;ContactsModule</title>
<path fill="none" stroke="black" d="M100,-122.11C100,-141.34 100,-169 100,-169 100,-169 298.83,-169 298.83,-169"/>
<polygon fill="black" stroke="black" points="298.83,-172.5 308.83,-169 298.83,-165.5 298.83,-172.5"/>
</g>
<!-- SharedModule -->
<g id="node5" class="node">
<title>SharedModule</title>
<polygon fill="#8dd3c7" stroke="black" points="634.42,-122 631.42,-126 610.42,-126 607.42,-122 535.58,-122 535.58,-86 634.42,-86 634.42,-122"/>
<text text-anchor="middle" x="585" y="-99.8" font-family="Times,serif" font-size="14.00">SharedModule</text>
</g>
<!-- SharedModule&#45;&gt;ContactsModule -->
<g id="edge4" class="edge">
<title>SharedModule&#45;&gt;ContactsModule</title>
<path fill="none" stroke="black" d="M585,-122.11C585,-141.34 585,-169 585,-169 585,-169 427.31,-169 427.31,-169"/>
<polygon fill="black" stroke="black" points="427.31,-165.5 417.31,-169 427.31,-172.5 427.31,-165.5"/>
</g>
</g>
</svg>
