<?xml version="1.0" encoding="UTF-8" standalone="no"?>
<!DOCTYPE svg PUBLIC "-//W3C//DTD SVG 1.1//EN"
 "http://www.w3.org/Graphics/SVG/1.1/DTD/svg11.dtd">
<!-- Generated by graphviz version 2.47.0 (20210316.0004)
 -->
<!-- Title: dependencies Pages: 1 -->
<svg width="734pt" height="211pt"
 viewBox="0.00 0.00 734.00 211.00" xmlns="http://www.w3.org/2000/svg" xmlns:xlink="http://www.w3.org/1999/xlink">
<g id="graph0" class="graph" transform="scale(1 1) rotate(0) translate(4 207)">
<title>dependencies</title>
<polygon fill="white" stroke="transparent" points="-4,4 -4,-207 730,-207 730,4 -4,4"/>
<text text-anchor="start" x="342.01" y="-42.4" font-family="Times-12" font-weight="bold" font-size="14.00">Legend</text>
<polygon fill="#ffffb3" stroke="transparent" points="129,-10 129,-30 149,-30 149,-10 129,-10"/>
<text text-anchor="start" x="152.63" y="-15.4" font-family="Times-12" font-size="14.00"> &#160;Declarations</text>
<polygon fill="#8dd3c7" stroke="transparent" points="242,-10 242,-30 262,-30 262,-10 242,-10"/>
<text text-anchor="start" x="265.73" y="-15.4" font-family="Times-12" font-size="14.00"> &#160;Module</text>
<polygon fill="#80b1d3" stroke="transparent" points="328,-10 328,-30 348,-30 348,-10 328,-10"/>
<text text-anchor="start" x="351.78" y="-15.4" font-family="Times-12" font-size="14.00"> &#160;Bootstrap</text>
<polygon fill="#fdb462" stroke="transparent" points="425,-10 425,-30 445,-30 445,-10 425,-10"/>
<text text-anchor="start" x="448.67" y="-15.4" font-family="Times-12" font-size="14.00"> &#160;Providers</text>
<polygon fill="#fb8072" stroke="transparent" points="521,-10 521,-30 541,-30 541,-10 521,-10"/>
<text text-anchor="start" x="544.73" y="-15.4" font-family="Times-12" font-size="14.00"> &#160;Exports</text>
<g id="clust1" class="cluster">
<title>cluster_FileManagerModule</title>
<polygon fill="none" stroke="black" stroke-dasharray="1,5" points="8,-70 8,-195 718,-195 718,-70 8,-70"/>
</g>
<g id="clust2" class="cluster">
<title>cluster_FileManagerModule_declarations</title>
<polygon fill="none" stroke="black" points="138,-78 138,-130 710,-130 710,-78 138,-78"/>
</g>
<g id="clust6" class="cluster">
<title>cluster_FileManagerModule_imports</title>
<polygon fill="none" stroke="black" points="16,-78 16,-130 130,-130 130,-78 16,-78"/>
</g>
<!-- FileManagerComponent -->
<g id="node1" class="node">
<title>FileManagerComponent</title>
<polygon fill="#ffffb3" stroke="black" points="702.36,-122 549.64,-122 549.64,-86 702.36,-86 702.36,-122"/>
<text text-anchor="middle" x="626" y="-99.8" font-family="Times,serif" font-size="14.00">FileManagerComponent</text>
</g>
<!-- FileManagerModule -->
<g id="node4" class="node">
<title>FileManagerModule</title>
<polygon fill="#8dd3c7" stroke="black" points="399.58,-187 396.58,-191 375.58,-191 372.58,-187 268.42,-187 268.42,-151 399.58,-151 399.58,-187"/>
<text text-anchor="middle" x="334" y="-164.8" font-family="Times,serif" font-size="14.00">FileManagerModule</text>
</g>
<!-- FileManagerComponent&#45;&gt;FileManagerModule -->
<g id="edge1" class="edge">
<title>FileManagerComponent&#45;&gt;FileManagerModule</title>
<path fill="none" stroke="black" d="M626,-122.11C626,-141.34 626,-169 626,-169 626,-169 409.89,-169 409.89,-169"/>
<polygon fill="black" stroke="black" points="409.89,-165.5 399.89,-169 409.89,-172.5 409.89,-165.5"/>
</g>
<!-- FileManagerDetailsComponent -->
<g id="node2" class="node">
<title>FileManagerDetailsComponent</title>
<polygon fill="#ffffb3" stroke="black" points="531.01,-122 338.99,-122 338.99,-86 531.01,-86 531.01,-122"/>
<text text-anchor="middle" x="435" y="-99.8" font-family="Times,serif" font-size="14.00">FileManagerDetailsComponent</text>
</g>
<!-- FileManagerDetailsComponent&#45;&gt;FileManagerModule -->
<g id="edge2" class="edge">
<title>FileManagerDetailsComponent&#45;&gt;FileManagerModule</title>
<path fill="none" stroke="black" d="M369.14,-122.11C369.14,-122.11 369.14,-140.99 369.14,-140.99"/>
<polygon fill="black" stroke="black" points="365.64,-140.99 369.14,-150.99 372.64,-140.99 365.64,-140.99"/>
</g>
<!-- FileManagerListComponent -->
<g id="node3" class="node">
<title>FileManagerListComponent</title>
<polygon fill="#ffffb3" stroke="black" points="320.14,-122 145.86,-122 145.86,-86 320.14,-86 320.14,-122"/>
<text text-anchor="middle" x="233" y="-99.8" font-family="Times,serif" font-size="14.00">FileManagerListComponent</text>
</g>
<!-- FileManagerListComponent&#45;&gt;FileManagerModule -->
<g id="edge3" class="edge">
<title>FileManagerListComponent&#45;&gt;FileManagerModule</title>
<path fill="none" stroke="black" d="M294.39,-122.11C294.39,-122.11 294.39,-140.99 294.39,-140.99"/>
<polygon fill="black" stroke="black" points="290.89,-140.99 294.39,-150.99 297.89,-140.99 290.89,-140.99"/>
</g>
<!-- SharedModule -->
<g id="node5" class="node">
<title>SharedModule</title>
<polygon fill="#8dd3c7" stroke="black" points="122.42,-122 119.42,-126 98.42,-126 95.42,-122 23.58,-122 23.58,-86 122.42,-86 122.42,-122"/>
<text text-anchor="middle" x="73" y="-99.8" font-family="Times,serif" font-size="14.00">SharedModule</text>
</g>
<!-- SharedModule&#45;&gt;FileManagerModule -->
<g id="edge4" class="edge">
<title>SharedModule&#45;&gt;FileManagerModule</title>
<path fill="none" stroke="black" d="M73,-122.11C73,-141.34 73,-169 73,-169 73,-169 258.14,-169 258.14,-169"/>
<polygon fill="black" stroke="black" points="258.14,-172.5 268.14,-169 258.14,-165.5 258.14,-172.5"/>
</g>
</g>
</svg>
