<?xml version="1.0" encoding="UTF-8" standalone="no"?>
<!DOCTYPE svg PUBLIC "-//W3C//DTD SVG 1.1//EN"
 "http://www.w3.org/Graphics/SVG/1.1/DTD/svg11.dtd">
<!-- Generated by graphviz version 2.47.0 (20210316.0004)
 -->
<!-- Title: dependencies Pages: 1 -->
<svg width="1956pt" height="211pt"
 viewBox="0.00 0.00 1956.00 211.00" xmlns="http://www.w3.org/2000/svg" xmlns:xlink="http://www.w3.org/1999/xlink">
<g id="graph0" class="graph" transform="scale(1 1) rotate(0) translate(4 207)">
<title>dependencies</title>
<polygon fill="white" stroke="transparent" points="-4,4 -4,-207 1952,-207 1952,4 -4,4"/>
<text text-anchor="start" x="953.01" y="-42.4" font-family="Times-12" font-weight="bold" font-size="14.00">Legend</text>
<polygon fill="#ffffb3" stroke="transparent" points="740,-10 740,-30 760,-30 760,-10 740,-10"/>
<text text-anchor="start" x="763.63" y="-15.4" font-family="Times-12" font-size="14.00"> &#160;Declarations</text>
<polygon fill="#8dd3c7" stroke="transparent" points="853,-10 853,-30 873,-30 873,-10 853,-10"/>
<text text-anchor="start" x="876.73" y="-15.4" font-family="Times-12" font-size="14.00"> &#160;Module</text>
<polygon fill="#80b1d3" stroke="transparent" points="939,-10 939,-30 959,-30 959,-10 939,-10"/>
<text text-anchor="start" x="962.78" y="-15.4" font-family="Times-12" font-size="14.00"> &#160;Bootstrap</text>
<polygon fill="#fdb462" stroke="transparent" points="1036,-10 1036,-30 1056,-30 1056,-10 1036,-10"/>
<text text-anchor="start" x="1059.67" y="-15.4" font-family="Times-12" font-size="14.00"> &#160;Providers</text>
<polygon fill="#fb8072" stroke="transparent" points="1132,-10 1132,-30 1152,-30 1152,-10 1132,-10"/>
<text text-anchor="start" x="1155.73" y="-15.4" font-family="Times-12" font-size="14.00"> &#160;Exports</text>
<g id="clust1" class="cluster">
<title>cluster_MailboxModule</title>
<polygon fill="none" stroke="black" stroke-dasharray="1,5" points="8,-70 8,-195 1940,-195 1940,-70 8,-70"/>
</g>
<g id="clust2" class="cluster">
<title>cluster_MailboxModule_declarations</title>
<polygon fill="none" stroke="black" points="628,-78 628,-130 1932,-130 1932,-78 628,-78"/>
</g>
<g id="clust10" class="cluster">
<title>cluster_MailboxModule_imports</title>
<polygon fill="none" stroke="black" points="16,-78 16,-130 620,-130 620,-78 16,-78"/>
</g>
<!-- MailboxComponent -->
<g id="node1" class="node">
<title>MailboxComponent</title>
<polygon fill="#ffffb3" stroke="black" points="1924.27,-122 1795.73,-122 1795.73,-86 1924.27,-86 1924.27,-122"/>
<text text-anchor="middle" x="1860" y="-99.8" font-family="Times,serif" font-size="14.00">MailboxComponent</text>
</g>
<!-- MailboxModule -->
<g id="node8" class="node">
<title>MailboxModule</title>
<polygon fill="#8dd3c7" stroke="black" points="966.49,-187 963.49,-191 942.49,-191 939.49,-187 859.51,-187 859.51,-151 966.49,-151 966.49,-187"/>
<text text-anchor="middle" x="913" y="-164.8" font-family="Times,serif" font-size="14.00">MailboxModule</text>
</g>
<!-- MailboxComponent&#45;&gt;MailboxModule -->
<g id="edge1" class="edge">
<title>MailboxComponent&#45;&gt;MailboxModule</title>
<path fill="none" stroke="black" d="M1860,-122.09C1860,-145.13 1860,-182 1860,-182 1860,-182 976.63,-182 976.63,-182"/>
<polygon fill="black" stroke="black" points="976.63,-178.5 966.63,-182 976.63,-185.5 976.63,-178.5"/>
</g>
<!-- MailboxComposeComponent -->
<g id="node2" class="node">
<title>MailboxComposeComponent</title>
<polygon fill="#ffffb3" stroke="black" points="1777.66,-122 1596.34,-122 1596.34,-86 1777.66,-86 1777.66,-122"/>
<text text-anchor="middle" x="1687" y="-99.8" font-family="Times,serif" font-size="14.00">MailboxComposeComponent</text>
</g>
<!-- MailboxComposeComponent&#45;&gt;MailboxModule -->
<g id="edge2" class="edge">
<title>MailboxComposeComponent&#45;&gt;MailboxModule</title>
<path fill="none" stroke="black" d="M1687,-122.28C1687,-143.32 1687,-175 1687,-175 1687,-175 976.51,-175 976.51,-175"/>
<polygon fill="black" stroke="black" points="976.51,-171.5 966.51,-175 976.51,-178.5 976.51,-171.5"/>
</g>
<!-- MailboxDetailsComponent -->
<g id="node3" class="node">
<title>MailboxDetailsComponent</title>
<polygon fill="#ffffb3" stroke="black" points="1578.43,-122 1409.57,-122 1409.57,-86 1578.43,-86 1578.43,-122"/>
<text text-anchor="middle" x="1494" y="-99.8" font-family="Times,serif" font-size="14.00">MailboxDetailsComponent</text>
</g>
<!-- MailboxDetailsComponent&#45;&gt;MailboxModule -->
<g id="edge3" class="edge">
<title>MailboxDetailsComponent&#45;&gt;MailboxModule</title>
<path fill="none" stroke="black" d="M1494,-122.11C1494,-141.34 1494,-169 1494,-169 1494,-169 976.62,-169 976.62,-169"/>
<polygon fill="black" stroke="black" points="976.62,-165.5 966.62,-169 976.62,-172.5 976.62,-165.5"/>
</g>
<!-- MailboxEmptyDetailsComponent -->
<g id="node4" class="node">
<title>MailboxEmptyDetailsComponent</title>
<polygon fill="#ffffb3" stroke="black" points="1391.76,-122 1186.24,-122 1186.24,-86 1391.76,-86 1391.76,-122"/>
<text text-anchor="middle" x="1289" y="-99.8" font-family="Times,serif" font-size="14.00">MailboxEmptyDetailsComponent</text>
</g>
<!-- MailboxEmptyDetailsComponent&#45;&gt;MailboxModule -->
<g id="edge4" class="edge">
<title>MailboxEmptyDetailsComponent&#45;&gt;MailboxModule</title>
<path fill="none" stroke="black" d="M1289,-122.02C1289,-139.37 1289,-163 1289,-163 1289,-163 976.87,-163 976.87,-163"/>
<polygon fill="black" stroke="black" points="976.87,-159.5 966.87,-163 976.87,-166.5 976.87,-159.5"/>
</g>
<!-- MailboxListComponent -->
<g id="node5" class="node">
<title>MailboxListComponent</title>
<polygon fill="#ffffb3" stroke="black" points="1168.05,-122 1017.95,-122 1017.95,-86 1168.05,-86 1168.05,-122"/>
<text text-anchor="middle" x="1093" y="-99.8" font-family="Times,serif" font-size="14.00">MailboxListComponent</text>
</g>
<!-- MailboxListComponent&#45;&gt;MailboxModule -->
<g id="edge5" class="edge">
<title>MailboxListComponent&#45;&gt;MailboxModule</title>
<path fill="none" stroke="black" d="M1093,-122.24C1093,-137.57 1093,-157 1093,-157 1093,-157 976.52,-157 976.52,-157"/>
<polygon fill="black" stroke="black" points="976.52,-153.5 966.52,-157 976.52,-160.5 976.52,-153.5"/>
</g>
<!-- MailboxSettingsComponent -->
<g id="node6" class="node">
<title>MailboxSettingsComponent</title>
<polygon fill="#ffffb3" stroke="black" points="999.89,-122 826.11,-122 826.11,-86 999.89,-86 999.89,-122"/>
<text text-anchor="middle" x="913" y="-99.8" font-family="Times,serif" font-size="14.00">MailboxSettingsComponent</text>
</g>
<!-- MailboxSettingsComponent&#45;&gt;MailboxModule -->
<g id="edge6" class="edge">
<title>MailboxSettingsComponent&#45;&gt;MailboxModule</title>
<path fill="none" stroke="black" d="M913,-122.11C913,-122.11 913,-140.99 913,-140.99"/>
<polygon fill="black" stroke="black" points="909.5,-140.99 913,-150.99 916.5,-140.99 909.5,-140.99"/>
</g>
<!-- MailboxSidebarComponent -->
<g id="node7" class="node">
<title>MailboxSidebarComponent</title>
<polygon fill="#ffffb3" stroke="black" points="807.54,-122 636.46,-122 636.46,-86 807.54,-86 807.54,-122"/>
<text text-anchor="middle" x="722" y="-99.8" font-family="Times,serif" font-size="14.00">MailboxSidebarComponent</text>
</g>
<!-- MailboxSidebarComponent&#45;&gt;MailboxModule -->
<g id="edge7" class="edge">
<title>MailboxSidebarComponent&#45;&gt;MailboxModule</title>
<path fill="none" stroke="black" d="M722,-122.24C722,-137.57 722,-157 722,-157 722,-157 849.29,-157 849.29,-157"/>
<polygon fill="black" stroke="black" points="849.29,-160.5 859.29,-157 849.29,-153.5 849.29,-160.5"/>
</g>
<!-- FuseNavigationModule -->
<g id="node9" class="node">
<title>FuseNavigationModule</title>
<polygon fill="#8dd3c7" stroke="black" points="612.2,-122 609.2,-126 588.2,-126 585.2,-122 463.8,-122 463.8,-86 612.2,-86 612.2,-122"/>
<text text-anchor="middle" x="538" y="-99.8" font-family="Times,serif" font-size="14.00">FuseNavigationModule</text>
</g>
<!-- FuseNavigationModule&#45;&gt;MailboxModule -->
<g id="edge8" class="edge">
<title>FuseNavigationModule&#45;&gt;MailboxModule</title>
<path fill="none" stroke="black" d="M538,-122.02C538,-139.37 538,-163 538,-163 538,-163 849.27,-163 849.27,-163"/>
<polygon fill="black" stroke="black" points="849.27,-166.5 859.27,-163 849.27,-159.5 849.27,-166.5"/>
</g>
<!-- FuseScrollResetModule -->
<g id="node10" class="node">
<title>FuseScrollResetModule</title>
<polygon fill="#8dd3c7" stroke="black" points="446.03,-122 443.03,-126 422.03,-126 419.03,-122 295.97,-122 295.97,-86 446.03,-86 446.03,-122"/>
<text text-anchor="middle" x="371" y="-99.8" font-family="Times,serif" font-size="14.00">FuseScrollResetModule</text>
</g>
<!-- FuseScrollResetModule&#45;&gt;MailboxModule -->
<g id="edge9" class="edge">
<title>FuseScrollResetModule&#45;&gt;MailboxModule</title>
<path fill="none" stroke="black" d="M371,-122.11C371,-141.34 371,-169 371,-169 371,-169 849.05,-169 849.05,-169"/>
<polygon fill="black" stroke="black" points="849.05,-172.5 859.05,-169 849.05,-165.5 849.05,-172.5"/>
</g>
<!-- FuseScrollbarModule -->
<g id="node11" class="node">
<title>FuseScrollbarModule</title>
<polygon fill="#8dd3c7" stroke="black" points="277.81,-122 274.81,-126 253.81,-126 250.81,-122 140.19,-122 140.19,-86 277.81,-86 277.81,-122"/>
<text text-anchor="middle" x="209" y="-99.8" font-family="Times,serif" font-size="14.00">FuseScrollbarModule</text>
</g>
<!-- FuseScrollbarModule&#45;&gt;MailboxModule -->
<g id="edge10" class="edge">
<title>FuseScrollbarModule&#45;&gt;MailboxModule</title>
<path fill="none" stroke="black" d="M209,-122.28C209,-143.32 209,-175 209,-175 209,-175 849.51,-175 849.51,-175"/>
<polygon fill="black" stroke="black" points="849.51,-178.5 859.51,-175 849.51,-171.5 849.51,-178.5"/>
</g>
<!-- SharedModule -->
<g id="node12" class="node">
<title>SharedModule</title>
<polygon fill="#8dd3c7" stroke="black" points="122.42,-122 119.42,-126 98.42,-126 95.42,-122 23.58,-122 23.58,-86 122.42,-86 122.42,-122"/>
<text text-anchor="middle" x="73" y="-99.8" font-family="Times,serif" font-size="14.00">SharedModule</text>
</g>
<!-- SharedModule&#45;&gt;MailboxModule -->
<g id="edge11" class="edge">
<title>SharedModule&#45;&gt;MailboxModule</title>
<path fill="none" stroke="black" d="M73,-122.09C73,-145.13 73,-182 73,-182 73,-182 849.5,-182 849.5,-182"/>
<polygon fill="black" stroke="black" points="849.5,-185.5 859.5,-182 849.5,-178.5 849.5,-185.5"/>
</g>
</g>
</svg>
