<?xml version="1.0" encoding="UTF-8" standalone="no"?>
<!DOCTYPE svg PUBLIC "-//W3C//DTD SVG 1.1//EN"
 "http://www.w3.org/Graphics/SVG/1.1/DTD/svg11.dtd">
<!-- Generated by graphviz version 2.47.0 (20210316.0004)
 -->
<!-- Title: dependencies Pages: 1 -->
<svg width="504pt" height="211pt"
 viewBox="0.00 0.00 504.00 211.00" xmlns="http://www.w3.org/2000/svg" xmlns:xlink="http://www.w3.org/1999/xlink">
<g id="graph0" class="graph" transform="scale(1 1) rotate(0) translate(4 207)">
<title>dependencies</title>
<polygon fill="white" stroke="transparent" points="-4,4 -4,-207 500,-207 500,4 -4,4"/>
<text text-anchor="start" x="227.01" y="-42.4" font-family="Times-12" font-weight="bold" font-size="14.00">Legend</text>
<polygon fill="#ffffb3" stroke="transparent" points="14,-10 14,-30 34,-30 34,-10 14,-10"/>
<text text-anchor="start" x="37.63" y="-15.4" font-family="Times-12" font-size="14.00"> &#160;Declarations</text>
<polygon fill="#8dd3c7" stroke="transparent" points="127,-10 127,-30 147,-30 147,-10 127,-10"/>
<text text-anchor="start" x="150.73" y="-15.4" font-family="Times-12" font-size="14.00"> &#160;Module</text>
<polygon fill="#80b1d3" stroke="transparent" points="213,-10 213,-30 233,-30 233,-10 213,-10"/>
<text text-anchor="start" x="236.78" y="-15.4" font-family="Times-12" font-size="14.00"> &#160;Bootstrap</text>
<polygon fill="#fdb462" stroke="transparent" points="310,-10 310,-30 330,-30 330,-10 310,-10"/>
<text text-anchor="start" x="333.67" y="-15.4" font-family="Times-12" font-size="14.00"> &#160;Providers</text>
<polygon fill="#fb8072" stroke="transparent" points="406,-10 406,-30 426,-30 426,-10 406,-10"/>
<text text-anchor="start" x="429.73" y="-15.4" font-family="Times-12" font-size="14.00"> &#160;Exports</text>
<g id="clust1" class="cluster">
<title>cluster_FormsFieldsModule</title>
<polygon fill="none" stroke="black" stroke-dasharray="1,5" points="16,-70 16,-195 480,-195 480,-70 16,-70"/>
</g>
<g id="clust4" class="cluster">
<title>cluster_FormsFieldsModule_imports</title>
<polygon fill="none" stroke="black" points="200,-78 200,-130 472,-130 472,-78 200,-78"/>
</g>
<g id="clust2" class="cluster">
<title>cluster_FormsFieldsModule_declarations</title>
<polygon fill="none" stroke="black" points="24,-78 24,-130 192,-130 192,-78 24,-78"/>
</g>
<!-- FormsFieldsComponent -->
<g id="node1" class="node">
<title>FormsFieldsComponent</title>
<polygon fill="#ffffb3" stroke="black" points="183.83,-122 32.17,-122 32.17,-86 183.83,-86 183.83,-122"/>
<text text-anchor="middle" x="108" y="-99.8" font-family="Times,serif" font-size="14.00">FormsFieldsComponent</text>
</g>
<!-- FormsFieldsModule -->
<g id="node2" class="node">
<title>FormsFieldsModule</title>
<polygon fill="#8dd3c7" stroke="black" points="321.55,-187 318.55,-191 297.55,-191 294.55,-187 192.45,-187 192.45,-151 321.55,-151 321.55,-187"/>
<text text-anchor="middle" x="257" y="-164.8" font-family="Times,serif" font-size="14.00">FormsFieldsModule</text>
</g>
<!-- FormsFieldsComponent&#45;&gt;FormsFieldsModule -->
<g id="edge1" class="edge">
<title>FormsFieldsComponent&#45;&gt;FormsFieldsModule</title>
<path fill="none" stroke="black" d="M183.98,-104C193.51,-104 200.01,-104 200.01,-104 200.01,-104 200.01,-140.89 200.01,-140.89"/>
<polygon fill="black" stroke="black" points="196.51,-140.89 200.01,-150.89 203.51,-140.89 196.51,-140.89"/>
</g>
<!-- FuseHighlightModule -->
<g id="node3" class="node">
<title>FuseHighlightModule</title>
<polygon fill="#8dd3c7" stroke="black" points="463.66,-122 460.66,-126 439.66,-126 436.66,-122 324.34,-122 324.34,-86 463.66,-86 463.66,-122"/>
<text text-anchor="middle" x="394" y="-99.8" font-family="Times,serif" font-size="14.00">FuseHighlightModule</text>
</g>
<!-- FuseHighlightModule&#45;&gt;FormsFieldsModule -->
<g id="edge2" class="edge">
<title>FuseHighlightModule&#45;&gt;FormsFieldsModule</title>
<path fill="none" stroke="black" d="M324.13,-104C317.96,-104 313.99,-104 313.99,-104 313.99,-104 313.99,-140.89 313.99,-140.89"/>
<polygon fill="black" stroke="black" points="310.49,-140.89 313.99,-150.89 317.49,-140.89 310.49,-140.89"/>
</g>
<!-- SharedModule -->
<g id="node4" class="node">
<title>SharedModule</title>
<polygon fill="#8dd3c7" stroke="black" points="306.42,-122 303.42,-126 282.42,-126 279.42,-122 207.58,-122 207.58,-86 306.42,-86 306.42,-122"/>
<text text-anchor="middle" x="257" y="-99.8" font-family="Times,serif" font-size="14.00">SharedModule</text>
</g>
<!-- SharedModule&#45;&gt;FormsFieldsModule -->
<g id="edge3" class="edge">
<title>SharedModule&#45;&gt;FormsFieldsModule</title>
<path fill="none" stroke="black" d="M257,-122.11C257,-122.11 257,-140.99 257,-140.99"/>
<polygon fill="black" stroke="black" points="253.5,-140.99 257,-150.99 260.5,-140.99 253.5,-140.99"/>
</g>
</g>
</svg>
