<?xml version="1.0" encoding="UTF-8" standalone="no"?>
<!DOCTYPE svg PUBLIC "-//W3C//DTD SVG 1.1//EN"
 "http://www.w3.org/Graphics/SVG/1.1/DTD/svg11.dtd">
<!-- Generated by graphviz version 2.47.0 (20210316.0004)
 -->
<!-- Title: dependencies Pages: 1 -->
<svg width="1019pt" height="211pt"
 viewBox="0.00 0.00 1019.00 211.00" xmlns="http://www.w3.org/2000/svg" xmlns:xlink="http://www.w3.org/1999/xlink">
<g id="graph0" class="graph" transform="scale(1 1) rotate(0) translate(4 207)">
<title>dependencies</title>
<polygon fill="white" stroke="transparent" points="-4,4 -4,-207 1015,-207 1015,4 -4,4"/>
<text text-anchor="start" x="484.51" y="-42.4" font-family="Times-12" font-weight="bold" font-size="14.00">Legend</text>
<polygon fill="#ffffb3" stroke="transparent" points="271.5,-10 271.5,-30 291.5,-30 291.5,-10 271.5,-10"/>
<text text-anchor="start" x="295.13" y="-15.4" font-family="Times-12" font-size="14.00"> &#160;Declarations</text>
<polygon fill="#8dd3c7" stroke="transparent" points="384.5,-10 384.5,-30 404.5,-30 404.5,-10 384.5,-10"/>
<text text-anchor="start" x="408.23" y="-15.4" font-family="Times-12" font-size="14.00"> &#160;Module</text>
<polygon fill="#80b1d3" stroke="transparent" points="470.5,-10 470.5,-30 490.5,-30 490.5,-10 470.5,-10"/>
<text text-anchor="start" x="494.28" y="-15.4" font-family="Times-12" font-size="14.00"> &#160;Bootstrap</text>
<polygon fill="#fdb462" stroke="transparent" points="567.5,-10 567.5,-30 587.5,-30 587.5,-10 567.5,-10"/>
<text text-anchor="start" x="591.17" y="-15.4" font-family="Times-12" font-size="14.00"> &#160;Providers</text>
<polygon fill="#fb8072" stroke="transparent" points="663.5,-10 663.5,-30 683.5,-30 683.5,-10 663.5,-10"/>
<text text-anchor="start" x="687.23" y="-15.4" font-family="Times-12" font-size="14.00"> &#160;Exports</text>
<g id="clust1" class="cluster">
<title>cluster_FuseModule</title>
<polygon fill="none" stroke="black" stroke-dasharray="1,5" points="8,-70 8,-195 1003,-195 1003,-70 8,-70"/>
</g>
<g id="clust3" class="cluster">
<title>cluster_FuseModule_imports</title>
<polygon fill="none" stroke="black" points="16,-78 16,-130 995,-130 995,-78 16,-78"/>
</g>
<!-- FuseConfirmationModule -->
<g id="node1" class="node">
<title>FuseConfirmationModule</title>
<polygon fill="#8dd3c7" stroke="black" points="986.93,-122 983.93,-126 962.93,-126 959.93,-122 825.07,-122 825.07,-86 986.93,-86 986.93,-122"/>
<text text-anchor="middle" x="906" y="-99.8" font-family="Times,serif" font-size="14.00">FuseConfirmationModule</text>
</g>
<!-- FuseModule -->
<g id="node7" class="node">
<title>FuseModule</title>
<polygon fill="#8dd3c7" stroke="black" points="529.99,-187 526.99,-191 505.99,-191 502.99,-187 444.01,-187 444.01,-151 529.99,-151 529.99,-187"/>
<text text-anchor="middle" x="487" y="-164.8" font-family="Times,serif" font-size="14.00">FuseModule</text>
</g>
<!-- FuseConfirmationModule&#45;&gt;FuseModule -->
<g id="edge1" class="edge">
<title>FuseConfirmationModule&#45;&gt;FuseModule</title>
<path fill="none" stroke="black" d="M906,-122.28C906,-143.32 906,-175 906,-175 906,-175 540.26,-175 540.26,-175"/>
<polygon fill="black" stroke="black" points="540.26,-171.5 530.26,-175 540.26,-178.5 540.26,-171.5"/>
</g>
<!-- FuseLoadingModule -->
<g id="node2" class="node">
<title>FuseLoadingModule</title>
<polygon fill="#8dd3c7" stroke="black" points="807.15,-122 804.15,-126 783.15,-126 780.15,-122 674.85,-122 674.85,-86 807.15,-86 807.15,-122"/>
<text text-anchor="middle" x="741" y="-99.8" font-family="Times,serif" font-size="14.00">FuseLoadingModule</text>
</g>
<!-- FuseLoadingModule&#45;&gt;FuseModule -->
<g id="edge2" class="edge">
<title>FuseLoadingModule&#45;&gt;FuseModule</title>
<path fill="none" stroke="black" d="M741,-122.02C741,-139.37 741,-163 741,-163 741,-163 540.09,-163 540.09,-163"/>
<polygon fill="black" stroke="black" points="540.09,-159.5 530.09,-163 540.09,-166.5 540.09,-159.5"/>
</g>
<!-- FuseMediaWatcherModule -->
<g id="node3" class="node">
<title>FuseMediaWatcherModule</title>
<polygon fill="#8dd3c7" stroke="black" points="656.67,-122 653.67,-126 632.67,-126 629.67,-122 487.33,-122 487.33,-86 656.67,-86 656.67,-122"/>
<text text-anchor="middle" x="572" y="-99.8" font-family="Times,serif" font-size="14.00">FuseMediaWatcherModule</text>
</g>
<!-- FuseMediaWatcherModule&#45;&gt;FuseModule -->
<g id="edge3" class="edge">
<title>FuseMediaWatcherModule&#45;&gt;FuseModule</title>
<path fill="none" stroke="black" d="M508.71,-122.11C508.71,-122.11 508.71,-140.99 508.71,-140.99"/>
<polygon fill="black" stroke="black" points="505.21,-140.99 508.71,-150.99 512.21,-140.99 505.21,-140.99"/>
</g>
<!-- FusePlatformModule -->
<g id="node4" class="node">
<title>FusePlatformModule</title>
<polygon fill="#8dd3c7" stroke="black" points="469.48,-122 466.48,-126 445.48,-126 442.48,-122 334.52,-122 334.52,-86 469.48,-86 469.48,-122"/>
<text text-anchor="middle" x="402" y="-99.8" font-family="Times,serif" font-size="14.00">FusePlatformModule</text>
</g>
<!-- FusePlatformModule&#45;&gt;FuseModule -->
<g id="edge4" class="edge">
<title>FusePlatformModule&#45;&gt;FuseModule</title>
<path fill="none" stroke="black" d="M456.75,-122.11C456.75,-122.11 456.75,-140.99 456.75,-140.99"/>
<polygon fill="black" stroke="black" points="453.25,-140.99 456.75,-150.99 460.25,-140.99 453.25,-140.99"/>
</g>
<!-- FuseSplashScreenModule -->
<g id="node5" class="node">
<title>FuseSplashScreenModule</title>
<polygon fill="#8dd3c7" stroke="black" points="316.91,-122 313.91,-126 292.91,-126 289.91,-122 155.09,-122 155.09,-86 316.91,-86 316.91,-122"/>
<text text-anchor="middle" x="236" y="-99.8" font-family="Times,serif" font-size="14.00">FuseSplashScreenModule</text>
</g>
<!-- FuseSplashScreenModule&#45;&gt;FuseModule -->
<g id="edge5" class="edge">
<title>FuseSplashScreenModule&#45;&gt;FuseModule</title>
<path fill="none" stroke="black" d="M236,-122.02C236,-139.37 236,-163 236,-163 236,-163 433.85,-163 433.85,-163"/>
<polygon fill="black" stroke="black" points="433.85,-166.5 443.85,-163 433.85,-159.5 433.85,-166.5"/>
</g>
<!-- FuseUtilsModule -->
<g id="node6" class="node">
<title>FuseUtilsModule</title>
<polygon fill="#8dd3c7" stroke="black" points="137.71,-122 134.71,-126 113.71,-126 110.71,-122 24.29,-122 24.29,-86 137.71,-86 137.71,-122"/>
<text text-anchor="middle" x="81" y="-99.8" font-family="Times,serif" font-size="14.00">FuseUtilsModule</text>
</g>
<!-- FuseUtilsModule&#45;&gt;FuseModule -->
<g id="edge6" class="edge">
<title>FuseUtilsModule&#45;&gt;FuseModule</title>
<path fill="none" stroke="black" d="M81,-122.28C81,-143.32 81,-175 81,-175 81,-175 433.94,-175 433.94,-175"/>
<polygon fill="black" stroke="black" points="433.94,-178.5 443.94,-175 433.94,-171.5 433.94,-178.5"/>
</g>
</g>
</svg>
