<?xml version="1.0" encoding="UTF-8" standalone="no"?>
<!DOCTYPE svg PUBLIC "-//W3C//DTD SVG 1.1//EN"
 "http://www.w3.org/Graphics/SVG/1.1/DTD/svg11.dtd">
<!-- Generated by graphviz version 2.47.0 (20210316.0004)
 -->
<!-- Title: dependencies Pages: 1 -->
<svg width="504pt" height="211pt"
 viewBox="0.00 0.00 504.00 211.00" xmlns="http://www.w3.org/2000/svg" xmlns:xlink="http://www.w3.org/1999/xlink">
<g id="graph0" class="graph" transform="scale(1 1) rotate(0) translate(4 207)">
<title>dependencies</title>
<polygon fill="white" stroke="transparent" points="-4,4 -4,-207 500,-207 500,4 -4,4"/>
<text text-anchor="start" x="227.01" y="-42.4" font-family="Times-12" font-weight="bold" font-size="14.00">Legend</text>
<polygon fill="#ffffb3" stroke="transparent" points="14,-10 14,-30 34,-30 34,-10 14,-10"/>
<text text-anchor="start" x="37.63" y="-15.4" font-family="Times-12" font-size="14.00"> &#160;Declarations</text>
<polygon fill="#8dd3c7" stroke="transparent" points="127,-10 127,-30 147,-30 147,-10 127,-10"/>
<text text-anchor="start" x="150.73" y="-15.4" font-family="Times-12" font-size="14.00"> &#160;Module</text>
<polygon fill="#80b1d3" stroke="transparent" points="213,-10 213,-30 233,-30 233,-10 213,-10"/>
<text text-anchor="start" x="236.78" y="-15.4" font-family="Times-12" font-size="14.00"> &#160;Bootstrap</text>
<polygon fill="#fdb462" stroke="transparent" points="310,-10 310,-30 330,-30 330,-10 310,-10"/>
<text text-anchor="start" x="333.67" y="-15.4" font-family="Times-12" font-size="14.00"> &#160;Providers</text>
<polygon fill="#fb8072" stroke="transparent" points="406,-10 406,-30 426,-30 426,-10 406,-10"/>
<text text-anchor="start" x="429.73" y="-15.4" font-family="Times-12" font-size="14.00"> &#160;Exports</text>
<g id="clust1" class="cluster">
<title>cluster_CreditModule</title>
<polygon fill="none" stroke="black" stroke-dasharray="1,5" points="23,-70 23,-195 473,-195 473,-70 23,-70"/>
</g>
<g id="clust2" class="cluster">
<title>cluster_CreditModule_declarations</title>
<polygon fill="none" stroke="black" points="333,-78 333,-130 465,-130 465,-78 333,-78"/>
</g>
<g id="clust4" class="cluster">
<title>cluster_CreditModule_imports</title>
<polygon fill="none" stroke="black" points="31,-78 31,-130 325,-130 325,-78 31,-78"/>
</g>
<!-- CreditComponent -->
<g id="node1" class="node">
<title>CreditComponent</title>
<polygon fill="#ffffb3" stroke="black" points="457.33,-122 340.67,-122 340.67,-86 457.33,-86 457.33,-122"/>
<text text-anchor="middle" x="399" y="-99.8" font-family="Times,serif" font-size="14.00">CreditComponent</text>
</g>
<!-- CreditModule -->
<g id="node2" class="node">
<title>CreditModule</title>
<polygon fill="#8dd3c7" stroke="black" points="283.04,-187 280.04,-191 259.04,-191 256.04,-187 188.96,-187 188.96,-151 283.04,-151 283.04,-187"/>
<text text-anchor="middle" x="236" y="-164.8" font-family="Times,serif" font-size="14.00">CreditModule</text>
</g>
<!-- CreditComponent&#45;&gt;CreditModule -->
<g id="edge1" class="edge">
<title>CreditComponent&#45;&gt;CreditModule</title>
<path fill="none" stroke="black" d="M399,-122.11C399,-141.34 399,-169 399,-169 399,-169 293.15,-169 293.15,-169"/>
<polygon fill="black" stroke="black" points="293.15,-165.5 283.15,-169 293.15,-172.5 293.15,-165.5"/>
</g>
<!-- FuseConfirmationModule -->
<g id="node3" class="node">
<title>FuseConfirmationModule</title>
<polygon fill="#8dd3c7" stroke="black" points="316.93,-122 313.93,-126 292.93,-126 289.93,-122 155.07,-122 155.07,-86 316.93,-86 316.93,-122"/>
<text text-anchor="middle" x="236" y="-99.8" font-family="Times,serif" font-size="14.00">FuseConfirmationModule</text>
</g>
<!-- FuseConfirmationModule&#45;&gt;CreditModule -->
<g id="edge2" class="edge">
<title>FuseConfirmationModule&#45;&gt;CreditModule</title>
<path fill="none" stroke="black" d="M236,-122.11C236,-122.11 236,-140.99 236,-140.99"/>
<polygon fill="black" stroke="black" points="232.5,-140.99 236,-150.99 239.5,-140.99 232.5,-140.99"/>
</g>
<!-- SharedModule -->
<g id="node4" class="node">
<title>SharedModule</title>
<polygon fill="#8dd3c7" stroke="black" points="137.42,-122 134.42,-126 113.42,-126 110.42,-122 38.58,-122 38.58,-86 137.42,-86 137.42,-122"/>
<text text-anchor="middle" x="88" y="-99.8" font-family="Times,serif" font-size="14.00">SharedModule</text>
</g>
<!-- SharedModule&#45;&gt;CreditModule -->
<g id="edge3" class="edge">
<title>SharedModule&#45;&gt;CreditModule</title>
<path fill="none" stroke="black" d="M88,-122.11C88,-141.34 88,-169 88,-169 88,-169 178.76,-169 178.76,-169"/>
<polygon fill="black" stroke="black" points="178.76,-172.5 188.76,-169 178.76,-165.5 178.76,-172.5"/>
</g>
</g>
</svg>
