<?xml version="1.0" encoding="UTF-8" standalone="no"?>
<!DOCTYPE svg PUBLIC "-//W3C//DTD SVG 1.1//EN"
 "http://www.w3.org/Graphics/SVG/1.1/DTD/svg11.dtd">
<!-- Generated by graphviz version 2.47.0 (20210316.0004)
 -->
<!-- Title: dependencies Pages: 1 -->
<svg width="522pt" height="211pt"
 viewBox="0.00 0.00 522.00 211.00" xmlns="http://www.w3.org/2000/svg" xmlns:xlink="http://www.w3.org/1999/xlink">
<g id="graph0" class="graph" transform="scale(1 1) rotate(0) translate(4 207)">
<title>dependencies</title>
<polygon fill="white" stroke="transparent" points="-4,4 -4,-207 518,-207 518,4 -4,4"/>
<text text-anchor="start" x="236.01" y="-42.4" font-family="Times-12" font-weight="bold" font-size="14.00">Legend</text>
<polygon fill="#ffffb3" stroke="transparent" points="23,-10 23,-30 43,-30 43,-10 23,-10"/>
<text text-anchor="start" x="46.63" y="-15.4" font-family="Times-12" font-size="14.00"> &#160;Declarations</text>
<polygon fill="#8dd3c7" stroke="transparent" points="136,-10 136,-30 156,-30 156,-10 136,-10"/>
<text text-anchor="start" x="159.73" y="-15.4" font-family="Times-12" font-size="14.00"> &#160;Module</text>
<polygon fill="#80b1d3" stroke="transparent" points="222,-10 222,-30 242,-30 242,-10 222,-10"/>
<text text-anchor="start" x="245.78" y="-15.4" font-family="Times-12" font-size="14.00"> &#160;Bootstrap</text>
<polygon fill="#fdb462" stroke="transparent" points="319,-10 319,-30 339,-30 339,-10 319,-10"/>
<text text-anchor="start" x="342.67" y="-15.4" font-family="Times-12" font-size="14.00"> &#160;Providers</text>
<polygon fill="#fb8072" stroke="transparent" points="415,-10 415,-30 435,-30 435,-10 415,-10"/>
<text text-anchor="start" x="438.73" y="-15.4" font-family="Times-12" font-size="14.00"> &#160;Exports</text>
<g id="clust1" class="cluster">
<title>cluster_FuseConfirmationModule</title>
<polygon fill="none" stroke="black" stroke-dasharray="1,5" points="8,-70 8,-195 506,-195 506,-70 8,-70"/>
</g>
<g id="clust2" class="cluster">
<title>cluster_FuseConfirmationModule_declarations</title>
<polygon fill="none" stroke="black" points="260,-78 260,-130 498,-130 498,-78 260,-78"/>
</g>
<g id="clust7" class="cluster">
<title>cluster_FuseConfirmationModule_providers</title>
<polygon fill="none" stroke="black" points="16,-78 16,-130 252,-130 252,-78 16,-78"/>
</g>
<!-- FuseConfirmationDialogComponent -->
<g id="node1" class="node">
<title>FuseConfirmationDialogComponent</title>
<polygon fill="#ffffb3" stroke="black" points="489.81,-122 268.19,-122 268.19,-86 489.81,-86 489.81,-122"/>
<text text-anchor="middle" x="379" y="-99.8" font-family="Times,serif" font-size="14.00">FuseConfirmationDialogComponent</text>
</g>
<!-- FuseConfirmationModule -->
<g id="node2" class="node">
<title>FuseConfirmationModule</title>
<polygon fill="#8dd3c7" stroke="black" points="336.93,-187 333.93,-191 312.93,-191 309.93,-187 175.07,-187 175.07,-151 336.93,-151 336.93,-187"/>
<text text-anchor="middle" x="256" y="-164.8" font-family="Times,serif" font-size="14.00">FuseConfirmationModule</text>
</g>
<!-- FuseConfirmationDialogComponent&#45;&gt;FuseConfirmationModule -->
<g id="edge1" class="edge">
<title>FuseConfirmationDialogComponent&#45;&gt;FuseConfirmationModule</title>
<path fill="none" stroke="black" d="M302.53,-122.11C302.53,-122.11 302.53,-140.99 302.53,-140.99"/>
<polygon fill="black" stroke="black" points="299.03,-140.99 302.53,-150.99 306.03,-140.99 299.03,-140.99"/>
</g>
<!-- FuseConfirmationService -->
<g id="node3" class="node">
<title>FuseConfirmationService</title>
<ellipse fill="#fdb462" stroke="black" cx="134" cy="-104" rx="110.03" ry="18"/>
<text text-anchor="middle" x="134" y="-99.8" font-family="Times,serif" font-size="14.00">FuseConfirmationService</text>
</g>
<!-- FuseConfirmationService&#45;&gt;FuseConfirmationModule -->
<g id="edge2" class="edge">
<title>FuseConfirmationService&#45;&gt;FuseConfirmationModule</title>
<path fill="none" stroke="black" d="M209.78,-117.15C209.78,-117.15 209.78,-140.69 209.78,-140.69"/>
<polygon fill="black" stroke="black" points="206.28,-140.69 209.78,-150.69 213.28,-140.69 206.28,-140.69"/>
</g>
</g>
</svg>
