<?xml version="1.0" encoding="UTF-8" standalone="no"?>
<!DOCTYPE svg PUBLIC "-//W3C//DTD SVG 1.1//EN"
 "http://www.w3.org/Graphics/SVG/1.1/DTD/svg11.dtd">
<!-- Generated by graphviz version 2.47.0 (20210316.0004)
 -->
<!-- Title: dependencies Pages: 1 -->
<svg width="504pt" height="211pt"
 viewBox="0.00 0.00 504.00 211.00" xmlns="http://www.w3.org/2000/svg" xmlns:xlink="http://www.w3.org/1999/xlink">
<g id="graph0" class="graph" transform="scale(1 1) rotate(0) translate(4 207)">
<title>dependencies</title>
<polygon fill="white" stroke="transparent" points="-4,4 -4,-207 500,-207 500,4 -4,4"/>
<text text-anchor="start" x="227.01" y="-42.4" font-family="Times-12" font-weight="bold" font-size="14.00">Legend</text>
<polygon fill="#ffffb3" stroke="transparent" points="14,-10 14,-30 34,-30 34,-10 14,-10"/>
<text text-anchor="start" x="37.63" y="-15.4" font-family="Times-12" font-size="14.00"> &#160;Declarations</text>
<polygon fill="#8dd3c7" stroke="transparent" points="127,-10 127,-30 147,-30 147,-10 127,-10"/>
<text text-anchor="start" x="150.73" y="-15.4" font-family="Times-12" font-size="14.00"> &#160;Module</text>
<polygon fill="#80b1d3" stroke="transparent" points="213,-10 213,-30 233,-30 233,-10 213,-10"/>
<text text-anchor="start" x="236.78" y="-15.4" font-family="Times-12" font-size="14.00"> &#160;Bootstrap</text>
<polygon fill="#fdb462" stroke="transparent" points="310,-10 310,-30 330,-30 330,-10 310,-10"/>
<text text-anchor="start" x="333.67" y="-15.4" font-family="Times-12" font-size="14.00"> &#160;Providers</text>
<polygon fill="#fb8072" stroke="transparent" points="406,-10 406,-30 426,-30 426,-10 406,-10"/>
<text text-anchor="start" x="429.73" y="-15.4" font-family="Times-12" font-size="14.00"> &#160;Exports</text>
<g id="clust1" class="cluster">
<title>cluster_ActivitiesModule</title>
<polygon fill="none" stroke="black" stroke-dasharray="1,5" points="103,-70 103,-195 393,-195 393,-70 103,-70"/>
</g>
<g id="clust2" class="cluster">
<title>cluster_ActivitiesModule_declarations</title>
<polygon fill="none" stroke="black" points="233,-78 233,-130 385,-130 385,-78 233,-78"/>
</g>
<g id="clust4" class="cluster">
<title>cluster_ActivitiesModule_imports</title>
<polygon fill="none" stroke="black" points="111,-78 111,-130 225,-130 225,-78 111,-78"/>
</g>
<!-- ActivitiesComponent -->
<g id="node1" class="node">
<title>ActivitiesComponent</title>
<polygon fill="#ffffb3" stroke="black" points="376.77,-122 241.23,-122 241.23,-86 376.77,-86 376.77,-122"/>
<text text-anchor="middle" x="309" y="-99.8" font-family="Times,serif" font-size="14.00">ActivitiesComponent</text>
</g>
<!-- ActivitiesModule -->
<g id="node2" class="node">
<title>ActivitiesModule</title>
<polygon fill="#8dd3c7" stroke="black" points="294.98,-187 291.98,-191 270.98,-191 267.98,-187 181.02,-187 181.02,-151 294.98,-151 294.98,-187"/>
<text text-anchor="middle" x="238" y="-164.8" font-family="Times,serif" font-size="14.00">ActivitiesModule</text>
</g>
<!-- ActivitiesComponent&#45;&gt;ActivitiesModule -->
<g id="edge1" class="edge">
<title>ActivitiesComponent&#45;&gt;ActivitiesModule</title>
<path fill="none" stroke="black" d="M268.05,-122.11C268.05,-122.11 268.05,-140.99 268.05,-140.99"/>
<polygon fill="black" stroke="black" points="264.55,-140.99 268.05,-150.99 271.55,-140.99 264.55,-140.99"/>
</g>
<!-- SharedModule -->
<g id="node3" class="node">
<title>SharedModule</title>
<polygon fill="#8dd3c7" stroke="black" points="217.42,-122 214.42,-126 193.42,-126 190.42,-122 118.58,-122 118.58,-86 217.42,-86 217.42,-122"/>
<text text-anchor="middle" x="168" y="-99.8" font-family="Times,serif" font-size="14.00">SharedModule</text>
</g>
<!-- SharedModule&#45;&gt;ActivitiesModule -->
<g id="edge2" class="edge">
<title>SharedModule&#45;&gt;ActivitiesModule</title>
<path fill="none" stroke="black" d="M199.11,-122.11C199.11,-122.11 199.11,-140.99 199.11,-140.99"/>
<polygon fill="black" stroke="black" points="195.61,-140.99 199.11,-150.99 202.61,-140.99 195.61,-140.99"/>
</g>
</g>
</svg>
