<?xml version="1.0" encoding="UTF-8" standalone="no"?>
<!DOCTYPE svg PUBLIC "-//W3C//DTD SVG 1.1//EN"
 "http://www.w3.org/Graphics/SVG/1.1/DTD/svg11.dtd">
<!-- Generated by graphviz version 2.47.0 (20210316.0004)
 -->
<!-- Title: dependencies Pages: 1 -->
<svg width="941pt" height="211pt"
 viewBox="0.00 0.00 941.00 211.00" xmlns="http://www.w3.org/2000/svg" xmlns:xlink="http://www.w3.org/1999/xlink">
<g id="graph0" class="graph" transform="scale(1 1) rotate(0) translate(4 207)">
<title>dependencies</title>
<polygon fill="white" stroke="transparent" points="-4,4 -4,-207 937,-207 937,4 -4,4"/>
<text text-anchor="start" x="445.51" y="-42.4" font-family="Times-12" font-weight="bold" font-size="14.00">Legend</text>
<polygon fill="#ffffb3" stroke="transparent" points="232.5,-10 232.5,-30 252.5,-30 252.5,-10 232.5,-10"/>
<text text-anchor="start" x="256.13" y="-15.4" font-family="Times-12" font-size="14.00"> &#160;Declarations</text>
<polygon fill="#8dd3c7" stroke="transparent" points="345.5,-10 345.5,-30 365.5,-30 365.5,-10 345.5,-10"/>
<text text-anchor="start" x="369.23" y="-15.4" font-family="Times-12" font-size="14.00"> &#160;Module</text>
<polygon fill="#80b1d3" stroke="transparent" points="431.5,-10 431.5,-30 451.5,-30 451.5,-10 431.5,-10"/>
<text text-anchor="start" x="455.28" y="-15.4" font-family="Times-12" font-size="14.00"> &#160;Bootstrap</text>
<polygon fill="#fdb462" stroke="transparent" points="528.5,-10 528.5,-30 548.5,-30 548.5,-10 528.5,-10"/>
<text text-anchor="start" x="552.17" y="-15.4" font-family="Times-12" font-size="14.00"> &#160;Providers</text>
<polygon fill="#fb8072" stroke="transparent" points="624.5,-10 624.5,-30 644.5,-30 644.5,-10 624.5,-10"/>
<text text-anchor="start" x="648.23" y="-15.4" font-family="Times-12" font-size="14.00"> &#160;Exports</text>
<g id="clust1" class="cluster">
<title>cluster_NotesModule</title>
<polygon fill="none" stroke="black" stroke-dasharray="1,5" points="8,-70 8,-195 925,-195 925,-70 8,-70"/>
</g>
<g id="clust2" class="cluster">
<title>cluster_NotesModule_declarations</title>
<polygon fill="none" stroke="black" points="292,-78 292,-130 917,-130 917,-78 292,-78"/>
</g>
<g id="clust7" class="cluster">
<title>cluster_NotesModule_imports</title>
<polygon fill="none" stroke="black" points="16,-78 16,-130 284,-130 284,-78 16,-78"/>
</g>
<!-- NotesComponent -->
<g id="node1" class="node">
<title>NotesComponent</title>
<polygon fill="#ffffb3" stroke="black" points="908.99,-122 795.01,-122 795.01,-86 908.99,-86 908.99,-122"/>
<text text-anchor="middle" x="852" y="-99.8" font-family="Times,serif" font-size="14.00">NotesComponent</text>
</g>
<!-- NotesModule -->
<g id="node5" class="node">
<title>NotesModule</title>
<polygon fill="#8dd3c7" stroke="black" points="495.21,-187 492.21,-191 471.21,-191 468.21,-187 402.79,-187 402.79,-151 495.21,-151 495.21,-187"/>
<text text-anchor="middle" x="449" y="-164.8" font-family="Times,serif" font-size="14.00">NotesModule</text>
</g>
<!-- NotesComponent&#45;&gt;NotesModule -->
<g id="edge1" class="edge">
<title>NotesComponent&#45;&gt;NotesModule</title>
<path fill="none" stroke="black" d="M852,-122.28C852,-143.32 852,-175 852,-175 852,-175 505.23,-175 505.23,-175"/>
<polygon fill="black" stroke="black" points="505.23,-171.5 495.23,-175 505.23,-178.5 505.23,-171.5"/>
</g>
<!-- NotesDetailsComponent -->
<g id="node2" class="node">
<title>NotesDetailsComponent</title>
<polygon fill="#ffffb3" stroke="black" points="776.64,-122 623.36,-122 623.36,-86 776.64,-86 776.64,-122"/>
<text text-anchor="middle" x="700" y="-99.8" font-family="Times,serif" font-size="14.00">NotesDetailsComponent</text>
</g>
<!-- NotesDetailsComponent&#45;&gt;NotesModule -->
<g id="edge2" class="edge">
<title>NotesDetailsComponent&#45;&gt;NotesModule</title>
<path fill="none" stroke="black" d="M700,-122.02C700,-139.37 700,-163 700,-163 700,-163 505.33,-163 505.33,-163"/>
<polygon fill="black" stroke="black" points="505.33,-159.5 495.33,-163 505.33,-166.5 505.33,-159.5"/>
</g>
<!-- NotesLabelsComponent -->
<g id="node3" class="node">
<title>NotesLabelsComponent</title>
<polygon fill="#ffffb3" stroke="black" points="605.81,-122 454.19,-122 454.19,-86 605.81,-86 605.81,-122"/>
<text text-anchor="middle" x="530" y="-99.8" font-family="Times,serif" font-size="14.00">NotesLabelsComponent</text>
</g>
<!-- NotesLabelsComponent&#45;&gt;NotesModule -->
<g id="edge3" class="edge">
<title>NotesLabelsComponent&#45;&gt;NotesModule</title>
<path fill="none" stroke="black" d="M474.73,-122.11C474.73,-122.11 474.73,-140.99 474.73,-140.99"/>
<polygon fill="black" stroke="black" points="471.23,-140.99 474.73,-150.99 478.23,-140.99 471.23,-140.99"/>
</g>
<!-- NotesListComponent -->
<g id="node4" class="node">
<title>NotesListComponent</title>
<polygon fill="#ffffb3" stroke="black" points="435.77,-122 300.23,-122 300.23,-86 435.77,-86 435.77,-122"/>
<text text-anchor="middle" x="368" y="-99.8" font-family="Times,serif" font-size="14.00">NotesListComponent</text>
</g>
<!-- NotesListComponent&#45;&gt;NotesModule -->
<g id="edge4" class="edge">
<title>NotesListComponent&#45;&gt;NotesModule</title>
<path fill="none" stroke="black" d="M419.39,-122.11C419.39,-122.11 419.39,-140.99 419.39,-140.99"/>
<polygon fill="black" stroke="black" points="415.89,-140.99 419.39,-150.99 422.89,-140.99 415.89,-140.99"/>
</g>
<!-- FuseMasonryModule -->
<g id="node6" class="node">
<title>FuseMasonryModule</title>
<polygon fill="#8dd3c7" stroke="black" points="275.76,-122 272.76,-126 251.76,-126 248.76,-122 140.24,-122 140.24,-86 275.76,-86 275.76,-122"/>
<text text-anchor="middle" x="208" y="-99.8" font-family="Times,serif" font-size="14.00">FuseMasonryModule</text>
</g>
<!-- FuseMasonryModule&#45;&gt;NotesModule -->
<g id="edge5" class="edge">
<title>FuseMasonryModule&#45;&gt;NotesModule</title>
<path fill="none" stroke="black" d="M208,-122.02C208,-139.37 208,-163 208,-163 208,-163 392.82,-163 392.82,-163"/>
<polygon fill="black" stroke="black" points="392.82,-166.5 402.82,-163 392.82,-159.5 392.82,-166.5"/>
</g>
<!-- SharedModule -->
<g id="node7" class="node">
<title>SharedModule</title>
<polygon fill="#8dd3c7" stroke="black" points="122.42,-122 119.42,-126 98.42,-126 95.42,-122 23.58,-122 23.58,-86 122.42,-86 122.42,-122"/>
<text text-anchor="middle" x="73" y="-99.8" font-family="Times,serif" font-size="14.00">SharedModule</text>
</g>
<!-- SharedModule&#45;&gt;NotesModule -->
<g id="edge6" class="edge">
<title>SharedModule&#45;&gt;NotesModule</title>
<path fill="none" stroke="black" d="M73,-122.28C73,-143.32 73,-175 73,-175 73,-175 392.9,-175 392.9,-175"/>
<polygon fill="black" stroke="black" points="392.9,-178.5 402.9,-175 392.89,-171.5 392.9,-178.5"/>
</g>
</g>
</svg>
