<?xml version="1.0" encoding="UTF-8" standalone="no"?>
<!DOCTYPE svg PUBLIC "-//W3C//DTD SVG 1.1//EN"
 "http://www.w3.org/Graphics/SVG/1.1/DTD/svg11.dtd">
<!-- Generated by graphviz version 2.47.0 (20210316.0004)
 -->
<!-- Title: dependencies Pages: 1 -->
<svg width="1259pt" height="211pt"
 viewBox="0.00 0.00 1259.00 211.00" xmlns="http://www.w3.org/2000/svg" xmlns:xlink="http://www.w3.org/1999/xlink">
<g id="graph0" class="graph" transform="scale(1 1) rotate(0) translate(4 207)">
<title>dependencies</title>
<polygon fill="white" stroke="transparent" points="-4,4 -4,-207 1255,-207 1255,4 -4,4"/>
<text text-anchor="start" x="604.51" y="-42.4" font-family="Times-12" font-weight="bold" font-size="14.00">Legend</text>
<polygon fill="#ffffb3" stroke="transparent" points="391.5,-10 391.5,-30 411.5,-30 411.5,-10 391.5,-10"/>
<text text-anchor="start" x="415.13" y="-15.4" font-family="Times-12" font-size="14.00"> &#160;Declarations</text>
<polygon fill="#8dd3c7" stroke="transparent" points="504.5,-10 504.5,-30 524.5,-30 524.5,-10 504.5,-10"/>
<text text-anchor="start" x="528.23" y="-15.4" font-family="Times-12" font-size="14.00"> &#160;Module</text>
<polygon fill="#80b1d3" stroke="transparent" points="590.5,-10 590.5,-30 610.5,-30 610.5,-10 590.5,-10"/>
<text text-anchor="start" x="614.28" y="-15.4" font-family="Times-12" font-size="14.00"> &#160;Bootstrap</text>
<polygon fill="#fdb462" stroke="transparent" points="687.5,-10 687.5,-30 707.5,-30 707.5,-10 687.5,-10"/>
<text text-anchor="start" x="711.17" y="-15.4" font-family="Times-12" font-size="14.00"> &#160;Providers</text>
<polygon fill="#fb8072" stroke="transparent" points="783.5,-10 783.5,-30 803.5,-30 803.5,-10 783.5,-10"/>
<text text-anchor="start" x="807.23" y="-15.4" font-family="Times-12" font-size="14.00"> &#160;Exports</text>
<g id="clust1" class="cluster">
<title>cluster_ChatModule</title>
<polygon fill="none" stroke="black" stroke-dasharray="1,5" points="8,-70 8,-195 1243,-195 1243,-70 8,-70"/>
</g>
<g id="clust10" class="cluster">
<title>cluster_ChatModule_imports</title>
<polygon fill="none" stroke="black" points="1121,-78 1121,-130 1235,-130 1235,-78 1121,-78"/>
</g>
<g id="clust2" class="cluster">
<title>cluster_ChatModule_declarations</title>
<polygon fill="none" stroke="black" points="16,-78 16,-130 1113,-130 1113,-78 16,-78"/>
</g>
<!-- ChatComponent -->
<g id="node1" class="node">
<title>ChatComponent</title>
<polygon fill="#ffffb3" stroke="black" points="1104.77,-122 997.23,-122 997.23,-86 1104.77,-86 1104.77,-122"/>
<text text-anchor="middle" x="1051" y="-99.8" font-family="Times,serif" font-size="14.00">ChatComponent</text>
</g>
<!-- ChatModule -->
<g id="node8" class="node">
<title>ChatModule</title>
<polygon fill="#8dd3c7" stroke="black" points="731.99,-187 728.99,-191 707.99,-191 704.99,-187 646.01,-187 646.01,-151 731.99,-151 731.99,-187"/>
<text text-anchor="middle" x="689" y="-164.8" font-family="Times,serif" font-size="14.00">ChatModule</text>
</g>
<!-- ChatComponent&#45;&gt;ChatModule -->
<g id="edge1" class="edge">
<title>ChatComponent&#45;&gt;ChatModule</title>
<path fill="none" stroke="black" d="M1051,-122.11C1051,-141.34 1051,-169 1051,-169 1051,-169 742.31,-169 742.31,-169"/>
<polygon fill="black" stroke="black" points="742.31,-165.5 732.31,-169 742.31,-172.5 742.31,-165.5"/>
</g>
<!-- ChatsComponent -->
<g id="node2" class="node">
<title>ChatsComponent</title>
<polygon fill="#ffffb3" stroke="black" points="979.72,-122 866.28,-122 866.28,-86 979.72,-86 979.72,-122"/>
<text text-anchor="middle" x="923" y="-99.8" font-family="Times,serif" font-size="14.00">ChatsComponent</text>
</g>
<!-- ChatsComponent&#45;&gt;ChatModule -->
<g id="edge2" class="edge">
<title>ChatsComponent&#45;&gt;ChatModule</title>
<path fill="none" stroke="black" d="M923,-122.03C923,-138.4 923,-160 923,-160 923,-160 742.19,-160 742.19,-160"/>
<polygon fill="black" stroke="black" points="742.19,-156.5 732.19,-160 742.19,-163.5 742.19,-156.5"/>
</g>
<!-- ContactInfoComponent -->
<g id="node3" class="node">
<title>ContactInfoComponent</title>
<polygon fill="#ffffb3" stroke="black" points="848.2,-122 699.8,-122 699.8,-86 848.2,-86 848.2,-122"/>
<text text-anchor="middle" x="774" y="-99.8" font-family="Times,serif" font-size="14.00">ContactInfoComponent</text>
</g>
<!-- ContactInfoComponent&#45;&gt;ChatModule -->
<g id="edge3" class="edge">
<title>ContactInfoComponent&#45;&gt;ChatModule</title>
<path fill="none" stroke="black" d="M715.95,-122.11C715.95,-122.11 715.95,-140.99 715.95,-140.99"/>
<polygon fill="black" stroke="black" points="712.45,-140.99 715.95,-150.99 719.45,-140.99 712.45,-140.99"/>
</g>
<!-- ConversationComponent -->
<g id="node4" class="node">
<title>ConversationComponent</title>
<polygon fill="#ffffb3" stroke="black" points="681.98,-122 526.02,-122 526.02,-86 681.98,-86 681.98,-122"/>
<text text-anchor="middle" x="604" y="-99.8" font-family="Times,serif" font-size="14.00">ConversationComponent</text>
</g>
<!-- ConversationComponent&#45;&gt;ChatModule -->
<g id="edge4" class="edge">
<title>ConversationComponent&#45;&gt;ChatModule</title>
<path fill="none" stroke="black" d="M664,-122.11C664,-122.11 664,-140.99 664,-140.99"/>
<polygon fill="black" stroke="black" points="660.5,-140.99 664,-150.99 667.5,-140.99 660.5,-140.99"/>
</g>
<!-- EmptyConversationComponent -->
<g id="node5" class="node">
<title>EmptyConversationComponent</title>
<polygon fill="#ffffb3" stroke="black" points="507.82,-122 314.18,-122 314.18,-86 507.82,-86 507.82,-122"/>
<text text-anchor="middle" x="411" y="-99.8" font-family="Times,serif" font-size="14.00">EmptyConversationComponent</text>
</g>
<!-- EmptyConversationComponent&#45;&gt;ChatModule -->
<g id="edge5" class="edge">
<title>EmptyConversationComponent&#45;&gt;ChatModule</title>
<path fill="none" stroke="black" d="M411,-122.03C411,-138.4 411,-160 411,-160 411,-160 635.87,-160 635.87,-160"/>
<polygon fill="black" stroke="black" points="635.87,-163.5 645.87,-160 635.87,-156.5 635.87,-163.5"/>
</g>
<!-- NewChatComponent -->
<g id="node6" class="node">
<title>NewChatComponent</title>
<polygon fill="#ffffb3" stroke="black" points="296.2,-122 161.8,-122 161.8,-86 296.2,-86 296.2,-122"/>
<text text-anchor="middle" x="229" y="-99.8" font-family="Times,serif" font-size="14.00">NewChatComponent</text>
</g>
<!-- NewChatComponent&#45;&gt;ChatModule -->
<g id="edge6" class="edge">
<title>NewChatComponent&#45;&gt;ChatModule</title>
<path fill="none" stroke="black" d="M229,-122.11C229,-141.34 229,-169 229,-169 229,-169 635.72,-169 635.72,-169"/>
<polygon fill="black" stroke="black" points="635.72,-172.5 645.72,-169 635.72,-165.5 635.72,-172.5"/>
</g>
<!-- ProfileComponent -->
<g id="node7" class="node">
<title>ProfileComponent</title>
<polygon fill="#ffffb3" stroke="black" points="143.93,-122 24.07,-122 24.07,-86 143.93,-86 143.93,-122"/>
<text text-anchor="middle" x="84" y="-99.8" font-family="Times,serif" font-size="14.00">ProfileComponent</text>
</g>
<!-- ProfileComponent&#45;&gt;ChatModule -->
<g id="edge7" class="edge">
<title>ProfileComponent&#45;&gt;ChatModule</title>
<path fill="none" stroke="black" d="M84,-122.29C84,-144.21 84,-178 84,-178 84,-178 635.97,-178 635.97,-178"/>
<polygon fill="black" stroke="black" points="635.97,-181.5 645.97,-178 635.97,-174.5 635.97,-181.5"/>
</g>
<!-- SharedModule -->
<g id="node9" class="node">
<title>SharedModule</title>
<polygon fill="#8dd3c7" stroke="black" points="1227.42,-122 1224.42,-126 1203.42,-126 1200.42,-122 1128.58,-122 1128.58,-86 1227.42,-86 1227.42,-122"/>
<text text-anchor="middle" x="1178" y="-99.8" font-family="Times,serif" font-size="14.00">SharedModule</text>
</g>
<!-- SharedModule&#45;&gt;ChatModule -->
<g id="edge8" class="edge">
<title>SharedModule&#45;&gt;ChatModule</title>
<path fill="none" stroke="black" d="M1178,-122.29C1178,-144.21 1178,-178 1178,-178 1178,-178 742.4,-178 742.4,-178"/>
<polygon fill="black" stroke="black" points="742.4,-174.5 732.4,-178 742.4,-181.5 742.4,-174.5"/>
</g>
</g>
</svg>
