<?xml version="1.0" encoding="UTF-8" standalone="no"?>
<!DOCTYPE svg PUBLIC "-//W3C//DTD SVG 1.1//EN"
 "http://www.w3.org/Graphics/SVG/1.1/DTD/svg11.dtd">
<!-- Generated by graphviz version 2.47.0 (20210316.0004)
 -->
<!-- Title: dependencies Pages: 1 -->
<svg width="504pt" height="211pt"
 viewBox="0.00 0.00 504.00 211.00" xmlns="http://www.w3.org/2000/svg" xmlns:xlink="http://www.w3.org/1999/xlink">
<g id="graph0" class="graph" transform="scale(1 1) rotate(0) translate(4 207)">
<title>dependencies</title>
<polygon fill="white" stroke="transparent" points="-4,4 -4,-207 500,-207 500,4 -4,4"/>
<text text-anchor="start" x="227.01" y="-42.4" font-family="Times-12" font-weight="bold" font-size="14.00">Legend</text>
<polygon fill="#ffffb3" stroke="transparent" points="14,-10 14,-30 34,-30 34,-10 14,-10"/>
<text text-anchor="start" x="37.63" y="-15.4" font-family="Times-12" font-size="14.00"> &#160;Declarations</text>
<polygon fill="#8dd3c7" stroke="transparent" points="127,-10 127,-30 147,-30 147,-10 127,-10"/>
<text text-anchor="start" x="150.73" y="-15.4" font-family="Times-12" font-size="14.00"> &#160;Module</text>
<polygon fill="#80b1d3" stroke="transparent" points="213,-10 213,-30 233,-30 233,-10 213,-10"/>
<text text-anchor="start" x="236.78" y="-15.4" font-family="Times-12" font-size="14.00"> &#160;Bootstrap</text>
<polygon fill="#fdb462" stroke="transparent" points="310,-10 310,-30 330,-30 330,-10 310,-10"/>
<text text-anchor="start" x="333.67" y="-15.4" font-family="Times-12" font-size="14.00"> &#160;Providers</text>
<polygon fill="#fb8072" stroke="transparent" points="406,-10 406,-30 426,-30 426,-10 406,-10"/>
<text text-anchor="start" x="429.73" y="-15.4" font-family="Times-12" font-size="14.00"> &#160;Exports</text>
<g id="clust1" class="cluster">
<title>cluster_PricingModernModule</title>
<polygon fill="none" stroke="black" stroke-dasharray="1,5" points="22,-70 22,-195 474,-195 474,-70 22,-70"/>
</g>
<g id="clust4" class="cluster">
<title>cluster_PricingModernModule_imports</title>
<polygon fill="none" stroke="black" points="220,-78 220,-130 466,-130 466,-78 220,-78"/>
</g>
<g id="clust2" class="cluster">
<title>cluster_PricingModernModule_declarations</title>
<polygon fill="none" stroke="black" points="30,-78 30,-130 212,-130 212,-78 30,-78"/>
</g>
<!-- PricingModernComponent -->
<g id="node1" class="node">
<title>PricingModernComponent</title>
<polygon fill="#ffffb3" stroke="black" points="204.09,-122 37.91,-122 37.91,-86 204.09,-86 204.09,-122"/>
<text text-anchor="middle" x="121" y="-99.8" font-family="Times,serif" font-size="14.00">PricingModernComponent</text>
</g>
<!-- PricingModernModule -->
<g id="node2" class="node">
<title>PricingModernModule</title>
<polygon fill="#8dd3c7" stroke="black" points="349.31,-187 346.31,-191 325.31,-191 322.31,-187 204.69,-187 204.69,-151 349.31,-151 349.31,-187"/>
<text text-anchor="middle" x="277" y="-164.8" font-family="Times,serif" font-size="14.00">PricingModernModule</text>
</g>
<!-- PricingModernComponent&#45;&gt;PricingModernModule -->
<g id="edge1" class="edge">
<title>PricingModernComponent&#45;&gt;PricingModernModule</title>
<path fill="none" stroke="black" d="M204.25,-104C211.59,-104 216.32,-104 216.32,-104 216.32,-104 216.32,-140.89 216.32,-140.89"/>
<polygon fill="black" stroke="black" points="212.82,-140.89 216.32,-150.89 219.82,-140.89 212.82,-140.89"/>
</g>
<!-- FuseCardModule -->
<g id="node3" class="node">
<title>FuseCardModule</title>
<polygon fill="#8dd3c7" stroke="black" points="457.7,-122 454.7,-126 433.7,-126 430.7,-122 344.3,-122 344.3,-86 457.7,-86 457.7,-122"/>
<text text-anchor="middle" x="401" y="-99.8" font-family="Times,serif" font-size="14.00">FuseCardModule</text>
</g>
<!-- FuseCardModule&#45;&gt;PricingModernModule -->
<g id="edge2" class="edge">
<title>FuseCardModule&#45;&gt;PricingModernModule</title>
<path fill="none" stroke="black" d="M344.16,-104C338.79,-104 335.3,-104 335.3,-104 335.3,-104 335.3,-140.89 335.3,-140.89"/>
<polygon fill="black" stroke="black" points="331.8,-140.89 335.3,-150.89 338.8,-140.89 331.8,-140.89"/>
</g>
<!-- SharedModule -->
<g id="node4" class="node">
<title>SharedModule</title>
<polygon fill="#8dd3c7" stroke="black" points="326.42,-122 323.42,-126 302.42,-126 299.42,-122 227.58,-122 227.58,-86 326.42,-86 326.42,-122"/>
<text text-anchor="middle" x="277" y="-99.8" font-family="Times,serif" font-size="14.00">SharedModule</text>
</g>
<!-- SharedModule&#45;&gt;PricingModernModule -->
<g id="edge3" class="edge">
<title>SharedModule&#45;&gt;PricingModernModule</title>
<path fill="none" stroke="black" d="M277,-122.11C277,-122.11 277,-140.99 277,-140.99"/>
<polygon fill="black" stroke="black" points="273.5,-140.99 277,-150.99 280.5,-140.99 273.5,-140.99"/>
</g>
</g>
</svg>
