<?xml version="1.0" encoding="UTF-8" standalone="no"?>
<!DOCTYPE svg PUBLIC "-//W3C//DTD SVG 1.1//EN"
 "http://www.w3.org/Graphics/SVG/1.1/DTD/svg11.dtd">
<!-- Generated by graphviz version 2.47.0 (20210316.0004)
 -->
<!-- Title: dependencies Pages: 1 -->
<svg width="504pt" height="211pt"
 viewBox="0.00 0.00 504.00 211.00" xmlns="http://www.w3.org/2000/svg" xmlns:xlink="http://www.w3.org/1999/xlink">
<g id="graph0" class="graph" transform="scale(1 1) rotate(0) translate(4 207)">
<title>dependencies</title>
<polygon fill="white" stroke="transparent" points="-4,4 -4,-207 500,-207 500,4 -4,4"/>
<text text-anchor="start" x="227.01" y="-42.4" font-family="Times-12" font-weight="bold" font-size="14.00">Legend</text>
<polygon fill="#ffffb3" stroke="transparent" points="14,-10 14,-30 34,-30 34,-10 14,-10"/>
<text text-anchor="start" x="37.63" y="-15.4" font-family="Times-12" font-size="14.00"> &#160;Declarations</text>
<polygon fill="#8dd3c7" stroke="transparent" points="127,-10 127,-30 147,-30 147,-10 127,-10"/>
<text text-anchor="start" x="150.73" y="-15.4" font-family="Times-12" font-size="14.00"> &#160;Module</text>
<polygon fill="#80b1d3" stroke="transparent" points="213,-10 213,-30 233,-30 233,-10 213,-10"/>
<text text-anchor="start" x="236.78" y="-15.4" font-family="Times-12" font-size="14.00"> &#160;Bootstrap</text>
<polygon fill="#fdb462" stroke="transparent" points="310,-10 310,-30 330,-30 330,-10 310,-10"/>
<text text-anchor="start" x="333.67" y="-15.4" font-family="Times-12" font-size="14.00"> &#160;Providers</text>
<polygon fill="#fb8072" stroke="transparent" points="406,-10 406,-30 426,-30 426,-10 406,-10"/>
<text text-anchor="start" x="429.73" y="-15.4" font-family="Times-12" font-size="14.00"> &#160;Exports</text>
<g id="clust1" class="cluster">
<title>cluster_FormsWizardsModule</title>
<polygon fill="none" stroke="black" stroke-dasharray="1,5" points="89,-70 89,-195 407,-195 407,-70 89,-70"/>
</g>
<g id="clust4" class="cluster">
<title>cluster_FormsWizardsModule_imports</title>
<polygon fill="none" stroke="black" points="285,-78 285,-130 399,-130 399,-78 285,-78"/>
</g>
<g id="clust2" class="cluster">
<title>cluster_FormsWizardsModule_declarations</title>
<polygon fill="none" stroke="black" points="97,-78 97,-130 277,-130 277,-78 97,-78"/>
</g>
<!-- FormsWizardsComponent -->
<g id="node1" class="node">
<title>FormsWizardsComponent</title>
<polygon fill="#ffffb3" stroke="black" points="268.75,-122 105.25,-122 105.25,-86 268.75,-86 268.75,-122"/>
<text text-anchor="middle" x="187" y="-99.8" font-family="Times,serif" font-size="14.00">FormsWizardsComponent</text>
</g>
<!-- FormsWizardsModule -->
<g id="node2" class="node">
<title>FormsWizardsModule</title>
<polygon fill="#8dd3c7" stroke="black" points="327.97,-187 324.97,-191 303.97,-191 300.97,-187 186.03,-187 186.03,-151 327.97,-151 327.97,-187"/>
<text text-anchor="middle" x="257" y="-164.8" font-family="Times,serif" font-size="14.00">FormsWizardsModule</text>
</g>
<!-- FormsWizardsComponent&#45;&gt;FormsWizardsModule -->
<g id="edge1" class="edge">
<title>FormsWizardsComponent&#45;&gt;FormsWizardsModule</title>
<path fill="none" stroke="black" d="M227.45,-122.11C227.45,-122.11 227.45,-140.99 227.45,-140.99"/>
<polygon fill="black" stroke="black" points="223.95,-140.99 227.45,-150.99 230.95,-140.99 223.95,-140.99"/>
</g>
<!-- SharedModule -->
<g id="node3" class="node">
<title>SharedModule</title>
<polygon fill="#8dd3c7" stroke="black" points="391.42,-122 388.42,-126 367.42,-126 364.42,-122 292.58,-122 292.58,-86 391.42,-86 391.42,-122"/>
<text text-anchor="middle" x="342" y="-99.8" font-family="Times,serif" font-size="14.00">SharedModule</text>
</g>
<!-- SharedModule&#45;&gt;FormsWizardsModule -->
<g id="edge2" class="edge">
<title>SharedModule&#45;&gt;FormsWizardsModule</title>
<path fill="none" stroke="black" d="M310.39,-122.11C310.39,-122.11 310.39,-140.99 310.39,-140.99"/>
<polygon fill="black" stroke="black" points="306.89,-140.99 310.39,-150.99 313.89,-140.99 306.89,-140.99"/>
</g>
</g>
</svg>
