<?xml version="1.0" encoding="UTF-8" standalone="no"?>
<!DOCTYPE svg PUBLIC "-//W3C//DTD SVG 1.1//EN"
 "http://www.w3.org/Graphics/SVG/1.1/DTD/svg11.dtd">
<!-- Generated by graphviz version 2.47.0 (20210316.0004)
 -->
<!-- Title: dependencies Pages: 1 -->
<svg width="1744pt" height="284pt"
 viewBox="0.00 0.00 1744.00 284.00" xmlns="http://www.w3.org/2000/svg" xmlns:xlink="http://www.w3.org/1999/xlink">
<g id="graph0" class="graph" transform="scale(1 1) rotate(0) translate(4 280)">
<title>dependencies</title>
<polygon fill="white" stroke="transparent" points="-4,4 -4,-280 1740,-280 1740,4 -4,4"/>
<text text-anchor="start" x="847.01" y="-42.4" font-family="Times-12" font-weight="bold" font-size="14.00">Legend</text>
<polygon fill="#ffffb3" stroke="transparent" points="634,-10 634,-30 654,-30 654,-10 634,-10"/>
<text text-anchor="start" x="657.63" y="-15.4" font-family="Times-12" font-size="14.00"> &#160;Declarations</text>
<polygon fill="#8dd3c7" stroke="transparent" points="747,-10 747,-30 767,-30 767,-10 747,-10"/>
<text text-anchor="start" x="770.73" y="-15.4" font-family="Times-12" font-size="14.00"> &#160;Module</text>
<polygon fill="#80b1d3" stroke="transparent" points="833,-10 833,-30 853,-30 853,-10 833,-10"/>
<text text-anchor="start" x="856.78" y="-15.4" font-family="Times-12" font-size="14.00"> &#160;Bootstrap</text>
<polygon fill="#fdb462" stroke="transparent" points="930,-10 930,-30 950,-30 950,-10 930,-10"/>
<text text-anchor="start" x="953.67" y="-15.4" font-family="Times-12" font-size="14.00"> &#160;Providers</text>
<polygon fill="#fb8072" stroke="transparent" points="1026,-10 1026,-30 1046,-30 1046,-10 1026,-10"/>
<text text-anchor="start" x="1049.73" y="-15.4" font-family="Times-12" font-size="14.00"> &#160;Exports</text>
<g id="clust1" class="cluster">
<title>cluster_ClassyLayoutModule</title>
<polygon fill="none" stroke="black" stroke-dasharray="1,5" points="8,-70 8,-268 1728,-268 1728,-70 8,-70"/>
</g>
<g id="clust4" class="cluster">
<title>cluster_ClassyLayoutModule_imports</title>
<polygon fill="none" stroke="black" points="198,-78 198,-130 1720,-130 1720,-78 198,-78"/>
</g>
<g id="clust5" class="cluster">
<title>cluster_ClassyLayoutModule_exports</title>
<polygon fill="none" stroke="black" points="715,-208 715,-260 893,-260 893,-208 715,-208"/>
</g>
<g id="clust2" class="cluster">
<title>cluster_ClassyLayoutModule_declarations</title>
<polygon fill="none" stroke="black" points="16,-78 16,-130 190,-130 190,-78 16,-78"/>
</g>
<!-- ClassyLayoutComponent -->
<g id="node1" class="node">
<title>ClassyLayoutComponent</title>
<polygon fill="#ffffb3" stroke="black" points="182.32,-122 23.68,-122 23.68,-86 182.32,-86 182.32,-122"/>
<text text-anchor="middle" x="103" y="-99.8" font-family="Times,serif" font-size="14.00">ClassyLayoutComponent</text>
</g>
<!-- ClassyLayoutModule -->
<g id="node2" class="node">
<title>ClassyLayoutModule</title>
<polygon fill="#8dd3c7" stroke="black" points="872.04,-187 869.04,-191 848.04,-191 845.04,-187 735.96,-187 735.96,-151 872.04,-151 872.04,-187"/>
<text text-anchor="middle" x="804" y="-164.8" font-family="Times,serif" font-size="14.00">ClassyLayoutModule</text>
</g>
<!-- ClassyLayoutComponent&#45;&gt;ClassyLayoutModule -->
<g id="edge1" class="edge">
<title>ClassyLayoutComponent&#45;&gt;ClassyLayoutModule</title>
<path fill="none" stroke="black" d="M103,-122.25C103,-145.02 103,-181 103,-181 103,-181 725.83,-181 725.83,-181"/>
<polygon fill="black" stroke="black" points="725.83,-184.5 735.83,-181 725.83,-177.5 725.83,-184.5"/>
</g>
<!-- ClassyLayoutComponent  -->
<g id="node14" class="node">
<title>ClassyLayoutComponent </title>
<polygon fill="#fb8072" stroke="black" points="884.82,-252 723.18,-252 723.18,-216 884.82,-216 884.82,-252"/>
<text text-anchor="middle" x="804" y="-229.8" font-family="Times,serif" font-size="14.00">ClassyLayoutComponent </text>
</g>
<!-- ClassyLayoutModule&#45;&gt;ClassyLayoutComponent  -->
<g id="edge13" class="edge">
<title>ClassyLayoutModule&#45;&gt;ClassyLayoutComponent </title>
<path fill="none" stroke="black" stroke-dasharray="5,2" d="M804,-187.11C804,-187.11 804,-205.99 804,-205.99"/>
<polygon fill="black" stroke="black" points="800.5,-205.99 804,-215.99 807.5,-205.99 800.5,-205.99"/>
</g>
<!-- FuseFullscreenModule -->
<g id="node3" class="node">
<title>FuseFullscreenModule</title>
<polygon fill="#8dd3c7" stroke="black" points="1712.3,-122 1709.3,-126 1688.3,-126 1685.3,-122 1567.7,-122 1567.7,-86 1712.3,-86 1712.3,-122"/>
<text text-anchor="middle" x="1640" y="-99.8" font-family="Times,serif" font-size="14.00">FuseFullscreenModule</text>
</g>
<!-- FuseFullscreenModule&#45;&gt;ClassyLayoutModule -->
<g id="edge2" class="edge">
<title>FuseFullscreenModule&#45;&gt;ClassyLayoutModule</title>
<path fill="none" stroke="black" d="M1640,-122.25C1640,-145.02 1640,-181 1640,-181 1640,-181 882.06,-181 882.06,-181"/>
<polygon fill="black" stroke="black" points="882.06,-177.5 872.06,-181 882.06,-184.5 882.06,-177.5"/>
</g>
<!-- FuseLoadingBarModule -->
<g id="node4" class="node">
<title>FuseLoadingBarModule</title>
<polygon fill="#8dd3c7" stroke="black" points="1549.36,-122 1546.36,-126 1525.36,-126 1522.36,-122 1396.64,-122 1396.64,-86 1549.36,-86 1549.36,-122"/>
<text text-anchor="middle" x="1473" y="-99.8" font-family="Times,serif" font-size="14.00">FuseLoadingBarModule</text>
</g>
<!-- FuseLoadingBarModule&#45;&gt;ClassyLayoutModule -->
<g id="edge3" class="edge">
<title>FuseLoadingBarModule&#45;&gt;ClassyLayoutModule</title>
<path fill="none" stroke="black" d="M1473,-122.28C1473,-143.32 1473,-175 1473,-175 1473,-175 882.14,-175 882.14,-175"/>
<polygon fill="black" stroke="black" points="882.14,-171.5 872.14,-175 882.14,-178.5 882.14,-171.5"/>
</g>
<!-- FuseNavigationModule -->
<g id="node5" class="node">
<title>FuseNavigationModule</title>
<polygon fill="#8dd3c7" stroke="black" points="1378.2,-122 1375.2,-126 1354.2,-126 1351.2,-122 1229.8,-122 1229.8,-86 1378.2,-86 1378.2,-122"/>
<text text-anchor="middle" x="1304" y="-99.8" font-family="Times,serif" font-size="14.00">FuseNavigationModule</text>
</g>
<!-- FuseNavigationModule&#45;&gt;ClassyLayoutModule -->
<g id="edge4" class="edge">
<title>FuseNavigationModule&#45;&gt;ClassyLayoutModule</title>
<path fill="none" stroke="black" d="M1304,-122.11C1304,-141.34 1304,-169 1304,-169 1304,-169 882.21,-169 882.21,-169"/>
<polygon fill="black" stroke="black" points="882.21,-165.5 872.21,-169 882.21,-172.5 882.21,-165.5"/>
</g>
<!-- LanguagesModule -->
<g id="node6" class="node">
<title>LanguagesModule</title>
<polygon fill="#8dd3c7" stroke="black" points="1212.19,-122 1209.19,-126 1188.19,-126 1185.19,-122 1091.81,-122 1091.81,-86 1212.19,-86 1212.19,-122"/>
<text text-anchor="middle" x="1152" y="-99.8" font-family="Times,serif" font-size="14.00">LanguagesModule</text>
</g>
<!-- LanguagesModule&#45;&gt;ClassyLayoutModule -->
<g id="edge5" class="edge">
<title>LanguagesModule&#45;&gt;ClassyLayoutModule</title>
<path fill="none" stroke="black" d="M1152,-122.02C1152,-139.37 1152,-163 1152,-163 1152,-163 882.34,-163 882.34,-163"/>
<polygon fill="black" stroke="black" points="882.34,-159.5 872.34,-163 882.34,-166.5 882.34,-159.5"/>
</g>
<!-- MessagesModule -->
<g id="node7" class="node">
<title>MessagesModule</title>
<polygon fill="#8dd3c7" stroke="black" points="1073.97,-122 1070.97,-126 1049.97,-126 1046.97,-122 960.03,-122 960.03,-86 1073.97,-86 1073.97,-122"/>
<text text-anchor="middle" x="1017" y="-99.8" font-family="Times,serif" font-size="14.00">MessagesModule</text>
</g>
<!-- MessagesModule&#45;&gt;ClassyLayoutModule -->
<g id="edge6" class="edge">
<title>MessagesModule&#45;&gt;ClassyLayoutModule</title>
<path fill="none" stroke="black" d="M1017,-122.24C1017,-137.57 1017,-157 1017,-157 1017,-157 882.27,-157 882.27,-157"/>
<polygon fill="black" stroke="black" points="882.27,-153.5 872.27,-157 882.27,-160.5 882.27,-153.5"/>
</g>
<!-- NotificationsModule -->
<g id="node8" class="node">
<title>NotificationsModule</title>
<polygon fill="#8dd3c7" stroke="black" points="942.14,-122 939.14,-126 918.14,-126 915.14,-122 809.86,-122 809.86,-86 942.14,-86 942.14,-122"/>
<text text-anchor="middle" x="876" y="-99.8" font-family="Times,serif" font-size="14.00">NotificationsModule</text>
</g>
<!-- NotificationsModule&#45;&gt;ClassyLayoutModule -->
<g id="edge7" class="edge">
<title>NotificationsModule&#45;&gt;ClassyLayoutModule</title>
<path fill="none" stroke="black" d="M840.97,-122.11C840.97,-122.11 840.97,-140.99 840.97,-140.99"/>
<polygon fill="black" stroke="black" points="837.47,-140.99 840.97,-150.99 844.47,-140.99 837.47,-140.99"/>
</g>
<!-- QuickChatModule -->
<g id="node9" class="node">
<title>QuickChatModule</title>
<polygon fill="#8dd3c7" stroke="black" points="792.2,-122 789.2,-126 768.2,-126 765.2,-122 671.8,-122 671.8,-86 792.2,-86 792.2,-122"/>
<text text-anchor="middle" x="732" y="-99.8" font-family="Times,serif" font-size="14.00">QuickChatModule</text>
</g>
<!-- QuickChatModule&#45;&gt;ClassyLayoutModule -->
<g id="edge8" class="edge">
<title>QuickChatModule&#45;&gt;ClassyLayoutModule</title>
<path fill="none" stroke="black" d="M763.92,-122.11C763.92,-122.11 763.92,-140.99 763.92,-140.99"/>
<polygon fill="black" stroke="black" points="760.42,-140.99 763.92,-150.99 767.42,-140.99 760.42,-140.99"/>
</g>
<!-- SearchModule -->
<g id="node10" class="node">
<title>SearchModule</title>
<polygon fill="#8dd3c7" stroke="black" points="653.64,-122 650.64,-126 629.64,-126 626.64,-122 556.36,-122 556.36,-86 653.64,-86 653.64,-122"/>
<text text-anchor="middle" x="605" y="-99.8" font-family="Times,serif" font-size="14.00">SearchModule</text>
</g>
<!-- SearchModule&#45;&gt;ClassyLayoutModule -->
<g id="edge9" class="edge">
<title>SearchModule&#45;&gt;ClassyLayoutModule</title>
<path fill="none" stroke="black" d="M605,-122.24C605,-137.57 605,-157 605,-157 605,-157 725.79,-157 725.79,-157"/>
<polygon fill="black" stroke="black" points="725.79,-160.5 735.79,-157 725.79,-153.5 725.79,-160.5"/>
</g>
<!-- SharedModule -->
<g id="node11" class="node">
<title>SharedModule</title>
<polygon fill="#8dd3c7" stroke="black" points="538.42,-122 535.42,-126 514.42,-126 511.42,-122 439.58,-122 439.58,-86 538.42,-86 538.42,-122"/>
<text text-anchor="middle" x="489" y="-99.8" font-family="Times,serif" font-size="14.00">SharedModule</text>
</g>
<!-- SharedModule&#45;&gt;ClassyLayoutModule -->
<g id="edge10" class="edge">
<title>SharedModule&#45;&gt;ClassyLayoutModule</title>
<path fill="none" stroke="black" d="M489,-122.02C489,-139.37 489,-163 489,-163 489,-163 725.65,-163 725.65,-163"/>
<polygon fill="black" stroke="black" points="725.65,-166.5 735.65,-163 725.65,-159.5 725.65,-166.5"/>
</g>
<!-- ShortcutsModule -->
<g id="node12" class="node">
<title>ShortcutsModule</title>
<polygon fill="#8dd3c7" stroke="black" points="422.43,-122 419.43,-126 398.43,-126 395.43,-122 309.57,-122 309.57,-86 422.43,-86 422.43,-122"/>
<text text-anchor="middle" x="366" y="-99.8" font-family="Times,serif" font-size="14.00">ShortcutsModule</text>
</g>
<!-- ShortcutsModule&#45;&gt;ClassyLayoutModule -->
<g id="edge11" class="edge">
<title>ShortcutsModule&#45;&gt;ClassyLayoutModule</title>
<path fill="none" stroke="black" d="M366,-122.11C366,-141.34 366,-169 366,-169 366,-169 725.56,-169 725.56,-169"/>
<polygon fill="black" stroke="black" points="725.56,-172.5 735.56,-169 725.56,-165.5 725.56,-172.5"/>
</g>
<!-- UserModule -->
<g id="node13" class="node">
<title>UserModule</title>
<polygon fill="#8dd3c7" stroke="black" points="291.98,-122 288.98,-126 267.98,-126 264.98,-122 206.02,-122 206.02,-86 291.98,-86 291.98,-122"/>
<text text-anchor="middle" x="249" y="-99.8" font-family="Times,serif" font-size="14.00">UserModule</text>
</g>
<!-- UserModule&#45;&gt;ClassyLayoutModule -->
<g id="edge12" class="edge">
<title>UserModule&#45;&gt;ClassyLayoutModule</title>
<path fill="none" stroke="black" d="M249,-122.28C249,-143.32 249,-175 249,-175 249,-175 725.95,-175 725.95,-175"/>
<polygon fill="black" stroke="black" points="725.95,-178.5 735.95,-175 725.95,-171.5 725.95,-178.5"/>
</g>
</g>
</svg>
