<?xml version="1.0" encoding="UTF-8" standalone="no"?>
<!DOCTYPE svg PUBLIC "-//W3C//DTD SVG 1.1//EN"
 "http://www.w3.org/Graphics/SVG/1.1/DTD/svg11.dtd">
<!-- Generated by graphviz version 2.47.0 (20210316.0004)
 -->
<!-- Title: dependencies Pages: 1 -->
<svg width="504pt" height="211pt"
 viewBox="0.00 0.00 504.00 211.00" xmlns="http://www.w3.org/2000/svg" xmlns:xlink="http://www.w3.org/1999/xlink">
<g id="graph0" class="graph" transform="scale(1 1) rotate(0) translate(4 207)">
<title>dependencies</title>
<polygon fill="white" stroke="transparent" points="-4,4 -4,-207 500,-207 500,4 -4,4"/>
<text text-anchor="start" x="227.01" y="-42.4" font-family="Times-12" font-weight="bold" font-size="14.00">Legend</text>
<polygon fill="#ffffb3" stroke="transparent" points="14,-10 14,-30 34,-30 34,-10 14,-10"/>
<text text-anchor="start" x="37.63" y="-15.4" font-family="Times-12" font-size="14.00"> &#160;Declarations</text>
<polygon fill="#8dd3c7" stroke="transparent" points="127,-10 127,-30 147,-30 147,-10 127,-10"/>
<text text-anchor="start" x="150.73" y="-15.4" font-family="Times-12" font-size="14.00"> &#160;Module</text>
<polygon fill="#80b1d3" stroke="transparent" points="213,-10 213,-30 233,-30 233,-10 213,-10"/>
<text text-anchor="start" x="236.78" y="-15.4" font-family="Times-12" font-size="14.00"> &#160;Bootstrap</text>
<polygon fill="#fdb462" stroke="transparent" points="310,-10 310,-30 330,-30 330,-10 310,-10"/>
<text text-anchor="start" x="333.67" y="-15.4" font-family="Times-12" font-size="14.00"> &#160;Providers</text>
<polygon fill="#fb8072" stroke="transparent" points="406,-10 406,-30 426,-30 426,-10 406,-10"/>
<text text-anchor="start" x="429.73" y="-15.4" font-family="Times-12" font-size="14.00"> &#160;Exports</text>
<g id="clust1" class="cluster">
<title>cluster_CryptoModule</title>
<polygon fill="none" stroke="black" stroke-dasharray="1,5" points="111,-70 111,-195 385,-195 385,-70 111,-70"/>
</g>
<g id="clust4" class="cluster">
<title>cluster_CryptoModule_imports</title>
<polygon fill="none" stroke="black" points="263,-78 263,-130 377,-130 377,-78 263,-78"/>
</g>
<g id="clust2" class="cluster">
<title>cluster_CryptoModule_declarations</title>
<polygon fill="none" stroke="black" points="119,-78 119,-130 255,-130 255,-78 119,-78"/>
</g>
<!-- CryptoComponent -->
<g id="node1" class="node">
<title>CryptoComponent</title>
<polygon fill="#ffffb3" stroke="black" points="247.22,-122 126.78,-122 126.78,-86 247.22,-86 247.22,-122"/>
<text text-anchor="middle" x="187" y="-99.8" font-family="Times,serif" font-size="14.00">CryptoComponent</text>
</g>
<!-- CryptoModule -->
<g id="node2" class="node">
<title>CryptoModule</title>
<polygon fill="#8dd3c7" stroke="black" points="302.44,-187 299.44,-191 278.44,-191 275.44,-187 203.56,-187 203.56,-151 302.44,-151 302.44,-187"/>
<text text-anchor="middle" x="253" y="-164.8" font-family="Times,serif" font-size="14.00">CryptoModule</text>
</g>
<!-- CryptoComponent&#45;&gt;CryptoModule -->
<g id="edge1" class="edge">
<title>CryptoComponent&#45;&gt;CryptoModule</title>
<path fill="none" stroke="black" d="M225.45,-122.11C225.45,-122.11 225.45,-140.99 225.45,-140.99"/>
<polygon fill="black" stroke="black" points="221.95,-140.99 225.45,-150.99 228.95,-140.99 221.95,-140.99"/>
</g>
<!-- SharedModule -->
<g id="node3" class="node">
<title>SharedModule</title>
<polygon fill="#8dd3c7" stroke="black" points="369.42,-122 366.42,-126 345.42,-126 342.42,-122 270.58,-122 270.58,-86 369.42,-86 369.42,-122"/>
<text text-anchor="middle" x="320" y="-99.8" font-family="Times,serif" font-size="14.00">SharedModule</text>
</g>
<!-- SharedModule&#45;&gt;CryptoModule -->
<g id="edge2" class="edge">
<title>SharedModule&#45;&gt;CryptoModule</title>
<path fill="none" stroke="black" d="M286.5,-122.11C286.5,-122.11 286.5,-140.99 286.5,-140.99"/>
<polygon fill="black" stroke="black" points="283,-140.99 286.5,-150.99 290,-140.99 283,-140.99"/>
</g>
</g>
</svg>
