<?xml version="1.0" encoding="UTF-8" standalone="no"?>
<!DOCTYPE svg PUBLIC "-//W3C//DTD SVG 1.1//EN"
 "http://www.w3.org/Graphics/SVG/1.1/DTD/svg11.dtd">
<!-- Generated by graphviz version 2.47.0 (20210316.0004)
 -->
<!-- Title: dependencies Pages: 1 -->
<svg width="618pt" height="211pt"
 viewBox="0.00 0.00 618.00 211.00" xmlns="http://www.w3.org/2000/svg" xmlns:xlink="http://www.w3.org/1999/xlink">
<g id="graph0" class="graph" transform="scale(1 1) rotate(0) translate(4 207)">
<title>dependencies</title>
<polygon fill="white" stroke="transparent" points="-4,4 -4,-207 614,-207 614,4 -4,4"/>
<text text-anchor="start" x="284.01" y="-42.4" font-family="Times-12" font-weight="bold" font-size="14.00">Legend</text>
<polygon fill="#ffffb3" stroke="transparent" points="71,-10 71,-30 91,-30 91,-10 71,-10"/>
<text text-anchor="start" x="94.63" y="-15.4" font-family="Times-12" font-size="14.00"> &#160;Declarations</text>
<polygon fill="#8dd3c7" stroke="transparent" points="184,-10 184,-30 204,-30 204,-10 184,-10"/>
<text text-anchor="start" x="207.73" y="-15.4" font-family="Times-12" font-size="14.00"> &#160;Module</text>
<polygon fill="#80b1d3" stroke="transparent" points="270,-10 270,-30 290,-30 290,-10 270,-10"/>
<text text-anchor="start" x="293.78" y="-15.4" font-family="Times-12" font-size="14.00"> &#160;Bootstrap</text>
<polygon fill="#fdb462" stroke="transparent" points="367,-10 367,-30 387,-30 387,-10 367,-10"/>
<text text-anchor="start" x="390.67" y="-15.4" font-family="Times-12" font-size="14.00"> &#160;Providers</text>
<polygon fill="#fb8072" stroke="transparent" points="463,-10 463,-30 483,-30 483,-10 463,-10"/>
<text text-anchor="start" x="486.73" y="-15.4" font-family="Times-12" font-size="14.00"> &#160;Exports</text>
<g id="clust1" class="cluster">
<title>cluster_TasksModule</title>
<polygon fill="none" stroke="black" stroke-dasharray="1,5" points="8,-70 8,-195 602,-195 602,-70 8,-70"/>
</g>
<g id="clust2" class="cluster">
<title>cluster_TasksModule_declarations</title>
<polygon fill="none" stroke="black" points="138,-78 138,-130 594,-130 594,-78 138,-78"/>
</g>
<g id="clust6" class="cluster">
<title>cluster_TasksModule_imports</title>
<polygon fill="none" stroke="black" points="16,-78 16,-130 130,-130 130,-78 16,-78"/>
</g>
<!-- TasksComponent -->
<g id="node1" class="node">
<title>TasksComponent</title>
<polygon fill="#ffffb3" stroke="black" points="585.99,-122 472.01,-122 472.01,-86 585.99,-86 585.99,-122"/>
<text text-anchor="middle" x="529" y="-99.8" font-family="Times,serif" font-size="14.00">TasksComponent</text>
</g>
<!-- TasksModule -->
<g id="node4" class="node">
<title>TasksModule</title>
<polygon fill="#8dd3c7" stroke="black" points="341.21,-187 338.21,-191 317.21,-191 314.21,-187 248.79,-187 248.79,-151 341.21,-151 341.21,-187"/>
<text text-anchor="middle" x="295" y="-164.8" font-family="Times,serif" font-size="14.00">TasksModule</text>
</g>
<!-- TasksComponent&#45;&gt;TasksModule -->
<g id="edge1" class="edge">
<title>TasksComponent&#45;&gt;TasksModule</title>
<path fill="none" stroke="black" d="M529,-122.11C529,-141.34 529,-169 529,-169 529,-169 351.23,-169 351.23,-169"/>
<polygon fill="black" stroke="black" points="351.23,-165.5 341.23,-169 351.23,-172.5 351.23,-165.5"/>
</g>
<!-- TasksDetailsComponent -->
<g id="node2" class="node">
<title>TasksDetailsComponent</title>
<polygon fill="#ffffb3" stroke="black" points="453.64,-122 300.36,-122 300.36,-86 453.64,-86 453.64,-122"/>
<text text-anchor="middle" x="377" y="-99.8" font-family="Times,serif" font-size="14.00">TasksDetailsComponent</text>
</g>
<!-- TasksDetailsComponent&#45;&gt;TasksModule -->
<g id="edge2" class="edge">
<title>TasksDetailsComponent&#45;&gt;TasksModule</title>
<path fill="none" stroke="black" d="M320.64,-122.11C320.64,-122.11 320.64,-140.99 320.64,-140.99"/>
<polygon fill="black" stroke="black" points="317.14,-140.99 320.64,-150.99 324.14,-140.99 317.14,-140.99"/>
</g>
<!-- TasksListComponent -->
<g id="node3" class="node">
<title>TasksListComponent</title>
<polygon fill="#ffffb3" stroke="black" points="281.77,-122 146.23,-122 146.23,-86 281.77,-86 281.77,-122"/>
<text text-anchor="middle" x="214" y="-99.8" font-family="Times,serif" font-size="14.00">TasksListComponent</text>
</g>
<!-- TasksListComponent&#45;&gt;TasksModule -->
<g id="edge3" class="edge">
<title>TasksListComponent&#45;&gt;TasksModule</title>
<path fill="none" stroke="black" d="M265.39,-122.11C265.39,-122.11 265.39,-140.99 265.39,-140.99"/>
<polygon fill="black" stroke="black" points="261.89,-140.99 265.39,-150.99 268.89,-140.99 261.89,-140.99"/>
</g>
<!-- SharedModule -->
<g id="node5" class="node">
<title>SharedModule</title>
<polygon fill="#8dd3c7" stroke="black" points="122.42,-122 119.42,-126 98.42,-126 95.42,-122 23.58,-122 23.58,-86 122.42,-86 122.42,-122"/>
<text text-anchor="middle" x="73" y="-99.8" font-family="Times,serif" font-size="14.00">SharedModule</text>
</g>
<!-- SharedModule&#45;&gt;TasksModule -->
<g id="edge4" class="edge">
<title>SharedModule&#45;&gt;TasksModule</title>
<path fill="none" stroke="black" d="M73,-122.11C73,-141.34 73,-169 73,-169 73,-169 238.73,-169 238.73,-169"/>
<polygon fill="black" stroke="black" points="238.73,-172.5 248.73,-169 238.73,-165.5 238.73,-172.5"/>
</g>
</g>
</svg>
