<?xml version="1.0" encoding="UTF-8" standalone="no"?>
<!DOCTYPE svg PUBLIC "-//W3C//DTD SVG 1.1//EN"
 "http://www.w3.org/Graphics/SVG/1.1/DTD/svg11.dtd">
<!-- Generated by graphviz version 2.47.0 (20210316.0004)
 -->
<!-- Title: dependencies Pages: 1 -->
<svg width="504pt" height="211pt"
 viewBox="0.00 0.00 504.00 211.00" xmlns="http://www.w3.org/2000/svg" xmlns:xlink="http://www.w3.org/1999/xlink">
<g id="graph0" class="graph" transform="scale(1 1) rotate(0) translate(4 207)">
<title>dependencies</title>
<polygon fill="white" stroke="transparent" points="-4,4 -4,-207 500,-207 500,4 -4,4"/>
<text text-anchor="start" x="227.01" y="-42.4" font-family="Times-12" font-weight="bold" font-size="14.00">Legend</text>
<polygon fill="#ffffb3" stroke="transparent" points="14,-10 14,-30 34,-30 34,-10 14,-10"/>
<text text-anchor="start" x="37.63" y="-15.4" font-family="Times-12" font-size="14.00"> &#160;Declarations</text>
<polygon fill="#8dd3c7" stroke="transparent" points="127,-10 127,-30 147,-30 147,-10 127,-10"/>
<text text-anchor="start" x="150.73" y="-15.4" font-family="Times-12" font-size="14.00"> &#160;Module</text>
<polygon fill="#80b1d3" stroke="transparent" points="213,-10 213,-30 233,-30 233,-10 213,-10"/>
<text text-anchor="start" x="236.78" y="-15.4" font-family="Times-12" font-size="14.00"> &#160;Bootstrap</text>
<polygon fill="#fdb462" stroke="transparent" points="310,-10 310,-30 330,-30 330,-10 310,-10"/>
<text text-anchor="start" x="333.67" y="-15.4" font-family="Times-12" font-size="14.00"> &#160;Providers</text>
<polygon fill="#fb8072" stroke="transparent" points="406,-10 406,-30 426,-30 426,-10 406,-10"/>
<text text-anchor="start" x="429.73" y="-15.4" font-family="Times-12" font-size="14.00"> &#160;Exports</text>
<g id="clust1" class="cluster">
<title>cluster_AnimationsModule</title>
<polygon fill="none" stroke="black" stroke-dasharray="1,5" points="19,-70 19,-195 477,-195 477,-70 19,-70"/>
</g>
<g id="clust2" class="cluster">
<title>cluster_AnimationsModule_declarations</title>
<polygon fill="none" stroke="black" points="307,-78 307,-130 469,-130 469,-78 307,-78"/>
</g>
<g id="clust4" class="cluster">
<title>cluster_AnimationsModule_imports</title>
<polygon fill="none" stroke="black" points="27,-78 27,-130 299,-130 299,-78 27,-78"/>
</g>
<!-- AnimationsComponent -->
<g id="node1" class="node">
<title>AnimationsComponent</title>
<polygon fill="#ffffb3" stroke="black" points="461.16,-122 314.84,-122 314.84,-86 461.16,-86 461.16,-122"/>
<text text-anchor="middle" x="388" y="-99.8" font-family="Times,serif" font-size="14.00">AnimationsComponent</text>
</g>
<!-- AnimationsModule -->
<g id="node2" class="node">
<title>AnimationsModule</title>
<polygon fill="#8dd3c7" stroke="black" points="283.38,-187 280.38,-191 259.38,-191 256.38,-187 158.62,-187 158.62,-151 283.38,-151 283.38,-187"/>
<text text-anchor="middle" x="221" y="-164.8" font-family="Times,serif" font-size="14.00">AnimationsModule</text>
</g>
<!-- AnimationsComponent&#45;&gt;AnimationsModule -->
<g id="edge1" class="edge">
<title>AnimationsComponent&#45;&gt;AnimationsModule</title>
<path fill="none" stroke="black" d="M388,-122.11C388,-141.34 388,-169 388,-169 388,-169 293.66,-169 293.66,-169"/>
<polygon fill="black" stroke="black" points="293.66,-165.5 283.66,-169 293.66,-172.5 293.66,-165.5"/>
</g>
<!-- FuseHighlightModule -->
<g id="node3" class="node">
<title>FuseHighlightModule</title>
<polygon fill="#8dd3c7" stroke="black" points="290.66,-122 287.66,-126 266.66,-126 263.66,-122 151.34,-122 151.34,-86 290.66,-86 290.66,-122"/>
<text text-anchor="middle" x="221" y="-99.8" font-family="Times,serif" font-size="14.00">FuseHighlightModule</text>
</g>
<!-- FuseHighlightModule&#45;&gt;AnimationsModule -->
<g id="edge2" class="edge">
<title>FuseHighlightModule&#45;&gt;AnimationsModule</title>
<path fill="none" stroke="black" d="M221,-122.11C221,-122.11 221,-140.99 221,-140.99"/>
<polygon fill="black" stroke="black" points="217.5,-140.99 221,-150.99 224.5,-140.99 217.5,-140.99"/>
</g>
<!-- SharedModule -->
<g id="node4" class="node">
<title>SharedModule</title>
<polygon fill="#8dd3c7" stroke="black" points="133.42,-122 130.42,-126 109.42,-126 106.42,-122 34.58,-122 34.58,-86 133.42,-86 133.42,-122"/>
<text text-anchor="middle" x="84" y="-99.8" font-family="Times,serif" font-size="14.00">SharedModule</text>
</g>
<!-- SharedModule&#45;&gt;AnimationsModule -->
<g id="edge3" class="edge">
<title>SharedModule&#45;&gt;AnimationsModule</title>
<path fill="none" stroke="black" d="M84,-122.11C84,-141.34 84,-169 84,-169 84,-169 148.51,-169 148.51,-169"/>
<polygon fill="black" stroke="black" points="148.51,-172.5 158.51,-169 148.51,-165.5 148.51,-172.5"/>
</g>
</g>
</svg>
