<?xml version="1.0" encoding="UTF-8" standalone="no"?>
<!DOCTYPE svg PUBLIC "-//W3C//DTD SVG 1.1//EN"
 "http://www.w3.org/Graphics/SVG/1.1/DTD/svg11.dtd">
<!-- Generated by graphviz version 2.47.0 (20210316.0004)
 -->
<!-- Title: dependencies Pages: 1 -->
<svg width="588pt" height="211pt"
 viewBox="0.00 0.00 588.00 211.00" xmlns="http://www.w3.org/2000/svg" xmlns:xlink="http://www.w3.org/1999/xlink">
<g id="graph0" class="graph" transform="scale(1 1) rotate(0) translate(4 207)">
<title>dependencies</title>
<polygon fill="white" stroke="transparent" points="-4,4 -4,-207 584,-207 584,4 -4,4"/>
<text text-anchor="start" x="269.01" y="-42.4" font-family="Times-12" font-weight="bold" font-size="14.00">Legend</text>
<polygon fill="#ffffb3" stroke="transparent" points="56,-10 56,-30 76,-30 76,-10 56,-10"/>
<text text-anchor="start" x="79.63" y="-15.4" font-family="Times-12" font-size="14.00"> &#160;Declarations</text>
<polygon fill="#8dd3c7" stroke="transparent" points="169,-10 169,-30 189,-30 189,-10 169,-10"/>
<text text-anchor="start" x="192.73" y="-15.4" font-family="Times-12" font-size="14.00"> &#160;Module</text>
<polygon fill="#80b1d3" stroke="transparent" points="255,-10 255,-30 275,-30 275,-10 255,-10"/>
<text text-anchor="start" x="278.78" y="-15.4" font-family="Times-12" font-size="14.00"> &#160;Bootstrap</text>
<polygon fill="#fdb462" stroke="transparent" points="352,-10 352,-30 372,-30 372,-10 352,-10"/>
<text text-anchor="start" x="375.67" y="-15.4" font-family="Times-12" font-size="14.00"> &#160;Providers</text>
<polygon fill="#fb8072" stroke="transparent" points="448,-10 448,-30 468,-30 468,-10 448,-10"/>
<text text-anchor="start" x="471.73" y="-15.4" font-family="Times-12" font-size="14.00"> &#160;Exports</text>
<g id="clust1" class="cluster">
<title>cluster_AuthSignInModule</title>
<polygon fill="none" stroke="black" stroke-dasharray="1,5" points="8,-70 8,-195 572,-195 572,-70 8,-70"/>
</g>
<g id="clust4" class="cluster">
<title>cluster_AuthSignInModule_imports</title>
<polygon fill="none" stroke="black" points="186,-78 186,-130 564,-130 564,-78 186,-78"/>
</g>
<g id="clust2" class="cluster">
<title>cluster_AuthSignInModule_declarations</title>
<polygon fill="none" stroke="black" points="16,-78 16,-130 178,-130 178,-78 16,-78"/>
</g>
<!-- AuthSignInComponent -->
<g id="node1" class="node">
<title>AuthSignInComponent</title>
<polygon fill="#ffffb3" stroke="black" points="170.16,-122 23.84,-122 23.84,-86 170.16,-86 170.16,-122"/>
<text text-anchor="middle" x="97" y="-99.8" font-family="Times,serif" font-size="14.00">AuthSignInComponent</text>
</g>
<!-- AuthSignInModule -->
<g id="node2" class="node">
<title>AuthSignInModule</title>
<polygon fill="#8dd3c7" stroke="black" points="367.38,-187 364.38,-191 343.38,-191 340.38,-187 242.62,-187 242.62,-151 367.38,-151 367.38,-187"/>
<text text-anchor="middle" x="305" y="-164.8" font-family="Times,serif" font-size="14.00">AuthSignInModule</text>
</g>
<!-- AuthSignInComponent&#45;&gt;AuthSignInModule -->
<g id="edge1" class="edge">
<title>AuthSignInComponent&#45;&gt;AuthSignInModule</title>
<path fill="none" stroke="black" d="M97,-122.11C97,-141.34 97,-169 97,-169 97,-169 232.59,-169 232.59,-169"/>
<polygon fill="black" stroke="black" points="232.59,-172.5 242.59,-169 232.59,-165.5 232.59,-172.5"/>
</g>
<!-- FuseAlertModule -->
<g id="node3" class="node">
<title>FuseAlertModule</title>
<polygon fill="#8dd3c7" stroke="black" points="556.25,-122 553.25,-126 532.25,-126 529.25,-122 441.75,-122 441.75,-86 556.25,-86 556.25,-122"/>
<text text-anchor="middle" x="499" y="-99.8" font-family="Times,serif" font-size="14.00">FuseAlertModule</text>
</g>
<!-- FuseAlertModule&#45;&gt;AuthSignInModule -->
<g id="edge2" class="edge">
<title>FuseAlertModule&#45;&gt;AuthSignInModule</title>
<path fill="none" stroke="black" d="M499,-122.11C499,-141.34 499,-169 499,-169 499,-169 377.45,-169 377.45,-169"/>
<polygon fill="black" stroke="black" points="377.45,-165.5 367.45,-169 377.45,-172.5 377.45,-165.5"/>
</g>
<!-- FuseCardModule -->
<g id="node4" class="node">
<title>FuseCardModule</title>
<polygon fill="#8dd3c7" stroke="black" points="423.7,-122 420.7,-126 399.7,-126 396.7,-122 310.3,-122 310.3,-86 423.7,-86 423.7,-122"/>
<text text-anchor="middle" x="367" y="-99.8" font-family="Times,serif" font-size="14.00">FuseCardModule</text>
</g>
<!-- FuseCardModule&#45;&gt;AuthSignInModule -->
<g id="edge3" class="edge">
<title>FuseCardModule&#45;&gt;AuthSignInModule</title>
<path fill="none" stroke="black" d="M338.92,-122.11C338.92,-122.11 338.92,-140.99 338.92,-140.99"/>
<polygon fill="black" stroke="black" points="335.42,-140.99 338.92,-150.99 342.42,-140.99 335.42,-140.99"/>
</g>
<!-- SharedModule -->
<g id="node5" class="node">
<title>SharedModule</title>
<polygon fill="#8dd3c7" stroke="black" points="292.42,-122 289.42,-126 268.42,-126 265.42,-122 193.58,-122 193.58,-86 292.42,-86 292.42,-122"/>
<text text-anchor="middle" x="243" y="-99.8" font-family="Times,serif" font-size="14.00">SharedModule</text>
</g>
<!-- SharedModule&#45;&gt;AuthSignInModule -->
<g id="edge4" class="edge">
<title>SharedModule&#45;&gt;AuthSignInModule</title>
<path fill="none" stroke="black" d="M267.39,-122.11C267.39,-122.11 267.39,-140.99 267.39,-140.99"/>
<polygon fill="black" stroke="black" points="263.89,-140.99 267.39,-150.99 270.89,-140.99 263.89,-140.99"/>
</g>
</g>
</svg>
