<?xml version="1.0" encoding="UTF-8" standalone="no"?>
<!DOCTYPE svg PUBLIC "-//W3C//DTD SVG 1.1//EN"
 "http://www.w3.org/Graphics/SVG/1.1/DTD/svg11.dtd">
<!-- Generated by graphviz version 2.47.0 (20210316.0004)
 -->
<!-- Title: dependencies Pages: 1 -->
<svg width="1781pt" height="211pt"
 viewBox="0.00 0.00 1781.00 211.00" xmlns="http://www.w3.org/2000/svg" xmlns:xlink="http://www.w3.org/1999/xlink">
<g id="graph0" class="graph" transform="scale(1 1) rotate(0) translate(4 207)">
<title>dependencies</title>
<polygon fill="white" stroke="transparent" points="-4,4 -4,-207 1777,-207 1777,4 -4,4"/>
<text text-anchor="start" x="865.51" y="-42.4" font-family="Times-12" font-weight="bold" font-size="14.00">Legend</text>
<polygon fill="#ffffb3" stroke="transparent" points="652.5,-10 652.5,-30 672.5,-30 672.5,-10 652.5,-10"/>
<text text-anchor="start" x="676.13" y="-15.4" font-family="Times-12" font-size="14.00"> &#160;Declarations</text>
<polygon fill="#8dd3c7" stroke="transparent" points="765.5,-10 765.5,-30 785.5,-30 785.5,-10 765.5,-10"/>
<text text-anchor="start" x="789.23" y="-15.4" font-family="Times-12" font-size="14.00"> &#160;Module</text>
<polygon fill="#80b1d3" stroke="transparent" points="851.5,-10 851.5,-30 871.5,-30 871.5,-10 851.5,-10"/>
<text text-anchor="start" x="875.28" y="-15.4" font-family="Times-12" font-size="14.00"> &#160;Bootstrap</text>
<polygon fill="#fdb462" stroke="transparent" points="948.5,-10 948.5,-30 968.5,-30 968.5,-10 948.5,-10"/>
<text text-anchor="start" x="972.17" y="-15.4" font-family="Times-12" font-size="14.00"> &#160;Providers</text>
<polygon fill="#fb8072" stroke="transparent" points="1044.5,-10 1044.5,-30 1064.5,-30 1064.5,-10 1044.5,-10"/>
<text text-anchor="start" x="1068.23" y="-15.4" font-family="Times-12" font-size="14.00"> &#160;Exports</text>
<g id="clust1" class="cluster">
<title>cluster_SignInModule</title>
<polygon fill="none" stroke="black" stroke-dasharray="1,5" points="8,-70 8,-195 1765,-195 1765,-70 8,-70"/>
</g>
<g id="clust10" class="cluster">
<title>cluster_SignInModule_imports</title>
<polygon fill="none" stroke="black" points="1510,-78 1510,-130 1757,-130 1757,-78 1510,-78"/>
</g>
<g id="clust2" class="cluster">
<title>cluster_SignInModule_declarations</title>
<polygon fill="none" stroke="black" points="16,-78 16,-130 1502,-130 1502,-78 16,-78"/>
</g>
<!-- SignInClassicComponent -->
<g id="node1" class="node">
<title>SignInClassicComponent</title>
<polygon fill="#ffffb3" stroke="black" points="1493.6,-122 1334.4,-122 1334.4,-86 1493.6,-86 1493.6,-122"/>
<text text-anchor="middle" x="1414" y="-99.8" font-family="Times,serif" font-size="14.00">SignInClassicComponent</text>
</g>
<!-- SignInModule -->
<g id="node8" class="node">
<title>SignInModule</title>
<polygon fill="#8dd3c7" stroke="black" points="1055.38,-187 1052.38,-191 1031.38,-191 1028.38,-187 958.62,-187 958.62,-151 1055.38,-151 1055.38,-187"/>
<text text-anchor="middle" x="1007" y="-164.8" font-family="Times,serif" font-size="14.00">SignInModule</text>
</g>
<!-- SignInClassicComponent&#45;&gt;SignInModule -->
<g id="edge1" class="edge">
<title>SignInClassicComponent&#45;&gt;SignInModule</title>
<path fill="none" stroke="black" d="M1414,-122.27C1414,-140.56 1414,-166 1414,-166 1414,-166 1065.69,-166 1065.69,-166"/>
<polygon fill="black" stroke="black" points="1065.69,-162.5 1055.69,-166 1065.69,-169.5 1065.69,-162.5"/>
</g>
<!-- SignInFullscreenComponent -->
<g id="node2" class="node">
<title>SignInFullscreenComponent</title>
<polygon fill="#ffffb3" stroke="black" points="1316.48,-122 1139.52,-122 1139.52,-86 1316.48,-86 1316.48,-122"/>
<text text-anchor="middle" x="1228" y="-99.8" font-family="Times,serif" font-size="14.00">SignInFullscreenComponent</text>
</g>
<!-- SignInFullscreenComponent&#45;&gt;SignInModule -->
<g id="edge2" class="edge">
<title>SignInFullscreenComponent&#45;&gt;SignInModule</title>
<path fill="none" stroke="black" d="M1228,-122.01C1228,-138.05 1228,-159 1228,-159 1228,-159 1065.5,-159 1065.5,-159"/>
<polygon fill="black" stroke="black" points="1065.5,-155.5 1055.5,-159 1065.5,-162.5 1065.5,-155.5"/>
</g>
<!-- SignInFullscreenReversedComponent -->
<g id="node3" class="node">
<title>SignInFullscreenReversedComponent</title>
<polygon fill="#ffffb3" stroke="black" points="1121.56,-122 892.44,-122 892.44,-86 1121.56,-86 1121.56,-122"/>
<text text-anchor="middle" x="1007" y="-99.8" font-family="Times,serif" font-size="14.00">SignInFullscreenReversedComponent</text>
</g>
<!-- SignInFullscreenReversedComponent&#45;&gt;SignInModule -->
<g id="edge3" class="edge">
<title>SignInFullscreenReversedComponent&#45;&gt;SignInModule</title>
<path fill="none" stroke="black" d="M1007,-122.11C1007,-122.11 1007,-140.99 1007,-140.99"/>
<polygon fill="black" stroke="black" points="1003.5,-140.99 1007,-150.99 1010.5,-140.99 1003.5,-140.99"/>
</g>
<!-- SignInModernComponent -->
<g id="node4" class="node">
<title>SignInModernComponent</title>
<polygon fill="#ffffb3" stroke="black" points="874.49,-122 711.51,-122 711.51,-86 874.49,-86 874.49,-122"/>
<text text-anchor="middle" x="793" y="-99.8" font-family="Times,serif" font-size="14.00">SignInModernComponent</text>
</g>
<!-- SignInModernComponent&#45;&gt;SignInModule -->
<g id="edge4" class="edge">
<title>SignInModernComponent&#45;&gt;SignInModule</title>
<path fill="none" stroke="black" d="M793,-122.01C793,-138.05 793,-159 793,-159 793,-159 948.44,-159 948.44,-159"/>
<polygon fill="black" stroke="black" points="948.44,-162.5 958.44,-159 948.44,-155.5 948.44,-162.5"/>
</g>
<!-- SignInModernReversedComponent -->
<g id="node5" class="node">
<title>SignInModernReversedComponent</title>
<polygon fill="#ffffb3" stroke="black" points="693.57,-122 478.43,-122 478.43,-86 693.57,-86 693.57,-122"/>
<text text-anchor="middle" x="586" y="-99.8" font-family="Times,serif" font-size="14.00">SignInModernReversedComponent</text>
</g>
<!-- SignInModernReversedComponent&#45;&gt;SignInModule -->
<g id="edge5" class="edge">
<title>SignInModernReversedComponent&#45;&gt;SignInModule</title>
<path fill="none" stroke="black" d="M586,-122.27C586,-140.56 586,-166 586,-166 586,-166 948.29,-166 948.29,-166"/>
<polygon fill="black" stroke="black" points="948.29,-169.5 958.29,-166 948.29,-162.5 948.29,-169.5"/>
</g>
<!-- SignInSplitScreenComponent -->
<g id="node6" class="node">
<title>SignInSplitScreenComponent</title>
<polygon fill="#ffffb3" stroke="black" points="460.71,-122 277.29,-122 277.29,-86 460.71,-86 460.71,-122"/>
<text text-anchor="middle" x="369" y="-99.8" font-family="Times,serif" font-size="14.00">SignInSplitScreenComponent</text>
</g>
<!-- SignInSplitScreenComponent&#45;&gt;SignInModule -->
<g id="edge6" class="edge">
<title>SignInSplitScreenComponent&#45;&gt;SignInModule</title>
<path fill="none" stroke="black" d="M369,-122.13C369,-142.57 369,-173 369,-173 369,-173 948.52,-173 948.52,-173"/>
<polygon fill="black" stroke="black" points="948.52,-176.5 958.52,-173 948.52,-169.5 948.52,-176.5"/>
</g>
<!-- SignInSplitScreenReversedComponent -->
<g id="node7" class="node">
<title>SignInSplitScreenReversedComponent</title>
<polygon fill="#ffffb3" stroke="black" points="259.79,-122 24.21,-122 24.21,-86 259.79,-86 259.79,-122"/>
<text text-anchor="middle" x="142" y="-99.8" font-family="Times,serif" font-size="14.00">SignInSplitScreenReversedComponent</text>
</g>
<!-- SignInSplitScreenReversedComponent&#45;&gt;SignInModule -->
<g id="edge7" class="edge">
<title>SignInSplitScreenReversedComponent&#45;&gt;SignInModule</title>
<path fill="none" stroke="black" d="M142,-122.01C142,-144.49 142,-180 142,-180 142,-180 948.33,-180 948.33,-180"/>
<polygon fill="black" stroke="black" points="948.33,-183.5 958.33,-180 948.33,-176.5 948.33,-183.5"/>
</g>
<!-- FuseAlertModule -->
<g id="node9" class="node">
<title>FuseAlertModule</title>
<polygon fill="#8dd3c7" stroke="black" points="1749.25,-122 1746.25,-126 1725.25,-126 1722.25,-122 1634.75,-122 1634.75,-86 1749.25,-86 1749.25,-122"/>
<text text-anchor="middle" x="1692" y="-99.8" font-family="Times,serif" font-size="14.00">FuseAlertModule</text>
</g>
<!-- FuseAlertModule&#45;&gt;SignInModule -->
<g id="edge8" class="edge">
<title>FuseAlertModule&#45;&gt;SignInModule</title>
<path fill="none" stroke="black" d="M1692,-122.01C1692,-144.49 1692,-180 1692,-180 1692,-180 1065.44,-180 1065.44,-180"/>
<polygon fill="black" stroke="black" points="1065.44,-176.5 1055.44,-180 1065.44,-183.5 1065.44,-176.5"/>
</g>
<!-- SharedModule -->
<g id="node10" class="node">
<title>SharedModule</title>
<polygon fill="#8dd3c7" stroke="black" points="1616.42,-122 1613.42,-126 1592.42,-126 1589.42,-122 1517.58,-122 1517.58,-86 1616.42,-86 1616.42,-122"/>
<text text-anchor="middle" x="1567" y="-99.8" font-family="Times,serif" font-size="14.00">SharedModule</text>
</g>
<!-- SharedModule&#45;&gt;SignInModule -->
<g id="edge9" class="edge">
<title>SharedModule&#45;&gt;SignInModule</title>
<path fill="none" stroke="black" d="M1567,-122.13C1567,-142.57 1567,-173 1567,-173 1567,-173 1065.72,-173 1065.72,-173"/>
<polygon fill="black" stroke="black" points="1065.72,-169.5 1055.72,-173 1065.72,-176.5 1065.72,-169.5"/>
</g>
</g>
</svg>
