<?xml version="1.0" encoding="UTF-8" standalone="no"?>
<!DOCTYPE svg PUBLIC "-//W3C//DTD SVG 1.1//EN"
 "http://www.w3.org/Graphics/SVG/1.1/DTD/svg11.dtd">
<!-- Generated by graphviz version 2.47.0 (20210316.0004)
 -->
<!-- Title: dependencies Pages: 1 -->
<svg width="2405pt" height="211pt"
 viewBox="0.00 0.00 2405.00 211.00" xmlns="http://www.w3.org/2000/svg" xmlns:xlink="http://www.w3.org/1999/xlink">
<g id="graph0" class="graph" transform="scale(1 1) rotate(0) translate(4 207)">
<title>dependencies</title>
<polygon fill="white" stroke="transparent" points="-4,4 -4,-207 2401,-207 2401,4 -4,4"/>
<text text-anchor="start" x="1177.51" y="-42.4" font-family="Times-12" font-weight="bold" font-size="14.00">Legend</text>
<polygon fill="#ffffb3" stroke="transparent" points="964.5,-10 964.5,-30 984.5,-30 984.5,-10 964.5,-10"/>
<text text-anchor="start" x="988.13" y="-15.4" font-family="Times-12" font-size="14.00"> &#160;Declarations</text>
<polygon fill="#8dd3c7" stroke="transparent" points="1077.5,-10 1077.5,-30 1097.5,-30 1097.5,-10 1077.5,-10"/>
<text text-anchor="start" x="1101.23" y="-15.4" font-family="Times-12" font-size="14.00"> &#160;Module</text>
<polygon fill="#80b1d3" stroke="transparent" points="1163.5,-10 1163.5,-30 1183.5,-30 1183.5,-10 1163.5,-10"/>
<text text-anchor="start" x="1187.28" y="-15.4" font-family="Times-12" font-size="14.00"> &#160;Bootstrap</text>
<polygon fill="#fdb462" stroke="transparent" points="1260.5,-10 1260.5,-30 1280.5,-30 1280.5,-10 1260.5,-10"/>
<text text-anchor="start" x="1284.17" y="-15.4" font-family="Times-12" font-size="14.00"> &#160;Providers</text>
<polygon fill="#fb8072" stroke="transparent" points="1356.5,-10 1356.5,-30 1376.5,-30 1376.5,-10 1356.5,-10"/>
<text text-anchor="start" x="1380.23" y="-15.4" font-family="Times-12" font-size="14.00"> &#160;Exports</text>
<g id="clust1" class="cluster">
<title>cluster_ConfirmationRequiredModule</title>
<polygon fill="none" stroke="black" stroke-dasharray="1,5" points="8,-70 8,-195 2389,-195 2389,-70 8,-70"/>
</g>
<g id="clust10" class="cluster">
<title>cluster_ConfirmationRequiredModule_imports</title>
<polygon fill="none" stroke="black" points="2134,-78 2134,-130 2381,-130 2381,-78 2134,-78"/>
</g>
<g id="clust2" class="cluster">
<title>cluster_ConfirmationRequiredModule_declarations</title>
<polygon fill="none" stroke="black" points="16,-78 16,-130 2126,-130 2126,-78 16,-78"/>
</g>
<!-- ConfirmationRequiredClassicComponent -->
<g id="node1" class="node">
<title>ConfirmationRequiredClassicComponent</title>
<polygon fill="#ffffb3" stroke="black" points="2118.02,-122 1869.98,-122 1869.98,-86 2118.02,-86 2118.02,-122"/>
<text text-anchor="middle" x="1994" y="-99.8" font-family="Times,serif" font-size="14.00">ConfirmationRequiredClassicComponent</text>
</g>
<!-- ConfirmationRequiredModule -->
<g id="node8" class="node">
<title>ConfirmationRequiredModule</title>
<polygon fill="#8dd3c7" stroke="black" points="1502.3,-187 1499.3,-191 1478.3,-191 1475.3,-187 1315.7,-187 1315.7,-151 1502.3,-151 1502.3,-187"/>
<text text-anchor="middle" x="1409" y="-164.8" font-family="Times,serif" font-size="14.00">ConfirmationRequiredModule</text>
</g>
<!-- ConfirmationRequiredClassicComponent&#45;&gt;ConfirmationRequiredModule -->
<g id="edge1" class="edge">
<title>ConfirmationRequiredClassicComponent&#45;&gt;ConfirmationRequiredModule</title>
<path fill="none" stroke="black" d="M1994,-122.27C1994,-140.56 1994,-166 1994,-166 1994,-166 1512.34,-166 1512.34,-166"/>
<polygon fill="black" stroke="black" points="1512.34,-162.5 1502.34,-166 1512.34,-169.5 1512.34,-162.5"/>
</g>
<!-- ConfirmationRequiredFullscreenComponent -->
<g id="node2" class="node">
<title>ConfirmationRequiredFullscreenComponent</title>
<polygon fill="#ffffb3" stroke="black" points="1852.4,-122 1585.6,-122 1585.6,-86 1852.4,-86 1852.4,-122"/>
<text text-anchor="middle" x="1719" y="-99.8" font-family="Times,serif" font-size="14.00">ConfirmationRequiredFullscreenComponent</text>
</g>
<!-- ConfirmationRequiredFullscreenComponent&#45;&gt;ConfirmationRequiredModule -->
<g id="edge2" class="edge">
<title>ConfirmationRequiredFullscreenComponent&#45;&gt;ConfirmationRequiredModule</title>
<path fill="none" stroke="black" d="M1719,-122.01C1719,-138.05 1719,-159 1719,-159 1719,-159 1512.43,-159 1512.43,-159"/>
<polygon fill="black" stroke="black" points="1512.43,-155.5 1502.43,-159 1512.43,-162.5 1512.43,-155.5"/>
</g>
<!-- ConfirmationRequiredFullscreenReversedComponent -->
<g id="node3" class="node">
<title>ConfirmationRequiredFullscreenReversedComponent</title>
<polygon fill="#ffffb3" stroke="black" points="1568.48,-122 1249.52,-122 1249.52,-86 1568.48,-86 1568.48,-122"/>
<text text-anchor="middle" x="1409" y="-99.8" font-family="Times,serif" font-size="14.00">ConfirmationRequiredFullscreenReversedComponent</text>
</g>
<!-- ConfirmationRequiredFullscreenReversedComponent&#45;&gt;ConfirmationRequiredModule -->
<g id="edge3" class="edge">
<title>ConfirmationRequiredFullscreenReversedComponent&#45;&gt;ConfirmationRequiredModule</title>
<path fill="none" stroke="black" d="M1409,-122.11C1409,-122.11 1409,-140.99 1409,-140.99"/>
<polygon fill="black" stroke="black" points="1405.5,-140.99 1409,-150.99 1412.5,-140.99 1405.5,-140.99"/>
</g>
<!-- ConfirmationRequiredModernComponent -->
<g id="node4" class="node">
<title>ConfirmationRequiredModernComponent</title>
<polygon fill="#ffffb3" stroke="black" points="1232.4,-122 979.6,-122 979.6,-86 1232.4,-86 1232.4,-122"/>
<text text-anchor="middle" x="1106" y="-99.8" font-family="Times,serif" font-size="14.00">ConfirmationRequiredModernComponent</text>
</g>
<!-- ConfirmationRequiredModernComponent&#45;&gt;ConfirmationRequiredModule -->
<g id="edge4" class="edge">
<title>ConfirmationRequiredModernComponent&#45;&gt;ConfirmationRequiredModule</title>
<path fill="none" stroke="black" d="M1106,-122.01C1106,-138.05 1106,-159 1106,-159 1106,-159 1305.62,-159 1305.62,-159"/>
<polygon fill="black" stroke="black" points="1305.62,-162.5 1315.62,-159 1305.62,-155.5 1305.62,-162.5"/>
</g>
<!-- ConfirmationRequiredModernReversedComponent -->
<g id="node5" class="node">
<title>ConfirmationRequiredModernReversedComponent</title>
<polygon fill="#ffffb3" stroke="black" points="962.49,-122 657.51,-122 657.51,-86 962.49,-86 962.49,-122"/>
<text text-anchor="middle" x="810" y="-99.8" font-family="Times,serif" font-size="14.00">ConfirmationRequiredModernReversedComponent</text>
</g>
<!-- ConfirmationRequiredModernReversedComponent&#45;&gt;ConfirmationRequiredModule -->
<g id="edge5" class="edge">
<title>ConfirmationRequiredModernReversedComponent&#45;&gt;ConfirmationRequiredModule</title>
<path fill="none" stroke="black" d="M810,-122.27C810,-140.56 810,-166 810,-166 810,-166 1305.74,-166 1305.74,-166"/>
<polygon fill="black" stroke="black" points="1305.74,-169.5 1315.74,-166 1305.74,-162.5 1305.74,-169.5"/>
</g>
<!-- ConfirmationRequiredSplitScreenComponent -->
<g id="node6" class="node">
<title>ConfirmationRequiredSplitScreenComponent</title>
<polygon fill="#ffffb3" stroke="black" points="639.13,-122 366.87,-122 366.87,-86 639.13,-86 639.13,-122"/>
<text text-anchor="middle" x="503" y="-99.8" font-family="Times,serif" font-size="14.00">ConfirmationRequiredSplitScreenComponent</text>
</g>
<!-- ConfirmationRequiredSplitScreenComponent&#45;&gt;ConfirmationRequiredModule -->
<g id="edge6" class="edge">
<title>ConfirmationRequiredSplitScreenComponent&#45;&gt;ConfirmationRequiredModule</title>
<path fill="none" stroke="black" d="M503,-122.13C503,-142.57 503,-173 503,-173 503,-173 1305.45,-173 1305.45,-173"/>
<polygon fill="black" stroke="black" points="1305.45,-176.5 1315.45,-173 1305.45,-169.5 1305.45,-176.5"/>
</g>
<!-- ConfirmationRequiredSplitScreenReversedComponent -->
<g id="node7" class="node">
<title>ConfirmationRequiredSplitScreenReversedComponent</title>
<polygon fill="#ffffb3" stroke="black" points="348.21,-122 23.79,-122 23.79,-86 348.21,-86 348.21,-122"/>
<text text-anchor="middle" x="186" y="-99.8" font-family="Times,serif" font-size="14.00">ConfirmationRequiredSplitScreenReversedComponent</text>
</g>
<!-- ConfirmationRequiredSplitScreenReversedComponent&#45;&gt;ConfirmationRequiredModule -->
<g id="edge7" class="edge">
<title>ConfirmationRequiredSplitScreenReversedComponent&#45;&gt;ConfirmationRequiredModule</title>
<path fill="none" stroke="black" d="M186,-122.01C186,-144.49 186,-180 186,-180 186,-180 1305.82,-180 1305.82,-180"/>
<polygon fill="black" stroke="black" points="1305.82,-183.5 1315.82,-180 1305.82,-176.5 1305.82,-183.5"/>
</g>
<!-- FuseAlertModule -->
<g id="node9" class="node">
<title>FuseAlertModule</title>
<polygon fill="#8dd3c7" stroke="black" points="2373.25,-122 2370.25,-126 2349.25,-126 2346.25,-122 2258.75,-122 2258.75,-86 2373.25,-86 2373.25,-122"/>
<text text-anchor="middle" x="2316" y="-99.8" font-family="Times,serif" font-size="14.00">FuseAlertModule</text>
</g>
<!-- FuseAlertModule&#45;&gt;ConfirmationRequiredModule -->
<g id="edge8" class="edge">
<title>FuseAlertModule&#45;&gt;ConfirmationRequiredModule</title>
<path fill="none" stroke="black" d="M2316,-122.01C2316,-144.49 2316,-180 2316,-180 2316,-180 1512.23,-180 1512.23,-180"/>
<polygon fill="black" stroke="black" points="1512.23,-176.5 1502.23,-180 1512.23,-183.5 1512.23,-176.5"/>
</g>
<!-- SharedModule -->
<g id="node10" class="node">
<title>SharedModule</title>
<polygon fill="#8dd3c7" stroke="black" points="2240.42,-122 2237.42,-126 2216.42,-126 2213.42,-122 2141.58,-122 2141.58,-86 2240.42,-86 2240.42,-122"/>
<text text-anchor="middle" x="2191" y="-99.8" font-family="Times,serif" font-size="14.00">SharedModule</text>
</g>
<!-- SharedModule&#45;&gt;ConfirmationRequiredModule -->
<g id="edge9" class="edge">
<title>SharedModule&#45;&gt;ConfirmationRequiredModule</title>
<path fill="none" stroke="black" d="M2191,-122.13C2191,-142.57 2191,-173 2191,-173 2191,-173 1512.16,-173 1512.16,-173"/>
<polygon fill="black" stroke="black" points="1512.16,-169.5 1502.16,-173 1512.16,-176.5 1512.16,-169.5"/>
</g>
</g>
</svg>
