<?xml version="1.0" encoding="UTF-8" standalone="no"?>
<!DOCTYPE svg PUBLIC "-//W3C//DTD SVG 1.1//EN"
 "http://www.w3.org/Graphics/SVG/1.1/DTD/svg11.dtd">
<!-- Generated by graphviz version 2.47.0 (20210316.0004)
 -->
<!-- Title: dependencies Pages: 1 -->
<svg width="1711pt" height="211pt"
 viewBox="0.00 0.00 1711.00 211.00" xmlns="http://www.w3.org/2000/svg" xmlns:xlink="http://www.w3.org/1999/xlink">
<g id="graph0" class="graph" transform="scale(1 1) rotate(0) translate(4 207)">
<title>dependencies</title>
<polygon fill="white" stroke="transparent" points="-4,4 -4,-207 1707,-207 1707,4 -4,4"/>
<text text-anchor="start" x="830.51" y="-42.4" font-family="Times-12" font-weight="bold" font-size="14.00">Legend</text>
<polygon fill="#ffffb3" stroke="transparent" points="617.5,-10 617.5,-30 637.5,-30 637.5,-10 617.5,-10"/>
<text text-anchor="start" x="641.13" y="-15.4" font-family="Times-12" font-size="14.00"> &#160;Declarations</text>
<polygon fill="#8dd3c7" stroke="transparent" points="730.5,-10 730.5,-30 750.5,-30 750.5,-10 730.5,-10"/>
<text text-anchor="start" x="754.23" y="-15.4" font-family="Times-12" font-size="14.00"> &#160;Module</text>
<polygon fill="#80b1d3" stroke="transparent" points="816.5,-10 816.5,-30 836.5,-30 836.5,-10 816.5,-10"/>
<text text-anchor="start" x="840.28" y="-15.4" font-family="Times-12" font-size="14.00"> &#160;Bootstrap</text>
<polygon fill="#fdb462" stroke="transparent" points="913.5,-10 913.5,-30 933.5,-30 933.5,-10 913.5,-10"/>
<text text-anchor="start" x="937.17" y="-15.4" font-family="Times-12" font-size="14.00"> &#160;Providers</text>
<polygon fill="#fb8072" stroke="transparent" points="1009.5,-10 1009.5,-30 1029.5,-30 1029.5,-10 1009.5,-10"/>
<text text-anchor="start" x="1033.23" y="-15.4" font-family="Times-12" font-size="14.00"> &#160;Exports</text>
<g id="clust1" class="cluster">
<title>cluster_SignOutModule</title>
<polygon fill="none" stroke="black" stroke-dasharray="1,5" points="8,-70 8,-195 1695,-195 1695,-70 8,-70"/>
</g>
<g id="clust10" class="cluster">
<title>cluster_SignOutModule_imports</title>
<polygon fill="none" stroke="black" points="1573,-78 1573,-130 1687,-130 1687,-78 1573,-78"/>
</g>
<g id="clust2" class="cluster">
<title>cluster_SignOutModule_declarations</title>
<polygon fill="none" stroke="black" points="16,-78 16,-130 1565,-130 1565,-78 16,-78"/>
</g>
<!-- SignOutClassicComponent -->
<g id="node1" class="node">
<title>SignOutClassicComponent</title>
<polygon fill="#ffffb3" stroke="black" points="1557.44,-122 1388.56,-122 1388.56,-86 1557.44,-86 1557.44,-122"/>
<text text-anchor="middle" x="1473" y="-99.8" font-family="Times,serif" font-size="14.00">SignOutClassicComponent</text>
</g>
<!-- SignOutModule -->
<g id="node8" class="node">
<title>SignOutModule</title>
<polygon fill="#8dd3c7" stroke="black" points="989.22,-187 986.22,-191 965.22,-191 962.22,-187 882.78,-187 882.78,-151 989.22,-151 989.22,-187"/>
<text text-anchor="middle" x="936" y="-164.8" font-family="Times,serif" font-size="14.00">SignOutModule</text>
</g>
<!-- SignOutClassicComponent&#45;&gt;SignOutModule -->
<g id="edge1" class="edge">
<title>SignOutClassicComponent&#45;&gt;SignOutModule</title>
<path fill="none" stroke="black" d="M1473,-122.11C1473,-141.34 1473,-169 1473,-169 1473,-169 999.45,-169 999.45,-169"/>
<polygon fill="black" stroke="black" points="999.45,-165.5 989.45,-169 999.45,-172.5 999.45,-165.5"/>
</g>
<!-- SignOutFullscreenComponent -->
<g id="node2" class="node">
<title>SignOutFullscreenComponent</title>
<polygon fill="#ffffb3" stroke="black" points="1371.32,-122 1184.68,-122 1184.68,-86 1371.32,-86 1371.32,-122"/>
<text text-anchor="middle" x="1278" y="-99.8" font-family="Times,serif" font-size="14.00">SignOutFullscreenComponent</text>
</g>
<!-- SignOutFullscreenComponent&#45;&gt;SignOutModule -->
<g id="edge2" class="edge">
<title>SignOutFullscreenComponent&#45;&gt;SignOutModule</title>
<path fill="none" stroke="black" d="M1278,-122.03C1278,-138.4 1278,-160 1278,-160 1278,-160 999.44,-160 999.44,-160"/>
<polygon fill="black" stroke="black" points="999.44,-156.5 989.44,-160 999.44,-163.5 999.44,-156.5"/>
</g>
<!-- SignOutFullscreenReversedComponent -->
<g id="node3" class="node">
<title>SignOutFullscreenReversedComponent</title>
<polygon fill="#ffffb3" stroke="black" points="1167.4,-122 928.6,-122 928.6,-86 1167.4,-86 1167.4,-122"/>
<text text-anchor="middle" x="1048" y="-99.8" font-family="Times,serif" font-size="14.00">SignOutFullscreenReversedComponent</text>
</g>
<!-- SignOutFullscreenReversedComponent&#45;&gt;SignOutModule -->
<g id="edge3" class="edge">
<title>SignOutFullscreenReversedComponent&#45;&gt;SignOutModule</title>
<path fill="none" stroke="black" d="M958.95,-122.11C958.95,-122.11 958.95,-140.99 958.95,-140.99"/>
<polygon fill="black" stroke="black" points="955.45,-140.99 958.95,-150.99 962.45,-140.99 955.45,-140.99"/>
</g>
<!-- SignOutModernComponent -->
<g id="node4" class="node">
<title>SignOutModernComponent</title>
<polygon fill="#ffffb3" stroke="black" points="911.32,-122 738.68,-122 738.68,-86 911.32,-86 911.32,-122"/>
<text text-anchor="middle" x="825" y="-99.8" font-family="Times,serif" font-size="14.00">SignOutModernComponent</text>
</g>
<!-- SignOutModernComponent&#45;&gt;SignOutModule -->
<g id="edge4" class="edge">
<title>SignOutModernComponent&#45;&gt;SignOutModule</title>
<path fill="none" stroke="black" d="M897.03,-122.11C897.03,-122.11 897.03,-140.99 897.03,-140.99"/>
<polygon fill="black" stroke="black" points="893.53,-140.99 897.03,-150.99 900.53,-140.99 893.53,-140.99"/>
</g>
<!-- SignOutModernReversedComponent -->
<g id="node5" class="node">
<title>SignOutModernReversedComponent</title>
<polygon fill="#ffffb3" stroke="black" points="721.41,-122 496.59,-122 496.59,-86 721.41,-86 721.41,-122"/>
<text text-anchor="middle" x="609" y="-99.8" font-family="Times,serif" font-size="14.00">SignOutModernReversedComponent</text>
</g>
<!-- SignOutModernReversedComponent&#45;&gt;SignOutModule -->
<g id="edge5" class="edge">
<title>SignOutModernReversedComponent&#45;&gt;SignOutModule</title>
<path fill="none" stroke="black" d="M609,-122.03C609,-138.4 609,-160 609,-160 609,-160 872.73,-160 872.73,-160"/>
<polygon fill="black" stroke="black" points="872.73,-163.5 882.73,-160 872.73,-156.5 872.73,-163.5"/>
</g>
<!-- SignOutSplitScreenComponent -->
<g id="node6" class="node">
<title>SignOutSplitScreenComponent</title>
<polygon fill="#ffffb3" stroke="black" points="479.04,-122 286.96,-122 286.96,-86 479.04,-86 479.04,-122"/>
<text text-anchor="middle" x="383" y="-99.8" font-family="Times,serif" font-size="14.00">SignOutSplitScreenComponent</text>
</g>
<!-- SignOutSplitScreenComponent&#45;&gt;SignOutModule -->
<g id="edge6" class="edge">
<title>SignOutSplitScreenComponent&#45;&gt;SignOutModule</title>
<path fill="none" stroke="black" d="M383,-122.11C383,-141.34 383,-169 383,-169 383,-169 872.73,-169 872.73,-169"/>
<polygon fill="black" stroke="black" points="872.73,-172.5 882.73,-169 872.73,-165.5 872.73,-172.5"/>
</g>
<!-- SignOutSplitScreenReversedComponent -->
<g id="node7" class="node">
<title>SignOutSplitScreenReversedComponent</title>
<polygon fill="#ffffb3" stroke="black" points="268.13,-122 23.87,-122 23.87,-86 268.13,-86 268.13,-122"/>
<text text-anchor="middle" x="146" y="-99.8" font-family="Times,serif" font-size="14.00">SignOutSplitScreenReversedComponent</text>
</g>
<!-- SignOutSplitScreenReversedComponent&#45;&gt;SignOutModule -->
<g id="edge7" class="edge">
<title>SignOutSplitScreenReversedComponent&#45;&gt;SignOutModule</title>
<path fill="none" stroke="black" d="M146,-122.29C146,-144.21 146,-178 146,-178 146,-178 872.63,-178 872.63,-178"/>
<polygon fill="black" stroke="black" points="872.63,-181.5 882.63,-178 872.63,-174.5 872.63,-181.5"/>
</g>
<!-- SharedModule -->
<g id="node9" class="node">
<title>SharedModule</title>
<polygon fill="#8dd3c7" stroke="black" points="1679.42,-122 1676.42,-126 1655.42,-126 1652.42,-122 1580.58,-122 1580.58,-86 1679.42,-86 1679.42,-122"/>
<text text-anchor="middle" x="1630" y="-99.8" font-family="Times,serif" font-size="14.00">SharedModule</text>
</g>
<!-- SharedModule&#45;&gt;SignOutModule -->
<g id="edge8" class="edge">
<title>SharedModule&#45;&gt;SignOutModule</title>
<path fill="none" stroke="black" d="M1630,-122.29C1630,-144.21 1630,-178 1630,-178 1630,-178 999.3,-178 999.3,-178"/>
<polygon fill="black" stroke="black" points="999.3,-174.5 989.3,-178 999.3,-181.5 999.3,-174.5"/>
</g>
</g>
</svg>
