<?xml version="1.0" encoding="UTF-8" standalone="no"?>
<!DOCTYPE svg PUBLIC "-//W3C//DTD SVG 1.1//EN"
 "http://www.w3.org/Graphics/SVG/1.1/DTD/svg11.dtd">
<!-- Generated by graphviz version 2.47.0 (20210316.0004)
 -->
<!-- Title: dependencies Pages: 1 -->
<svg width="1734pt" height="284pt"
 viewBox="0.00 0.00 1734.00 284.00" xmlns="http://www.w3.org/2000/svg" xmlns:xlink="http://www.w3.org/1999/xlink">
<g id="graph0" class="graph" transform="scale(1 1) rotate(0) translate(4 280)">
<title>dependencies</title>
<polygon fill="white" stroke="transparent" points="-4,4 -4,-280 1730,-280 1730,4 -4,4"/>
<text text-anchor="start" x="842.01" y="-42.4" font-family="Times-12" font-weight="bold" font-size="14.00">Legend</text>
<polygon fill="#ffffb3" stroke="transparent" points="629,-10 629,-30 649,-30 649,-10 629,-10"/>
<text text-anchor="start" x="652.63" y="-15.4" font-family="Times-12" font-size="14.00"> &#160;Declarations</text>
<polygon fill="#8dd3c7" stroke="transparent" points="742,-10 742,-30 762,-30 762,-10 742,-10"/>
<text text-anchor="start" x="765.73" y="-15.4" font-family="Times-12" font-size="14.00"> &#160;Module</text>
<polygon fill="#80b1d3" stroke="transparent" points="828,-10 828,-30 848,-30 848,-10 828,-10"/>
<text text-anchor="start" x="851.78" y="-15.4" font-family="Times-12" font-size="14.00"> &#160;Bootstrap</text>
<polygon fill="#fdb462" stroke="transparent" points="925,-10 925,-30 945,-30 945,-10 925,-10"/>
<text text-anchor="start" x="948.67" y="-15.4" font-family="Times-12" font-size="14.00"> &#160;Providers</text>
<polygon fill="#fb8072" stroke="transparent" points="1021,-10 1021,-30 1041,-30 1041,-10 1021,-10"/>
<text text-anchor="start" x="1044.73" y="-15.4" font-family="Times-12" font-size="14.00"> &#160;Exports</text>
<g id="clust1" class="cluster">
<title>cluster_ThinLayoutModule</title>
<polygon fill="none" stroke="black" stroke-dasharray="1,5" points="8,-70 8,-268 1718,-268 1718,-70 8,-70"/>
</g>
<g id="clust4" class="cluster">
<title>cluster_ThinLayoutModule_imports</title>
<polygon fill="none" stroke="black" points="188,-78 188,-130 1710,-130 1710,-78 188,-78"/>
</g>
<g id="clust5" class="cluster">
<title>cluster_ThinLayoutModule_exports</title>
<polygon fill="none" stroke="black" points="711,-208 711,-260 877,-260 877,-208 711,-208"/>
</g>
<g id="clust2" class="cluster">
<title>cluster_ThinLayoutModule_declarations</title>
<polygon fill="none" stroke="black" points="16,-78 16,-130 180,-130 180,-78 16,-78"/>
</g>
<!-- ThinLayoutComponent -->
<g id="node1" class="node">
<title>ThinLayoutComponent</title>
<polygon fill="#ffffb3" stroke="black" points="171.93,-122 24.07,-122 24.07,-86 171.93,-86 171.93,-122"/>
<text text-anchor="middle" x="98" y="-99.8" font-family="Times,serif" font-size="14.00">ThinLayoutComponent</text>
</g>
<!-- ThinLayoutModule -->
<g id="node2" class="node">
<title>ThinLayoutModule</title>
<polygon fill="#8dd3c7" stroke="black" points="856.65,-187 853.65,-191 832.65,-191 829.65,-187 731.35,-187 731.35,-151 856.65,-151 856.65,-187"/>
<text text-anchor="middle" x="794" y="-164.8" font-family="Times,serif" font-size="14.00">ThinLayoutModule</text>
</g>
<!-- ThinLayoutComponent&#45;&gt;ThinLayoutModule -->
<g id="edge1" class="edge">
<title>ThinLayoutComponent&#45;&gt;ThinLayoutModule</title>
<path fill="none" stroke="black" d="M98,-122.25C98,-145.02 98,-181 98,-181 98,-181 721.31,-181 721.31,-181"/>
<polygon fill="black" stroke="black" points="721.31,-184.5 731.31,-181 721.31,-177.5 721.31,-184.5"/>
</g>
<!-- ThinLayoutComponent  -->
<g id="node14" class="node">
<title>ThinLayoutComponent </title>
<polygon fill="#fb8072" stroke="black" points="869.43,-252 718.57,-252 718.57,-216 869.43,-216 869.43,-252"/>
<text text-anchor="middle" x="794" y="-229.8" font-family="Times,serif" font-size="14.00">ThinLayoutComponent </text>
</g>
<!-- ThinLayoutModule&#45;&gt;ThinLayoutComponent  -->
<g id="edge13" class="edge">
<title>ThinLayoutModule&#45;&gt;ThinLayoutComponent </title>
<path fill="none" stroke="black" stroke-dasharray="5,2" d="M794,-187.11C794,-187.11 794,-205.99 794,-205.99"/>
<polygon fill="black" stroke="black" points="790.5,-205.99 794,-215.99 797.5,-205.99 790.5,-205.99"/>
</g>
<!-- FuseFullscreenModule -->
<g id="node3" class="node">
<title>FuseFullscreenModule</title>
<polygon fill="#8dd3c7" stroke="black" points="1702.3,-122 1699.3,-126 1678.3,-126 1675.3,-122 1557.7,-122 1557.7,-86 1702.3,-86 1702.3,-122"/>
<text text-anchor="middle" x="1630" y="-99.8" font-family="Times,serif" font-size="14.00">FuseFullscreenModule</text>
</g>
<!-- FuseFullscreenModule&#45;&gt;ThinLayoutModule -->
<g id="edge2" class="edge">
<title>FuseFullscreenModule&#45;&gt;ThinLayoutModule</title>
<path fill="none" stroke="black" d="M1630,-122.25C1630,-145.02 1630,-181 1630,-181 1630,-181 866.84,-181 866.84,-181"/>
<polygon fill="black" stroke="black" points="866.84,-177.5 856.84,-181 866.84,-184.5 866.84,-177.5"/>
</g>
<!-- FuseLoadingBarModule -->
<g id="node4" class="node">
<title>FuseLoadingBarModule</title>
<polygon fill="#8dd3c7" stroke="black" points="1539.36,-122 1536.36,-126 1515.36,-126 1512.36,-122 1386.64,-122 1386.64,-86 1539.36,-86 1539.36,-122"/>
<text text-anchor="middle" x="1463" y="-99.8" font-family="Times,serif" font-size="14.00">FuseLoadingBarModule</text>
</g>
<!-- FuseLoadingBarModule&#45;&gt;ThinLayoutModule -->
<g id="edge3" class="edge">
<title>FuseLoadingBarModule&#45;&gt;ThinLayoutModule</title>
<path fill="none" stroke="black" d="M1463,-122.28C1463,-143.32 1463,-175 1463,-175 1463,-175 866.94,-175 866.94,-175"/>
<polygon fill="black" stroke="black" points="866.94,-171.5 856.94,-175 866.94,-178.5 866.94,-171.5"/>
</g>
<!-- FuseNavigationModule -->
<g id="node5" class="node">
<title>FuseNavigationModule</title>
<polygon fill="#8dd3c7" stroke="black" points="1368.2,-122 1365.2,-126 1344.2,-126 1341.2,-122 1219.8,-122 1219.8,-86 1368.2,-86 1368.2,-122"/>
<text text-anchor="middle" x="1294" y="-99.8" font-family="Times,serif" font-size="14.00">FuseNavigationModule</text>
</g>
<!-- FuseNavigationModule&#45;&gt;ThinLayoutModule -->
<g id="edge4" class="edge">
<title>FuseNavigationModule&#45;&gt;ThinLayoutModule</title>
<path fill="none" stroke="black" d="M1294,-122.11C1294,-141.34 1294,-169 1294,-169 1294,-169 866.82,-169 866.82,-169"/>
<polygon fill="black" stroke="black" points="866.82,-165.5 856.82,-169 866.82,-172.5 866.82,-165.5"/>
</g>
<!-- LanguagesModule -->
<g id="node6" class="node">
<title>LanguagesModule</title>
<polygon fill="#8dd3c7" stroke="black" points="1202.19,-122 1199.19,-126 1178.19,-126 1175.19,-122 1081.81,-122 1081.81,-86 1202.19,-86 1202.19,-122"/>
<text text-anchor="middle" x="1142" y="-99.8" font-family="Times,serif" font-size="14.00">LanguagesModule</text>
</g>
<!-- LanguagesModule&#45;&gt;ThinLayoutModule -->
<g id="edge5" class="edge">
<title>LanguagesModule&#45;&gt;ThinLayoutModule</title>
<path fill="none" stroke="black" d="M1142,-122.02C1142,-139.37 1142,-163 1142,-163 1142,-163 867.02,-163 867.02,-163"/>
<polygon fill="black" stroke="black" points="867.02,-159.5 857.02,-163 867.02,-166.5 867.02,-159.5"/>
</g>
<!-- MessagesModule -->
<g id="node7" class="node">
<title>MessagesModule</title>
<polygon fill="#8dd3c7" stroke="black" points="1063.97,-122 1060.97,-126 1039.97,-126 1036.97,-122 950.03,-122 950.03,-86 1063.97,-86 1063.97,-122"/>
<text text-anchor="middle" x="1007" y="-99.8" font-family="Times,serif" font-size="14.00">MessagesModule</text>
</g>
<!-- MessagesModule&#45;&gt;ThinLayoutModule -->
<g id="edge6" class="edge">
<title>MessagesModule&#45;&gt;ThinLayoutModule</title>
<path fill="none" stroke="black" d="M1007,-122.24C1007,-137.57 1007,-157 1007,-157 1007,-157 866.75,-157 866.75,-157"/>
<polygon fill="black" stroke="black" points="866.76,-153.5 856.75,-157 866.75,-160.5 866.76,-153.5"/>
</g>
<!-- NotificationsModule -->
<g id="node8" class="node">
<title>NotificationsModule</title>
<polygon fill="#8dd3c7" stroke="black" points="932.14,-122 929.14,-126 908.14,-126 905.14,-122 799.86,-122 799.86,-86 932.14,-86 932.14,-122"/>
<text text-anchor="middle" x="866" y="-99.8" font-family="Times,serif" font-size="14.00">NotificationsModule</text>
</g>
<!-- NotificationsModule&#45;&gt;ThinLayoutModule -->
<g id="edge7" class="edge">
<title>NotificationsModule&#45;&gt;ThinLayoutModule</title>
<path fill="none" stroke="black" d="M828.25,-122.11C828.25,-122.11 828.25,-140.99 828.25,-140.99"/>
<polygon fill="black" stroke="black" points="824.75,-140.99 828.25,-150.99 831.75,-140.99 824.75,-140.99"/>
</g>
<!-- QuickChatModule -->
<g id="node9" class="node">
<title>QuickChatModule</title>
<polygon fill="#8dd3c7" stroke="black" points="782.2,-122 779.2,-126 758.2,-126 755.2,-122 661.8,-122 661.8,-86 782.2,-86 782.2,-122"/>
<text text-anchor="middle" x="722" y="-99.8" font-family="Times,serif" font-size="14.00">QuickChatModule</text>
</g>
<!-- QuickChatModule&#45;&gt;ThinLayoutModule -->
<g id="edge8" class="edge">
<title>QuickChatModule&#45;&gt;ThinLayoutModule</title>
<path fill="none" stroke="black" d="M756.64,-122.11C756.64,-122.11 756.64,-140.99 756.64,-140.99"/>
<polygon fill="black" stroke="black" points="753.14,-140.99 756.64,-150.99 760.14,-140.99 753.14,-140.99"/>
</g>
<!-- SearchModule -->
<g id="node10" class="node">
<title>SearchModule</title>
<polygon fill="#8dd3c7" stroke="black" points="643.64,-122 640.64,-126 619.64,-126 616.64,-122 546.36,-122 546.36,-86 643.64,-86 643.64,-122"/>
<text text-anchor="middle" x="595" y="-99.8" font-family="Times,serif" font-size="14.00">SearchModule</text>
</g>
<!-- SearchModule&#45;&gt;ThinLayoutModule -->
<g id="edge9" class="edge">
<title>SearchModule&#45;&gt;ThinLayoutModule</title>
<path fill="none" stroke="black" d="M595,-122.24C595,-137.57 595,-157 595,-157 595,-157 721.31,-157 721.31,-157"/>
<polygon fill="black" stroke="black" points="721.31,-160.5 731.31,-157 721.31,-153.5 721.31,-160.5"/>
</g>
<!-- SharedModule -->
<g id="node11" class="node">
<title>SharedModule</title>
<polygon fill="#8dd3c7" stroke="black" points="528.42,-122 525.42,-126 504.42,-126 501.42,-122 429.58,-122 429.58,-86 528.42,-86 528.42,-122"/>
<text text-anchor="middle" x="479" y="-99.8" font-family="Times,serif" font-size="14.00">SharedModule</text>
</g>
<!-- SharedModule&#45;&gt;ThinLayoutModule -->
<g id="edge10" class="edge">
<title>SharedModule&#45;&gt;ThinLayoutModule</title>
<path fill="none" stroke="black" d="M479,-122.02C479,-139.37 479,-163 479,-163 479,-163 721.01,-163 721.01,-163"/>
<polygon fill="black" stroke="black" points="721.01,-166.5 731.01,-163 721.01,-159.5 721.01,-166.5"/>
</g>
<!-- ShortcutsModule -->
<g id="node12" class="node">
<title>ShortcutsModule</title>
<polygon fill="#8dd3c7" stroke="black" points="412.43,-122 409.43,-126 388.43,-126 385.43,-122 299.57,-122 299.57,-86 412.43,-86 412.43,-122"/>
<text text-anchor="middle" x="356" y="-99.8" font-family="Times,serif" font-size="14.00">ShortcutsModule</text>
</g>
<!-- ShortcutsModule&#45;&gt;ThinLayoutModule -->
<g id="edge11" class="edge">
<title>ShortcutsModule&#45;&gt;ThinLayoutModule</title>
<path fill="none" stroke="black" d="M356,-122.11C356,-141.34 356,-169 356,-169 356,-169 721.25,-169 721.25,-169"/>
<polygon fill="black" stroke="black" points="721.25,-172.5 731.25,-169 721.25,-165.5 721.25,-172.5"/>
</g>
<!-- UserModule -->
<g id="node13" class="node">
<title>UserModule</title>
<polygon fill="#8dd3c7" stroke="black" points="281.98,-122 278.98,-126 257.98,-126 254.98,-122 196.02,-122 196.02,-86 281.98,-86 281.98,-122"/>
<text text-anchor="middle" x="239" y="-99.8" font-family="Times,serif" font-size="14.00">UserModule</text>
</g>
<!-- UserModule&#45;&gt;ThinLayoutModule -->
<g id="edge12" class="edge">
<title>UserModule&#45;&gt;ThinLayoutModule</title>
<path fill="none" stroke="black" d="M239,-122.28C239,-143.32 239,-175 239,-175 239,-175 721.14,-175 721.14,-175"/>
<polygon fill="black" stroke="black" points="721.14,-178.5 731.14,-175 721.14,-171.5 721.14,-178.5"/>
</g>
</g>
</svg>
