<?xml version="1.0" encoding="UTF-8" standalone="no"?>
<!DOCTYPE svg PUBLIC "-//W3C//DTD SVG 1.1//EN"
 "http://www.w3.org/Graphics/SVG/1.1/DTD/svg11.dtd">
<!-- Generated by graphviz version 2.47.0 (20210316.0004)
 -->
<!-- Title: dependencies Pages: 1 -->
<svg width="2157pt" height="211pt"
 viewBox="0.00 0.00 2157.00 211.00" xmlns="http://www.w3.org/2000/svg" xmlns:xlink="http://www.w3.org/1999/xlink">
<g id="graph0" class="graph" transform="scale(1 1) rotate(0) translate(4 207)">
<title>dependencies</title>
<polygon fill="white" stroke="transparent" points="-4,4 -4,-207 2153,-207 2153,4 -4,4"/>
<text text-anchor="start" x="1053.51" y="-42.4" font-family="Times-12" font-weight="bold" font-size="14.00">Legend</text>
<polygon fill="#ffffb3" stroke="transparent" points="840.5,-10 840.5,-30 860.5,-30 860.5,-10 840.5,-10"/>
<text text-anchor="start" x="864.13" y="-15.4" font-family="Times-12" font-size="14.00"> &#160;Declarations</text>
<polygon fill="#8dd3c7" stroke="transparent" points="953.5,-10 953.5,-30 973.5,-30 973.5,-10 953.5,-10"/>
<text text-anchor="start" x="977.23" y="-15.4" font-family="Times-12" font-size="14.00"> &#160;Module</text>
<polygon fill="#80b1d3" stroke="transparent" points="1039.5,-10 1039.5,-30 1059.5,-30 1059.5,-10 1039.5,-10"/>
<text text-anchor="start" x="1063.28" y="-15.4" font-family="Times-12" font-size="14.00"> &#160;Bootstrap</text>
<polygon fill="#fdb462" stroke="transparent" points="1136.5,-10 1136.5,-30 1156.5,-30 1156.5,-10 1136.5,-10"/>
<text text-anchor="start" x="1160.17" y="-15.4" font-family="Times-12" font-size="14.00"> &#160;Providers</text>
<polygon fill="#fb8072" stroke="transparent" points="1232.5,-10 1232.5,-30 1252.5,-30 1252.5,-10 1232.5,-10"/>
<text text-anchor="start" x="1256.23" y="-15.4" font-family="Times-12" font-size="14.00"> &#160;Exports</text>
<g id="clust1" class="cluster">
<title>cluster_ForgotPasswordModule</title>
<polygon fill="none" stroke="black" stroke-dasharray="1,5" points="8,-70 8,-195 2141,-195 2141,-70 8,-70"/>
</g>
<g id="clust10" class="cluster">
<title>cluster_ForgotPasswordModule_imports</title>
<polygon fill="none" stroke="black" points="1886,-78 1886,-130 2133,-130 2133,-78 1886,-78"/>
</g>
<g id="clust2" class="cluster">
<title>cluster_ForgotPasswordModule_declarations</title>
<polygon fill="none" stroke="black" points="16,-78 16,-130 1878,-130 1878,-78 16,-78"/>
</g>
<!-- ForgotPasswordClassicComponent -->
<g id="node1" class="node">
<title>ForgotPasswordClassicComponent</title>
<polygon fill="#ffffb3" stroke="black" points="1870.26,-122 1657.74,-122 1657.74,-86 1870.26,-86 1870.26,-122"/>
<text text-anchor="middle" x="1764" y="-99.8" font-family="Times,serif" font-size="14.00">ForgotPasswordClassicComponent</text>
</g>
<!-- ForgotPasswordModule -->
<g id="node8" class="node">
<title>ForgotPasswordModule</title>
<polygon fill="#8dd3c7" stroke="black" points="1324.04,-187 1321.04,-191 1300.04,-191 1297.04,-187 1173.96,-187 1173.96,-151 1324.04,-151 1324.04,-187"/>
<text text-anchor="middle" x="1249" y="-164.8" font-family="Times,serif" font-size="14.00">ForgotPasswordModule</text>
</g>
<!-- ForgotPasswordClassicComponent&#45;&gt;ForgotPasswordModule -->
<g id="edge1" class="edge">
<title>ForgotPasswordClassicComponent&#45;&gt;ForgotPasswordModule</title>
<path fill="none" stroke="black" d="M1764,-122.27C1764,-140.56 1764,-166 1764,-166 1764,-166 1334.16,-166 1334.16,-166"/>
<polygon fill="black" stroke="black" points="1334.16,-162.5 1324.16,-166 1334.16,-169.5 1334.16,-162.5"/>
</g>
<!-- ForgotPasswordFullscreenComponent -->
<g id="node2" class="node">
<title>ForgotPasswordFullscreenComponent</title>
<polygon fill="#ffffb3" stroke="black" points="1639.13,-122 1408.87,-122 1408.87,-86 1639.13,-86 1639.13,-122"/>
<text text-anchor="middle" x="1524" y="-99.8" font-family="Times,serif" font-size="14.00">ForgotPasswordFullscreenComponent</text>
</g>
<!-- ForgotPasswordFullscreenComponent&#45;&gt;ForgotPasswordModule -->
<g id="edge2" class="edge">
<title>ForgotPasswordFullscreenComponent&#45;&gt;ForgotPasswordModule</title>
<path fill="none" stroke="black" d="M1524,-122.01C1524,-138.05 1524,-159 1524,-159 1524,-159 1334.14,-159 1334.14,-159"/>
<polygon fill="black" stroke="black" points="1334.14,-155.5 1324.14,-159 1334.14,-162.5 1334.14,-155.5"/>
</g>
<!-- ForgotPasswordFullscreenReversedComponent -->
<g id="node3" class="node">
<title>ForgotPasswordFullscreenReversedComponent</title>
<polygon fill="#ffffb3" stroke="black" points="1390.22,-122 1107.78,-122 1107.78,-86 1390.22,-86 1390.22,-122"/>
<text text-anchor="middle" x="1249" y="-99.8" font-family="Times,serif" font-size="14.00">ForgotPasswordFullscreenReversedComponent</text>
</g>
<!-- ForgotPasswordFullscreenReversedComponent&#45;&gt;ForgotPasswordModule -->
<g id="edge3" class="edge">
<title>ForgotPasswordFullscreenReversedComponent&#45;&gt;ForgotPasswordModule</title>
<path fill="none" stroke="black" d="M1249,-122.11C1249,-122.11 1249,-140.99 1249,-140.99"/>
<polygon fill="black" stroke="black" points="1245.5,-140.99 1249,-150.99 1252.5,-140.99 1245.5,-140.99"/>
</g>
<!-- ForgotPasswordModernComponent -->
<g id="node4" class="node">
<title>ForgotPasswordModernComponent</title>
<polygon fill="#ffffb3" stroke="black" points="1089.14,-122 872.86,-122 872.86,-86 1089.14,-86 1089.14,-122"/>
<text text-anchor="middle" x="981" y="-99.8" font-family="Times,serif" font-size="14.00">ForgotPasswordModernComponent</text>
</g>
<!-- ForgotPasswordModernComponent&#45;&gt;ForgotPasswordModule -->
<g id="edge4" class="edge">
<title>ForgotPasswordModernComponent&#45;&gt;ForgotPasswordModule</title>
<path fill="none" stroke="black" d="M981,-122.01C981,-138.05 981,-159 981,-159 981,-159 1163.63,-159 1163.63,-159"/>
<polygon fill="black" stroke="black" points="1163.63,-162.5 1173.63,-159 1163.63,-155.5 1163.63,-162.5"/>
</g>
<!-- ForgotPasswordModernReversedComponent -->
<g id="node5" class="node">
<title>ForgotPasswordModernReversedComponent</title>
<polygon fill="#ffffb3" stroke="black" points="854.23,-122 585.77,-122 585.77,-86 854.23,-86 854.23,-122"/>
<text text-anchor="middle" x="720" y="-99.8" font-family="Times,serif" font-size="14.00">ForgotPasswordModernReversedComponent</text>
</g>
<!-- ForgotPasswordModernReversedComponent&#45;&gt;ForgotPasswordModule -->
<g id="edge5" class="edge">
<title>ForgotPasswordModernReversedComponent&#45;&gt;ForgotPasswordModule</title>
<path fill="none" stroke="black" d="M720,-122.27C720,-140.56 720,-166 720,-166 720,-166 1163.77,-166 1163.77,-166"/>
<polygon fill="black" stroke="black" points="1163.77,-169.5 1173.77,-166 1163.77,-162.5 1163.77,-169.5"/>
</g>
<!-- ForgotPasswordSplitScreenComponent -->
<g id="node6" class="node">
<title>ForgotPasswordSplitScreenComponent</title>
<polygon fill="#ffffb3" stroke="black" points="567.36,-122 330.64,-122 330.64,-86 567.36,-86 567.36,-122"/>
<text text-anchor="middle" x="449" y="-99.8" font-family="Times,serif" font-size="14.00">ForgotPasswordSplitScreenComponent</text>
</g>
<!-- ForgotPasswordSplitScreenComponent&#45;&gt;ForgotPasswordModule -->
<g id="edge6" class="edge">
<title>ForgotPasswordSplitScreenComponent&#45;&gt;ForgotPasswordModule</title>
<path fill="none" stroke="black" d="M449,-122.13C449,-142.57 449,-173 449,-173 449,-173 1163.74,-173 1163.74,-173"/>
<polygon fill="black" stroke="black" points="1163.74,-176.5 1173.74,-173 1163.74,-169.5 1163.74,-176.5"/>
</g>
<!-- ForgotPasswordSplitScreenReversedComponent -->
<g id="node7" class="node">
<title>ForgotPasswordSplitScreenReversedComponent</title>
<polygon fill="#ffffb3" stroke="black" points="312.45,-122 23.55,-122 23.55,-86 312.45,-86 312.45,-122"/>
<text text-anchor="middle" x="168" y="-99.8" font-family="Times,serif" font-size="14.00">ForgotPasswordSplitScreenReversedComponent</text>
</g>
<!-- ForgotPasswordSplitScreenReversedComponent&#45;&gt;ForgotPasswordModule -->
<g id="edge7" class="edge">
<title>ForgotPasswordSplitScreenReversedComponent&#45;&gt;ForgotPasswordModule</title>
<path fill="none" stroke="black" d="M168,-122.01C168,-144.49 168,-180 168,-180 168,-180 1163.84,-180 1163.84,-180"/>
<polygon fill="black" stroke="black" points="1163.84,-183.5 1173.84,-180 1163.84,-176.5 1163.84,-183.5"/>
</g>
<!-- FuseAlertModule -->
<g id="node9" class="node">
<title>FuseAlertModule</title>
<polygon fill="#8dd3c7" stroke="black" points="2125.25,-122 2122.25,-126 2101.25,-126 2098.25,-122 2010.75,-122 2010.75,-86 2125.25,-86 2125.25,-122"/>
<text text-anchor="middle" x="2068" y="-99.8" font-family="Times,serif" font-size="14.00">FuseAlertModule</text>
</g>
<!-- FuseAlertModule&#45;&gt;ForgotPasswordModule -->
<g id="edge8" class="edge">
<title>FuseAlertModule&#45;&gt;ForgotPasswordModule</title>
<path fill="none" stroke="black" d="M2068,-122.01C2068,-144.49 2068,-180 2068,-180 2068,-180 1334.22,-180 1334.22,-180"/>
<polygon fill="black" stroke="black" points="1334.22,-176.5 1324.22,-180 1334.22,-183.5 1334.22,-176.5"/>
</g>
<!-- SharedModule -->
<g id="node10" class="node">
<title>SharedModule</title>
<polygon fill="#8dd3c7" stroke="black" points="1992.42,-122 1989.42,-126 1968.42,-126 1965.42,-122 1893.58,-122 1893.58,-86 1992.42,-86 1992.42,-122"/>
<text text-anchor="middle" x="1943" y="-99.8" font-family="Times,serif" font-size="14.00">SharedModule</text>
</g>
<!-- SharedModule&#45;&gt;ForgotPasswordModule -->
<g id="edge9" class="edge">
<title>SharedModule&#45;&gt;ForgotPasswordModule</title>
<path fill="none" stroke="black" d="M1943,-122.13C1943,-142.57 1943,-173 1943,-173 1943,-173 1334.26,-173 1334.26,-173"/>
<polygon fill="black" stroke="black" points="1334.26,-169.5 1324.26,-173 1334.26,-176.5 1334.26,-169.5"/>
</g>
</g>
</svg>
