<?xml version="1.0" encoding="UTF-8" standalone="no"?>
<!DOCTYPE svg PUBLIC "-//W3C//DTD SVG 1.1//EN"
 "http://www.w3.org/Graphics/SVG/1.1/DTD/svg11.dtd">
<!-- Generated by graphviz version 2.47.0 (20210316.0004)
 -->
<!-- Title: dependencies Pages: 1 -->
<svg width="1764pt" height="284pt"
 viewBox="0.00 0.00 1764.00 284.00" xmlns="http://www.w3.org/2000/svg" xmlns:xlink="http://www.w3.org/1999/xlink">
<g id="graph0" class="graph" transform="scale(1 1) rotate(0) translate(4 280)">
<title>dependencies</title>
<polygon fill="white" stroke="transparent" points="-4,4 -4,-280 1760,-280 1760,4 -4,4"/>
<text text-anchor="start" x="857.01" y="-42.4" font-family="Times-12" font-weight="bold" font-size="14.00">Legend</text>
<polygon fill="#ffffb3" stroke="transparent" points="644,-10 644,-30 664,-30 664,-10 644,-10"/>
<text text-anchor="start" x="667.63" y="-15.4" font-family="Times-12" font-size="14.00"> &#160;Declarations</text>
<polygon fill="#8dd3c7" stroke="transparent" points="757,-10 757,-30 777,-30 777,-10 757,-10"/>
<text text-anchor="start" x="780.73" y="-15.4" font-family="Times-12" font-size="14.00"> &#160;Module</text>
<polygon fill="#80b1d3" stroke="transparent" points="843,-10 843,-30 863,-30 863,-10 843,-10"/>
<text text-anchor="start" x="866.78" y="-15.4" font-family="Times-12" font-size="14.00"> &#160;Bootstrap</text>
<polygon fill="#fdb462" stroke="transparent" points="940,-10 940,-30 960,-30 960,-10 940,-10"/>
<text text-anchor="start" x="963.67" y="-15.4" font-family="Times-12" font-size="14.00"> &#160;Providers</text>
<polygon fill="#fb8072" stroke="transparent" points="1036,-10 1036,-30 1056,-30 1056,-10 1036,-10"/>
<text text-anchor="start" x="1059.73" y="-15.4" font-family="Times-12" font-size="14.00"> &#160;Exports</text>
<g id="clust1" class="cluster">
<title>cluster_EnterpriseLayoutModule</title>
<polygon fill="none" stroke="black" stroke-dasharray="1,5" points="8,-70 8,-268 1748,-268 1748,-70 8,-70"/>
</g>
<g id="clust5" class="cluster">
<title>cluster_EnterpriseLayoutModule_exports</title>
<polygon fill="none" stroke="black" points="725,-208 725,-260 923,-260 923,-208 725,-208"/>
</g>
<g id="clust4" class="cluster">
<title>cluster_EnterpriseLayoutModule_imports</title>
<polygon fill="none" stroke="black" points="218,-78 218,-130 1740,-130 1740,-78 218,-78"/>
</g>
<g id="clust2" class="cluster">
<title>cluster_EnterpriseLayoutModule_declarations</title>
<polygon fill="none" stroke="black" points="16,-78 16,-130 210,-130 210,-78 16,-78"/>
</g>
<!-- EnterpriseLayoutComponent -->
<g id="node1" class="node">
<title>EnterpriseLayoutComponent</title>
<polygon fill="#ffffb3" stroke="black" points="202.02,-122 23.98,-122 23.98,-86 202.02,-86 202.02,-122"/>
<text text-anchor="middle" x="113" y="-99.8" font-family="Times,serif" font-size="14.00">EnterpriseLayoutComponent</text>
</g>
<!-- EnterpriseLayoutModule -->
<g id="node2" class="node">
<title>EnterpriseLayoutModule</title>
<polygon fill="#8dd3c7" stroke="black" points="902.24,-187 899.24,-191 878.24,-191 875.24,-187 745.76,-187 745.76,-151 902.24,-151 902.24,-187"/>
<text text-anchor="middle" x="824" y="-164.8" font-family="Times,serif" font-size="14.00">EnterpriseLayoutModule</text>
</g>
<!-- EnterpriseLayoutComponent&#45;&gt;EnterpriseLayoutModule -->
<g id="edge1" class="edge">
<title>EnterpriseLayoutComponent&#45;&gt;EnterpriseLayoutModule</title>
<path fill="none" stroke="black" d="M113,-122.25C113,-145.02 113,-181 113,-181 113,-181 735.54,-181 735.54,-181"/>
<polygon fill="black" stroke="black" points="735.54,-184.5 745.54,-181 735.54,-177.5 735.54,-184.5"/>
</g>
<!-- EnterpriseLayoutComponent  -->
<g id="node14" class="node">
<title>EnterpriseLayoutComponent </title>
<polygon fill="#fb8072" stroke="black" points="915.02,-252 732.98,-252 732.98,-216 915.02,-216 915.02,-252"/>
<text text-anchor="middle" x="824" y="-229.8" font-family="Times,serif" font-size="14.00">EnterpriseLayoutComponent </text>
</g>
<!-- EnterpriseLayoutModule&#45;&gt;EnterpriseLayoutComponent  -->
<g id="edge13" class="edge">
<title>EnterpriseLayoutModule&#45;&gt;EnterpriseLayoutComponent </title>
<path fill="none" stroke="black" stroke-dasharray="5,2" d="M824,-187.11C824,-187.11 824,-205.99 824,-205.99"/>
<polygon fill="black" stroke="black" points="820.5,-205.99 824,-215.99 827.5,-205.99 820.5,-205.99"/>
</g>
<!-- FuseFullscreenModule -->
<g id="node3" class="node">
<title>FuseFullscreenModule</title>
<polygon fill="#8dd3c7" stroke="black" points="1732.3,-122 1729.3,-126 1708.3,-126 1705.3,-122 1587.7,-122 1587.7,-86 1732.3,-86 1732.3,-122"/>
<text text-anchor="middle" x="1660" y="-99.8" font-family="Times,serif" font-size="14.00">FuseFullscreenModule</text>
</g>
<!-- FuseFullscreenModule&#45;&gt;EnterpriseLayoutModule -->
<g id="edge2" class="edge">
<title>FuseFullscreenModule&#45;&gt;EnterpriseLayoutModule</title>
<path fill="none" stroke="black" d="M1660,-122.25C1660,-145.02 1660,-181 1660,-181 1660,-181 912.27,-181 912.27,-181"/>
<polygon fill="black" stroke="black" points="912.27,-177.5 902.27,-181 912.27,-184.5 912.27,-177.5"/>
</g>
<!-- FuseLoadingBarModule -->
<g id="node4" class="node">
<title>FuseLoadingBarModule</title>
<polygon fill="#8dd3c7" stroke="black" points="1569.36,-122 1566.36,-126 1545.36,-126 1542.36,-122 1416.64,-122 1416.64,-86 1569.36,-86 1569.36,-122"/>
<text text-anchor="middle" x="1493" y="-99.8" font-family="Times,serif" font-size="14.00">FuseLoadingBarModule</text>
</g>
<!-- FuseLoadingBarModule&#45;&gt;EnterpriseLayoutModule -->
<g id="edge3" class="edge">
<title>FuseLoadingBarModule&#45;&gt;EnterpriseLayoutModule</title>
<path fill="none" stroke="black" d="M1493,-122.28C1493,-143.32 1493,-175 1493,-175 1493,-175 912.38,-175 912.38,-175"/>
<polygon fill="black" stroke="black" points="912.38,-171.5 902.38,-175 912.38,-178.5 912.38,-171.5"/>
</g>
<!-- FuseNavigationModule -->
<g id="node5" class="node">
<title>FuseNavigationModule</title>
<polygon fill="#8dd3c7" stroke="black" points="1398.2,-122 1395.2,-126 1374.2,-126 1371.2,-122 1249.8,-122 1249.8,-86 1398.2,-86 1398.2,-122"/>
<text text-anchor="middle" x="1324" y="-99.8" font-family="Times,serif" font-size="14.00">FuseNavigationModule</text>
</g>
<!-- FuseNavigationModule&#45;&gt;EnterpriseLayoutModule -->
<g id="edge4" class="edge">
<title>FuseNavigationModule&#45;&gt;EnterpriseLayoutModule</title>
<path fill="none" stroke="black" d="M1324,-122.11C1324,-141.34 1324,-169 1324,-169 1324,-169 912.4,-169 912.4,-169"/>
<polygon fill="black" stroke="black" points="912.4,-165.5 902.4,-169 912.4,-172.5 912.4,-165.5"/>
</g>
<!-- LanguagesModule -->
<g id="node6" class="node">
<title>LanguagesModule</title>
<polygon fill="#8dd3c7" stroke="black" points="1232.19,-122 1229.19,-126 1208.19,-126 1205.19,-122 1111.81,-122 1111.81,-86 1232.19,-86 1232.19,-122"/>
<text text-anchor="middle" x="1172" y="-99.8" font-family="Times,serif" font-size="14.00">LanguagesModule</text>
</g>
<!-- LanguagesModule&#45;&gt;EnterpriseLayoutModule -->
<g id="edge5" class="edge">
<title>LanguagesModule&#45;&gt;EnterpriseLayoutModule</title>
<path fill="none" stroke="black" d="M1172,-122.02C1172,-139.37 1172,-163 1172,-163 1172,-163 912.53,-163 912.53,-163"/>
<polygon fill="black" stroke="black" points="912.53,-159.5 902.53,-163 912.53,-166.5 912.53,-159.5"/>
</g>
<!-- MessagesModule -->
<g id="node7" class="node">
<title>MessagesModule</title>
<polygon fill="#8dd3c7" stroke="black" points="1093.97,-122 1090.97,-126 1069.97,-126 1066.97,-122 980.03,-122 980.03,-86 1093.97,-86 1093.97,-122"/>
<text text-anchor="middle" x="1037" y="-99.8" font-family="Times,serif" font-size="14.00">MessagesModule</text>
</g>
<!-- MessagesModule&#45;&gt;EnterpriseLayoutModule -->
<g id="edge6" class="edge">
<title>MessagesModule&#45;&gt;EnterpriseLayoutModule</title>
<path fill="none" stroke="black" d="M1037,-122.24C1037,-137.57 1037,-157 1037,-157 1037,-157 912.41,-157 912.41,-157"/>
<polygon fill="black" stroke="black" points="912.41,-153.5 902.41,-157 912.41,-160.5 912.41,-153.5"/>
</g>
<!-- NotificationsModule -->
<g id="node8" class="node">
<title>NotificationsModule</title>
<polygon fill="#8dd3c7" stroke="black" points="962.14,-122 959.14,-126 938.14,-126 935.14,-122 829.86,-122 829.86,-86 962.14,-86 962.14,-122"/>
<text text-anchor="middle" x="896" y="-99.8" font-family="Times,serif" font-size="14.00">NotificationsModule</text>
</g>
<!-- NotificationsModule&#45;&gt;EnterpriseLayoutModule -->
<g id="edge7" class="edge">
<title>NotificationsModule&#45;&gt;EnterpriseLayoutModule</title>
<path fill="none" stroke="black" d="M866.02,-122.11C866.02,-122.11 866.02,-140.99 866.02,-140.99"/>
<polygon fill="black" stroke="black" points="862.52,-140.99 866.02,-150.99 869.52,-140.99 862.52,-140.99"/>
</g>
<!-- QuickChatModule -->
<g id="node9" class="node">
<title>QuickChatModule</title>
<polygon fill="#8dd3c7" stroke="black" points="812.2,-122 809.2,-126 788.2,-126 785.2,-122 691.8,-122 691.8,-86 812.2,-86 812.2,-122"/>
<text text-anchor="middle" x="752" y="-99.8" font-family="Times,serif" font-size="14.00">QuickChatModule</text>
</g>
<!-- QuickChatModule&#45;&gt;EnterpriseLayoutModule -->
<g id="edge8" class="edge">
<title>QuickChatModule&#45;&gt;EnterpriseLayoutModule</title>
<path fill="none" stroke="black" d="M778.87,-122.11C778.87,-122.11 778.87,-140.99 778.87,-140.99"/>
<polygon fill="black" stroke="black" points="775.37,-140.99 778.87,-150.99 782.37,-140.99 775.37,-140.99"/>
</g>
<!-- SearchModule -->
<g id="node10" class="node">
<title>SearchModule</title>
<polygon fill="#8dd3c7" stroke="black" points="673.64,-122 670.64,-126 649.64,-126 646.64,-122 576.36,-122 576.36,-86 673.64,-86 673.64,-122"/>
<text text-anchor="middle" x="625" y="-99.8" font-family="Times,serif" font-size="14.00">SearchModule</text>
</g>
<!-- SearchModule&#45;&gt;EnterpriseLayoutModule -->
<g id="edge9" class="edge">
<title>SearchModule&#45;&gt;EnterpriseLayoutModule</title>
<path fill="none" stroke="black" d="M625,-122.24C625,-137.57 625,-157 625,-157 625,-157 735.64,-157 735.64,-157"/>
<polygon fill="black" stroke="black" points="735.64,-160.5 745.64,-157 735.64,-153.5 735.64,-160.5"/>
</g>
<!-- SharedModule -->
<g id="node11" class="node">
<title>SharedModule</title>
<polygon fill="#8dd3c7" stroke="black" points="558.42,-122 555.42,-126 534.42,-126 531.42,-122 459.58,-122 459.58,-86 558.42,-86 558.42,-122"/>
<text text-anchor="middle" x="509" y="-99.8" font-family="Times,serif" font-size="14.00">SharedModule</text>
</g>
<!-- SharedModule&#45;&gt;EnterpriseLayoutModule -->
<g id="edge10" class="edge">
<title>SharedModule&#45;&gt;EnterpriseLayoutModule</title>
<path fill="none" stroke="black" d="M509,-122.02C509,-139.37 509,-163 509,-163 509,-163 735.73,-163 735.73,-163"/>
<polygon fill="black" stroke="black" points="735.73,-166.5 745.73,-163 735.73,-159.5 735.73,-166.5"/>
</g>
<!-- ShortcutsModule -->
<g id="node12" class="node">
<title>ShortcutsModule</title>
<polygon fill="#8dd3c7" stroke="black" points="442.43,-122 439.43,-126 418.43,-126 415.43,-122 329.57,-122 329.57,-86 442.43,-86 442.43,-122"/>
<text text-anchor="middle" x="386" y="-99.8" font-family="Times,serif" font-size="14.00">ShortcutsModule</text>
</g>
<!-- ShortcutsModule&#45;&gt;EnterpriseLayoutModule -->
<g id="edge11" class="edge">
<title>ShortcutsModule&#45;&gt;EnterpriseLayoutModule</title>
<path fill="none" stroke="black" d="M386,-122.11C386,-141.34 386,-169 386,-169 386,-169 735.69,-169 735.69,-169"/>
<polygon fill="black" stroke="black" points="735.69,-172.5 745.69,-169 735.69,-165.5 735.69,-172.5"/>
</g>
<!-- UserModule -->
<g id="node13" class="node">
<title>UserModule</title>
<polygon fill="#8dd3c7" stroke="black" points="311.98,-122 308.98,-126 287.98,-126 284.98,-122 226.02,-122 226.02,-86 311.98,-86 311.98,-122"/>
<text text-anchor="middle" x="269" y="-99.8" font-family="Times,serif" font-size="14.00">UserModule</text>
</g>
<!-- UserModule&#45;&gt;EnterpriseLayoutModule -->
<g id="edge12" class="edge">
<title>UserModule&#45;&gt;EnterpriseLayoutModule</title>
<path fill="none" stroke="black" d="M269,-122.28C269,-143.32 269,-175 269,-175 269,-175 735.66,-175 735.66,-175"/>
<polygon fill="black" stroke="black" points="735.66,-178.5 745.66,-175 735.66,-171.5 735.66,-178.5"/>
</g>
</g>
</svg>
