<?xml version="1.0" encoding="UTF-8" standalone="no"?>
<!DOCTYPE svg PUBLIC "-//W3C//DTD SVG 1.1//EN"
 "http://www.w3.org/Graphics/SVG/1.1/DTD/svg11.dtd">
<!-- Generated by graphviz version 2.47.0 (20210316.0004)
 -->
<!-- Title: dependencies Pages: 1 -->
<svg width="622pt" height="284pt"
 viewBox="0.00 0.00 622.00 284.00" xmlns="http://www.w3.org/2000/svg" xmlns:xlink="http://www.w3.org/1999/xlink">
<g id="graph0" class="graph" transform="scale(1 1) rotate(0) translate(4 280)">
<title>dependencies</title>
<polygon fill="white" stroke="transparent" points="-4,4 -4,-280 618,-280 618,4 -4,4"/>
<text text-anchor="start" x="286.01" y="-42.4" font-family="Times-12" font-weight="bold" font-size="14.00">Legend</text>
<polygon fill="#ffffb3" stroke="transparent" points="73,-10 73,-30 93,-30 93,-10 73,-10"/>
<text text-anchor="start" x="96.63" y="-15.4" font-family="Times-12" font-size="14.00"> &#160;Declarations</text>
<polygon fill="#8dd3c7" stroke="transparent" points="186,-10 186,-30 206,-30 206,-10 186,-10"/>
<text text-anchor="start" x="209.73" y="-15.4" font-family="Times-12" font-size="14.00"> &#160;Module</text>
<polygon fill="#80b1d3" stroke="transparent" points="272,-10 272,-30 292,-30 292,-10 272,-10"/>
<text text-anchor="start" x="295.78" y="-15.4" font-family="Times-12" font-size="14.00"> &#160;Bootstrap</text>
<polygon fill="#fdb462" stroke="transparent" points="369,-10 369,-30 389,-30 389,-10 369,-10"/>
<text text-anchor="start" x="392.67" y="-15.4" font-family="Times-12" font-size="14.00"> &#160;Providers</text>
<polygon fill="#fb8072" stroke="transparent" points="465,-10 465,-30 485,-30 485,-10 465,-10"/>
<text text-anchor="start" x="488.73" y="-15.4" font-family="Times-12" font-size="14.00"> &#160;Exports</text>
<g id="clust1" class="cluster">
<title>cluster_QuickChatModule</title>
<polygon fill="none" stroke="black" stroke-dasharray="1,5" points="8,-70 8,-268 606,-268 606,-70 8,-70"/>
</g>
<g id="clust5" class="cluster">
<title>cluster_QuickChatModule_exports</title>
<polygon fill="none" stroke="black" points="203,-208 203,-260 365,-260 365,-208 203,-208"/>
</g>
<g id="clust2" class="cluster">
<title>cluster_QuickChatModule_declarations</title>
<polygon fill="none" stroke="black" points="440,-78 440,-130 598,-130 598,-78 440,-78"/>
</g>
<g id="clust4" class="cluster">
<title>cluster_QuickChatModule_imports</title>
<polygon fill="none" stroke="black" points="16,-78 16,-130 432,-130 432,-78 16,-78"/>
</g>
<!-- QuickChatComponent -->
<g id="node1" class="node">
<title>QuickChatComponent</title>
<polygon fill="#ffffb3" stroke="black" points="589.99,-122 448.01,-122 448.01,-86 589.99,-86 589.99,-122"/>
<text text-anchor="middle" x="519" y="-99.8" font-family="Times,serif" font-size="14.00">QuickChatComponent</text>
</g>
<!-- QuickChatModule -->
<g id="node2" class="node">
<title>QuickChatModule</title>
<polygon fill="#8dd3c7" stroke="black" points="344.2,-187 341.2,-191 320.2,-191 317.2,-187 223.8,-187 223.8,-151 344.2,-151 344.2,-187"/>
<text text-anchor="middle" x="284" y="-164.8" font-family="Times,serif" font-size="14.00">QuickChatModule</text>
</g>
<!-- QuickChatComponent&#45;&gt;QuickChatModule -->
<g id="edge1" class="edge">
<title>QuickChatComponent&#45;&gt;QuickChatModule</title>
<path fill="none" stroke="black" d="M519,-122.11C519,-141.34 519,-169 519,-169 519,-169 354.21,-169 354.21,-169"/>
<polygon fill="black" stroke="black" points="354.21,-165.5 344.21,-169 354.21,-172.5 354.21,-165.5"/>
</g>
<!-- QuickChatComponent  -->
<g id="node6" class="node">
<title>QuickChatComponent </title>
<polygon fill="#fb8072" stroke="black" points="356.99,-252 211.01,-252 211.01,-216 356.99,-216 356.99,-252"/>
<text text-anchor="middle" x="284" y="-229.8" font-family="Times,serif" font-size="14.00">QuickChatComponent </text>
</g>
<!-- QuickChatModule&#45;&gt;QuickChatComponent  -->
<g id="edge5" class="edge">
<title>QuickChatModule&#45;&gt;QuickChatComponent </title>
<path fill="none" stroke="black" stroke-dasharray="5,2" d="M284,-187.11C284,-187.11 284,-205.99 284,-205.99"/>
<polygon fill="black" stroke="black" points="280.5,-205.99 284,-215.99 287.5,-205.99 280.5,-205.99"/>
</g>
<!-- FuseDrawerModule -->
<g id="node3" class="node">
<title>FuseDrawerModule</title>
<polygon fill="#8dd3c7" stroke="black" points="423.96,-122 420.96,-126 399.96,-126 396.96,-122 296.04,-122 296.04,-86 423.96,-86 423.96,-122"/>
<text text-anchor="middle" x="360" y="-99.8" font-family="Times,serif" font-size="14.00">FuseDrawerModule</text>
</g>
<!-- FuseDrawerModule&#45;&gt;QuickChatModule -->
<g id="edge2" class="edge">
<title>FuseDrawerModule&#45;&gt;QuickChatModule</title>
<path fill="none" stroke="black" d="M320.06,-122.11C320.06,-122.11 320.06,-140.99 320.06,-140.99"/>
<polygon fill="black" stroke="black" points="316.56,-140.99 320.06,-150.99 323.56,-140.99 316.56,-140.99"/>
</g>
<!-- FuseScrollbarModule -->
<g id="node4" class="node">
<title>FuseScrollbarModule</title>
<polygon fill="#8dd3c7" stroke="black" points="277.81,-122 274.81,-126 253.81,-126 250.81,-122 140.19,-122 140.19,-86 277.81,-86 277.81,-122"/>
<text text-anchor="middle" x="209" y="-99.8" font-family="Times,serif" font-size="14.00">FuseScrollbarModule</text>
</g>
<!-- FuseScrollbarModule&#45;&gt;QuickChatModule -->
<g id="edge3" class="edge">
<title>FuseScrollbarModule&#45;&gt;QuickChatModule</title>
<path fill="none" stroke="black" d="M250.78,-122.11C250.78,-122.11 250.78,-140.99 250.78,-140.99"/>
<polygon fill="black" stroke="black" points="247.28,-140.99 250.78,-150.99 254.28,-140.99 247.28,-140.99"/>
</g>
<!-- SharedModule -->
<g id="node5" class="node">
<title>SharedModule</title>
<polygon fill="#8dd3c7" stroke="black" points="122.42,-122 119.42,-126 98.42,-126 95.42,-122 23.58,-122 23.58,-86 122.42,-86 122.42,-122"/>
<text text-anchor="middle" x="73" y="-99.8" font-family="Times,serif" font-size="14.00">SharedModule</text>
</g>
<!-- SharedModule&#45;&gt;QuickChatModule -->
<g id="edge4" class="edge">
<title>SharedModule&#45;&gt;QuickChatModule</title>
<path fill="none" stroke="black" d="M73,-122.11C73,-141.34 73,-169 73,-169 73,-169 213.82,-169 213.82,-169"/>
<polygon fill="black" stroke="black" points="213.82,-172.5 223.82,-169 213.82,-165.5 213.82,-172.5"/>
</g>
</g>
</svg>
