<?xml version="1.0" encoding="UTF-8" standalone="no"?>
<!DOCTYPE svg PUBLIC "-//W3C//DTD SVG 1.1//EN"
 "http://www.w3.org/Graphics/SVG/1.1/DTD/svg11.dtd">
<!-- Generated by graphviz version 2.47.0 (20210316.0004)
 -->
<!-- Title: dependencies Pages: 1 -->
<svg width="594pt" height="211pt"
 viewBox="0.00 0.00 594.00 211.00" xmlns="http://www.w3.org/2000/svg" xmlns:xlink="http://www.w3.org/1999/xlink">
<g id="graph0" class="graph" transform="scale(1 1) rotate(0) translate(4 207)">
<title>dependencies</title>
<polygon fill="white" stroke="transparent" points="-4,4 -4,-207 590,-207 590,4 -4,4"/>
<text text-anchor="start" x="272.01" y="-42.4" font-family="Times-12" font-weight="bold" font-size="14.00">Legend</text>
<polygon fill="#ffffb3" stroke="transparent" points="59,-10 59,-30 79,-30 79,-10 59,-10"/>
<text text-anchor="start" x="82.63" y="-15.4" font-family="Times-12" font-size="14.00"> &#160;Declarations</text>
<polygon fill="#8dd3c7" stroke="transparent" points="172,-10 172,-30 192,-30 192,-10 172,-10"/>
<text text-anchor="start" x="195.73" y="-15.4" font-family="Times-12" font-size="14.00"> &#160;Module</text>
<polygon fill="#80b1d3" stroke="transparent" points="258,-10 258,-30 278,-30 278,-10 258,-10"/>
<text text-anchor="start" x="281.78" y="-15.4" font-family="Times-12" font-size="14.00"> &#160;Bootstrap</text>
<polygon fill="#fdb462" stroke="transparent" points="355,-10 355,-30 375,-30 375,-10 355,-10"/>
<text text-anchor="start" x="378.67" y="-15.4" font-family="Times-12" font-size="14.00"> &#160;Providers</text>
<polygon fill="#fb8072" stroke="transparent" points="451,-10 451,-30 471,-30 471,-10 451,-10"/>
<text text-anchor="start" x="474.73" y="-15.4" font-family="Times-12" font-size="14.00"> &#160;Exports</text>
<g id="clust1" class="cluster">
<title>cluster_AuthSignUpModule</title>
<polygon fill="none" stroke="black" stroke-dasharray="1,5" points="8,-70 8,-195 578,-195 578,-70 8,-70"/>
</g>
<g id="clust2" class="cluster">
<title>cluster_AuthSignUpModule_declarations</title>
<polygon fill="none" stroke="black" points="402,-78 402,-130 570,-130 570,-78 402,-78"/>
</g>
<g id="clust4" class="cluster">
<title>cluster_AuthSignUpModule_imports</title>
<polygon fill="none" stroke="black" points="16,-78 16,-130 394,-130 394,-78 16,-78"/>
</g>
<!-- AuthSignUpComponent -->
<g id="node1" class="node">
<title>AuthSignUpComponent</title>
<polygon fill="#ffffb3" stroke="black" points="562.11,-122 409.89,-122 409.89,-86 562.11,-86 562.11,-122"/>
<text text-anchor="middle" x="486" y="-99.8" font-family="Times,serif" font-size="14.00">AuthSignUpComponent</text>
</g>
<!-- AuthSignUpModule -->
<g id="node2" class="node">
<title>AuthSignUpModule</title>
<polygon fill="#8dd3c7" stroke="black" points="328.33,-187 325.33,-191 304.33,-191 301.33,-187 197.67,-187 197.67,-151 328.33,-151 328.33,-187"/>
<text text-anchor="middle" x="263" y="-164.8" font-family="Times,serif" font-size="14.00">AuthSignUpModule</text>
</g>
<!-- AuthSignUpComponent&#45;&gt;AuthSignUpModule -->
<g id="edge1" class="edge">
<title>AuthSignUpComponent&#45;&gt;AuthSignUpModule</title>
<path fill="none" stroke="black" d="M486,-122.11C486,-141.34 486,-169 486,-169 486,-169 338.4,-169 338.4,-169"/>
<polygon fill="black" stroke="black" points="338.4,-165.5 328.4,-169 338.4,-172.5 338.4,-165.5"/>
</g>
<!-- FuseAlertModule -->
<g id="node3" class="node">
<title>FuseAlertModule</title>
<polygon fill="#8dd3c7" stroke="black" points="386.25,-122 383.25,-126 362.25,-126 359.25,-122 271.75,-122 271.75,-86 386.25,-86 386.25,-122"/>
<text text-anchor="middle" x="329" y="-99.8" font-family="Times,serif" font-size="14.00">FuseAlertModule</text>
</g>
<!-- FuseAlertModule&#45;&gt;AuthSignUpModule -->
<g id="edge2" class="edge">
<title>FuseAlertModule&#45;&gt;AuthSignUpModule</title>
<path fill="none" stroke="black" d="M299.89,-122.11C299.89,-122.11 299.89,-140.99 299.89,-140.99"/>
<polygon fill="black" stroke="black" points="296.39,-140.99 299.89,-150.99 303.39,-140.99 296.39,-140.99"/>
</g>
<!-- FuseCardModule -->
<g id="node4" class="node">
<title>FuseCardModule</title>
<polygon fill="#8dd3c7" stroke="black" points="253.7,-122 250.7,-126 229.7,-126 226.7,-122 140.3,-122 140.3,-86 253.7,-86 253.7,-122"/>
<text text-anchor="middle" x="197" y="-99.8" font-family="Times,serif" font-size="14.00">FuseCardModule</text>
</g>
<!-- FuseCardModule&#45;&gt;AuthSignUpModule -->
<g id="edge3" class="edge">
<title>FuseCardModule&#45;&gt;AuthSignUpModule</title>
<path fill="none" stroke="black" d="M225.72,-122.11C225.72,-122.11 225.72,-140.99 225.72,-140.99"/>
<polygon fill="black" stroke="black" points="222.22,-140.99 225.72,-150.99 229.22,-140.99 222.22,-140.99"/>
</g>
<!-- SharedModule -->
<g id="node5" class="node">
<title>SharedModule</title>
<polygon fill="#8dd3c7" stroke="black" points="122.42,-122 119.42,-126 98.42,-126 95.42,-122 23.58,-122 23.58,-86 122.42,-86 122.42,-122"/>
<text text-anchor="middle" x="73" y="-99.8" font-family="Times,serif" font-size="14.00">SharedModule</text>
</g>
<!-- SharedModule&#45;&gt;AuthSignUpModule -->
<g id="edge4" class="edge">
<title>SharedModule&#45;&gt;AuthSignUpModule</title>
<path fill="none" stroke="black" d="M73,-122.11C73,-141.34 73,-169 73,-169 73,-169 187.61,-169 187.61,-169"/>
<polygon fill="black" stroke="black" points="187.61,-172.5 197.61,-169 187.61,-165.5 187.61,-172.5"/>
</g>
</g>
</svg>
