<?xml version="1.0" encoding="UTF-8" standalone="no"?>
<!DOCTYPE svg PUBLIC "-//W3C//DTD SVG 1.1//EN"
 "http://www.w3.org/Graphics/SVG/1.1/DTD/svg11.dtd">
<!-- Generated by graphviz version 2.47.0 (20210316.0004)
 -->
<!-- Title: dependencies Pages: 1 -->
<svg width="636pt" height="211pt"
 viewBox="0.00 0.00 636.00 211.00" xmlns="http://www.w3.org/2000/svg" xmlns:xlink="http://www.w3.org/1999/xlink">
<g id="graph0" class="graph" transform="scale(1 1) rotate(0) translate(4 207)">
<title>dependencies</title>
<polygon fill="white" stroke="transparent" points="-4,4 -4,-207 632,-207 632,4 -4,4"/>
<text text-anchor="start" x="293.01" y="-42.4" font-family="Times-12" font-weight="bold" font-size="14.00">Legend</text>
<polygon fill="#ffffb3" stroke="transparent" points="80,-10 80,-30 100,-30 100,-10 80,-10"/>
<text text-anchor="start" x="103.63" y="-15.4" font-family="Times-12" font-size="14.00"> &#160;Declarations</text>
<polygon fill="#8dd3c7" stroke="transparent" points="193,-10 193,-30 213,-30 213,-10 193,-10"/>
<text text-anchor="start" x="216.73" y="-15.4" font-family="Times-12" font-size="14.00"> &#160;Module</text>
<polygon fill="#80b1d3" stroke="transparent" points="279,-10 279,-30 299,-30 299,-10 279,-10"/>
<text text-anchor="start" x="302.78" y="-15.4" font-family="Times-12" font-size="14.00"> &#160;Bootstrap</text>
<polygon fill="#fdb462" stroke="transparent" points="376,-10 376,-30 396,-30 396,-10 376,-10"/>
<text text-anchor="start" x="399.67" y="-15.4" font-family="Times-12" font-size="14.00"> &#160;Providers</text>
<polygon fill="#fb8072" stroke="transparent" points="472,-10 472,-30 492,-30 492,-10 472,-10"/>
<text text-anchor="start" x="495.73" y="-15.4" font-family="Times-12" font-size="14.00"> &#160;Exports</text>
<g id="clust1" class="cluster">
<title>cluster_AuthResetPasswordModule</title>
<polygon fill="none" stroke="black" stroke-dasharray="1,5" points="8,-70 8,-195 620,-195 620,-70 8,-70"/>
</g>
<g id="clust2" class="cluster">
<title>cluster_AuthResetPasswordModule_declarations</title>
<polygon fill="none" stroke="black" points="402,-78 402,-130 612,-130 612,-78 402,-78"/>
</g>
<g id="clust4" class="cluster">
<title>cluster_AuthResetPasswordModule_imports</title>
<polygon fill="none" stroke="black" points="16,-78 16,-130 394,-130 394,-78 16,-78"/>
</g>
<!-- AuthResetPasswordComponent -->
<g id="node1" class="node">
<title>AuthResetPasswordComponent</title>
<polygon fill="#ffffb3" stroke="black" points="604.08,-122 409.92,-122 409.92,-86 604.08,-86 604.08,-122"/>
<text text-anchor="middle" x="507" y="-99.8" font-family="Times,serif" font-size="14.00">AuthResetPasswordComponent</text>
</g>
<!-- AuthResetPasswordModule -->
<g id="node2" class="node">
<title>AuthResetPasswordModule</title>
<polygon fill="#8dd3c7" stroke="black" points="349.3,-187 346.3,-191 325.3,-191 322.3,-187 176.7,-187 176.7,-151 349.3,-151 349.3,-187"/>
<text text-anchor="middle" x="263" y="-164.8" font-family="Times,serif" font-size="14.00">AuthResetPasswordModule</text>
</g>
<!-- AuthResetPasswordComponent&#45;&gt;AuthResetPasswordModule -->
<g id="edge1" class="edge">
<title>AuthResetPasswordComponent&#45;&gt;AuthResetPasswordModule</title>
<path fill="none" stroke="black" d="M507,-122.11C507,-141.34 507,-169 507,-169 507,-169 359.37,-169 359.37,-169"/>
<polygon fill="black" stroke="black" points="359.37,-165.5 349.37,-169 359.37,-172.5 359.37,-165.5"/>
</g>
<!-- FuseAlertModule -->
<g id="node3" class="node">
<title>FuseAlertModule</title>
<polygon fill="#8dd3c7" stroke="black" points="386.25,-122 383.25,-126 362.25,-126 359.25,-122 271.75,-122 271.75,-86 386.25,-86 386.25,-122"/>
<text text-anchor="middle" x="329" y="-99.8" font-family="Times,serif" font-size="14.00">FuseAlertModule</text>
</g>
<!-- FuseAlertModule&#45;&gt;AuthResetPasswordModule -->
<g id="edge2" class="edge">
<title>FuseAlertModule&#45;&gt;AuthResetPasswordModule</title>
<path fill="none" stroke="black" d="M310.39,-122.11C310.39,-122.11 310.39,-140.99 310.39,-140.99"/>
<polygon fill="black" stroke="black" points="306.89,-140.99 310.39,-150.99 313.89,-140.99 306.89,-140.99"/>
</g>
<!-- FuseCardModule -->
<g id="node4" class="node">
<title>FuseCardModule</title>
<polygon fill="#8dd3c7" stroke="black" points="253.7,-122 250.7,-126 229.7,-126 226.7,-122 140.3,-122 140.3,-86 253.7,-86 253.7,-122"/>
<text text-anchor="middle" x="197" y="-99.8" font-family="Times,serif" font-size="14.00">FuseCardModule</text>
</g>
<!-- FuseCardModule&#45;&gt;AuthResetPasswordModule -->
<g id="edge3" class="edge">
<title>FuseCardModule&#45;&gt;AuthResetPasswordModule</title>
<path fill="none" stroke="black" d="M215.23,-122.11C215.23,-122.11 215.23,-140.99 215.23,-140.99"/>
<polygon fill="black" stroke="black" points="211.73,-140.99 215.23,-150.99 218.73,-140.99 211.73,-140.99"/>
</g>
<!-- SharedModule -->
<g id="node5" class="node">
<title>SharedModule</title>
<polygon fill="#8dd3c7" stroke="black" points="122.42,-122 119.42,-126 98.42,-126 95.42,-122 23.58,-122 23.58,-86 122.42,-86 122.42,-122"/>
<text text-anchor="middle" x="73" y="-99.8" font-family="Times,serif" font-size="14.00">SharedModule</text>
</g>
<!-- SharedModule&#45;&gt;AuthResetPasswordModule -->
<g id="edge4" class="edge">
<title>SharedModule&#45;&gt;AuthResetPasswordModule</title>
<path fill="none" stroke="black" d="M73,-122.11C73,-141.34 73,-169 73,-169 73,-169 166.62,-169 166.62,-169"/>
<polygon fill="black" stroke="black" points="166.62,-172.5 176.62,-169 166.62,-165.5 166.62,-172.5"/>
</g>
</g>
</svg>
