<?xml version="1.0" encoding="UTF-8" standalone="no"?>
<!DOCTYPE svg PUBLIC "-//W3C//DTD SVG 1.1//EN"
 "http://www.w3.org/Graphics/SVG/1.1/DTD/svg11.dtd">
<!-- Generated by graphviz version 2.47.0 (20210316.0004)
 -->
<!-- Title: dependencies Pages: 1 -->
<svg width="1742pt" height="284pt"
 viewBox="0.00 0.00 1742.00 284.00" xmlns="http://www.w3.org/2000/svg" xmlns:xlink="http://www.w3.org/1999/xlink">
<g id="graph0" class="graph" transform="scale(1 1) rotate(0) translate(4 280)">
<title>dependencies</title>
<polygon fill="white" stroke="transparent" points="-4,4 -4,-280 1738,-280 1738,4 -4,4"/>
<text text-anchor="start" x="846.01" y="-42.4" font-family="Times-12" font-weight="bold" font-size="14.00">Legend</text>
<polygon fill="#ffffb3" stroke="transparent" points="633,-10 633,-30 653,-30 653,-10 633,-10"/>
<text text-anchor="start" x="656.63" y="-15.4" font-family="Times-12" font-size="14.00"> &#160;Declarations</text>
<polygon fill="#8dd3c7" stroke="transparent" points="746,-10 746,-30 766,-30 766,-10 746,-10"/>
<text text-anchor="start" x="769.73" y="-15.4" font-family="Times-12" font-size="14.00"> &#160;Module</text>
<polygon fill="#80b1d3" stroke="transparent" points="832,-10 832,-30 852,-30 852,-10 832,-10"/>
<text text-anchor="start" x="855.78" y="-15.4" font-family="Times-12" font-size="14.00"> &#160;Bootstrap</text>
<polygon fill="#fdb462" stroke="transparent" points="929,-10 929,-30 949,-30 949,-10 929,-10"/>
<text text-anchor="start" x="952.67" y="-15.4" font-family="Times-12" font-size="14.00"> &#160;Providers</text>
<polygon fill="#fb8072" stroke="transparent" points="1025,-10 1025,-30 1045,-30 1045,-10 1025,-10"/>
<text text-anchor="start" x="1048.73" y="-15.4" font-family="Times-12" font-size="14.00"> &#160;Exports</text>
<g id="clust1" class="cluster">
<title>cluster_DenseLayoutModule</title>
<polygon fill="none" stroke="black" stroke-dasharray="1,5" points="8,-70 8,-268 1726,-268 1726,-70 8,-70"/>
</g>
<g id="clust4" class="cluster">
<title>cluster_DenseLayoutModule_imports</title>
<polygon fill="none" stroke="black" points="196,-78 196,-130 1718,-130 1718,-78 196,-78"/>
</g>
<g id="clust5" class="cluster">
<title>cluster_DenseLayoutModule_exports</title>
<polygon fill="none" stroke="black" points="714,-208 714,-260 890,-260 890,-208 714,-208"/>
</g>
<g id="clust2" class="cluster">
<title>cluster_DenseLayoutModule_declarations</title>
<polygon fill="none" stroke="black" points="16,-78 16,-130 188,-130 188,-78 16,-78"/>
</g>
<!-- DenseLayoutComponent -->
<g id="node1" class="node">
<title>DenseLayoutComponent</title>
<polygon fill="#ffffb3" stroke="black" points="179.97,-122 24.03,-122 24.03,-86 179.97,-86 179.97,-122"/>
<text text-anchor="middle" x="102" y="-99.8" font-family="Times,serif" font-size="14.00">DenseLayoutComponent</text>
</g>
<!-- DenseLayoutModule -->
<g id="node2" class="node">
<title>DenseLayoutModule</title>
<polygon fill="#8dd3c7" stroke="black" points="869.19,-187 866.19,-191 845.19,-191 842.19,-187 734.81,-187 734.81,-151 869.19,-151 869.19,-187"/>
<text text-anchor="middle" x="802" y="-164.8" font-family="Times,serif" font-size="14.00">DenseLayoutModule</text>
</g>
<!-- DenseLayoutComponent&#45;&gt;DenseLayoutModule -->
<g id="edge1" class="edge">
<title>DenseLayoutComponent&#45;&gt;DenseLayoutModule</title>
<path fill="none" stroke="black" d="M102,-122.25C102,-145.02 102,-181 102,-181 102,-181 724.88,-181 724.88,-181"/>
<polygon fill="black" stroke="black" points="724.88,-184.5 734.88,-181 724.88,-177.5 724.88,-184.5"/>
</g>
<!-- DenseLayoutComponent  -->
<g id="node14" class="node">
<title>DenseLayoutComponent </title>
<polygon fill="#fb8072" stroke="black" points="881.97,-252 722.03,-252 722.03,-216 881.97,-216 881.97,-252"/>
<text text-anchor="middle" x="802" y="-229.8" font-family="Times,serif" font-size="14.00">DenseLayoutComponent </text>
</g>
<!-- DenseLayoutModule&#45;&gt;DenseLayoutComponent  -->
<g id="edge13" class="edge">
<title>DenseLayoutModule&#45;&gt;DenseLayoutComponent </title>
<path fill="none" stroke="black" stroke-dasharray="5,2" d="M802,-187.11C802,-187.11 802,-205.99 802,-205.99"/>
<polygon fill="black" stroke="black" points="798.5,-205.99 802,-215.99 805.5,-205.99 798.5,-205.99"/>
</g>
<!-- FuseFullscreenModule -->
<g id="node3" class="node">
<title>FuseFullscreenModule</title>
<polygon fill="#8dd3c7" stroke="black" points="1710.3,-122 1707.3,-126 1686.3,-126 1683.3,-122 1565.7,-122 1565.7,-86 1710.3,-86 1710.3,-122"/>
<text text-anchor="middle" x="1638" y="-99.8" font-family="Times,serif" font-size="14.00">FuseFullscreenModule</text>
</g>
<!-- FuseFullscreenModule&#45;&gt;DenseLayoutModule -->
<g id="edge2" class="edge">
<title>FuseFullscreenModule&#45;&gt;DenseLayoutModule</title>
<path fill="none" stroke="black" d="M1638,-122.25C1638,-145.02 1638,-181 1638,-181 1638,-181 879.35,-181 879.35,-181"/>
<polygon fill="black" stroke="black" points="879.35,-177.5 869.35,-181 879.35,-184.5 879.35,-177.5"/>
</g>
<!-- FuseLoadingBarModule -->
<g id="node4" class="node">
<title>FuseLoadingBarModule</title>
<polygon fill="#8dd3c7" stroke="black" points="1547.36,-122 1544.36,-126 1523.36,-126 1520.36,-122 1394.64,-122 1394.64,-86 1547.36,-86 1547.36,-122"/>
<text text-anchor="middle" x="1471" y="-99.8" font-family="Times,serif" font-size="14.00">FuseLoadingBarModule</text>
</g>
<!-- FuseLoadingBarModule&#45;&gt;DenseLayoutModule -->
<g id="edge3" class="edge">
<title>FuseLoadingBarModule&#45;&gt;DenseLayoutModule</title>
<path fill="none" stroke="black" d="M1471,-122.28C1471,-143.32 1471,-175 1471,-175 1471,-175 879.21,-175 879.21,-175"/>
<polygon fill="black" stroke="black" points="879.21,-171.5 869.21,-175 879.21,-178.5 879.21,-171.5"/>
</g>
<!-- FuseNavigationModule -->
<g id="node5" class="node">
<title>FuseNavigationModule</title>
<polygon fill="#8dd3c7" stroke="black" points="1376.2,-122 1373.2,-126 1352.2,-126 1349.2,-122 1227.8,-122 1227.8,-86 1376.2,-86 1376.2,-122"/>
<text text-anchor="middle" x="1302" y="-99.8" font-family="Times,serif" font-size="14.00">FuseNavigationModule</text>
</g>
<!-- FuseNavigationModule&#45;&gt;DenseLayoutModule -->
<g id="edge4" class="edge">
<title>FuseNavigationModule&#45;&gt;DenseLayoutModule</title>
<path fill="none" stroke="black" d="M1302,-122.11C1302,-141.34 1302,-169 1302,-169 1302,-169 879.17,-169 879.17,-169"/>
<polygon fill="black" stroke="black" points="879.17,-165.5 869.17,-169 879.17,-172.5 879.17,-165.5"/>
</g>
<!-- LanguagesModule -->
<g id="node6" class="node">
<title>LanguagesModule</title>
<polygon fill="#8dd3c7" stroke="black" points="1210.19,-122 1207.19,-126 1186.19,-126 1183.19,-122 1089.81,-122 1089.81,-86 1210.19,-86 1210.19,-122"/>
<text text-anchor="middle" x="1150" y="-99.8" font-family="Times,serif" font-size="14.00">LanguagesModule</text>
</g>
<!-- LanguagesModule&#45;&gt;DenseLayoutModule -->
<g id="edge5" class="edge">
<title>LanguagesModule&#45;&gt;DenseLayoutModule</title>
<path fill="none" stroke="black" d="M1150,-122.02C1150,-139.37 1150,-163 1150,-163 1150,-163 879.1,-163 879.1,-163"/>
<polygon fill="black" stroke="black" points="879.1,-159.5 869.1,-163 879.1,-166.5 879.1,-159.5"/>
</g>
<!-- MessagesModule -->
<g id="node7" class="node">
<title>MessagesModule</title>
<polygon fill="#8dd3c7" stroke="black" points="1071.97,-122 1068.97,-126 1047.97,-126 1044.97,-122 958.03,-122 958.03,-86 1071.97,-86 1071.97,-122"/>
<text text-anchor="middle" x="1015" y="-99.8" font-family="Times,serif" font-size="14.00">MessagesModule</text>
</g>
<!-- MessagesModule&#45;&gt;DenseLayoutModule -->
<g id="edge6" class="edge">
<title>MessagesModule&#45;&gt;DenseLayoutModule</title>
<path fill="none" stroke="black" d="M1015,-122.24C1015,-137.57 1015,-157 1015,-157 1015,-157 879.1,-157 879.1,-157"/>
<polygon fill="black" stroke="black" points="879.1,-153.5 869.1,-157 879.1,-160.5 879.1,-153.5"/>
</g>
<!-- NotificationsModule -->
<g id="node8" class="node">
<title>NotificationsModule</title>
<polygon fill="#8dd3c7" stroke="black" points="940.14,-122 937.14,-126 916.14,-126 913.14,-122 807.86,-122 807.86,-86 940.14,-86 940.14,-122"/>
<text text-anchor="middle" x="874" y="-99.8" font-family="Times,serif" font-size="14.00">NotificationsModule</text>
</g>
<!-- NotificationsModule&#45;&gt;DenseLayoutModule -->
<g id="edge7" class="edge">
<title>NotificationsModule&#45;&gt;DenseLayoutModule</title>
<path fill="none" stroke="black" d="M838.39,-122.11C838.39,-122.11 838.39,-140.99 838.39,-140.99"/>
<polygon fill="black" stroke="black" points="834.89,-140.99 838.39,-150.99 841.89,-140.99 834.89,-140.99"/>
</g>
<!-- QuickChatModule -->
<g id="node9" class="node">
<title>QuickChatModule</title>
<polygon fill="#8dd3c7" stroke="black" points="790.2,-122 787.2,-126 766.2,-126 763.2,-122 669.8,-122 669.8,-86 790.2,-86 790.2,-122"/>
<text text-anchor="middle" x="730" y="-99.8" font-family="Times,serif" font-size="14.00">QuickChatModule</text>
</g>
<!-- QuickChatModule&#45;&gt;DenseLayoutModule -->
<g id="edge8" class="edge">
<title>QuickChatModule&#45;&gt;DenseLayoutModule</title>
<path fill="none" stroke="black" d="M762.5,-122.11C762.5,-122.11 762.5,-140.99 762.5,-140.99"/>
<polygon fill="black" stroke="black" points="759,-140.99 762.5,-150.99 766,-140.99 759,-140.99"/>
</g>
<!-- SearchModule -->
<g id="node10" class="node">
<title>SearchModule</title>
<polygon fill="#8dd3c7" stroke="black" points="651.64,-122 648.64,-126 627.64,-126 624.64,-122 554.36,-122 554.36,-86 651.64,-86 651.64,-122"/>
<text text-anchor="middle" x="603" y="-99.8" font-family="Times,serif" font-size="14.00">SearchModule</text>
</g>
<!-- SearchModule&#45;&gt;DenseLayoutModule -->
<g id="edge9" class="edge">
<title>SearchModule&#45;&gt;DenseLayoutModule</title>
<path fill="none" stroke="black" d="M603,-122.24C603,-137.57 603,-157 603,-157 603,-157 724.91,-157 724.91,-157"/>
<polygon fill="black" stroke="black" points="724.91,-160.5 734.91,-157 724.91,-153.5 724.91,-160.5"/>
</g>
<!-- SharedModule -->
<g id="node11" class="node">
<title>SharedModule</title>
<polygon fill="#8dd3c7" stroke="black" points="536.42,-122 533.42,-126 512.42,-126 509.42,-122 437.58,-122 437.58,-86 536.42,-86 536.42,-122"/>
<text text-anchor="middle" x="487" y="-99.8" font-family="Times,serif" font-size="14.00">SharedModule</text>
</g>
<!-- SharedModule&#45;&gt;DenseLayoutModule -->
<g id="edge10" class="edge">
<title>SharedModule&#45;&gt;DenseLayoutModule</title>
<path fill="none" stroke="black" d="M487,-122.02C487,-139.37 487,-163 487,-163 487,-163 724.81,-163 724.81,-163"/>
<polygon fill="black" stroke="black" points="724.81,-166.5 734.81,-163 724.81,-159.5 724.81,-166.5"/>
</g>
<!-- ShortcutsModule -->
<g id="node12" class="node">
<title>ShortcutsModule</title>
<polygon fill="#8dd3c7" stroke="black" points="420.43,-122 417.43,-126 396.43,-126 393.43,-122 307.57,-122 307.57,-86 420.43,-86 420.43,-122"/>
<text text-anchor="middle" x="364" y="-99.8" font-family="Times,serif" font-size="14.00">ShortcutsModule</text>
</g>
<!-- ShortcutsModule&#45;&gt;DenseLayoutModule -->
<g id="edge11" class="edge">
<title>ShortcutsModule&#45;&gt;DenseLayoutModule</title>
<path fill="none" stroke="black" d="M364,-122.11C364,-141.34 364,-169 364,-169 364,-169 724.52,-169 724.52,-169"/>
<polygon fill="black" stroke="black" points="724.52,-172.5 734.52,-169 724.52,-165.5 724.52,-172.5"/>
</g>
<!-- UserModule -->
<g id="node13" class="node">
<title>UserModule</title>
<polygon fill="#8dd3c7" stroke="black" points="289.98,-122 286.98,-126 265.98,-126 262.98,-122 204.02,-122 204.02,-86 289.98,-86 289.98,-122"/>
<text text-anchor="middle" x="247" y="-99.8" font-family="Times,serif" font-size="14.00">UserModule</text>
</g>
<!-- UserModule&#45;&gt;DenseLayoutModule -->
<g id="edge12" class="edge">
<title>UserModule&#45;&gt;DenseLayoutModule</title>
<path fill="none" stroke="black" d="M247,-122.28C247,-143.32 247,-175 247,-175 247,-175 724.78,-175 724.78,-175"/>
<polygon fill="black" stroke="black" points="724.78,-178.5 734.78,-175 724.78,-171.5 724.78,-178.5"/>
</g>
</g>
</svg>
