<?xml version="1.0" encoding="UTF-8" standalone="no"?>
<!DOCTYPE svg PUBLIC "-//W3C//DTD SVG 1.1//EN"
 "http://www.w3.org/Graphics/SVG/1.1/DTD/svg11.dtd">
<!-- Generated by graphviz version 2.47.0 (20210316.0004)
 -->
<!-- Title: dependencies Pages: 1 -->
<svg width="3725pt" height="284pt"
 viewBox="0.00 0.00 3725.00 284.00" xmlns="http://www.w3.org/2000/svg" xmlns:xlink="http://www.w3.org/1999/xlink">
<g id="graph0" class="graph" transform="scale(1 1) rotate(0) translate(4 280)">
<title>dependencies</title>
<polygon fill="white" stroke="transparent" points="-4,4 -4,-280 3721,-280 3721,4 -4,4"/>
<text text-anchor="start" x="1837.51" y="-42.4" font-family="Times-12" font-weight="bold" font-size="14.00">Legend</text>
<polygon fill="#ffffb3" stroke="transparent" points="1624.5,-10 1624.5,-30 1644.5,-30 1644.5,-10 1624.5,-10"/>
<text text-anchor="start" x="1648.13" y="-15.4" font-family="Times-12" font-size="14.00"> &#160;Declarations</text>
<polygon fill="#8dd3c7" stroke="transparent" points="1737.5,-10 1737.5,-30 1757.5,-30 1757.5,-10 1737.5,-10"/>
<text text-anchor="start" x="1761.23" y="-15.4" font-family="Times-12" font-size="14.00"> &#160;Module</text>
<polygon fill="#80b1d3" stroke="transparent" points="1823.5,-10 1823.5,-30 1843.5,-30 1843.5,-10 1823.5,-10"/>
<text text-anchor="start" x="1847.28" y="-15.4" font-family="Times-12" font-size="14.00"> &#160;Bootstrap</text>
<polygon fill="#fdb462" stroke="transparent" points="1920.5,-10 1920.5,-30 1940.5,-30 1940.5,-10 1920.5,-10"/>
<text text-anchor="start" x="1944.17" y="-15.4" font-family="Times-12" font-size="14.00"> &#160;Providers</text>
<polygon fill="#fb8072" stroke="transparent" points="2016.5,-10 2016.5,-30 2036.5,-30 2036.5,-10 2016.5,-10"/>
<text text-anchor="start" x="2040.23" y="-15.4" font-family="Times-12" font-size="14.00"> &#160;Exports</text>
<g id="clust1" class="cluster">
<title>cluster_FuseNavigationModule</title>
<polygon fill="none" stroke="black" stroke-dasharray="1,5" points="8,-70 8,-268 3709,-268 3709,-70 8,-70"/>
</g>
<g id="clust15" class="cluster">
<title>cluster_FuseNavigationModule_imports</title>
<polygon fill="none" stroke="black" points="3547,-78 3547,-130 3701,-130 3701,-78 3547,-78"/>
</g>
<g id="clust2" class="cluster">
<title>cluster_FuseNavigationModule_declarations</title>
<polygon fill="none" stroke="black" points="16,-78 16,-130 3539,-130 3539,-78 16,-78"/>
</g>
<g id="clust16" class="cluster">
<title>cluster_FuseNavigationModule_exports</title>
<polygon fill="none" stroke="black" points="1662,-208 1662,-260 2148,-260 2148,-208 1662,-208"/>
</g>
<!-- FuseHorizontalNavigationBasicItemComponent -->
<g id="node1" class="node">
<title>FuseHorizontalNavigationBasicItemComponent</title>
<polygon fill="#ffffb3" stroke="black" points="3531.11,-122 3244.89,-122 3244.89,-86 3531.11,-86 3531.11,-122"/>
<text text-anchor="middle" x="3388" y="-99.8" font-family="Times,serif" font-size="14.00">FuseHorizontalNavigationBasicItemComponent</text>
</g>
<!-- FuseNavigationModule -->
<g id="node13" class="node">
<title>FuseNavigationModule</title>
<polygon fill="#8dd3c7" stroke="black" points="1975.2,-187 1972.2,-191 1951.2,-191 1948.2,-187 1826.8,-187 1826.8,-151 1975.2,-151 1975.2,-187"/>
<text text-anchor="middle" x="1901" y="-164.8" font-family="Times,serif" font-size="14.00">FuseNavigationModule</text>
</g>
<!-- FuseHorizontalNavigationBasicItemComponent&#45;&gt;FuseNavigationModule -->
<g id="edge1" class="edge">
<title>FuseHorizontalNavigationBasicItemComponent&#45;&gt;FuseNavigationModule</title>
<path fill="none" stroke="black" d="M3388,-122.04C3388,-143.66 3388,-177 3388,-177 3388,-177 1985.25,-177 1985.25,-177"/>
<polygon fill="black" stroke="black" points="1985.25,-173.5 1975.25,-177 1985.25,-180.5 1985.25,-173.5"/>
</g>
<!-- FuseHorizontalNavigationBranchItemComponent -->
<g id="node2" class="node">
<title>FuseHorizontalNavigationBranchItemComponent</title>
<polygon fill="#ffffb3" stroke="black" points="3226.93,-122 2931.07,-122 2931.07,-86 3226.93,-86 3226.93,-122"/>
<text text-anchor="middle" x="3079" y="-99.8" font-family="Times,serif" font-size="14.00">FuseHorizontalNavigationBranchItemComponent</text>
</g>
<!-- FuseHorizontalNavigationBranchItemComponent&#45;&gt;FuseNavigationModule -->
<g id="edge2" class="edge">
<title>FuseHorizontalNavigationBranchItemComponent&#45;&gt;FuseNavigationModule</title>
<path fill="none" stroke="black" d="M3079,-122.22C3079,-142.37 3079,-172 3079,-172 3079,-172 1985.14,-172 1985.14,-172"/>
<polygon fill="black" stroke="black" points="1985.14,-168.5 1975.14,-172 1985.14,-175.5 1985.14,-168.5"/>
</g>
<!-- FuseHorizontalNavigationComponent -->
<g id="node3" class="node">
<title>FuseHorizontalNavigationComponent</title>
<polygon fill="#ffffb3" stroke="black" points="2912.85,-122 2683.15,-122 2683.15,-86 2912.85,-86 2912.85,-122"/>
<text text-anchor="middle" x="2798" y="-99.8" font-family="Times,serif" font-size="14.00">FuseHorizontalNavigationComponent</text>
</g>
<!-- FuseHorizontalNavigationComponent&#45;&gt;FuseNavigationModule -->
<g id="edge3" class="edge">
<title>FuseHorizontalNavigationComponent&#45;&gt;FuseNavigationModule</title>
<path fill="none" stroke="black" d="M2798,-122.22C2798,-140.83 2798,-167 2798,-167 2798,-167 1985.17,-167 1985.17,-167"/>
<polygon fill="black" stroke="black" points="1985.17,-163.5 1975.17,-167 1985.17,-170.5 1985.17,-163.5"/>
</g>
<!-- FuseHorizontalNavigationDividerItemComponent -->
<g id="node4" class="node">
<title>FuseHorizontalNavigationDividerItemComponent</title>
<polygon fill="#ffffb3" stroke="black" points="2665.27,-122 2366.73,-122 2366.73,-86 2665.27,-86 2665.27,-122"/>
<text text-anchor="middle" x="2516" y="-99.8" font-family="Times,serif" font-size="14.00">FuseHorizontalNavigationDividerItemComponent</text>
</g>
<!-- FuseHorizontalNavigationDividerItemComponent&#45;&gt;FuseNavigationModule -->
<g id="edge4" class="edge">
<title>FuseHorizontalNavigationDividerItemComponent&#45;&gt;FuseNavigationModule</title>
<path fill="none" stroke="black" d="M2516,-122.03C2516,-139.06 2516,-162 2516,-162 2516,-162 1985.18,-162 1985.18,-162"/>
<polygon fill="black" stroke="black" points="1985.18,-158.5 1975.18,-162 1985.18,-165.5 1985.18,-158.5"/>
</g>
<!-- FuseHorizontalNavigationSpacerItemComponent -->
<g id="node5" class="node">
<title>FuseHorizontalNavigationSpacerItemComponent</title>
<polygon fill="#ffffb3" stroke="black" points="2348.59,-122 2055.41,-122 2055.41,-86 2348.59,-86 2348.59,-122"/>
<text text-anchor="middle" x="2202" y="-99.8" font-family="Times,serif" font-size="14.00">FuseHorizontalNavigationSpacerItemComponent</text>
</g>
<!-- FuseHorizontalNavigationSpacerItemComponent&#45;&gt;FuseNavigationModule -->
<g id="edge5" class="edge">
<title>FuseHorizontalNavigationSpacerItemComponent&#45;&gt;FuseNavigationModule</title>
<path fill="none" stroke="black" d="M2097.44,-122.24C2097.44,-137.57 2097.44,-157 2097.44,-157 2097.44,-157 1985.27,-157 1985.27,-157"/>
<polygon fill="black" stroke="black" points="1985.27,-153.5 1975.27,-157 1985.27,-160.5 1985.27,-153.5"/>
</g>
<!-- FuseVerticalNavigationAsideItemComponent -->
<g id="node6" class="node">
<title>FuseVerticalNavigationAsideItemComponent</title>
<polygon fill="#ffffb3" stroke="black" points="2037.88,-122 1764.12,-122 1764.12,-86 2037.88,-86 2037.88,-122"/>
<text text-anchor="middle" x="1901" y="-99.8" font-family="Times,serif" font-size="14.00">FuseVerticalNavigationAsideItemComponent</text>
</g>
<!-- FuseVerticalNavigationAsideItemComponent&#45;&gt;FuseNavigationModule -->
<g id="edge6" class="edge">
<title>FuseVerticalNavigationAsideItemComponent&#45;&gt;FuseNavigationModule</title>
<path fill="none" stroke="black" d="M1901,-122.11C1901,-122.11 1901,-140.99 1901,-140.99"/>
<polygon fill="black" stroke="black" points="1897.5,-140.99 1901,-150.99 1904.5,-140.99 1897.5,-140.99"/>
</g>
<!-- FuseVerticalNavigationBasicItemComponent -->
<g id="node7" class="node">
<title>FuseVerticalNavigationBasicItemComponent</title>
<polygon fill="#ffffb3" stroke="black" points="1745.82,-122 1474.18,-122 1474.18,-86 1745.82,-86 1745.82,-122"/>
<text text-anchor="middle" x="1610" y="-99.8" font-family="Times,serif" font-size="14.00">FuseVerticalNavigationBasicItemComponent</text>
</g>
<!-- FuseVerticalNavigationBasicItemComponent&#45;&gt;FuseNavigationModule -->
<g id="edge7" class="edge">
<title>FuseVerticalNavigationBasicItemComponent&#45;&gt;FuseNavigationModule</title>
<path fill="none" stroke="black" d="M1707.81,-122.24C1707.81,-137.57 1707.81,-157 1707.81,-157 1707.81,-157 1816.86,-157 1816.86,-157"/>
<polygon fill="black" stroke="black" points="1816.86,-160.5 1826.86,-157 1816.86,-153.5 1816.86,-160.5"/>
</g>
<!-- FuseVerticalNavigationCollapsableItemComponent -->
<g id="node8" class="node">
<title>FuseVerticalNavigationCollapsableItemComponent</title>
<polygon fill="#ffffb3" stroke="black" points="1456.32,-122 1149.68,-122 1149.68,-86 1456.32,-86 1456.32,-122"/>
<text text-anchor="middle" x="1303" y="-99.8" font-family="Times,serif" font-size="14.00">FuseVerticalNavigationCollapsableItemComponent</text>
</g>
<!-- FuseVerticalNavigationCollapsableItemComponent&#45;&gt;FuseNavigationModule -->
<g id="edge8" class="edge">
<title>FuseVerticalNavigationCollapsableItemComponent&#45;&gt;FuseNavigationModule</title>
<path fill="none" stroke="black" d="M1303,-122.03C1303,-139.06 1303,-162 1303,-162 1303,-162 1816.77,-162 1816.77,-162"/>
<polygon fill="black" stroke="black" points="1816.77,-165.5 1826.77,-162 1816.77,-158.5 1816.77,-165.5"/>
</g>
<!-- FuseVerticalNavigationComponent -->
<g id="node9" class="node">
<title>FuseVerticalNavigationComponent</title>
<polygon fill="#ffffb3" stroke="black" points="1131.56,-122 916.44,-122 916.44,-86 1131.56,-86 1131.56,-122"/>
<text text-anchor="middle" x="1024" y="-99.8" font-family="Times,serif" font-size="14.00">FuseVerticalNavigationComponent</text>
</g>
<!-- FuseVerticalNavigationComponent&#45;&gt;FuseNavigationModule -->
<g id="edge9" class="edge">
<title>FuseVerticalNavigationComponent&#45;&gt;FuseNavigationModule</title>
<path fill="none" stroke="black" d="M1024,-122.22C1024,-140.83 1024,-167 1024,-167 1024,-167 1816.61,-167 1816.61,-167"/>
<polygon fill="black" stroke="black" points="1816.61,-170.5 1826.61,-167 1816.61,-163.5 1816.61,-170.5"/>
</g>
<!-- FuseVerticalNavigationDividerItemComponent -->
<g id="node10" class="node">
<title>FuseVerticalNavigationDividerItemComponent</title>
<polygon fill="#ffffb3" stroke="black" points="898.98,-122 615.02,-122 615.02,-86 898.98,-86 898.98,-122"/>
<text text-anchor="middle" x="757" y="-99.8" font-family="Times,serif" font-size="14.00">FuseVerticalNavigationDividerItemComponent</text>
</g>
<!-- FuseVerticalNavigationDividerItemComponent&#45;&gt;FuseNavigationModule -->
<g id="edge10" class="edge">
<title>FuseVerticalNavigationDividerItemComponent&#45;&gt;FuseNavigationModule</title>
<path fill="none" stroke="black" d="M757,-122.22C757,-142.37 757,-172 757,-172 757,-172 1816.82,-172 1816.82,-172"/>
<polygon fill="black" stroke="black" points="1816.82,-175.5 1826.82,-172 1816.82,-168.5 1816.82,-175.5"/>
</g>
<!-- FuseVerticalNavigationGroupItemComponent -->
<g id="node11" class="node">
<title>FuseVerticalNavigationGroupItemComponent</title>
<polygon fill="#ffffb3" stroke="black" points="597.49,-122 320.51,-122 320.51,-86 597.49,-86 597.49,-122"/>
<text text-anchor="middle" x="459" y="-99.8" font-family="Times,serif" font-size="14.00">FuseVerticalNavigationGroupItemComponent</text>
</g>
<!-- FuseVerticalNavigationGroupItemComponent&#45;&gt;FuseNavigationModule -->
<g id="edge11" class="edge">
<title>FuseVerticalNavigationGroupItemComponent&#45;&gt;FuseNavigationModule</title>
<path fill="none" stroke="black" d="M459,-122.04C459,-143.66 459,-177 459,-177 459,-177 1816.76,-177 1816.76,-177"/>
<polygon fill="black" stroke="black" points="1816.76,-180.5 1826.76,-177 1816.76,-173.5 1816.76,-180.5"/>
</g>
<!-- FuseVerticalNavigationSpacerItemComponent -->
<g id="node12" class="node">
<title>FuseVerticalNavigationSpacerItemComponent</title>
<polygon fill="#ffffb3" stroke="black" points="302.31,-122 23.69,-122 23.69,-86 302.31,-86 302.31,-122"/>
<text text-anchor="middle" x="163" y="-99.8" font-family="Times,serif" font-size="14.00">FuseVerticalNavigationSpacerItemComponent</text>
</g>
<!-- FuseVerticalNavigationSpacerItemComponent&#45;&gt;FuseNavigationModule -->
<g id="edge12" class="edge">
<title>FuseVerticalNavigationSpacerItemComponent&#45;&gt;FuseNavigationModule</title>
<path fill="none" stroke="black" d="M163,-122.09C163,-145.13 163,-182 163,-182 163,-182 1816.88,-182 1816.88,-182"/>
<polygon fill="black" stroke="black" points="1816.88,-185.5 1826.88,-182 1816.88,-178.5 1816.88,-185.5"/>
</g>
<!-- FuseHorizontalNavigationComponent  -->
<g id="node15" class="node">
<title>FuseHorizontalNavigationComponent </title>
<polygon fill="#fb8072" stroke="black" points="2139.85,-252 1906.15,-252 1906.15,-216 2139.85,-216 2139.85,-252"/>
<text text-anchor="middle" x="2023" y="-229.8" font-family="Times,serif" font-size="14.00">FuseHorizontalNavigationComponent </text>
</g>
<!-- FuseNavigationModule&#45;&gt;FuseHorizontalNavigationComponent  -->
<g id="edge14" class="edge">
<title>FuseNavigationModule&#45;&gt;FuseHorizontalNavigationComponent </title>
<path fill="none" stroke="black" stroke-dasharray="5,2" d="M1940.71,-187.11C1940.71,-187.11 1940.71,-205.99 1940.71,-205.99"/>
<polygon fill="black" stroke="black" points="1937.21,-205.99 1940.71,-215.99 1944.21,-205.99 1937.21,-205.99"/>
</g>
<!-- FuseVerticalNavigationComponent  -->
<g id="node16" class="node">
<title>FuseVerticalNavigationComponent </title>
<polygon fill="#fb8072" stroke="black" points="1888.07,-252 1669.93,-252 1669.93,-216 1888.07,-216 1888.07,-252"/>
<text text-anchor="middle" x="1779" y="-229.8" font-family="Times,serif" font-size="14.00">FuseVerticalNavigationComponent </text>
</g>
<!-- FuseNavigationModule&#45;&gt;FuseVerticalNavigationComponent  -->
<g id="edge15" class="edge">
<title>FuseNavigationModule&#45;&gt;FuseVerticalNavigationComponent </title>
<path fill="none" stroke="black" stroke-dasharray="5,2" d="M1857.59,-187.11C1857.59,-187.11 1857.59,-205.99 1857.59,-205.99"/>
<polygon fill="black" stroke="black" points="1854.09,-205.99 1857.59,-215.99 1861.09,-205.99 1854.09,-205.99"/>
</g>
<!-- FuseScrollbarModule -->
<g id="node14" class="node">
<title>FuseScrollbarModule</title>
<polygon fill="#8dd3c7" stroke="black" points="3692.81,-122 3689.81,-126 3668.81,-126 3665.81,-122 3555.19,-122 3555.19,-86 3692.81,-86 3692.81,-122"/>
<text text-anchor="middle" x="3624" y="-99.8" font-family="Times,serif" font-size="14.00">FuseScrollbarModule</text>
</g>
<!-- FuseScrollbarModule&#45;&gt;FuseNavigationModule -->
<g id="edge13" class="edge">
<title>FuseScrollbarModule&#45;&gt;FuseNavigationModule</title>
<path fill="none" stroke="black" d="M3624,-122.09C3624,-145.13 3624,-182 3624,-182 3624,-182 1985.31,-182 1985.31,-182"/>
<polygon fill="black" stroke="black" points="1985.31,-178.5 1975.31,-182 1985.31,-185.5 1985.31,-178.5"/>
</g>
</g>
</svg>
