<?xml version="1.0" encoding="UTF-8" standalone="no"?>
<!DOCTYPE svg PUBLIC "-//W3C//DTD SVG 1.1//EN"
 "http://www.w3.org/Graphics/SVG/1.1/DTD/svg11.dtd">
<!-- Generated by graphviz version 2.47.0 (20210316.0004)
 -->
<!-- Title: dependencies Pages: 1 -->
<svg width="2531pt" height="211pt"
 viewBox="0.00 0.00 2531.00 211.00" xmlns="http://www.w3.org/2000/svg" xmlns:xlink="http://www.w3.org/1999/xlink">
<g id="graph0" class="graph" transform="scale(1 1) rotate(0) translate(4 207)">
<title>dependencies</title>
<polygon fill="white" stroke="transparent" points="-4,4 -4,-207 2527,-207 2527,4 -4,4"/>
<text text-anchor="start" x="1240.51" y="-42.4" font-family="Times-12" font-weight="bold" font-size="14.00">Legend</text>
<polygon fill="#ffffb3" stroke="transparent" points="1027.5,-10 1027.5,-30 1047.5,-30 1047.5,-10 1027.5,-10"/>
<text text-anchor="start" x="1051.13" y="-15.4" font-family="Times-12" font-size="14.00"> &#160;Declarations</text>
<polygon fill="#8dd3c7" stroke="transparent" points="1140.5,-10 1140.5,-30 1160.5,-30 1160.5,-10 1140.5,-10"/>
<text text-anchor="start" x="1164.23" y="-15.4" font-family="Times-12" font-size="14.00"> &#160;Module</text>
<polygon fill="#80b1d3" stroke="transparent" points="1226.5,-10 1226.5,-30 1246.5,-30 1246.5,-10 1226.5,-10"/>
<text text-anchor="start" x="1250.28" y="-15.4" font-family="Times-12" font-size="14.00"> &#160;Bootstrap</text>
<polygon fill="#fdb462" stroke="transparent" points="1323.5,-10 1323.5,-30 1343.5,-30 1343.5,-10 1323.5,-10"/>
<text text-anchor="start" x="1347.17" y="-15.4" font-family="Times-12" font-size="14.00"> &#160;Providers</text>
<polygon fill="#fb8072" stroke="transparent" points="1419.5,-10 1419.5,-30 1439.5,-30 1439.5,-10 1419.5,-10"/>
<text text-anchor="start" x="1443.23" y="-15.4" font-family="Times-12" font-size="14.00"> &#160;Exports</text>
<g id="clust1" class="cluster">
<title>cluster_OtherComponentsModule</title>
<polygon fill="none" stroke="black" stroke-dasharray="1,5" points="8,-70 8,-195 2515,-195 2515,-70 8,-70"/>
</g>
<g id="clust14" class="cluster">
<title>cluster_OtherComponentsModule_imports</title>
<polygon fill="none" stroke="black" points="1769,-78 1769,-130 2507,-130 2507,-78 1769,-78"/>
</g>
<g id="clust2" class="cluster">
<title>cluster_OtherComponentsModule_declarations</title>
<polygon fill="none" stroke="black" points="16,-78 16,-130 1761,-130 1761,-78 16,-78"/>
</g>
<!-- ApexChartsComponent -->
<g id="node1" class="node">
<title>ApexChartsComponent</title>
<polygon fill="#ffffb3" stroke="black" points="1753.2,-122 1604.8,-122 1604.8,-86 1753.2,-86 1753.2,-122"/>
<text text-anchor="middle" x="1679" y="-99.8" font-family="Times,serif" font-size="14.00">ApexChartsComponent</text>
</g>
<!-- OtherComponentsModule -->
<g id="node12" class="node">
<title>OtherComponentsModule</title>
<polygon fill="#8dd3c7" stroke="black" points="1358.2,-187 1355.2,-191 1334.2,-191 1331.2,-187 1195.8,-187 1195.8,-151 1358.2,-151 1358.2,-187"/>
<text text-anchor="middle" x="1277" y="-164.8" font-family="Times,serif" font-size="14.00">OtherComponentsModule</text>
</g>
<!-- ApexChartsComponent&#45;&gt;OtherComponentsModule -->
<g id="edge1" class="edge">
<title>ApexChartsComponent&#45;&gt;OtherComponentsModule</title>
<path fill="none" stroke="black" d="M1679,-122.03C1679,-138.4 1679,-160 1679,-160 1679,-160 1368.35,-160 1368.35,-160"/>
<polygon fill="black" stroke="black" points="1368.35,-156.5 1358.35,-160 1368.35,-163.5 1368.35,-156.5"/>
</g>
<!-- LanguagesComponent -->
<g id="node2" class="node">
<title>LanguagesComponent</title>
<polygon fill="#ffffb3" stroke="black" points="1586.97,-122 1445.03,-122 1445.03,-86 1586.97,-86 1586.97,-122"/>
<text text-anchor="middle" x="1516" y="-99.8" font-family="Times,serif" font-size="14.00">LanguagesComponent</text>
</g>
<!-- LanguagesComponent&#45;&gt;OtherComponentsModule -->
<g id="edge2" class="edge">
<title>LanguagesComponent&#45;&gt;OtherComponentsModule</title>
<path fill="none" stroke="black" d="M1516,-122.19C1516,-137.18 1516,-156 1516,-156 1516,-156 1368.25,-156 1368.25,-156"/>
<polygon fill="black" stroke="black" points="1368.25,-152.5 1358.25,-156 1368.25,-159.5 1368.25,-152.5"/>
</g>
<!-- MessagesComponent -->
<g id="node3" class="node">
<title>MessagesComponent</title>
<polygon fill="#ffffb3" stroke="black" points="1426.75,-122 1291.25,-122 1291.25,-86 1426.75,-86 1426.75,-122"/>
<text text-anchor="middle" x="1359" y="-99.8" font-family="Times,serif" font-size="14.00">MessagesComponent</text>
</g>
<!-- MessagesComponent&#45;&gt;OtherComponentsModule -->
<g id="edge3" class="edge">
<title>MessagesComponent&#45;&gt;OtherComponentsModule</title>
<path fill="none" stroke="black" d="M1324.61,-122.11C1324.61,-122.11 1324.61,-140.99 1324.61,-140.99"/>
<polygon fill="black" stroke="black" points="1321.11,-140.99 1324.61,-150.99 1328.11,-140.99 1321.11,-140.99"/>
</g>
<!-- NotificationsComponent -->
<g id="node4" class="node">
<title>NotificationsComponent</title>
<polygon fill="#ffffb3" stroke="black" points="1273.43,-122 1118.57,-122 1118.57,-86 1273.43,-86 1273.43,-122"/>
<text text-anchor="middle" x="1196" y="-99.8" font-family="Times,serif" font-size="14.00">NotificationsComponent</text>
</g>
<!-- NotificationsComponent&#45;&gt;OtherComponentsModule -->
<g id="edge4" class="edge">
<title>NotificationsComponent&#45;&gt;OtherComponentsModule</title>
<path fill="none" stroke="black" d="M1234.56,-122.11C1234.56,-122.11 1234.56,-140.99 1234.56,-140.99"/>
<polygon fill="black" stroke="black" points="1231.06,-140.99 1234.56,-150.99 1238.06,-140.99 1231.06,-140.99"/>
</g>
<!-- OtherComponentsComponent -->
<g id="node5" class="node">
<title>OtherComponentsComponent</title>
<polygon fill="#ffffb3" stroke="black" points="1100.98,-122 917.02,-122 917.02,-86 1100.98,-86 1100.98,-122"/>
<text text-anchor="middle" x="1009" y="-99.8" font-family="Times,serif" font-size="14.00">OtherComponentsComponent</text>
</g>
<!-- OtherComponentsComponent&#45;&gt;OtherComponentsModule -->
<g id="edge5" class="edge">
<title>OtherComponentsComponent&#45;&gt;OtherComponentsModule</title>
<path fill="none" stroke="black" d="M1009,-122.19C1009,-137.18 1009,-156 1009,-156 1009,-156 1185.86,-156 1185.86,-156"/>
<polygon fill="black" stroke="black" points="1185.86,-159.5 1195.86,-156 1185.86,-152.5 1185.86,-159.5"/>
</g>
<!-- OverviewComponent -->
<g id="node6" class="node">
<title>OverviewComponent</title>
<polygon fill="#ffffb3" stroke="black" points="899.03,-122 762.97,-122 762.97,-86 899.03,-86 899.03,-122"/>
<text text-anchor="middle" x="831" y="-99.8" font-family="Times,serif" font-size="14.00">OverviewComponent</text>
</g>
<!-- OverviewComponent&#45;&gt;OtherComponentsModule -->
<g id="edge6" class="edge">
<title>OverviewComponent&#45;&gt;OtherComponentsModule</title>
<path fill="none" stroke="black" d="M831,-122.03C831,-138.4 831,-160 831,-160 831,-160 1185.72,-160 1185.72,-160"/>
<polygon fill="black" stroke="black" points="1185.72,-163.5 1195.72,-160 1185.72,-156.5 1185.72,-163.5"/>
</g>
<!-- QuickChatComponent -->
<g id="node7" class="node">
<title>QuickChatComponent</title>
<polygon fill="#ffffb3" stroke="black" points="744.99,-122 603.01,-122 603.01,-86 744.99,-86 744.99,-122"/>
<text text-anchor="middle" x="674" y="-99.8" font-family="Times,serif" font-size="14.00">QuickChatComponent</text>
</g>
<!-- QuickChatComponent&#45;&gt;OtherComponentsModule -->
<g id="edge7" class="edge">
<title>QuickChatComponent&#45;&gt;OtherComponentsModule</title>
<path fill="none" stroke="black" d="M674,-122.3C674,-140.27 674,-165 674,-165 674,-165 1185.68,-165 1185.68,-165"/>
<polygon fill="black" stroke="black" points="1185.68,-168.5 1195.68,-165 1185.68,-161.5 1185.68,-168.5"/>
</g>
<!-- QuillEditorComponent -->
<g id="node8" class="node">
<title>QuillEditorComponent</title>
<polygon fill="#ffffb3" stroke="black" points="584.61,-122 439.39,-122 439.39,-86 584.61,-86 584.61,-122"/>
<text text-anchor="middle" x="512" y="-99.8" font-family="Times,serif" font-size="14.00">QuillEditorComponent</text>
</g>
<!-- QuillEditorComponent&#45;&gt;OtherComponentsModule -->
<g id="edge8" class="edge">
<title>QuillEditorComponent&#45;&gt;OtherComponentsModule</title>
<path fill="none" stroke="black" d="M512,-122.11C512,-141.34 512,-169 512,-169 512,-169 1185.86,-169 1185.86,-169"/>
<polygon fill="black" stroke="black" points="1185.86,-172.5 1195.86,-169 1185.86,-165.5 1185.86,-172.5"/>
</g>
<!-- SearchComponent -->
<g id="node9" class="node">
<title>SearchComponent</title>
<polygon fill="#ffffb3" stroke="black" points="421.92,-122 302.08,-122 302.08,-86 421.92,-86 421.92,-122"/>
<text text-anchor="middle" x="362" y="-99.8" font-family="Times,serif" font-size="14.00">SearchComponent</text>
</g>
<!-- SearchComponent&#45;&gt;OtherComponentsModule -->
<g id="edge9" class="edge">
<title>SearchComponent&#45;&gt;OtherComponentsModule</title>
<path fill="none" stroke="black" d="M362,-122.03C362,-142.77 362,-174 362,-174 362,-174 1185.8,-174 1185.8,-174"/>
<polygon fill="black" stroke="black" points="1185.8,-177.5 1195.8,-174 1185.8,-170.5 1185.8,-177.5"/>
</g>
<!-- ShortcutsComponent -->
<g id="node10" class="node">
<title>ShortcutsComponent</title>
<polygon fill="#ffffb3" stroke="black" points="284.22,-122 149.78,-122 149.78,-86 284.22,-86 284.22,-122"/>
<text text-anchor="middle" x="217" y="-99.8" font-family="Times,serif" font-size="14.00">ShortcutsComponent</text>
</g>
<!-- ShortcutsComponent&#45;&gt;OtherComponentsModule -->
<g id="edge10" class="edge">
<title>ShortcutsComponent&#45;&gt;OtherComponentsModule</title>
<path fill="none" stroke="black" d="M217,-122.29C217,-144.21 217,-178 217,-178 217,-178 1185.58,-178 1185.58,-178"/>
<polygon fill="black" stroke="black" points="1185.58,-181.5 1195.58,-178 1185.58,-174.5 1185.58,-181.5"/>
</g>
<!-- UserComponent -->
<g id="node11" class="node">
<title>UserComponent</title>
<polygon fill="#ffffb3" stroke="black" points="131.76,-122 24.24,-122 24.24,-86 131.76,-86 131.76,-122"/>
<text text-anchor="middle" x="78" y="-99.8" font-family="Times,serif" font-size="14.00">UserComponent</text>
</g>
<!-- UserComponent&#45;&gt;OtherComponentsModule -->
<g id="edge11" class="edge">
<title>UserComponent&#45;&gt;OtherComponentsModule</title>
<path fill="none" stroke="black" d="M78,-122.32C78,-145.66 78,-183 78,-183 78,-183 1185.53,-183 1185.53,-183"/>
<polygon fill="black" stroke="black" points="1185.53,-186.5 1195.53,-183 1185.53,-179.5 1185.53,-186.5"/>
</g>
<!-- FuseAlertModule -->
<g id="node13" class="node">
<title>FuseAlertModule</title>
<polygon fill="#8dd3c7" stroke="black" points="2499.25,-122 2496.25,-126 2475.25,-126 2472.25,-122 2384.75,-122 2384.75,-86 2499.25,-86 2499.25,-122"/>
<text text-anchor="middle" x="2442" y="-99.8" font-family="Times,serif" font-size="14.00">FuseAlertModule</text>
</g>
<!-- FuseAlertModule&#45;&gt;OtherComponentsModule -->
<g id="edge12" class="edge">
<title>FuseAlertModule&#45;&gt;OtherComponentsModule</title>
<path fill="none" stroke="black" d="M2442,-122.32C2442,-145.66 2442,-183 2442,-183 2442,-183 1368.46,-183 1368.46,-183"/>
<polygon fill="black" stroke="black" points="1368.46,-179.5 1358.46,-183 1368.46,-186.5 1368.46,-179.5"/>
</g>
<!-- FuseHighlightModule -->
<g id="node14" class="node">
<title>FuseHighlightModule</title>
<polygon fill="#8dd3c7" stroke="black" points="2366.66,-122 2363.66,-126 2342.66,-126 2339.66,-122 2227.34,-122 2227.34,-86 2366.66,-86 2366.66,-122"/>
<text text-anchor="middle" x="2297" y="-99.8" font-family="Times,serif" font-size="14.00">FuseHighlightModule</text>
</g>
<!-- FuseHighlightModule&#45;&gt;OtherComponentsModule -->
<g id="edge13" class="edge">
<title>FuseHighlightModule&#45;&gt;OtherComponentsModule</title>
<path fill="none" stroke="black" d="M2297,-122.29C2297,-144.21 2297,-178 2297,-178 2297,-178 1368.32,-178 1368.32,-178"/>
<polygon fill="black" stroke="black" points="1368.32,-174.5 1358.32,-178 1368.32,-181.5 1368.32,-174.5"/>
</g>
<!-- FuseNavigationModule -->
<g id="node15" class="node">
<title>FuseNavigationModule</title>
<polygon fill="#8dd3c7" stroke="black" points="2209.2,-122 2206.2,-126 2185.2,-126 2182.2,-122 2060.8,-122 2060.8,-86 2209.2,-86 2209.2,-122"/>
<text text-anchor="middle" x="2135" y="-99.8" font-family="Times,serif" font-size="14.00">FuseNavigationModule</text>
</g>
<!-- FuseNavigationModule&#45;&gt;OtherComponentsModule -->
<g id="edge14" class="edge">
<title>FuseNavigationModule&#45;&gt;OtherComponentsModule</title>
<path fill="none" stroke="black" d="M2135,-122.03C2135,-142.77 2135,-174 2135,-174 2135,-174 1368.1,-174 1368.1,-174"/>
<polygon fill="black" stroke="black" points="1368.1,-170.5 1358.1,-174 1368.1,-177.5 1368.1,-170.5"/>
</g>
<!-- FuseScrollResetModule -->
<g id="node16" class="node">
<title>FuseScrollResetModule</title>
<polygon fill="#8dd3c7" stroke="black" points="2043.03,-122 2040.03,-126 2019.03,-126 2016.03,-122 1892.97,-122 1892.97,-86 2043.03,-86 2043.03,-122"/>
<text text-anchor="middle" x="1968" y="-99.8" font-family="Times,serif" font-size="14.00">FuseScrollResetModule</text>
</g>
<!-- FuseScrollResetModule&#45;&gt;OtherComponentsModule -->
<g id="edge15" class="edge">
<title>FuseScrollResetModule&#45;&gt;OtherComponentsModule</title>
<path fill="none" stroke="black" d="M1968,-122.11C1968,-141.34 1968,-169 1968,-169 1968,-169 1368.3,-169 1368.3,-169"/>
<polygon fill="black" stroke="black" points="1368.3,-165.5 1358.3,-169 1368.3,-172.5 1368.3,-165.5"/>
</g>
<!-- SharedModule -->
<g id="node17" class="node">
<title>SharedModule</title>
<polygon fill="#8dd3c7" stroke="black" points="1875.42,-122 1872.42,-126 1851.42,-126 1848.42,-122 1776.58,-122 1776.58,-86 1875.42,-86 1875.42,-122"/>
<text text-anchor="middle" x="1826" y="-99.8" font-family="Times,serif" font-size="14.00">SharedModule</text>
</g>
<!-- SharedModule&#45;&gt;OtherComponentsModule -->
<g id="edge16" class="edge">
<title>SharedModule&#45;&gt;OtherComponentsModule</title>
<path fill="none" stroke="black" d="M1826,-122.3C1826,-140.27 1826,-165 1826,-165 1826,-165 1368.3,-165 1368.3,-165"/>
<polygon fill="black" stroke="black" points="1368.3,-161.5 1358.3,-165 1368.3,-168.5 1368.3,-161.5"/>
</g>
</g>
</svg>
