<?xml version="1.0" encoding="UTF-8" standalone="no"?>
<!DOCTYPE svg PUBLIC "-//W3C//DTD SVG 1.1//EN"
 "http://www.w3.org/Graphics/SVG/1.1/DTD/svg11.dtd">
<!-- Generated by graphviz version 2.47.0 (20210316.0004)
 -->
<!-- Title: dependencies Pages: 1 -->
<svg width="1119pt" height="284pt"
 viewBox="0.00 0.00 1119.00 284.00" xmlns="http://www.w3.org/2000/svg" xmlns:xlink="http://www.w3.org/1999/xlink">
<g id="graph0" class="graph" transform="scale(1 1) rotate(0) translate(4 280)">
<title>dependencies</title>
<polygon fill="white" stroke="transparent" points="-4,4 -4,-280 1115,-280 1115,4 -4,4"/>
<text text-anchor="start" x="534.51" y="-42.4" font-family="Times-12" font-weight="bold" font-size="14.00">Legend</text>
<polygon fill="#ffffb3" stroke="transparent" points="321.5,-10 321.5,-30 341.5,-30 341.5,-10 321.5,-10"/>
<text text-anchor="start" x="345.13" y="-15.4" font-family="Times-12" font-size="14.00"> &#160;Declarations</text>
<polygon fill="#8dd3c7" stroke="transparent" points="434.5,-10 434.5,-30 454.5,-30 454.5,-10 434.5,-10"/>
<text text-anchor="start" x="458.23" y="-15.4" font-family="Times-12" font-size="14.00"> &#160;Module</text>
<polygon fill="#80b1d3" stroke="transparent" points="520.5,-10 520.5,-30 540.5,-30 540.5,-10 520.5,-10"/>
<text text-anchor="start" x="544.28" y="-15.4" font-family="Times-12" font-size="14.00"> &#160;Bootstrap</text>
<polygon fill="#fdb462" stroke="transparent" points="617.5,-10 617.5,-30 637.5,-30 637.5,-10 617.5,-10"/>
<text text-anchor="start" x="641.17" y="-15.4" font-family="Times-12" font-size="14.00"> &#160;Providers</text>
<polygon fill="#fb8072" stroke="transparent" points="713.5,-10 713.5,-30 733.5,-30 733.5,-10 713.5,-10"/>
<text text-anchor="start" x="737.23" y="-15.4" font-family="Times-12" font-size="14.00"> &#160;Exports</text>
<g id="clust1" class="cluster">
<title>cluster_AuthenticationModule</title>
<polygon fill="none" stroke="black" stroke-dasharray="1,5" points="8,-70 8,-268 1103,-268 1103,-70 8,-70"/>
</g>
<g id="clust4" class="cluster">
<title>cluster_AuthenticationModule_exports</title>
<polygon fill="none" stroke="black" points="16,-208 16,-260 1095,-260 1095,-208 16,-208"/>
</g>
<g id="clust3" class="cluster">
<title>cluster_AuthenticationModule_imports</title>
<polygon fill="none" stroke="black" points="28,-78 28,-130 1082,-130 1082,-78 28,-78"/>
</g>
<!-- ConfirmationRequiredModule -->
<g id="node1" class="node">
<title>ConfirmationRequiredModule</title>
<polygon fill="#8dd3c7" stroke="black" points="1074.3,-122 1071.3,-126 1050.3,-126 1047.3,-122 887.7,-122 887.7,-86 1074.3,-86 1074.3,-122"/>
<text text-anchor="middle" x="981" y="-99.8" font-family="Times,serif" font-size="14.00">ConfirmationRequiredModule</text>
</g>
<!-- AuthenticationModule -->
<g id="node8" class="node">
<title>AuthenticationModule</title>
<polygon fill="#8dd3c7" stroke="black" points="562.25,-187 559.25,-191 538.25,-191 535.25,-187 419.75,-187 419.75,-151 562.25,-151 562.25,-187"/>
<text text-anchor="middle" x="491" y="-164.8" font-family="Times,serif" font-size="14.00">AuthenticationModule</text>
</g>
<!-- ConfirmationRequiredModule&#45;&gt;AuthenticationModule -->
<g id="edge1" class="edge">
<title>ConfirmationRequiredModule&#45;&gt;AuthenticationModule</title>
<path fill="none" stroke="black" d="M892.47,-122.27C892.47,-140.56 892.47,-166 892.47,-166 892.47,-166 572.31,-166 572.31,-166"/>
<polygon fill="black" stroke="black" points="572.31,-162.5 562.31,-166 572.31,-169.5 572.31,-162.5"/>
</g>
<!-- ForgotPasswordModule -->
<g id="node2" class="node">
<title>ForgotPasswordModule</title>
<polygon fill="#8dd3c7" stroke="black" points="870.04,-122 867.04,-126 846.04,-126 843.04,-122 719.96,-122 719.96,-86 870.04,-86 870.04,-122"/>
<text text-anchor="middle" x="795" y="-99.8" font-family="Times,serif" font-size="14.00">ForgotPasswordModule</text>
</g>
<!-- ForgotPasswordModule&#45;&gt;AuthenticationModule -->
<g id="edge2" class="edge">
<title>ForgotPasswordModule&#45;&gt;AuthenticationModule</title>
<path fill="none" stroke="black" d="M821.84,-122.01C821.84,-138.05 821.84,-159 821.84,-159 821.84,-159 572.38,-159 572.38,-159"/>
<polygon fill="black" stroke="black" points="572.38,-155.5 562.38,-159 572.38,-162.5 572.38,-155.5"/>
</g>
<!-- ResetPasswordModule -->
<g id="node3" class="node">
<title>ResetPasswordModule</title>
<polygon fill="#8dd3c7" stroke="black" points="702.3,-122 699.3,-126 678.3,-126 675.3,-122 557.7,-122 557.7,-86 702.3,-86 702.3,-122"/>
<text text-anchor="middle" x="630" y="-99.8" font-family="Times,serif" font-size="14.00">ResetPasswordModule</text>
</g>
<!-- ResetPasswordModule&#45;&gt;AuthenticationModule -->
<g id="edge3" class="edge">
<title>ResetPasswordModule&#45;&gt;AuthenticationModule</title>
<path fill="none" stroke="black" d="M557.66,-104C552.13,-104 548.64,-104 548.64,-104 548.64,-104 548.64,-140.89 548.64,-140.89"/>
<polygon fill="black" stroke="black" points="545.14,-140.89 548.64,-150.89 552.14,-140.89 545.14,-140.89"/>
</g>
<!-- SignInModule -->
<g id="node4" class="node">
<title>SignInModule</title>
<polygon fill="#8dd3c7" stroke="black" points="539.38,-122 536.38,-126 515.38,-126 512.38,-122 442.62,-122 442.62,-86 539.38,-86 539.38,-122"/>
<text text-anchor="middle" x="491" y="-99.8" font-family="Times,serif" font-size="14.00">SignInModule</text>
</g>
<!-- SignInModule&#45;&gt;AuthenticationModule -->
<g id="edge4" class="edge">
<title>SignInModule&#45;&gt;AuthenticationModule</title>
<path fill="none" stroke="black" d="M491,-122.11C491,-122.11 491,-140.99 491,-140.99"/>
<polygon fill="black" stroke="black" points="487.5,-140.99 491,-150.99 494.5,-140.99 487.5,-140.99"/>
</g>
<!-- SignOutModule -->
<g id="node5" class="node">
<title>SignOutModule</title>
<polygon fill="#8dd3c7" stroke="black" points="424.22,-122 421.22,-126 400.22,-126 397.22,-122 317.78,-122 317.78,-86 424.22,-86 424.22,-122"/>
<text text-anchor="middle" x="371" y="-99.8" font-family="Times,serif" font-size="14.00">SignOutModule</text>
</g>
<!-- SignOutModule&#45;&gt;AuthenticationModule -->
<g id="edge5" class="edge">
<title>SignOutModule&#45;&gt;AuthenticationModule</title>
<path fill="none" stroke="black" d="M424.14,-104C429.68,-104 433.33,-104 433.33,-104 433.33,-104 433.33,-140.89 433.33,-140.89"/>
<polygon fill="black" stroke="black" points="429.83,-140.89 433.33,-150.89 436.83,-140.89 429.83,-140.89"/>
</g>
<!-- SignUpModule -->
<g id="node6" class="node">
<title>SignUpModule</title>
<polygon fill="#8dd3c7" stroke="black" points="300.33,-122 297.33,-126 276.33,-126 273.33,-122 197.67,-122 197.67,-86 300.33,-86 300.33,-122"/>
<text text-anchor="middle" x="249" y="-99.8" font-family="Times,serif" font-size="14.00">SignUpModule</text>
</g>
<!-- SignUpModule&#45;&gt;AuthenticationModule -->
<g id="edge6" class="edge">
<title>SignUpModule&#45;&gt;AuthenticationModule</title>
<path fill="none" stroke="black" d="M262.55,-122.01C262.55,-138.05 262.55,-159 262.55,-159 262.55,-159 409.66,-159 409.66,-159"/>
<polygon fill="black" stroke="black" points="409.66,-162.5 419.66,-159 409.66,-155.5 409.66,-162.5"/>
</g>
<!-- UnlockSessionModule -->
<g id="node7" class="node">
<title>UnlockSessionModule</title>
<polygon fill="#8dd3c7" stroke="black" points="179.54,-122 176.54,-126 155.54,-126 152.54,-122 36.46,-122 36.46,-86 179.54,-86 179.54,-122"/>
<text text-anchor="middle" x="108" y="-99.8" font-family="Times,serif" font-size="14.00">UnlockSessionModule</text>
</g>
<!-- UnlockSessionModule&#45;&gt;AuthenticationModule -->
<g id="edge7" class="edge">
<title>UnlockSessionModule&#45;&gt;AuthenticationModule</title>
<path fill="none" stroke="black" d="M175.64,-122.27C175.64,-140.56 175.64,-166 175.64,-166 175.64,-166 409.44,-166 409.44,-166"/>
<polygon fill="black" stroke="black" points="409.44,-169.5 419.44,-166 409.44,-162.5 409.44,-169.5"/>
</g>
<!-- ConfirmationRequiredModule  -->
<g id="node9" class="node">
<title>ConfirmationRequiredModule </title>
<polygon fill="#fb8072" stroke="black" points="1086.8,-252 897.2,-252 897.2,-216 1086.8,-216 1086.8,-252"/>
<text text-anchor="middle" x="992" y="-229.8" font-family="Times,serif" font-size="14.00">ConfirmationRequiredModule </text>
</g>
<!-- AuthenticationModule&#45;&gt;ConfirmationRequiredModule  -->
<g id="edge8" class="edge">
<title>AuthenticationModule&#45;&gt;ConfirmationRequiredModule </title>
<path fill="none" stroke="black" stroke-dasharray="5,2" d="M562.39,-173C699.37,-173 985.62,-173 985.62,-173 985.62,-173 985.62,-205.7 985.62,-205.7"/>
<polygon fill="black" stroke="black" points="982.13,-205.7 985.62,-215.7 989.13,-205.7 982.13,-205.7"/>
</g>
<!-- ForgotPasswordModule  -->
<g id="node10" class="node">
<title>ForgotPasswordModule </title>
<polygon fill="#fb8072" stroke="black" points="879.04,-252 724.96,-252 724.96,-216 879.04,-216 879.04,-252"/>
<text text-anchor="middle" x="802" y="-229.8" font-family="Times,serif" font-size="14.00">ForgotPasswordModule </text>
</g>
<!-- AuthenticationModule&#45;&gt;ForgotPasswordModule  -->
<g id="edge9" class="edge">
<title>AuthenticationModule&#45;&gt;ForgotPasswordModule </title>
<path fill="none" stroke="black" stroke-dasharray="5,2" d="M562.26,-180C645.93,-180 773.41,-180 773.41,-180 773.41,-180 773.41,-205.72 773.41,-205.72"/>
<polygon fill="black" stroke="black" points="769.91,-205.72 773.41,-215.72 776.91,-205.72 769.91,-205.72"/>
</g>
<!-- ResetPasswordModule  -->
<g id="node11" class="node">
<title>ResetPasswordModule </title>
<polygon fill="#fb8072" stroke="black" points="706.8,-252 559.2,-252 559.2,-216 706.8,-216 706.8,-252"/>
<text text-anchor="middle" x="633" y="-229.8" font-family="Times,serif" font-size="14.00">ResetPasswordModule </text>
</g>
<!-- AuthenticationModule&#45;&gt;ResetPasswordModule  -->
<g id="edge10" class="edge">
<title>AuthenticationModule&#45;&gt;ResetPasswordModule </title>
<path fill="none" stroke="black" stroke-dasharray="5,2" d="M550.14,-187.11C550.14,-206.34 550.14,-234 550.14,-234 550.14,-234 551.03,-234 551.03,-234"/>
<polygon fill="black" stroke="black" points="549.01,-237.5 559.01,-234 549.01,-230.5 549.01,-237.5"/>
</g>
<!-- SignInModule  -->
<g id="node12" class="node">
<title>SignInModule </title>
<polygon fill="#fb8072" stroke="black" points="541.38,-252 440.62,-252 440.62,-216 541.38,-216 541.38,-252"/>
<text text-anchor="middle" x="491" y="-229.8" font-family="Times,serif" font-size="14.00">SignInModule </text>
</g>
<!-- AuthenticationModule&#45;&gt;SignInModule  -->
<g id="edge11" class="edge">
<title>AuthenticationModule&#45;&gt;SignInModule </title>
<path fill="none" stroke="black" stroke-dasharray="5,2" d="M491,-187.11C491,-187.11 491,-205.99 491,-205.99"/>
<polygon fill="black" stroke="black" points="487.5,-205.99 491,-215.99 494.5,-205.99 487.5,-205.99"/>
</g>
<!-- SignOutModule  -->
<g id="node13" class="node">
<title>SignOutModule </title>
<polygon fill="#fb8072" stroke="black" points="422.72,-252 313.28,-252 313.28,-216 422.72,-216 422.72,-252"/>
<text text-anchor="middle" x="368" y="-229.8" font-family="Times,serif" font-size="14.00">SignOutModule </text>
</g>
<!-- AuthenticationModule&#45;&gt;SignOutModule  -->
<g id="edge12" class="edge">
<title>AuthenticationModule&#45;&gt;SignOutModule </title>
<path fill="none" stroke="black" stroke-dasharray="5,2" d="M431.83,-187.11C431.83,-206.34 431.83,-234 431.83,-234 431.83,-234 430.95,-234 430.95,-234"/>
<polygon fill="black" stroke="black" points="432.96,-230.5 422.96,-234 432.96,-237.5 432.96,-230.5"/>
</g>
<!-- SignUpModule  -->
<g id="node14" class="node">
<title>SignUpModule </title>
<polygon fill="#fb8072" stroke="black" points="294.83,-252 189.17,-252 189.17,-216 294.83,-216 294.83,-252"/>
<text text-anchor="middle" x="242" y="-229.8" font-family="Times,serif" font-size="14.00">SignUpModule </text>
</g>
<!-- AuthenticationModule&#45;&gt;SignUpModule  -->
<g id="edge13" class="edge">
<title>AuthenticationModule&#45;&gt;SignUpModule </title>
<path fill="none" stroke="black" stroke-dasharray="5,2" d="M419.73,-180C342.51,-180 230.2,-180 230.2,-180 230.2,-180 230.2,-205.72 230.2,-205.72"/>
<polygon fill="black" stroke="black" points="226.7,-205.72 230.2,-215.72 233.7,-205.72 226.7,-205.72"/>
</g>
<!-- UnlockSessionModule  -->
<g id="node15" class="node">
<title>UnlockSessionModule </title>
<polygon fill="#fb8072" stroke="black" points="171.54,-252 24.46,-252 24.46,-216 171.54,-216 171.54,-252"/>
<text text-anchor="middle" x="98" y="-229.8" font-family="Times,serif" font-size="14.00">UnlockSessionModule </text>
</g>
<!-- AuthenticationModule&#45;&gt;UnlockSessionModule  -->
<g id="edge14" class="edge">
<title>AuthenticationModule&#45;&gt;UnlockSessionModule </title>
<path fill="none" stroke="black" stroke-dasharray="5,2" d="M419.54,-173C307.69,-173 103.88,-173 103.88,-173 103.88,-173 103.88,-205.7 103.88,-205.7"/>
<polygon fill="black" stroke="black" points="100.38,-205.7 103.88,-215.7 107.38,-205.7 100.38,-205.7"/>
</g>
</g>
</svg>
