<?xml version="1.0" encoding="UTF-8" standalone="no"?>
<!DOCTYPE svg PUBLIC "-//W3C//DTD SVG 1.1//EN"
 "http://www.w3.org/Graphics/SVG/1.1/DTD/svg11.dtd">
<!-- Generated by graphviz version 2.47.0 (20210316.0004)
 -->
<!-- Title: dependencies Pages: 1 -->
<svg width="642pt" height="211pt"
 viewBox="0.00 0.00 642.00 211.00" xmlns="http://www.w3.org/2000/svg" xmlns:xlink="http://www.w3.org/1999/xlink">
<g id="graph0" class="graph" transform="scale(1 1) rotate(0) translate(4 207)">
<title>dependencies</title>
<polygon fill="white" stroke="transparent" points="-4,4 -4,-207 638,-207 638,4 -4,4"/>
<text text-anchor="start" x="296.01" y="-42.4" font-family="Times-12" font-weight="bold" font-size="14.00">Legend</text>
<polygon fill="#ffffb3" stroke="transparent" points="83,-10 83,-30 103,-30 103,-10 83,-10"/>
<text text-anchor="start" x="106.63" y="-15.4" font-family="Times-12" font-size="14.00"> &#160;Declarations</text>
<polygon fill="#8dd3c7" stroke="transparent" points="196,-10 196,-30 216,-30 216,-10 196,-10"/>
<text text-anchor="start" x="219.73" y="-15.4" font-family="Times-12" font-size="14.00"> &#160;Module</text>
<polygon fill="#80b1d3" stroke="transparent" points="282,-10 282,-30 302,-30 302,-10 282,-10"/>
<text text-anchor="start" x="305.78" y="-15.4" font-family="Times-12" font-size="14.00"> &#160;Bootstrap</text>
<polygon fill="#fdb462" stroke="transparent" points="379,-10 379,-30 399,-30 399,-10 379,-10"/>
<text text-anchor="start" x="402.67" y="-15.4" font-family="Times-12" font-size="14.00"> &#160;Providers</text>
<polygon fill="#fb8072" stroke="transparent" points="475,-10 475,-30 495,-30 495,-10 475,-10"/>
<text text-anchor="start" x="498.73" y="-15.4" font-family="Times-12" font-size="14.00"> &#160;Exports</text>
<g id="clust1" class="cluster">
<title>cluster_AuthForgotPasswordModule</title>
<polygon fill="none" stroke="black" stroke-dasharray="1,5" points="8,-70 8,-195 626,-195 626,-70 8,-70"/>
</g>
<g id="clust2" class="cluster">
<title>cluster_AuthForgotPasswordModule_declarations</title>
<polygon fill="none" stroke="black" points="402,-78 402,-130 618,-130 618,-78 402,-78"/>
</g>
<g id="clust4" class="cluster">
<title>cluster_AuthForgotPasswordModule_imports</title>
<polygon fill="none" stroke="black" points="16,-78 16,-130 394,-130 394,-78 16,-78"/>
</g>
<!-- AuthForgotPasswordComponent -->
<g id="node1" class="node">
<title>AuthForgotPasswordComponent</title>
<polygon fill="#ffffb3" stroke="black" points="610.32,-122 409.68,-122 409.68,-86 610.32,-86 610.32,-122"/>
<text text-anchor="middle" x="510" y="-99.8" font-family="Times,serif" font-size="14.00">AuthForgotPasswordComponent</text>
</g>
<!-- AuthForgotPasswordModule -->
<g id="node2" class="node">
<title>AuthForgotPasswordModule</title>
<polygon fill="#8dd3c7" stroke="black" points="352.04,-187 349.04,-191 328.04,-191 325.04,-187 173.96,-187 173.96,-151 352.04,-151 352.04,-187"/>
<text text-anchor="middle" x="263" y="-164.8" font-family="Times,serif" font-size="14.00">AuthForgotPasswordModule</text>
</g>
<!-- AuthForgotPasswordComponent&#45;&gt;AuthForgotPasswordModule -->
<g id="edge1" class="edge">
<title>AuthForgotPasswordComponent&#45;&gt;AuthForgotPasswordModule</title>
<path fill="none" stroke="black" d="M510,-122.11C510,-141.34 510,-169 510,-169 510,-169 362.17,-169 362.17,-169"/>
<polygon fill="black" stroke="black" points="362.17,-165.5 352.17,-169 362.17,-172.5 362.17,-165.5"/>
</g>
<!-- FuseAlertModule -->
<g id="node3" class="node">
<title>FuseAlertModule</title>
<polygon fill="#8dd3c7" stroke="black" points="386.25,-122 383.25,-126 362.25,-126 359.25,-122 271.75,-122 271.75,-86 386.25,-86 386.25,-122"/>
<text text-anchor="middle" x="329" y="-99.8" font-family="Times,serif" font-size="14.00">FuseAlertModule</text>
</g>
<!-- FuseAlertModule&#45;&gt;AuthForgotPasswordModule -->
<g id="edge2" class="edge">
<title>FuseAlertModule&#45;&gt;AuthForgotPasswordModule</title>
<path fill="none" stroke="black" d="M311.94,-122.11C311.94,-122.11 311.94,-140.99 311.94,-140.99"/>
<polygon fill="black" stroke="black" points="308.45,-140.99 311.94,-150.99 315.45,-140.99 308.45,-140.99"/>
</g>
<!-- FuseCardModule -->
<g id="node4" class="node">
<title>FuseCardModule</title>
<polygon fill="#8dd3c7" stroke="black" points="253.7,-122 250.7,-126 229.7,-126 226.7,-122 140.3,-122 140.3,-86 253.7,-86 253.7,-122"/>
<text text-anchor="middle" x="197" y="-99.8" font-family="Times,serif" font-size="14.00">FuseCardModule</text>
</g>
<!-- FuseCardModule&#45;&gt;AuthForgotPasswordModule -->
<g id="edge3" class="edge">
<title>FuseCardModule&#45;&gt;AuthForgotPasswordModule</title>
<path fill="none" stroke="black" d="M213.67,-122.11C213.67,-122.11 213.67,-140.99 213.67,-140.99"/>
<polygon fill="black" stroke="black" points="210.17,-140.99 213.67,-150.99 217.17,-140.99 210.17,-140.99"/>
</g>
<!-- SharedModule -->
<g id="node5" class="node">
<title>SharedModule</title>
<polygon fill="#8dd3c7" stroke="black" points="122.42,-122 119.42,-126 98.42,-126 95.42,-122 23.58,-122 23.58,-86 122.42,-86 122.42,-122"/>
<text text-anchor="middle" x="73" y="-99.8" font-family="Times,serif" font-size="14.00">SharedModule</text>
</g>
<!-- SharedModule&#45;&gt;AuthForgotPasswordModule -->
<g id="edge4" class="edge">
<title>SharedModule&#45;&gt;AuthForgotPasswordModule</title>
<path fill="none" stroke="black" d="M73,-122.11C73,-141.34 73,-169 73,-169 73,-169 163.84,-169 163.84,-169"/>
<polygon fill="black" stroke="black" points="163.84,-172.5 173.84,-169 163.84,-165.5 163.84,-172.5"/>
</g>
</g>
</svg>
