<?xml version="1.0" encoding="UTF-8" standalone="no"?>
<!DOCTYPE svg PUBLIC "-//W3C//DTD SVG 1.1//EN"
 "http://www.w3.org/Graphics/SVG/1.1/DTD/svg11.dtd">
<!-- Generated by graphviz version 2.47.0 (20210316.0004)
 -->
<!-- Title: dependencies Pages: 1 -->
<svg width="504pt" height="211pt"
 viewBox="0.00 0.00 504.00 211.00" xmlns="http://www.w3.org/2000/svg" xmlns:xlink="http://www.w3.org/1999/xlink">
<g id="graph0" class="graph" transform="scale(1 1) rotate(0) translate(4 207)">
<title>dependencies</title>
<polygon fill="white" stroke="transparent" points="-4,4 -4,-207 500,-207 500,4 -4,4"/>
<text text-anchor="start" x="227.01" y="-42.4" font-family="Times-12" font-weight="bold" font-size="14.00">Legend</text>
<polygon fill="#ffffb3" stroke="transparent" points="14,-10 14,-30 34,-30 34,-10 14,-10"/>
<text text-anchor="start" x="37.63" y="-15.4" font-family="Times-12" font-size="14.00"> &#160;Declarations</text>
<polygon fill="#8dd3c7" stroke="transparent" points="127,-10 127,-30 147,-30 147,-10 127,-10"/>
<text text-anchor="start" x="150.73" y="-15.4" font-family="Times-12" font-size="14.00"> &#160;Module</text>
<polygon fill="#80b1d3" stroke="transparent" points="213,-10 213,-30 233,-30 233,-10 213,-10"/>
<text text-anchor="start" x="236.78" y="-15.4" font-family="Times-12" font-size="14.00"> &#160;Bootstrap</text>
<polygon fill="#fdb462" stroke="transparent" points="310,-10 310,-30 330,-30 330,-10 310,-10"/>
<text text-anchor="start" x="333.67" y="-15.4" font-family="Times-12" font-size="14.00"> &#160;Providers</text>
<polygon fill="#fb8072" stroke="transparent" points="406,-10 406,-30 426,-30 426,-10 406,-10"/>
<text text-anchor="start" x="429.73" y="-15.4" font-family="Times-12" font-size="14.00"> &#160;Exports</text>
<g id="clust1" class="cluster">
<title>cluster_TypographyModule</title>
<polygon fill="none" stroke="black" stroke-dasharray="1,5" points="17,-70 17,-195 479,-195 479,-70 17,-70"/>
</g>
<g id="clust2" class="cluster">
<title>cluster_TypographyModule_declarations</title>
<polygon fill="none" stroke="black" points="305,-78 305,-130 471,-130 471,-78 305,-78"/>
</g>
<g id="clust4" class="cluster">
<title>cluster_TypographyModule_imports</title>
<polygon fill="none" stroke="black" points="25,-78 25,-130 297,-130 297,-78 25,-78"/>
</g>
<!-- TypographyComponent -->
<g id="node1" class="node">
<title>TypographyComponent</title>
<polygon fill="#ffffb3" stroke="black" points="462.76,-122 313.24,-122 313.24,-86 462.76,-86 462.76,-122"/>
<text text-anchor="middle" x="388" y="-99.8" font-family="Times,serif" font-size="14.00">TypographyComponent</text>
</g>
<!-- TypographyModule -->
<g id="node2" class="node">
<title>TypographyModule</title>
<polygon fill="#8dd3c7" stroke="black" points="282.98,-187 279.98,-191 258.98,-191 255.98,-187 155.02,-187 155.02,-151 282.98,-151 282.98,-187"/>
<text text-anchor="middle" x="219" y="-164.8" font-family="Times,serif" font-size="14.00">TypographyModule</text>
</g>
<!-- TypographyComponent&#45;&gt;TypographyModule -->
<g id="edge1" class="edge">
<title>TypographyComponent&#45;&gt;TypographyModule</title>
<path fill="none" stroke="black" d="M388,-122.11C388,-141.34 388,-169 388,-169 388,-169 293.37,-169 293.37,-169"/>
<polygon fill="black" stroke="black" points="293.37,-165.5 283.37,-169 293.37,-172.5 293.37,-165.5"/>
</g>
<!-- FuseHighlightModule -->
<g id="node3" class="node">
<title>FuseHighlightModule</title>
<polygon fill="#8dd3c7" stroke="black" points="288.66,-122 285.66,-126 264.66,-126 261.66,-122 149.34,-122 149.34,-86 288.66,-86 288.66,-122"/>
<text text-anchor="middle" x="219" y="-99.8" font-family="Times,serif" font-size="14.00">FuseHighlightModule</text>
</g>
<!-- FuseHighlightModule&#45;&gt;TypographyModule -->
<g id="edge2" class="edge">
<title>FuseHighlightModule&#45;&gt;TypographyModule</title>
<path fill="none" stroke="black" d="M219,-122.11C219,-122.11 219,-140.99 219,-140.99"/>
<polygon fill="black" stroke="black" points="215.5,-140.99 219,-150.99 222.5,-140.99 215.5,-140.99"/>
</g>
<!-- SharedModule -->
<g id="node4" class="node">
<title>SharedModule</title>
<polygon fill="#8dd3c7" stroke="black" points="131.42,-122 128.42,-126 107.42,-126 104.42,-122 32.58,-122 32.58,-86 131.42,-86 131.42,-122"/>
<text text-anchor="middle" x="82" y="-99.8" font-family="Times,serif" font-size="14.00">SharedModule</text>
</g>
<!-- SharedModule&#45;&gt;TypographyModule -->
<g id="edge3" class="edge">
<title>SharedModule&#45;&gt;TypographyModule</title>
<path fill="none" stroke="black" d="M82,-122.11C82,-141.34 82,-169 82,-169 82,-169 144.91,-169 144.91,-169"/>
<polygon fill="black" stroke="black" points="144.91,-172.5 154.91,-169 144.91,-165.5 144.91,-172.5"/>
</g>
</g>
</svg>
