<?xml version="1.0" encoding="UTF-8" standalone="no"?>
<!DOCTYPE svg PUBLIC "-//W3C//DTD SVG 1.1//EN"
 "http://www.w3.org/Graphics/SVG/1.1/DTD/svg11.dtd">
<!-- Generated by graphviz version 2.47.0 (20210316.0004)
 -->
<!-- Title: dependencies Pages: 1 -->
<svg width="504pt" height="211pt"
 viewBox="0.00 0.00 504.00 211.00" xmlns="http://www.w3.org/2000/svg" xmlns:xlink="http://www.w3.org/1999/xlink">
<g id="graph0" class="graph" transform="scale(1 1) rotate(0) translate(4 207)">
<title>dependencies</title>
<polygon fill="white" stroke="transparent" points="-4,4 -4,-207 500,-207 500,4 -4,4"/>
<text text-anchor="start" x="227.01" y="-42.4" font-family="Times-12" font-weight="bold" font-size="14.00">Legend</text>
<polygon fill="#ffffb3" stroke="transparent" points="14,-10 14,-30 34,-30 34,-10 14,-10"/>
<text text-anchor="start" x="37.63" y="-15.4" font-family="Times-12" font-size="14.00"> &#160;Declarations</text>
<polygon fill="#8dd3c7" stroke="transparent" points="127,-10 127,-30 147,-30 147,-10 127,-10"/>
<text text-anchor="start" x="150.73" y="-15.4" font-family="Times-12" font-size="14.00"> &#160;Module</text>
<polygon fill="#80b1d3" stroke="transparent" points="213,-10 213,-30 233,-30 233,-10 213,-10"/>
<text text-anchor="start" x="236.78" y="-15.4" font-family="Times-12" font-size="14.00"> &#160;Bootstrap</text>
<polygon fill="#fdb462" stroke="transparent" points="310,-10 310,-30 330,-30 330,-10 310,-10"/>
<text text-anchor="start" x="333.67" y="-15.4" font-family="Times-12" font-size="14.00"> &#160;Providers</text>
<polygon fill="#fb8072" stroke="transparent" points="406,-10 406,-30 426,-30 426,-10 406,-10"/>
<text text-anchor="start" x="429.73" y="-15.4" font-family="Times-12" font-size="14.00"> &#160;Exports</text>
<g id="clust1" class="cluster">
<title>cluster_ChangelogModule</title>
<polygon fill="none" stroke="black" stroke-dasharray="1,5" points="100,-70 100,-195 396,-195 396,-70 100,-70"/>
</g>
<g id="clust2" class="cluster">
<title>cluster_ChangelogModule_declarations</title>
<polygon fill="none" stroke="black" points="230,-78 230,-130 388,-130 388,-78 230,-78"/>
</g>
<g id="clust4" class="cluster">
<title>cluster_ChangelogModule_imports</title>
<polygon fill="none" stroke="black" points="108,-78 108,-130 222,-130 222,-78 108,-78"/>
</g>
<!-- ChangelogComponent -->
<g id="node1" class="node">
<title>ChangelogComponent</title>
<polygon fill="#ffffb3" stroke="black" points="379.99,-122 238.01,-122 238.01,-86 379.99,-86 379.99,-122"/>
<text text-anchor="middle" x="309" y="-99.8" font-family="Times,serif" font-size="14.00">ChangelogComponent</text>
</g>
<!-- ChangelogModule -->
<g id="node2" class="node">
<title>ChangelogModule</title>
<polygon fill="#8dd3c7" stroke="black" points="298.21,-187 295.21,-191 274.21,-191 271.21,-187 177.79,-187 177.79,-151 298.21,-151 298.21,-187"/>
<text text-anchor="middle" x="238" y="-164.8" font-family="Times,serif" font-size="14.00">ChangelogModule</text>
</g>
<!-- ChangelogComponent&#45;&gt;ChangelogModule -->
<g id="edge1" class="edge">
<title>ChangelogComponent&#45;&gt;ChangelogModule</title>
<path fill="none" stroke="black" d="M268.05,-122.11C268.05,-122.11 268.05,-140.99 268.05,-140.99"/>
<polygon fill="black" stroke="black" points="264.55,-140.99 268.05,-150.99 271.55,-140.99 264.55,-140.99"/>
</g>
<!-- SharedModule -->
<g id="node3" class="node">
<title>SharedModule</title>
<polygon fill="#8dd3c7" stroke="black" points="214.42,-122 211.42,-126 190.42,-126 187.42,-122 115.58,-122 115.58,-86 214.42,-86 214.42,-122"/>
<text text-anchor="middle" x="165" y="-99.8" font-family="Times,serif" font-size="14.00">SharedModule</text>
</g>
<!-- SharedModule&#45;&gt;ChangelogModule -->
<g id="edge2" class="edge">
<title>SharedModule&#45;&gt;ChangelogModule</title>
<path fill="none" stroke="black" d="M196.05,-122.11C196.05,-122.11 196.05,-140.99 196.05,-140.99"/>
<polygon fill="black" stroke="black" points="192.55,-140.99 196.05,-150.99 199.55,-140.99 192.55,-140.99"/>
</g>
</g>
</svg>
