<?xml version="1.0" encoding="UTF-8" standalone="no"?>
<!DOCTYPE svg PUBLIC "-//W3C//DTD SVG 1.1//EN"
 "http://www.w3.org/Graphics/SVG/1.1/DTD/svg11.dtd">
<!-- Generated by graphviz version 2.47.0 (20210316.0004)
 -->
<!-- Title: dependencies Pages: 1 -->
<svg width="504pt" height="284pt"
 viewBox="0.00 0.00 504.00 284.00" xmlns="http://www.w3.org/2000/svg" xmlns:xlink="http://www.w3.org/1999/xlink">
<g id="graph0" class="graph" transform="scale(1 1) rotate(0) translate(4 280)">
<title>dependencies</title>
<polygon fill="white" stroke="transparent" points="-4,4 -4,-280 500,-280 500,4 -4,4"/>
<text text-anchor="start" x="227.01" y="-42.4" font-family="Times-12" font-weight="bold" font-size="14.00">Legend</text>
<polygon fill="#ffffb3" stroke="transparent" points="14,-10 14,-30 34,-30 34,-10 14,-10"/>
<text text-anchor="start" x="37.63" y="-15.4" font-family="Times-12" font-size="14.00"> &#160;Declarations</text>
<polygon fill="#8dd3c7" stroke="transparent" points="127,-10 127,-30 147,-30 147,-10 127,-10"/>
<text text-anchor="start" x="150.73" y="-15.4" font-family="Times-12" font-size="14.00"> &#160;Module</text>
<polygon fill="#80b1d3" stroke="transparent" points="213,-10 213,-30 233,-30 233,-10 213,-10"/>
<text text-anchor="start" x="236.78" y="-15.4" font-family="Times-12" font-size="14.00"> &#160;Bootstrap</text>
<polygon fill="#fdb462" stroke="transparent" points="310,-10 310,-30 330,-30 330,-10 310,-10"/>
<text text-anchor="start" x="333.67" y="-15.4" font-family="Times-12" font-size="14.00"> &#160;Providers</text>
<polygon fill="#fb8072" stroke="transparent" points="406,-10 406,-30 426,-30 426,-10 406,-10"/>
<text text-anchor="start" x="429.73" y="-15.4" font-family="Times-12" font-size="14.00"> &#160;Exports</text>
<g id="clust1" class="cluster">
<title>cluster_NotificationsModule</title>
<polygon fill="none" stroke="black" stroke-dasharray="1,5" points="94,-70 94,-268 402,-268 402,-70 94,-70"/>
</g>
<g id="clust4" class="cluster">
<title>cluster_NotificationsModule_imports</title>
<polygon fill="none" stroke="black" points="280,-78 280,-130 394,-130 394,-78 280,-78"/>
</g>
<g id="clust2" class="cluster">
<title>cluster_NotificationsModule_declarations</title>
<polygon fill="none" stroke="black" points="102,-78 102,-130 272,-130 272,-78 102,-78"/>
</g>
<g id="clust5" class="cluster">
<title>cluster_NotificationsModule_exports</title>
<polygon fill="none" stroke="black" points="161,-208 161,-260 335,-260 335,-208 161,-208"/>
</g>
<!-- NotificationsComponent -->
<g id="node1" class="node">
<title>NotificationsComponent</title>
<polygon fill="#ffffb3" stroke="black" points="264.43,-122 109.57,-122 109.57,-86 264.43,-86 264.43,-122"/>
<text text-anchor="middle" x="187" y="-99.8" font-family="Times,serif" font-size="14.00">NotificationsComponent</text>
</g>
<!-- NotificationsModule -->
<g id="node2" class="node">
<title>NotificationsModule</title>
<polygon fill="#8dd3c7" stroke="black" points="314.14,-187 311.14,-191 290.14,-191 287.14,-187 181.86,-187 181.86,-151 314.14,-151 314.14,-187"/>
<text text-anchor="middle" x="248" y="-164.8" font-family="Times,serif" font-size="14.00">NotificationsModule</text>
</g>
<!-- NotificationsComponent&#45;&gt;NotificationsModule -->
<g id="edge1" class="edge">
<title>NotificationsComponent&#45;&gt;NotificationsModule</title>
<path fill="none" stroke="black" d="M222.95,-122.11C222.95,-122.11 222.95,-140.99 222.95,-140.99"/>
<polygon fill="black" stroke="black" points="219.45,-140.99 222.95,-150.99 226.45,-140.99 219.45,-140.99"/>
</g>
<!-- NotificationsComponent  -->
<g id="node4" class="node">
<title>NotificationsComponent </title>
<polygon fill="#fb8072" stroke="black" points="326.93,-252 169.07,-252 169.07,-216 326.93,-216 326.93,-252"/>
<text text-anchor="middle" x="248" y="-229.8" font-family="Times,serif" font-size="14.00">NotificationsComponent </text>
</g>
<!-- NotificationsModule&#45;&gt;NotificationsComponent  -->
<g id="edge3" class="edge">
<title>NotificationsModule&#45;&gt;NotificationsComponent </title>
<path fill="none" stroke="black" stroke-dasharray="5,2" d="M248,-187.11C248,-187.11 248,-205.99 248,-205.99"/>
<polygon fill="black" stroke="black" points="244.5,-205.99 248,-215.99 251.5,-205.99 244.5,-205.99"/>
</g>
<!-- SharedModule -->
<g id="node3" class="node">
<title>SharedModule</title>
<polygon fill="#8dd3c7" stroke="black" points="386.42,-122 383.42,-126 362.42,-126 359.42,-122 287.58,-122 287.58,-86 386.42,-86 386.42,-122"/>
<text text-anchor="middle" x="337" y="-99.8" font-family="Times,serif" font-size="14.00">SharedModule</text>
</g>
<!-- SharedModule&#45;&gt;NotificationsModule -->
<g id="edge2" class="edge">
<title>SharedModule&#45;&gt;NotificationsModule</title>
<path fill="none" stroke="black" d="M301.06,-122.11C301.06,-122.11 301.06,-140.99 301.06,-140.99"/>
<polygon fill="black" stroke="black" points="297.56,-140.99 301.06,-150.99 304.56,-140.99 297.56,-140.99"/>
</g>
</g>
</svg>
