<?xml version="1.0" encoding="UTF-8" standalone="no"?>
<!DOCTYPE svg PUBLIC "-//W3C//DTD SVG 1.1//EN"
 "http://www.w3.org/Graphics/SVG/1.1/DTD/svg11.dtd">
<!-- Generated by graphviz version 2.47.0 (20210316.0004)
 -->
<!-- Title: dependencies Pages: 1 -->
<svg width="1616pt" height="284pt"
 viewBox="0.00 0.00 1616.00 284.00" xmlns="http://www.w3.org/2000/svg" xmlns:xlink="http://www.w3.org/1999/xlink">
<g id="graph0" class="graph" transform="scale(1 1) rotate(0) translate(4 280)">
<title>dependencies</title>
<polygon fill="white" stroke="transparent" points="-4,4 -4,-280 1612,-280 1612,4 -4,4"/>
<text text-anchor="start" x="783.01" y="-42.4" font-family="Times-12" font-weight="bold" font-size="14.00">Legend</text>
<polygon fill="#ffffb3" stroke="transparent" points="570,-10 570,-30 590,-30 590,-10 570,-10"/>
<text text-anchor="start" x="593.63" y="-15.4" font-family="Times-12" font-size="14.00"> &#160;Declarations</text>
<polygon fill="#8dd3c7" stroke="transparent" points="683,-10 683,-30 703,-30 703,-10 683,-10"/>
<text text-anchor="start" x="706.73" y="-15.4" font-family="Times-12" font-size="14.00"> &#160;Module</text>
<polygon fill="#80b1d3" stroke="transparent" points="769,-10 769,-30 789,-30 789,-10 769,-10"/>
<text text-anchor="start" x="792.78" y="-15.4" font-family="Times-12" font-size="14.00"> &#160;Bootstrap</text>
<polygon fill="#fdb462" stroke="transparent" points="866,-10 866,-30 886,-30 886,-10 866,-10"/>
<text text-anchor="start" x="889.67" y="-15.4" font-family="Times-12" font-size="14.00"> &#160;Providers</text>
<polygon fill="#fb8072" stroke="transparent" points="962,-10 962,-30 982,-30 982,-10 962,-10"/>
<text text-anchor="start" x="985.73" y="-15.4" font-family="Times-12" font-size="14.00"> &#160;Exports</text>
<g id="clust1" class="cluster">
<title>cluster_MaterialLayoutModule</title>
<polygon fill="none" stroke="black" stroke-dasharray="1,5" points="8,-70 8,-268 1600,-268 1600,-70 8,-70"/>
</g>
<g id="clust5" class="cluster">
<title>cluster_MaterialLayoutModule_exports</title>
<polygon fill="none" stroke="black" points="654,-208 654,-260 842,-260 842,-208 654,-208"/>
</g>
<g id="clust4" class="cluster">
<title>cluster_MaterialLayoutModule_imports</title>
<polygon fill="none" stroke="black" points="208,-78 208,-130 1592,-130 1592,-78 208,-78"/>
</g>
<g id="clust2" class="cluster">
<title>cluster_MaterialLayoutModule_declarations</title>
<polygon fill="none" stroke="black" points="16,-78 16,-130 200,-130 200,-78 16,-78"/>
</g>
<!-- MaterialLayoutComponent -->
<g id="node1" class="node">
<title>MaterialLayoutComponent</title>
<polygon fill="#ffffb3" stroke="black" points="192.41,-122 23.59,-122 23.59,-86 192.41,-86 192.41,-122"/>
<text text-anchor="middle" x="108" y="-99.8" font-family="Times,serif" font-size="14.00">MaterialLayoutComponent</text>
</g>
<!-- MaterialLayoutModule -->
<g id="node2" class="node">
<title>MaterialLayoutModule</title>
<polygon fill="#8dd3c7" stroke="black" points="821.13,-187 818.13,-191 797.13,-191 794.13,-187 674.87,-187 674.87,-151 821.13,-151 821.13,-187"/>
<text text-anchor="middle" x="748" y="-164.8" font-family="Times,serif" font-size="14.00">MaterialLayoutModule</text>
</g>
<!-- MaterialLayoutComponent&#45;&gt;MaterialLayoutModule -->
<g id="edge1" class="edge">
<title>MaterialLayoutComponent&#45;&gt;MaterialLayoutModule</title>
<path fill="none" stroke="black" d="M108,-122.25C108,-145.02 108,-181 108,-181 108,-181 664.58,-181 664.58,-181"/>
<polygon fill="black" stroke="black" points="664.58,-184.5 674.58,-181 664.58,-177.5 664.58,-184.5"/>
</g>
<!-- MaterialLayoutComponent  -->
<g id="node13" class="node">
<title>MaterialLayoutComponent </title>
<polygon fill="#fb8072" stroke="black" points="833.91,-252 662.09,-252 662.09,-216 833.91,-216 833.91,-252"/>
<text text-anchor="middle" x="748" y="-229.8" font-family="Times,serif" font-size="14.00">MaterialLayoutComponent </text>
</g>
<!-- MaterialLayoutModule&#45;&gt;MaterialLayoutComponent  -->
<g id="edge12" class="edge">
<title>MaterialLayoutModule&#45;&gt;MaterialLayoutComponent </title>
<path fill="none" stroke="black" stroke-dasharray="5,2" d="M748,-187.11C748,-187.11 748,-205.99 748,-205.99"/>
<polygon fill="black" stroke="black" points="744.5,-205.99 748,-215.99 751.5,-205.99 744.5,-205.99"/>
</g>
<!-- FuseFullscreenModule -->
<g id="node3" class="node">
<title>FuseFullscreenModule</title>
<polygon fill="#8dd3c7" stroke="black" points="1584.3,-122 1581.3,-126 1560.3,-126 1557.3,-122 1439.7,-122 1439.7,-86 1584.3,-86 1584.3,-122"/>
<text text-anchor="middle" x="1512" y="-99.8" font-family="Times,serif" font-size="14.00">FuseFullscreenModule</text>
</g>
<!-- FuseFullscreenModule&#45;&gt;MaterialLayoutModule -->
<g id="edge2" class="edge">
<title>FuseFullscreenModule&#45;&gt;MaterialLayoutModule</title>
<path fill="none" stroke="black" d="M1512,-122.25C1512,-145.02 1512,-181 1512,-181 1512,-181 831.26,-181 831.26,-181"/>
<polygon fill="black" stroke="black" points="831.26,-177.5 821.26,-181 831.26,-184.5 831.26,-177.5"/>
</g>
<!-- FuseLoadingBarModule -->
<g id="node4" class="node">
<title>FuseLoadingBarModule</title>
<polygon fill="#8dd3c7" stroke="black" points="1421.36,-122 1418.36,-126 1397.36,-126 1394.36,-122 1268.64,-122 1268.64,-86 1421.36,-86 1421.36,-122"/>
<text text-anchor="middle" x="1345" y="-99.8" font-family="Times,serif" font-size="14.00">FuseLoadingBarModule</text>
</g>
<!-- FuseLoadingBarModule&#45;&gt;MaterialLayoutModule -->
<g id="edge3" class="edge">
<title>FuseLoadingBarModule&#45;&gt;MaterialLayoutModule</title>
<path fill="none" stroke="black" d="M1345,-122.28C1345,-143.32 1345,-175 1345,-175 1345,-175 831.2,-175 831.2,-175"/>
<polygon fill="black" stroke="black" points="831.2,-171.5 821.2,-175 831.2,-178.5 831.2,-171.5"/>
</g>
<!-- FuseNavigationModule -->
<g id="node5" class="node">
<title>FuseNavigationModule</title>
<polygon fill="#8dd3c7" stroke="black" points="1250.2,-122 1247.2,-126 1226.2,-126 1223.2,-122 1101.8,-122 1101.8,-86 1250.2,-86 1250.2,-122"/>
<text text-anchor="middle" x="1176" y="-99.8" font-family="Times,serif" font-size="14.00">FuseNavigationModule</text>
</g>
<!-- FuseNavigationModule&#45;&gt;MaterialLayoutModule -->
<g id="edge4" class="edge">
<title>FuseNavigationModule&#45;&gt;MaterialLayoutModule</title>
<path fill="none" stroke="black" d="M1176,-122.11C1176,-141.34 1176,-169 1176,-169 1176,-169 831.58,-169 831.58,-169"/>
<polygon fill="black" stroke="black" points="831.58,-165.5 821.58,-169 831.58,-172.5 831.58,-165.5"/>
</g>
<!-- LanguagesModule -->
<g id="node6" class="node">
<title>LanguagesModule</title>
<polygon fill="#8dd3c7" stroke="black" points="1084.19,-122 1081.19,-126 1060.19,-126 1057.19,-122 963.81,-122 963.81,-86 1084.19,-86 1084.19,-122"/>
<text text-anchor="middle" x="1024" y="-99.8" font-family="Times,serif" font-size="14.00">LanguagesModule</text>
</g>
<!-- LanguagesModule&#45;&gt;MaterialLayoutModule -->
<g id="edge5" class="edge">
<title>LanguagesModule&#45;&gt;MaterialLayoutModule</title>
<path fill="none" stroke="black" d="M1024,-122.02C1024,-139.37 1024,-163 1024,-163 1024,-163 831.24,-163 831.24,-163"/>
<polygon fill="black" stroke="black" points="831.24,-159.5 821.24,-163 831.24,-166.5 831.24,-159.5"/>
</g>
<!-- MessagesModule -->
<g id="node7" class="node">
<title>MessagesModule</title>
<polygon fill="#8dd3c7" stroke="black" points="945.97,-122 942.97,-126 921.97,-126 918.97,-122 832.03,-122 832.03,-86 945.97,-86 945.97,-122"/>
<text text-anchor="middle" x="889" y="-99.8" font-family="Times,serif" font-size="14.00">MessagesModule</text>
</g>
<!-- MessagesModule&#45;&gt;MaterialLayoutModule -->
<g id="edge6" class="edge">
<title>MessagesModule&#45;&gt;MaterialLayoutModule</title>
<path fill="none" stroke="black" d="M889.97,-122.24C889.97,-137.57 889.97,-157 889.97,-157 889.97,-157 831.48,-157 831.48,-157"/>
<polygon fill="black" stroke="black" points="831.48,-153.5 821.48,-157 831.48,-160.5 831.48,-153.5"/>
</g>
<!-- NotificationsModule -->
<g id="node8" class="node">
<title>NotificationsModule</title>
<polygon fill="#8dd3c7" stroke="black" points="814.14,-122 811.14,-126 790.14,-126 787.14,-122 681.86,-122 681.86,-86 814.14,-86 814.14,-122"/>
<text text-anchor="middle" x="748" y="-99.8" font-family="Times,serif" font-size="14.00">NotificationsModule</text>
</g>
<!-- NotificationsModule&#45;&gt;MaterialLayoutModule -->
<g id="edge7" class="edge">
<title>NotificationsModule&#45;&gt;MaterialLayoutModule</title>
<path fill="none" stroke="black" d="M748,-122.11C748,-122.11 748,-140.99 748,-140.99"/>
<polygon fill="black" stroke="black" points="744.5,-140.99 748,-150.99 751.5,-140.99 744.5,-140.99"/>
</g>
<!-- SearchModule -->
<g id="node9" class="node">
<title>SearchModule</title>
<polygon fill="#8dd3c7" stroke="black" points="663.64,-122 660.64,-126 639.64,-126 636.64,-122 566.36,-122 566.36,-86 663.64,-86 663.64,-122"/>
<text text-anchor="middle" x="615" y="-99.8" font-family="Times,serif" font-size="14.00">SearchModule</text>
</g>
<!-- SearchModule&#45;&gt;MaterialLayoutModule -->
<g id="edge8" class="edge">
<title>SearchModule&#45;&gt;MaterialLayoutModule</title>
<path fill="none" stroke="black" d="M614.11,-122.24C614.11,-137.57 614.11,-157 614.11,-157 614.11,-157 664.79,-157 664.79,-157"/>
<polygon fill="black" stroke="black" points="664.79,-160.5 674.79,-157 664.79,-153.5 664.79,-160.5"/>
</g>
<!-- SharedModule -->
<g id="node10" class="node">
<title>SharedModule</title>
<polygon fill="#8dd3c7" stroke="black" points="548.42,-122 545.42,-126 524.42,-126 521.42,-122 449.58,-122 449.58,-86 548.42,-86 548.42,-122"/>
<text text-anchor="middle" x="499" y="-99.8" font-family="Times,serif" font-size="14.00">SharedModule</text>
</g>
<!-- SharedModule&#45;&gt;MaterialLayoutModule -->
<g id="edge9" class="edge">
<title>SharedModule&#45;&gt;MaterialLayoutModule</title>
<path fill="none" stroke="black" d="M499,-122.02C499,-139.37 499,-163 499,-163 499,-163 664.64,-163 664.64,-163"/>
<polygon fill="black" stroke="black" points="664.64,-166.5 674.64,-163 664.64,-159.5 664.64,-166.5"/>
</g>
<!-- ShortcutsModule -->
<g id="node11" class="node">
<title>ShortcutsModule</title>
<polygon fill="#8dd3c7" stroke="black" points="432.43,-122 429.43,-126 408.43,-126 405.43,-122 319.57,-122 319.57,-86 432.43,-86 432.43,-122"/>
<text text-anchor="middle" x="376" y="-99.8" font-family="Times,serif" font-size="14.00">ShortcutsModule</text>
</g>
<!-- ShortcutsModule&#45;&gt;MaterialLayoutModule -->
<g id="edge10" class="edge">
<title>ShortcutsModule&#45;&gt;MaterialLayoutModule</title>
<path fill="none" stroke="black" d="M376,-122.11C376,-141.34 376,-169 376,-169 376,-169 664.5,-169 664.5,-169"/>
<polygon fill="black" stroke="black" points="664.5,-172.5 674.5,-169 664.5,-165.5 664.5,-172.5"/>
</g>
<!-- UserModule -->
<g id="node12" class="node">
<title>UserModule</title>
<polygon fill="#8dd3c7" stroke="black" points="301.98,-122 298.98,-126 277.98,-126 274.98,-122 216.02,-122 216.02,-86 301.98,-86 301.98,-122"/>
<text text-anchor="middle" x="259" y="-99.8" font-family="Times,serif" font-size="14.00">UserModule</text>
</g>
<!-- UserModule&#45;&gt;MaterialLayoutModule -->
<g id="edge11" class="edge">
<title>UserModule&#45;&gt;MaterialLayoutModule</title>
<path fill="none" stroke="black" d="M259,-122.28C259,-143.32 259,-175 259,-175 259,-175 664.79,-175 664.79,-175"/>
<polygon fill="black" stroke="black" points="664.79,-178.5 674.79,-175 664.79,-171.5 664.79,-178.5"/>
</g>
</g>
</svg>
