<?xml version="1.0" encoding="UTF-8" standalone="no"?>
<!DOCTYPE svg PUBLIC "-//W3C//DTD SVG 1.1//EN"
 "http://www.w3.org/Graphics/SVG/1.1/DTD/svg11.dtd">
<!-- Generated by graphviz version 2.47.0 (20210316.0004)
 -->
<!-- Title: dependencies Pages: 1 -->
<svg width="1007pt" height="284pt"
 viewBox="0.00 0.00 1007.00 284.00" xmlns="http://www.w3.org/2000/svg" xmlns:xlink="http://www.w3.org/1999/xlink">
<g id="graph0" class="graph" transform="scale(1 1) rotate(0) translate(4 280)">
<title>dependencies</title>
<polygon fill="white" stroke="transparent" points="-4,4 -4,-280 1003,-280 1003,4 -4,4"/>
<text text-anchor="start" x="478.51" y="-42.4" font-family="Times-12" font-weight="bold" font-size="14.00">Legend</text>
<polygon fill="#ffffb3" stroke="transparent" points="265.5,-10 265.5,-30 285.5,-30 285.5,-10 265.5,-10"/>
<text text-anchor="start" x="289.13" y="-15.4" font-family="Times-12" font-size="14.00"> &#160;Declarations</text>
<polygon fill="#8dd3c7" stroke="transparent" points="378.5,-10 378.5,-30 398.5,-30 398.5,-10 378.5,-10"/>
<text text-anchor="start" x="402.23" y="-15.4" font-family="Times-12" font-size="14.00"> &#160;Module</text>
<polygon fill="#80b1d3" stroke="transparent" points="464.5,-10 464.5,-30 484.5,-30 484.5,-10 464.5,-10"/>
<text text-anchor="start" x="488.28" y="-15.4" font-family="Times-12" font-size="14.00"> &#160;Bootstrap</text>
<polygon fill="#fdb462" stroke="transparent" points="561.5,-10 561.5,-30 581.5,-30 581.5,-10 561.5,-10"/>
<text text-anchor="start" x="585.17" y="-15.4" font-family="Times-12" font-size="14.00"> &#160;Providers</text>
<polygon fill="#fb8072" stroke="transparent" points="657.5,-10 657.5,-30 677.5,-30 677.5,-10 657.5,-10"/>
<text text-anchor="start" x="681.23" y="-15.4" font-family="Times-12" font-size="14.00"> &#160;Exports</text>
<g id="clust1" class="cluster">
<title>cluster_AppModule</title>
<polygon fill="none" stroke="black" stroke-dasharray="1,5" points="8,-70 8,-268 991,-268 991,-70 8,-70"/>
</g>
<g id="clust2" class="cluster">
<title>cluster_AppModule_declarations</title>
<polygon fill="none" stroke="black" points="649,-78 649,-130 983,-130 983,-78 649,-78"/>
</g>
<g id="clust5" class="cluster">
<title>cluster_AppModule_imports</title>
<polygon fill="none" stroke="black" points="16,-78 16,-130 641,-130 641,-78 16,-78"/>
</g>
<g id="clust7" class="cluster">
<title>cluster_AppModule_bootstrap</title>
<polygon fill="none" stroke="black" points="404,-208 404,-260 528,-260 528,-208 404,-208"/>
</g>
<!-- AppComponent -->
<g id="node1" class="node">
<title>AppComponent</title>
<polygon fill="#ffffb3" stroke="black" points="974.94,-122 869.06,-122 869.06,-86 974.94,-86 974.94,-122"/>
<text text-anchor="middle" x="922" y="-99.8" font-family="Times,serif" font-size="14.00">AppComponent</text>
</g>
<!-- AppModule -->
<g id="node3" class="node">
<title>AppModule</title>
<polygon fill="#8dd3c7" stroke="black" points="507.66,-187 504.66,-191 483.66,-191 480.66,-187 424.34,-187 424.34,-151 507.66,-151 507.66,-187"/>
<text text-anchor="middle" x="466" y="-164.8" font-family="Times,serif" font-size="14.00">AppModule</text>
</g>
<!-- AppComponent&#45;&gt;AppModule -->
<g id="edge1" class="edge">
<title>AppComponent&#45;&gt;AppModule</title>
<path fill="none" stroke="black" d="M922,-122.29C922,-144.21 922,-178 922,-178 922,-178 517.68,-178 517.68,-178"/>
<polygon fill="black" stroke="black" points="517.68,-174.5 507.68,-178 517.68,-181.5 517.68,-174.5"/>
</g>
<!-- CreditDetailsDialogComponent -->
<g id="node2" class="node">
<title>CreditDetailsDialogComponent</title>
<polygon fill="#ffffb3" stroke="black" points="851.08,-122 656.92,-122 656.92,-86 851.08,-86 851.08,-122"/>
<text text-anchor="middle" x="754" y="-99.8" font-family="Times,serif" font-size="14.00">CreditDetailsDialogComponent</text>
</g>
<!-- CreditDetailsDialogComponent&#45;&gt;AppModule -->
<g id="edge2" class="edge">
<title>CreditDetailsDialogComponent&#45;&gt;AppModule</title>
<path fill="none" stroke="black" d="M754,-122.11C754,-141.34 754,-169 754,-169 754,-169 517.88,-169 517.88,-169"/>
<polygon fill="black" stroke="black" points="517.88,-165.5 507.88,-169 517.88,-172.5 517.88,-165.5"/>
</g>
<!-- AppComponent  -->
<g id="node9" class="node">
<title>AppComponent </title>
<polygon fill="#80b1d3" stroke="black" points="520.44,-252 411.56,-252 411.56,-216 520.44,-216 520.44,-252"/>
<text text-anchor="middle" x="466" y="-229.8" font-family="Times,serif" font-size="14.00">AppComponent </text>
</g>
<!-- AppModule&#45;&gt;AppComponent  -->
<g id="edge8" class="edge">
<title>AppModule&#45;&gt;AppComponent </title>
<path fill="none" stroke="black" stroke-dasharray="1,5" d="M466,-187.11C466,-187.11 466,-205.99 466,-205.99"/>
<polygon fill="black" stroke="black" points="462.5,-205.99 466,-215.99 469.5,-205.99 462.5,-205.99"/>
</g>
<!-- CoreModule -->
<g id="node4" class="node">
<title>CoreModule</title>
<polygon fill="#8dd3c7" stroke="black" points="633.26,-122 630.26,-126 609.26,-126 606.26,-122 546.74,-122 546.74,-86 633.26,-86 633.26,-122"/>
<text text-anchor="middle" x="590" y="-99.8" font-family="Times,serif" font-size="14.00">CoreModule</text>
</g>
<!-- CoreModule&#45;&gt;AppModule -->
<g id="edge3" class="edge">
<title>CoreModule&#45;&gt;AppModule</title>
<path fill="none" stroke="black" d="M590,-122.03C590,-138.4 590,-160 590,-160 590,-160 517.98,-160 517.98,-160"/>
<polygon fill="black" stroke="black" points="517.98,-156.5 507.98,-160 517.98,-163.5 517.98,-156.5"/>
</g>
<!-- FuseConfigModule -->
<g id="node5" class="node">
<title>FuseConfigModule</title>
<polygon fill="#8dd3c7" stroke="black" points="528.38,-122 525.38,-126 504.38,-126 501.38,-122 403.62,-122 403.62,-86 528.38,-86 528.38,-122"/>
<text text-anchor="middle" x="466" y="-99.8" font-family="Times,serif" font-size="14.00">FuseConfigModule</text>
</g>
<!-- FuseConfigModule&#45;&gt;AppModule -->
<g id="edge4" class="edge">
<title>FuseConfigModule&#45;&gt;AppModule</title>
<path fill="none" stroke="black" d="M466,-122.11C466,-122.11 466,-140.99 466,-140.99"/>
<polygon fill="black" stroke="black" points="462.5,-140.99 466,-150.99 469.5,-140.99 462.5,-140.99"/>
</g>
<!-- FuseMockApiModule -->
<g id="node6" class="node">
<title>FuseMockApiModule</title>
<polygon fill="#8dd3c7" stroke="black" points="385.65,-122 382.65,-126 361.65,-126 358.65,-122 246.35,-122 246.35,-86 385.65,-86 385.65,-122"/>
<text text-anchor="middle" x="316" y="-99.8" font-family="Times,serif" font-size="14.00">FuseMockApiModule</text>
</g>
<!-- FuseMockApiModule&#45;&gt;AppModule -->
<g id="edge5" class="edge">
<title>FuseMockApiModule&#45;&gt;AppModule</title>
<path fill="none" stroke="black" d="M316,-122.03C316,-138.4 316,-160 316,-160 316,-160 414.22,-160 414.22,-160"/>
<polygon fill="black" stroke="black" points="414.22,-163.5 424.22,-160 414.22,-156.5 414.22,-163.5"/>
</g>
<!-- FuseModule -->
<g id="node7" class="node">
<title>FuseModule</title>
<polygon fill="#8dd3c7" stroke="black" points="227.99,-122 224.99,-126 203.99,-126 200.99,-122 142.01,-122 142.01,-86 227.99,-86 227.99,-122"/>
<text text-anchor="middle" x="185" y="-99.8" font-family="Times,serif" font-size="14.00">FuseModule</text>
</g>
<!-- FuseModule&#45;&gt;AppModule -->
<g id="edge6" class="edge">
<title>FuseModule&#45;&gt;AppModule</title>
<path fill="none" stroke="black" d="M185,-122.11C185,-141.34 185,-169 185,-169 185,-169 414.23,-169 414.23,-169"/>
<polygon fill="black" stroke="black" points="414.23,-172.5 424.23,-169 414.23,-165.5 414.23,-172.5"/>
</g>
<!-- LayoutModule -->
<g id="node8" class="node">
<title>LayoutModule</title>
<polygon fill="#8dd3c7" stroke="black" points="123.71,-122 120.71,-126 99.71,-126 96.71,-122 24.29,-122 24.29,-86 123.71,-86 123.71,-122"/>
<text text-anchor="middle" x="74" y="-99.8" font-family="Times,serif" font-size="14.00">LayoutModule</text>
</g>
<!-- LayoutModule&#45;&gt;AppModule -->
<g id="edge7" class="edge">
<title>LayoutModule&#45;&gt;AppModule</title>
<path fill="none" stroke="black" d="M74,-122.29C74,-144.21 74,-178 74,-178 74,-178 414.05,-178 414.05,-178"/>
<polygon fill="black" stroke="black" points="414.05,-181.5 424.05,-178 414.05,-174.5 414.05,-181.5"/>
</g>
</g>
</svg>
