<?xml version="1.0" encoding="UTF-8" standalone="no"?>
<!DOCTYPE svg PUBLIC "-//W3C//DTD SVG 1.1//EN"
 "http://www.w3.org/Graphics/SVG/1.1/DTD/svg11.dtd">
<!-- Generated by graphviz version 2.47.0 (20210316.0004)
 -->
<!-- Title: dependencies Pages: 1 -->
<svg width="2170pt" height="211pt"
 viewBox="0.00 0.00 2170.00 211.00" xmlns="http://www.w3.org/2000/svg" xmlns:xlink="http://www.w3.org/1999/xlink">
<g id="graph0" class="graph" transform="scale(1 1) rotate(0) translate(4 207)">
<title>dependencies</title>
<polygon fill="white" stroke="transparent" points="-4,4 -4,-207 2166,-207 2166,4 -4,4"/>
<text text-anchor="start" x="1060.01" y="-42.4" font-family="Times-12" font-weight="bold" font-size="14.00">Legend</text>
<polygon fill="#ffffb3" stroke="transparent" points="847,-10 847,-30 867,-30 867,-10 847,-10"/>
<text text-anchor="start" x="870.63" y="-15.4" font-family="Times-12" font-size="14.00"> &#160;Declarations</text>
<polygon fill="#8dd3c7" stroke="transparent" points="960,-10 960,-30 980,-30 980,-10 960,-10"/>
<text text-anchor="start" x="983.73" y="-15.4" font-family="Times-12" font-size="14.00"> &#160;Module</text>
<polygon fill="#80b1d3" stroke="transparent" points="1046,-10 1046,-30 1066,-30 1066,-10 1046,-10"/>
<text text-anchor="start" x="1069.78" y="-15.4" font-family="Times-12" font-size="14.00"> &#160;Bootstrap</text>
<polygon fill="#fdb462" stroke="transparent" points="1143,-10 1143,-30 1163,-30 1163,-10 1143,-10"/>
<text text-anchor="start" x="1166.67" y="-15.4" font-family="Times-12" font-size="14.00"> &#160;Providers</text>
<polygon fill="#fb8072" stroke="transparent" points="1239,-10 1239,-30 1259,-30 1259,-10 1239,-10"/>
<text text-anchor="start" x="1262.73" y="-15.4" font-family="Times-12" font-size="14.00"> &#160;Exports</text>
<g id="clust1" class="cluster">
<title>cluster_ComingSoonModule</title>
<polygon fill="none" stroke="black" stroke-dasharray="1,5" points="8,-70 8,-195 2154,-195 2154,-70 8,-70"/>
</g>
<g id="clust2" class="cluster">
<title>cluster_ComingSoonModule_declarations</title>
<polygon fill="none" stroke="black" points="402,-78 402,-130 2146,-130 2146,-78 402,-78"/>
</g>
<g id="clust10" class="cluster">
<title>cluster_ComingSoonModule_imports</title>
<polygon fill="none" stroke="black" points="16,-78 16,-130 394,-130 394,-78 16,-78"/>
</g>
<!-- ComingSoonClassicComponent -->
<g id="node1" class="node">
<title>ComingSoonClassicComponent</title>
<polygon fill="#ffffb3" stroke="black" points="2137.67,-122 1942.33,-122 1942.33,-86 2137.67,-86 2137.67,-122"/>
<text text-anchor="middle" x="2040" y="-99.8" font-family="Times,serif" font-size="14.00">ComingSoonClassicComponent</text>
</g>
<!-- ComingSoonModule -->
<g id="node8" class="node">
<title>ComingSoonModule</title>
<polygon fill="#8dd3c7" stroke="black" points="1003.95,-187 1000.95,-191 979.95,-191 976.95,-187 870.05,-187 870.05,-151 1003.95,-151 1003.95,-187"/>
<text text-anchor="middle" x="937" y="-164.8" font-family="Times,serif" font-size="14.00">ComingSoonModule</text>
</g>
<!-- ComingSoonClassicComponent&#45;&gt;ComingSoonModule -->
<g id="edge1" class="edge">
<title>ComingSoonClassicComponent&#45;&gt;ComingSoonModule</title>
<path fill="none" stroke="black" d="M2040,-122.01C2040,-144.49 2040,-180 2040,-180 2040,-180 1013.92,-180 1013.92,-180"/>
<polygon fill="black" stroke="black" points="1013.92,-176.5 1003.92,-180 1013.92,-183.5 1013.92,-176.5"/>
</g>
<!-- ComingSoonFullscreenComponent -->
<g id="node2" class="node">
<title>ComingSoonFullscreenComponent</title>
<polygon fill="#ffffb3" stroke="black" points="1923.55,-122 1710.45,-122 1710.45,-86 1923.55,-86 1923.55,-122"/>
<text text-anchor="middle" x="1817" y="-99.8" font-family="Times,serif" font-size="14.00">ComingSoonFullscreenComponent</text>
</g>
<!-- ComingSoonFullscreenComponent&#45;&gt;ComingSoonModule -->
<g id="edge2" class="edge">
<title>ComingSoonFullscreenComponent&#45;&gt;ComingSoonModule</title>
<path fill="none" stroke="black" d="M1817,-122.13C1817,-142.57 1817,-173 1817,-173 1817,-173 1013.87,-173 1013.87,-173"/>
<polygon fill="black" stroke="black" points="1013.87,-169.5 1003.87,-173 1013.87,-176.5 1013.87,-169.5"/>
</g>
<!-- ComingSoonFullscreenReversedComponent -->
<g id="node3" class="node">
<title>ComingSoonFullscreenReversedComponent</title>
<polygon fill="#ffffb3" stroke="black" points="1691.63,-122 1426.37,-122 1426.37,-86 1691.63,-86 1691.63,-122"/>
<text text-anchor="middle" x="1559" y="-99.8" font-family="Times,serif" font-size="14.00">ComingSoonFullscreenReversedComponent</text>
</g>
<!-- ComingSoonFullscreenReversedComponent&#45;&gt;ComingSoonModule -->
<g id="edge3" class="edge">
<title>ComingSoonFullscreenReversedComponent&#45;&gt;ComingSoonModule</title>
<path fill="none" stroke="black" d="M1559,-122.27C1559,-140.56 1559,-166 1559,-166 1559,-166 1013.86,-166 1013.86,-166"/>
<polygon fill="black" stroke="black" points="1013.86,-162.5 1003.86,-166 1013.86,-169.5 1013.86,-162.5"/>
</g>
<!-- ComingSoonModernComponent -->
<g id="node4" class="node">
<title>ComingSoonModernComponent</title>
<polygon fill="#ffffb3" stroke="black" points="1407.55,-122 1208.45,-122 1208.45,-86 1407.55,-86 1407.55,-122"/>
<text text-anchor="middle" x="1308" y="-99.8" font-family="Times,serif" font-size="14.00">ComingSoonModernComponent</text>
</g>
<!-- ComingSoonModernComponent&#45;&gt;ComingSoonModule -->
<g id="edge4" class="edge">
<title>ComingSoonModernComponent&#45;&gt;ComingSoonModule</title>
<path fill="none" stroke="black" d="M1308,-122.01C1308,-138.05 1308,-159 1308,-159 1308,-159 1013.76,-159 1013.76,-159"/>
<polygon fill="black" stroke="black" points="1013.76,-155.5 1003.76,-159 1013.76,-162.5 1013.76,-155.5"/>
</g>
<!-- ComingSoonModernReversedComponent -->
<g id="node5" class="node">
<title>ComingSoonModernReversedComponent</title>
<polygon fill="#ffffb3" stroke="black" points="1189.64,-122 938.36,-122 938.36,-86 1189.64,-86 1189.64,-122"/>
<text text-anchor="middle" x="1064" y="-99.8" font-family="Times,serif" font-size="14.00">ComingSoonModernReversedComponent</text>
</g>
<!-- ComingSoonModernReversedComponent&#45;&gt;ComingSoonModule -->
<g id="edge5" class="edge">
<title>ComingSoonModernReversedComponent&#45;&gt;ComingSoonModule</title>
<path fill="none" stroke="black" d="M970.95,-122.11C970.95,-122.11 970.95,-140.99 970.95,-140.99"/>
<polygon fill="black" stroke="black" points="967.45,-140.99 970.95,-150.99 974.45,-140.99 967.45,-140.99"/>
</g>
<!-- ComingSoonSplitScreenComponent -->
<g id="node6" class="node">
<title>ComingSoonSplitScreenComponent</title>
<polygon fill="#ffffb3" stroke="black" points="919.77,-122 700.23,-122 700.23,-86 919.77,-86 919.77,-122"/>
<text text-anchor="middle" x="810" y="-99.8" font-family="Times,serif" font-size="14.00">ComingSoonSplitScreenComponent</text>
</g>
<!-- ComingSoonSplitScreenComponent&#45;&gt;ComingSoonModule -->
<g id="edge6" class="edge">
<title>ComingSoonSplitScreenComponent&#45;&gt;ComingSoonModule</title>
<path fill="none" stroke="black" d="M895.08,-122.11C895.08,-122.11 895.08,-140.99 895.08,-140.99"/>
<polygon fill="black" stroke="black" points="891.58,-140.99 895.08,-150.99 898.58,-140.99 891.58,-140.99"/>
</g>
<!-- ComingSoonSplitScreenReversedComponent -->
<g id="node7" class="node">
<title>ComingSoonSplitScreenReversedComponent</title>
<polygon fill="#ffffb3" stroke="black" points="681.86,-122 410.14,-122 410.14,-86 681.86,-86 681.86,-122"/>
<text text-anchor="middle" x="546" y="-99.8" font-family="Times,serif" font-size="14.00">ComingSoonSplitScreenReversedComponent</text>
</g>
<!-- ComingSoonSplitScreenReversedComponent&#45;&gt;ComingSoonModule -->
<g id="edge7" class="edge">
<title>ComingSoonSplitScreenReversedComponent&#45;&gt;ComingSoonModule</title>
<path fill="none" stroke="black" d="M546,-122.01C546,-138.05 546,-159 546,-159 546,-159 860.23,-159 860.23,-159"/>
<polygon fill="black" stroke="black" points="860.23,-162.5 870.23,-159 860.23,-155.5 860.23,-162.5"/>
</g>
<!-- FuseAlertModule -->
<g id="node9" class="node">
<title>FuseAlertModule</title>
<polygon fill="#8dd3c7" stroke="black" points="386.25,-122 383.25,-126 362.25,-126 359.25,-122 271.75,-122 271.75,-86 386.25,-86 386.25,-122"/>
<text text-anchor="middle" x="329" y="-99.8" font-family="Times,serif" font-size="14.00">FuseAlertModule</text>
</g>
<!-- FuseAlertModule&#45;&gt;ComingSoonModule -->
<g id="edge8" class="edge">
<title>FuseAlertModule&#45;&gt;ComingSoonModule</title>
<path fill="none" stroke="black" d="M329,-122.27C329,-140.56 329,-166 329,-166 329,-166 860.19,-166 860.19,-166"/>
<polygon fill="black" stroke="black" points="860.19,-169.5 870.19,-166 860.19,-162.5 860.19,-169.5"/>
</g>
<!-- FuseCardModule -->
<g id="node10" class="node">
<title>FuseCardModule</title>
<polygon fill="#8dd3c7" stroke="black" points="253.7,-122 250.7,-126 229.7,-126 226.7,-122 140.3,-122 140.3,-86 253.7,-86 253.7,-122"/>
<text text-anchor="middle" x="197" y="-99.8" font-family="Times,serif" font-size="14.00">FuseCardModule</text>
</g>
<!-- FuseCardModule&#45;&gt;ComingSoonModule -->
<g id="edge9" class="edge">
<title>FuseCardModule&#45;&gt;ComingSoonModule</title>
<path fill="none" stroke="black" d="M197,-122.13C197,-142.57 197,-173 197,-173 197,-173 860.02,-173 860.02,-173"/>
<polygon fill="black" stroke="black" points="860.02,-176.5 870.02,-173 860.02,-169.5 860.02,-176.5"/>
</g>
<!-- SharedModule -->
<g id="node11" class="node">
<title>SharedModule</title>
<polygon fill="#8dd3c7" stroke="black" points="122.42,-122 119.42,-126 98.42,-126 95.42,-122 23.58,-122 23.58,-86 122.42,-86 122.42,-122"/>
<text text-anchor="middle" x="73" y="-99.8" font-family="Times,serif" font-size="14.00">SharedModule</text>
</g>
<!-- SharedModule&#45;&gt;ComingSoonModule -->
<g id="edge10" class="edge">
<title>SharedModule&#45;&gt;ComingSoonModule</title>
<path fill="none" stroke="black" d="M73,-122.01C73,-144.49 73,-180 73,-180 73,-180 859.92,-180 859.92,-180"/>
<polygon fill="black" stroke="black" points="859.92,-183.5 869.92,-180 859.92,-176.5 859.92,-183.5"/>
</g>
</g>
</svg>
