<?xml version="1.0" encoding="UTF-8" standalone="no"?>
<!DOCTYPE svg PUBLIC "-//W3C//DTD SVG 1.1//EN"
 "http://www.w3.org/Graphics/SVG/1.1/DTD/svg11.dtd">
<!-- Generated by graphviz version 2.47.0 (20210316.0004)
 -->
<!-- Title: dependencies Pages: 1 -->
<svg width="687pt" height="211pt"
 viewBox="0.00 0.00 687.00 211.00" xmlns="http://www.w3.org/2000/svg" xmlns:xlink="http://www.w3.org/1999/xlink">
<g id="graph0" class="graph" transform="scale(1 1) rotate(0) translate(4 207)">
<title>dependencies</title>
<polygon fill="white" stroke="transparent" points="-4,4 -4,-207 683,-207 683,4 -4,4"/>
<text text-anchor="start" x="318.51" y="-42.4" font-family="Times-12" font-weight="bold" font-size="14.00">Legend</text>
<polygon fill="#ffffb3" stroke="transparent" points="105.5,-10 105.5,-30 125.5,-30 125.5,-10 105.5,-10"/>
<text text-anchor="start" x="129.13" y="-15.4" font-family="Times-12" font-size="14.00"> &#160;Declarations</text>
<polygon fill="#8dd3c7" stroke="transparent" points="218.5,-10 218.5,-30 238.5,-30 238.5,-10 218.5,-10"/>
<text text-anchor="start" x="242.23" y="-15.4" font-family="Times-12" font-size="14.00"> &#160;Module</text>
<polygon fill="#80b1d3" stroke="transparent" points="304.5,-10 304.5,-30 324.5,-30 324.5,-10 304.5,-10"/>
<text text-anchor="start" x="328.28" y="-15.4" font-family="Times-12" font-size="14.00"> &#160;Bootstrap</text>
<polygon fill="#fdb462" stroke="transparent" points="401.5,-10 401.5,-30 421.5,-30 421.5,-10 401.5,-10"/>
<text text-anchor="start" x="425.17" y="-15.4" font-family="Times-12" font-size="14.00"> &#160;Providers</text>
<polygon fill="#fb8072" stroke="transparent" points="497.5,-10 497.5,-30 517.5,-30 517.5,-10 497.5,-10"/>
<text text-anchor="start" x="521.23" y="-15.4" font-family="Times-12" font-size="14.00"> &#160;Exports</text>
<g id="clust1" class="cluster">
<title>cluster_InsuranceModule</title>
<polygon fill="none" stroke="black" stroke-dasharray="1,5" points="8,-70 8,-195 671,-195 671,-70 8,-70"/>
</g>
<g id="clust2" class="cluster">
<title>cluster_InsuranceModule_declarations</title>
<polygon fill="none" stroke="black" points="138,-78 138,-130 663,-130 663,-78 138,-78"/>
</g>
<g id="clust6" class="cluster">
<title>cluster_InsuranceModule_imports</title>
<polygon fill="none" stroke="black" points="16,-78 16,-130 130,-130 130,-78 16,-78"/>
</g>
<!-- InsuranceComponent -->
<g id="node1" class="node">
<title>InsuranceComponent</title>
<polygon fill="#ffffb3" stroke="black" points="654.74,-122 519.26,-122 519.26,-86 654.74,-86 654.74,-122"/>
<text text-anchor="middle" x="587" y="-99.8" font-family="Times,serif" font-size="14.00">InsuranceComponent</text>
</g>
<!-- InsuranceModule -->
<g id="node4" class="node">
<title>InsuranceModule</title>
<polygon fill="#8dd3c7" stroke="black" points="376.96,-187 373.96,-191 352.96,-191 349.96,-187 263.04,-187 263.04,-151 376.96,-151 376.96,-187"/>
<text text-anchor="middle" x="320" y="-164.8" font-family="Times,serif" font-size="14.00">InsuranceModule</text>
</g>
<!-- InsuranceComponent&#45;&gt;InsuranceModule -->
<g id="edge1" class="edge">
<title>InsuranceComponent&#45;&gt;InsuranceModule</title>
<path fill="none" stroke="black" d="M587,-122.11C587,-141.34 587,-169 587,-169 587,-169 387.28,-169 387.28,-169"/>
<polygon fill="black" stroke="black" points="387.28,-165.5 377.28,-169 387.28,-172.5 387.28,-165.5"/>
</g>
<!-- InsuranceDetailsComponent -->
<g id="node2" class="node">
<title>InsuranceDetailsComponent</title>
<polygon fill="#ffffb3" stroke="black" points="500.89,-122 325.11,-122 325.11,-86 500.89,-86 500.89,-122"/>
<text text-anchor="middle" x="413" y="-99.8" font-family="Times,serif" font-size="14.00">InsuranceDetailsComponent</text>
</g>
<!-- InsuranceDetailsComponent&#45;&gt;InsuranceModule -->
<g id="edge2" class="edge">
<title>InsuranceDetailsComponent&#45;&gt;InsuranceModule</title>
<path fill="none" stroke="black" d="M351.14,-122.11C351.14,-122.11 351.14,-140.99 351.14,-140.99"/>
<polygon fill="black" stroke="black" points="347.64,-140.99 351.14,-150.99 354.64,-140.99 347.64,-140.99"/>
</g>
<!-- InsuranceItemComponent -->
<g id="node3" class="node">
<title>InsuranceItemComponent</title>
<polygon fill="#ffffb3" stroke="black" points="307.9,-122 146.1,-122 146.1,-86 307.9,-86 307.9,-122"/>
<text text-anchor="middle" x="227" y="-99.8" font-family="Times,serif" font-size="14.00">InsuranceItemComponent</text>
</g>
<!-- InsuranceItemComponent&#45;&gt;InsuranceModule -->
<g id="edge3" class="edge">
<title>InsuranceItemComponent&#45;&gt;InsuranceModule</title>
<path fill="none" stroke="black" d="M285.36,-122.11C285.36,-122.11 285.36,-140.99 285.36,-140.99"/>
<polygon fill="black" stroke="black" points="281.86,-140.99 285.36,-150.99 288.86,-140.99 281.86,-140.99"/>
</g>
<!-- SharedModule -->
<g id="node5" class="node">
<title>SharedModule</title>
<polygon fill="#8dd3c7" stroke="black" points="122.42,-122 119.42,-126 98.42,-126 95.42,-122 23.58,-122 23.58,-86 122.42,-86 122.42,-122"/>
<text text-anchor="middle" x="73" y="-99.8" font-family="Times,serif" font-size="14.00">SharedModule</text>
</g>
<!-- SharedModule&#45;&gt;InsuranceModule -->
<g id="edge4" class="edge">
<title>SharedModule&#45;&gt;InsuranceModule</title>
<path fill="none" stroke="black" d="M73,-122.11C73,-141.34 73,-169 73,-169 73,-169 253.02,-169 253.02,-169"/>
<polygon fill="black" stroke="black" points="253.02,-172.5 263.02,-169 253.02,-165.5 253.02,-172.5"/>
</g>
</g>
</svg>
