<?xml version="1.0" encoding="UTF-8" standalone="no"?>
<!DOCTYPE svg PUBLIC "-//W3C//DTD SVG 1.1//EN"
 "http://www.w3.org/Graphics/SVG/1.1/DTD/svg11.dtd">
<!-- Generated by graphviz version 2.47.0 (20210316.0004)
 -->
<!-- Title: dependencies Pages: 1 -->
<svg width="1752pt" height="284pt"
 viewBox="0.00 0.00 1752.00 284.00" xmlns="http://www.w3.org/2000/svg" xmlns:xlink="http://www.w3.org/1999/xlink">
<g id="graph0" class="graph" transform="scale(1 1) rotate(0) translate(4 280)">
<title>dependencies</title>
<polygon fill="white" stroke="transparent" points="-4,4 -4,-280 1748,-280 1748,4 -4,4"/>
<text text-anchor="start" x="851.01" y="-42.4" font-family="Times-12" font-weight="bold" font-size="14.00">Legend</text>
<polygon fill="#ffffb3" stroke="transparent" points="638,-10 638,-30 658,-30 658,-10 638,-10"/>
<text text-anchor="start" x="661.63" y="-15.4" font-family="Times-12" font-size="14.00"> &#160;Declarations</text>
<polygon fill="#8dd3c7" stroke="transparent" points="751,-10 751,-30 771,-30 771,-10 751,-10"/>
<text text-anchor="start" x="774.73" y="-15.4" font-family="Times-12" font-size="14.00"> &#160;Module</text>
<polygon fill="#80b1d3" stroke="transparent" points="837,-10 837,-30 857,-30 857,-10 837,-10"/>
<text text-anchor="start" x="860.78" y="-15.4" font-family="Times-12" font-size="14.00"> &#160;Bootstrap</text>
<polygon fill="#fdb462" stroke="transparent" points="934,-10 934,-30 954,-30 954,-10 934,-10"/>
<text text-anchor="start" x="957.67" y="-15.4" font-family="Times-12" font-size="14.00"> &#160;Providers</text>
<polygon fill="#fb8072" stroke="transparent" points="1030,-10 1030,-30 1050,-30 1050,-10 1030,-10"/>
<text text-anchor="start" x="1053.73" y="-15.4" font-family="Times-12" font-size="14.00"> &#160;Exports</text>
<g id="clust1" class="cluster">
<title>cluster_ModernLayoutModule</title>
<polygon fill="none" stroke="black" stroke-dasharray="1,5" points="8,-70 8,-268 1736,-268 1736,-70 8,-70"/>
</g>
<g id="clust5" class="cluster">
<title>cluster_ModernLayoutModule_exports</title>
<polygon fill="none" stroke="black" points="672,-208 672,-260 856,-260 856,-208 672,-208"/>
</g>
<g id="clust2" class="cluster">
<title>cluster_ModernLayoutModule_declarations</title>
<polygon fill="none" stroke="black" points="1546,-78 1546,-130 1728,-130 1728,-78 1546,-78"/>
</g>
<g id="clust4" class="cluster">
<title>cluster_ModernLayoutModule_imports</title>
<polygon fill="none" stroke="black" points="16,-78 16,-130 1538,-130 1538,-78 16,-78"/>
</g>
<!-- ModernLayoutComponent -->
<g id="node1" class="node">
<title>ModernLayoutComponent</title>
<polygon fill="#ffffb3" stroke="black" points="1719.81,-122 1554.19,-122 1554.19,-86 1719.81,-86 1719.81,-122"/>
<text text-anchor="middle" x="1637" y="-99.8" font-family="Times,serif" font-size="14.00">ModernLayoutComponent</text>
</g>
<!-- ModernLayoutModule -->
<g id="node2" class="node">
<title>ModernLayoutModule</title>
<polygon fill="#8dd3c7" stroke="black" points="835.53,-187 832.53,-191 811.53,-191 808.53,-187 692.47,-187 692.47,-151 835.53,-151 835.53,-187"/>
<text text-anchor="middle" x="764" y="-164.8" font-family="Times,serif" font-size="14.00">ModernLayoutModule</text>
</g>
<!-- ModernLayoutComponent&#45;&gt;ModernLayoutModule -->
<g id="edge1" class="edge">
<title>ModernLayoutComponent&#45;&gt;ModernLayoutModule</title>
<path fill="none" stroke="black" d="M1637,-122.25C1637,-145.02 1637,-181 1637,-181 1637,-181 845.81,-181 845.81,-181"/>
<polygon fill="black" stroke="black" points="845.81,-177.5 835.81,-181 845.81,-184.5 845.81,-177.5"/>
</g>
<!-- ModernLayoutComponent  -->
<g id="node14" class="node">
<title>ModernLayoutComponent </title>
<polygon fill="#fb8072" stroke="black" points="848.31,-252 679.69,-252 679.69,-216 848.31,-216 848.31,-252"/>
<text text-anchor="middle" x="764" y="-229.8" font-family="Times,serif" font-size="14.00">ModernLayoutComponent </text>
</g>
<!-- ModernLayoutModule&#45;&gt;ModernLayoutComponent  -->
<g id="edge13" class="edge">
<title>ModernLayoutModule&#45;&gt;ModernLayoutComponent </title>
<path fill="none" stroke="black" stroke-dasharray="5,2" d="M764,-187.11C764,-187.11 764,-205.99 764,-205.99"/>
<polygon fill="black" stroke="black" points="760.5,-205.99 764,-215.99 767.5,-205.99 760.5,-205.99"/>
</g>
<!-- FuseFullscreenModule -->
<g id="node3" class="node">
<title>FuseFullscreenModule</title>
<polygon fill="#8dd3c7" stroke="black" points="1530.3,-122 1527.3,-126 1506.3,-126 1503.3,-122 1385.7,-122 1385.7,-86 1530.3,-86 1530.3,-122"/>
<text text-anchor="middle" x="1458" y="-99.8" font-family="Times,serif" font-size="14.00">FuseFullscreenModule</text>
</g>
<!-- FuseFullscreenModule&#45;&gt;ModernLayoutModule -->
<g id="edge2" class="edge">
<title>FuseFullscreenModule&#45;&gt;ModernLayoutModule</title>
<path fill="none" stroke="black" d="M1458,-122.28C1458,-143.32 1458,-175 1458,-175 1458,-175 845.66,-175 845.66,-175"/>
<polygon fill="black" stroke="black" points="845.66,-171.5 835.66,-175 845.66,-178.5 845.66,-171.5"/>
</g>
<!-- FuseLoadingBarModule -->
<g id="node4" class="node">
<title>FuseLoadingBarModule</title>
<polygon fill="#8dd3c7" stroke="black" points="1367.36,-122 1364.36,-126 1343.36,-126 1340.36,-122 1214.64,-122 1214.64,-86 1367.36,-86 1367.36,-122"/>
<text text-anchor="middle" x="1291" y="-99.8" font-family="Times,serif" font-size="14.00">FuseLoadingBarModule</text>
</g>
<!-- FuseLoadingBarModule&#45;&gt;ModernLayoutModule -->
<g id="edge3" class="edge">
<title>FuseLoadingBarModule&#45;&gt;ModernLayoutModule</title>
<path fill="none" stroke="black" d="M1291,-122.11C1291,-141.34 1291,-169 1291,-169 1291,-169 845.62,-169 845.62,-169"/>
<polygon fill="black" stroke="black" points="845.62,-165.5 835.62,-169 845.62,-172.5 845.62,-165.5"/>
</g>
<!-- FuseNavigationModule -->
<g id="node5" class="node">
<title>FuseNavigationModule</title>
<polygon fill="#8dd3c7" stroke="black" points="1196.2,-122 1193.2,-126 1172.2,-126 1169.2,-122 1047.8,-122 1047.8,-86 1196.2,-86 1196.2,-122"/>
<text text-anchor="middle" x="1122" y="-99.8" font-family="Times,serif" font-size="14.00">FuseNavigationModule</text>
</g>
<!-- FuseNavigationModule&#45;&gt;ModernLayoutModule -->
<g id="edge4" class="edge">
<title>FuseNavigationModule&#45;&gt;ModernLayoutModule</title>
<path fill="none" stroke="black" d="M1122,-122.02C1122,-139.37 1122,-163 1122,-163 1122,-163 845.59,-163 845.59,-163"/>
<polygon fill="black" stroke="black" points="845.59,-159.5 835.59,-163 845.59,-166.5 845.59,-159.5"/>
</g>
<!-- LanguagesModule -->
<g id="node6" class="node">
<title>LanguagesModule</title>
<polygon fill="#8dd3c7" stroke="black" points="1030.19,-122 1027.19,-126 1006.19,-126 1003.19,-122 909.81,-122 909.81,-86 1030.19,-86 1030.19,-122"/>
<text text-anchor="middle" x="970" y="-99.8" font-family="Times,serif" font-size="14.00">LanguagesModule</text>
</g>
<!-- LanguagesModule&#45;&gt;ModernLayoutModule -->
<g id="edge5" class="edge">
<title>LanguagesModule&#45;&gt;ModernLayoutModule</title>
<path fill="none" stroke="black" d="M970,-122.24C970,-137.57 970,-157 970,-157 970,-157 845.76,-157 845.76,-157"/>
<polygon fill="black" stroke="black" points="845.76,-153.5 835.76,-157 845.76,-160.5 845.76,-153.5"/>
</g>
<!-- MessagesModule -->
<g id="node7" class="node">
<title>MessagesModule</title>
<polygon fill="#8dd3c7" stroke="black" points="891.97,-122 888.97,-126 867.97,-126 864.97,-122 778.03,-122 778.03,-86 891.97,-86 891.97,-122"/>
<text text-anchor="middle" x="835" y="-99.8" font-family="Times,serif" font-size="14.00">MessagesModule</text>
</g>
<!-- MessagesModule&#45;&gt;ModernLayoutModule -->
<g id="edge6" class="edge">
<title>MessagesModule&#45;&gt;ModernLayoutModule</title>
<path fill="none" stroke="black" d="M806.89,-122.11C806.89,-122.11 806.89,-140.99 806.89,-140.99"/>
<polygon fill="black" stroke="black" points="803.39,-140.99 806.89,-150.99 810.39,-140.99 803.39,-140.99"/>
</g>
<!-- NotificationsModule -->
<g id="node8" class="node">
<title>NotificationsModule</title>
<polygon fill="#8dd3c7" stroke="black" points="760.14,-122 757.14,-126 736.14,-126 733.14,-122 627.86,-122 627.86,-86 760.14,-86 760.14,-122"/>
<text text-anchor="middle" x="694" y="-99.8" font-family="Times,serif" font-size="14.00">NotificationsModule</text>
</g>
<!-- NotificationsModule&#45;&gt;ModernLayoutModule -->
<g id="edge7" class="edge">
<title>NotificationsModule&#45;&gt;ModernLayoutModule</title>
<path fill="none" stroke="black" d="M726.28,-122.11C726.28,-122.11 726.28,-140.99 726.28,-140.99"/>
<polygon fill="black" stroke="black" points="722.78,-140.99 726.28,-150.99 729.78,-140.99 722.78,-140.99"/>
</g>
<!-- QuickChatModule -->
<g id="node9" class="node">
<title>QuickChatModule</title>
<polygon fill="#8dd3c7" stroke="black" points="610.2,-122 607.2,-126 586.2,-126 583.2,-122 489.8,-122 489.8,-86 610.2,-86 610.2,-122"/>
<text text-anchor="middle" x="550" y="-99.8" font-family="Times,serif" font-size="14.00">QuickChatModule</text>
</g>
<!-- QuickChatModule&#45;&gt;ModernLayoutModule -->
<g id="edge8" class="edge">
<title>QuickChatModule&#45;&gt;ModernLayoutModule</title>
<path fill="none" stroke="black" d="M550,-122.24C550,-137.57 550,-157 550,-157 550,-157 682.44,-157 682.44,-157"/>
<polygon fill="black" stroke="black" points="682.44,-160.5 692.44,-157 682.44,-153.5 682.44,-160.5"/>
</g>
<!-- SearchModule -->
<g id="node10" class="node">
<title>SearchModule</title>
<polygon fill="#8dd3c7" stroke="black" points="471.64,-122 468.64,-126 447.64,-126 444.64,-122 374.36,-122 374.36,-86 471.64,-86 471.64,-122"/>
<text text-anchor="middle" x="423" y="-99.8" font-family="Times,serif" font-size="14.00">SearchModule</text>
</g>
<!-- SearchModule&#45;&gt;ModernLayoutModule -->
<g id="edge9" class="edge">
<title>SearchModule&#45;&gt;ModernLayoutModule</title>
<path fill="none" stroke="black" d="M423,-122.02C423,-139.37 423,-163 423,-163 423,-163 682.1,-163 682.1,-163"/>
<polygon fill="black" stroke="black" points="682.1,-166.5 692.1,-163 682.1,-159.5 682.1,-166.5"/>
</g>
<!-- SharedModule -->
<g id="node11" class="node">
<title>SharedModule</title>
<polygon fill="#8dd3c7" stroke="black" points="356.42,-122 353.42,-126 332.42,-126 329.42,-122 257.58,-122 257.58,-86 356.42,-86 356.42,-122"/>
<text text-anchor="middle" x="307" y="-99.8" font-family="Times,serif" font-size="14.00">SharedModule</text>
</g>
<!-- SharedModule&#45;&gt;ModernLayoutModule -->
<g id="edge10" class="edge">
<title>SharedModule&#45;&gt;ModernLayoutModule</title>
<path fill="none" stroke="black" d="M307,-122.11C307,-141.34 307,-169 307,-169 307,-169 682.34,-169 682.34,-169"/>
<polygon fill="black" stroke="black" points="682.34,-172.5 692.34,-169 682.34,-165.5 682.34,-172.5"/>
</g>
<!-- ShortcutsModule -->
<g id="node12" class="node">
<title>ShortcutsModule</title>
<polygon fill="#8dd3c7" stroke="black" points="240.43,-122 237.43,-126 216.43,-126 213.43,-122 127.57,-122 127.57,-86 240.43,-86 240.43,-122"/>
<text text-anchor="middle" x="184" y="-99.8" font-family="Times,serif" font-size="14.00">ShortcutsModule</text>
</g>
<!-- ShortcutsModule&#45;&gt;ModernLayoutModule -->
<g id="edge11" class="edge">
<title>ShortcutsModule&#45;&gt;ModernLayoutModule</title>
<path fill="none" stroke="black" d="M184,-122.28C184,-143.32 184,-175 184,-175 184,-175 682.3,-175 682.3,-175"/>
<polygon fill="black" stroke="black" points="682.3,-178.5 692.3,-175 682.3,-171.5 682.3,-178.5"/>
</g>
<!-- UserModule -->
<g id="node13" class="node">
<title>UserModule</title>
<polygon fill="#8dd3c7" stroke="black" points="109.98,-122 106.98,-126 85.98,-126 82.98,-122 24.02,-122 24.02,-86 109.98,-86 109.98,-122"/>
<text text-anchor="middle" x="67" y="-99.8" font-family="Times,serif" font-size="14.00">UserModule</text>
</g>
<!-- UserModule&#45;&gt;ModernLayoutModule -->
<g id="edge12" class="edge">
<title>UserModule&#45;&gt;ModernLayoutModule</title>
<path fill="none" stroke="black" d="M67,-122.25C67,-145.02 67,-181 67,-181 67,-181 682.36,-181 682.36,-181"/>
<polygon fill="black" stroke="black" points="682.36,-184.5 692.36,-181 682.36,-177.5 682.36,-184.5"/>
</g>
</g>
</svg>
