<?xml version="1.0" encoding="UTF-8" standalone="no"?>
<!DOCTYPE svg PUBLIC "-//W3C//DTD SVG 1.1//EN"
 "http://www.w3.org/Graphics/SVG/1.1/DTD/svg11.dtd">
<!-- Generated by graphviz version 2.47.0 (20210316.0004)
 -->
<!-- Title: dependencies Pages: 1 -->
<svg width="2109pt" height="211pt"
 viewBox="0.00 0.00 2109.00 211.00" xmlns="http://www.w3.org/2000/svg" xmlns:xlink="http://www.w3.org/1999/xlink">
<g id="graph0" class="graph" transform="scale(1 1) rotate(0) translate(4 207)">
<title>dependencies</title>
<polygon fill="white" stroke="transparent" points="-4,4 -4,-207 2105,-207 2105,4 -4,4"/>
<text text-anchor="start" x="1029.51" y="-42.4" font-family="Times-12" font-weight="bold" font-size="14.00">Legend</text>
<polygon fill="#ffffb3" stroke="transparent" points="816.5,-10 816.5,-30 836.5,-30 836.5,-10 816.5,-10"/>
<text text-anchor="start" x="840.13" y="-15.4" font-family="Times-12" font-size="14.00"> &#160;Declarations</text>
<polygon fill="#8dd3c7" stroke="transparent" points="929.5,-10 929.5,-30 949.5,-30 949.5,-10 929.5,-10"/>
<text text-anchor="start" x="953.23" y="-15.4" font-family="Times-12" font-size="14.00"> &#160;Module</text>
<polygon fill="#80b1d3" stroke="transparent" points="1015.5,-10 1015.5,-30 1035.5,-30 1035.5,-10 1015.5,-10"/>
<text text-anchor="start" x="1039.28" y="-15.4" font-family="Times-12" font-size="14.00"> &#160;Bootstrap</text>
<polygon fill="#fdb462" stroke="transparent" points="1112.5,-10 1112.5,-30 1132.5,-30 1132.5,-10 1112.5,-10"/>
<text text-anchor="start" x="1136.17" y="-15.4" font-family="Times-12" font-size="14.00"> &#160;Providers</text>
<polygon fill="#fb8072" stroke="transparent" points="1208.5,-10 1208.5,-30 1228.5,-30 1228.5,-10 1208.5,-10"/>
<text text-anchor="start" x="1232.23" y="-15.4" font-family="Times-12" font-size="14.00"> &#160;Exports</text>
<g id="clust1" class="cluster">
<title>cluster_UnlockSessionModule</title>
<polygon fill="none" stroke="black" stroke-dasharray="1,5" points="8,-70 8,-195 2093,-195 2093,-70 8,-70"/>
</g>
<g id="clust2" class="cluster">
<title>cluster_UnlockSessionModule_declarations</title>
<polygon fill="none" stroke="black" points="271,-78 271,-130 2085,-130 2085,-78 271,-78"/>
</g>
<g id="clust10" class="cluster">
<title>cluster_UnlockSessionModule_imports</title>
<polygon fill="none" stroke="black" points="16,-78 16,-130 263,-130 263,-78 16,-78"/>
</g>
<!-- UnlockSessionClassicComponent -->
<g id="node1" class="node">
<title>UnlockSessionClassicComponent</title>
<polygon fill="#ffffb3" stroke="black" points="2076.76,-122 1871.24,-122 1871.24,-86 2076.76,-86 2076.76,-122"/>
<text text-anchor="middle" x="1974" y="-99.8" font-family="Times,serif" font-size="14.00">UnlockSessionClassicComponent</text>
</g>
<!-- UnlockSessionModule -->
<g id="node8" class="node">
<title>UnlockSessionModule</title>
<polygon fill="#8dd3c7" stroke="black" points="1029.54,-187 1026.54,-191 1005.54,-191 1002.54,-187 886.46,-187 886.46,-151 1029.54,-151 1029.54,-187"/>
<text text-anchor="middle" x="958" y="-164.8" font-family="Times,serif" font-size="14.00">UnlockSessionModule</text>
</g>
<!-- UnlockSessionClassicComponent&#45;&gt;UnlockSessionModule -->
<g id="edge1" class="edge">
<title>UnlockSessionClassicComponent&#45;&gt;UnlockSessionModule</title>
<path fill="none" stroke="black" d="M1974,-122.01C1974,-144.49 1974,-180 1974,-180 1974,-180 1039.85,-180 1039.85,-180"/>
<polygon fill="black" stroke="black" points="1039.85,-176.5 1029.85,-180 1039.85,-183.5 1039.85,-176.5"/>
</g>
<!-- UnlockSessionFullscreenComponent -->
<g id="node2" class="node">
<title>UnlockSessionFullscreenComponent</title>
<polygon fill="#ffffb3" stroke="black" points="1852.63,-122 1629.37,-122 1629.37,-86 1852.63,-86 1852.63,-122"/>
<text text-anchor="middle" x="1741" y="-99.8" font-family="Times,serif" font-size="14.00">UnlockSessionFullscreenComponent</text>
</g>
<!-- UnlockSessionFullscreenComponent&#45;&gt;UnlockSessionModule -->
<g id="edge2" class="edge">
<title>UnlockSessionFullscreenComponent&#45;&gt;UnlockSessionModule</title>
<path fill="none" stroke="black" d="M1741,-122.13C1741,-142.57 1741,-173 1741,-173 1741,-173 1039.56,-173 1039.56,-173"/>
<polygon fill="black" stroke="black" points="1039.56,-169.5 1029.56,-173 1039.56,-176.5 1039.56,-169.5"/>
</g>
<!-- UnlockSessionFullscreenReversedComponent -->
<g id="node3" class="node">
<title>UnlockSessionFullscreenReversedComponent</title>
<polygon fill="#ffffb3" stroke="black" points="1610.72,-122 1335.28,-122 1335.28,-86 1610.72,-86 1610.72,-122"/>
<text text-anchor="middle" x="1473" y="-99.8" font-family="Times,serif" font-size="14.00">UnlockSessionFullscreenReversedComponent</text>
</g>
<!-- UnlockSessionFullscreenReversedComponent&#45;&gt;UnlockSessionModule -->
<g id="edge3" class="edge">
<title>UnlockSessionFullscreenReversedComponent&#45;&gt;UnlockSessionModule</title>
<path fill="none" stroke="black" d="M1473,-122.27C1473,-140.56 1473,-166 1473,-166 1473,-166 1039.61,-166 1039.61,-166"/>
<polygon fill="black" stroke="black" points="1039.61,-162.5 1029.61,-166 1039.61,-169.5 1039.61,-162.5"/>
</g>
<!-- UnlockSessionModernComponent -->
<g id="node4" class="node">
<title>UnlockSessionModernComponent</title>
<polygon fill="#ffffb3" stroke="black" points="1316.64,-122 1107.36,-122 1107.36,-86 1316.64,-86 1316.64,-122"/>
<text text-anchor="middle" x="1212" y="-99.8" font-family="Times,serif" font-size="14.00">UnlockSessionModernComponent</text>
</g>
<!-- UnlockSessionModernComponent&#45;&gt;UnlockSessionModule -->
<g id="edge4" class="edge">
<title>UnlockSessionModernComponent&#45;&gt;UnlockSessionModule</title>
<path fill="none" stroke="black" d="M1212,-122.01C1212,-138.05 1212,-159 1212,-159 1212,-159 1039.77,-159 1039.77,-159"/>
<polygon fill="black" stroke="black" points="1039.77,-155.5 1029.77,-159 1039.77,-162.5 1039.77,-155.5"/>
</g>
<!-- UnlockSessionModernReversedComponent -->
<g id="node5" class="node">
<title>UnlockSessionModernReversedComponent</title>
<polygon fill="#ffffb3" stroke="black" points="1088.73,-122 827.27,-122 827.27,-86 1088.73,-86 1088.73,-122"/>
<text text-anchor="middle" x="958" y="-99.8" font-family="Times,serif" font-size="14.00">UnlockSessionModernReversedComponent</text>
</g>
<!-- UnlockSessionModernReversedComponent&#45;&gt;UnlockSessionModule -->
<g id="edge5" class="edge">
<title>UnlockSessionModernReversedComponent&#45;&gt;UnlockSessionModule</title>
<path fill="none" stroke="black" d="M958,-122.11C958,-122.11 958,-140.99 958,-140.99"/>
<polygon fill="black" stroke="black" points="954.5,-140.99 958,-150.99 961.5,-140.99 954.5,-140.99"/>
</g>
<!-- UnlockSessionSplitScreenComponent -->
<g id="node6" class="node">
<title>UnlockSessionSplitScreenComponent</title>
<polygon fill="#ffffb3" stroke="black" points="808.86,-122 579.14,-122 579.14,-86 808.86,-86 808.86,-122"/>
<text text-anchor="middle" x="694" y="-99.8" font-family="Times,serif" font-size="14.00">UnlockSessionSplitScreenComponent</text>
</g>
<!-- UnlockSessionSplitScreenComponent&#45;&gt;UnlockSessionModule -->
<g id="edge6" class="edge">
<title>UnlockSessionSplitScreenComponent&#45;&gt;UnlockSessionModule</title>
<path fill="none" stroke="black" d="M694,-122.01C694,-138.05 694,-159 694,-159 694,-159 876.21,-159 876.21,-159"/>
<polygon fill="black" stroke="black" points="876.21,-162.5 886.21,-159 876.21,-155.5 876.21,-162.5"/>
</g>
<!-- UnlockSessionSplitScreenReversedComponent -->
<g id="node7" class="node">
<title>UnlockSessionSplitScreenReversedComponent</title>
<polygon fill="#ffffb3" stroke="black" points="560.95,-122 279.05,-122 279.05,-86 560.95,-86 560.95,-122"/>
<text text-anchor="middle" x="420" y="-99.8" font-family="Times,serif" font-size="14.00">UnlockSessionSplitScreenReversedComponent</text>
</g>
<!-- UnlockSessionSplitScreenReversedComponent&#45;&gt;UnlockSessionModule -->
<g id="edge7" class="edge">
<title>UnlockSessionSplitScreenReversedComponent&#45;&gt;UnlockSessionModule</title>
<path fill="none" stroke="black" d="M420,-122.27C420,-140.56 420,-166 420,-166 420,-166 876.28,-166 876.28,-166"/>
<polygon fill="black" stroke="black" points="876.28,-169.5 886.28,-166 876.28,-162.5 876.28,-169.5"/>
</g>
<!-- FuseAlertModule -->
<g id="node9" class="node">
<title>FuseAlertModule</title>
<polygon fill="#8dd3c7" stroke="black" points="255.25,-122 252.25,-126 231.25,-126 228.25,-122 140.75,-122 140.75,-86 255.25,-86 255.25,-122"/>
<text text-anchor="middle" x="198" y="-99.8" font-family="Times,serif" font-size="14.00">FuseAlertModule</text>
</g>
<!-- FuseAlertModule&#45;&gt;UnlockSessionModule -->
<g id="edge8" class="edge">
<title>FuseAlertModule&#45;&gt;UnlockSessionModule</title>
<path fill="none" stroke="black" d="M198,-122.13C198,-142.57 198,-173 198,-173 198,-173 876.16,-173 876.16,-173"/>
<polygon fill="black" stroke="black" points="876.16,-176.5 886.16,-173 876.16,-169.5 876.16,-176.5"/>
</g>
<!-- SharedModule -->
<g id="node10" class="node">
<title>SharedModule</title>
<polygon fill="#8dd3c7" stroke="black" points="122.42,-122 119.42,-126 98.42,-126 95.42,-122 23.58,-122 23.58,-86 122.42,-86 122.42,-122"/>
<text text-anchor="middle" x="73" y="-99.8" font-family="Times,serif" font-size="14.00">SharedModule</text>
</g>
<!-- SharedModule&#45;&gt;UnlockSessionModule -->
<g id="edge9" class="edge">
<title>SharedModule&#45;&gt;UnlockSessionModule</title>
<path fill="none" stroke="black" d="M73,-122.01C73,-144.49 73,-180 73,-180 73,-180 876.33,-180 876.33,-180"/>
<polygon fill="black" stroke="black" points="876.33,-183.5 886.33,-180 876.33,-176.5 876.33,-183.5"/>
</g>
</g>
</svg>
