<?xml version="1.0" encoding="UTF-8" standalone="no"?>
<!DOCTYPE svg PUBLIC "-//W3C//DTD SVG 1.1//EN"
 "http://www.w3.org/Graphics/SVG/1.1/DTD/svg11.dtd">
<!-- Generated by graphviz version 2.47.0 (20210316.0004)
 -->
<!-- Title: dependencies Pages: 1 -->
<svg width="504pt" height="211pt"
 viewBox="0.00 0.00 504.00 211.00" xmlns="http://www.w3.org/2000/svg" xmlns:xlink="http://www.w3.org/1999/xlink">
<g id="graph0" class="graph" transform="scale(1 1) rotate(0) translate(4 207)">
<title>dependencies</title>
<polygon fill="white" stroke="transparent" points="-4,4 -4,-207 500,-207 500,4 -4,4"/>
<text text-anchor="start" x="227.01" y="-42.4" font-family="Times-12" font-weight="bold" font-size="14.00">Legend</text>
<polygon fill="#ffffb3" stroke="transparent" points="14,-10 14,-30 34,-30 34,-10 14,-10"/>
<text text-anchor="start" x="37.63" y="-15.4" font-family="Times-12" font-size="14.00"> &#160;Declarations</text>
<polygon fill="#8dd3c7" stroke="transparent" points="127,-10 127,-30 147,-30 147,-10 127,-10"/>
<text text-anchor="start" x="150.73" y="-15.4" font-family="Times-12" font-size="14.00"> &#160;Module</text>
<polygon fill="#80b1d3" stroke="transparent" points="213,-10 213,-30 233,-30 233,-10 213,-10"/>
<text text-anchor="start" x="236.78" y="-15.4" font-family="Times-12" font-size="14.00"> &#160;Bootstrap</text>
<polygon fill="#fdb462" stroke="transparent" points="310,-10 310,-30 330,-30 330,-10 310,-10"/>
<text text-anchor="start" x="333.67" y="-15.4" font-family="Times-12" font-size="14.00"> &#160;Providers</text>
<polygon fill="#fb8072" stroke="transparent" points="406,-10 406,-30 426,-30 426,-10 406,-10"/>
<text text-anchor="start" x="429.73" y="-15.4" font-family="Times-12" font-size="14.00"> &#160;Exports</text>
<g id="clust1" class="cluster">
<title>cluster_DatatableModule</title>
<polygon fill="none" stroke="black" stroke-dasharray="1,5" points="104,-70 104,-195 392,-195 392,-70 104,-70"/>
</g>
<g id="clust2" class="cluster">
<title>cluster_DatatableModule_declarations</title>
<polygon fill="none" stroke="black" points="234,-78 234,-130 384,-130 384,-78 234,-78"/>
</g>
<g id="clust4" class="cluster">
<title>cluster_DatatableModule_imports</title>
<polygon fill="none" stroke="black" points="112,-78 112,-130 226,-130 226,-78 112,-78"/>
</g>
<!-- DatatableComponent -->
<g id="node1" class="node">
<title>DatatableComponent</title>
<polygon fill="#ffffb3" stroke="black" points="376.47,-122 241.53,-122 241.53,-86 376.47,-86 376.47,-122"/>
<text text-anchor="middle" x="309" y="-99.8" font-family="Times,serif" font-size="14.00">DatatableComponent</text>
</g>
<!-- DatatableModule -->
<g id="node2" class="node">
<title>DatatableModule</title>
<polygon fill="#8dd3c7" stroke="black" points="295.69,-187 292.69,-191 271.69,-191 268.69,-187 182.31,-187 182.31,-151 295.69,-151 295.69,-187"/>
<text text-anchor="middle" x="239" y="-164.8" font-family="Times,serif" font-size="14.00">DatatableModule</text>
</g>
<!-- DatatableComponent&#45;&gt;DatatableModule -->
<g id="edge1" class="edge">
<title>DatatableComponent&#45;&gt;DatatableModule</title>
<path fill="none" stroke="black" d="M268.55,-122.11C268.55,-122.11 268.55,-140.99 268.55,-140.99"/>
<polygon fill="black" stroke="black" points="265.05,-140.99 268.55,-150.99 272.05,-140.99 265.05,-140.99"/>
</g>
<!-- SharedModule -->
<g id="node3" class="node">
<title>SharedModule</title>
<polygon fill="#8dd3c7" stroke="black" points="218.42,-122 215.42,-126 194.42,-126 191.42,-122 119.58,-122 119.58,-86 218.42,-86 218.42,-122"/>
<text text-anchor="middle" x="169" y="-99.8" font-family="Times,serif" font-size="14.00">SharedModule</text>
</g>
<!-- SharedModule&#45;&gt;DatatableModule -->
<g id="edge2" class="edge">
<title>SharedModule&#45;&gt;DatatableModule</title>
<path fill="none" stroke="black" d="M200.31,-122.11C200.31,-122.11 200.31,-140.99 200.31,-140.99"/>
<polygon fill="black" stroke="black" points="196.81,-140.99 200.31,-150.99 203.81,-140.99 196.81,-140.99"/>
</g>
</g>
</svg>
