<?xml version="1.0" encoding="UTF-8" standalone="no"?>
<!DOCTYPE svg PUBLIC "-//W3C//DTD SVG 1.1//EN"
 "http://www.w3.org/Graphics/SVG/1.1/DTD/svg11.dtd">
<!-- Generated by graphviz version 2.47.0 (20210316.0004)
 -->
<!-- Title: dependencies Pages: 1 -->
<svg width="1760pt" height="284pt"
 viewBox="0.00 0.00 1760.00 284.00" xmlns="http://www.w3.org/2000/svg" xmlns:xlink="http://www.w3.org/1999/xlink">
<g id="graph0" class="graph" transform="scale(1 1) rotate(0) translate(4 280)">
<title>dependencies</title>
<polygon fill="white" stroke="transparent" points="-4,4 -4,-280 1756,-280 1756,4 -4,4"/>
<text text-anchor="start" x="855.01" y="-42.4" font-family="Times-12" font-weight="bold" font-size="14.00">Legend</text>
<polygon fill="#ffffb3" stroke="transparent" points="642,-10 642,-30 662,-30 662,-10 642,-10"/>
<text text-anchor="start" x="665.63" y="-15.4" font-family="Times-12" font-size="14.00"> &#160;Declarations</text>
<polygon fill="#8dd3c7" stroke="transparent" points="755,-10 755,-30 775,-30 775,-10 755,-10"/>
<text text-anchor="start" x="778.73" y="-15.4" font-family="Times-12" font-size="14.00"> &#160;Module</text>
<polygon fill="#80b1d3" stroke="transparent" points="841,-10 841,-30 861,-30 861,-10 841,-10"/>
<text text-anchor="start" x="864.78" y="-15.4" font-family="Times-12" font-size="14.00"> &#160;Bootstrap</text>
<polygon fill="#fdb462" stroke="transparent" points="938,-10 938,-30 958,-30 958,-10 938,-10"/>
<text text-anchor="start" x="961.67" y="-15.4" font-family="Times-12" font-size="14.00"> &#160;Providers</text>
<polygon fill="#fb8072" stroke="transparent" points="1034,-10 1034,-30 1054,-30 1054,-10 1034,-10"/>
<text text-anchor="start" x="1057.73" y="-15.4" font-family="Times-12" font-size="14.00"> &#160;Exports</text>
<g id="clust1" class="cluster">
<title>cluster_FuturisticLayoutModule</title>
<polygon fill="none" stroke="black" stroke-dasharray="1,5" points="8,-70 8,-268 1744,-268 1744,-70 8,-70"/>
</g>
<g id="clust4" class="cluster">
<title>cluster_FuturisticLayoutModule_imports</title>
<polygon fill="none" stroke="black" points="214,-78 214,-130 1736,-130 1736,-78 214,-78"/>
</g>
<g id="clust5" class="cluster">
<title>cluster_FuturisticLayoutModule_exports</title>
<polygon fill="none" stroke="black" points="723,-208 723,-260 917,-260 917,-208 723,-208"/>
</g>
<g id="clust2" class="cluster">
<title>cluster_FuturisticLayoutModule_declarations</title>
<polygon fill="none" stroke="black" points="16,-78 16,-130 206,-130 206,-78 16,-78"/>
</g>
<!-- FuturisticLayoutComponent -->
<g id="node1" class="node">
<title>FuturisticLayoutComponent</title>
<polygon fill="#ffffb3" stroke="black" points="198.16,-122 23.84,-122 23.84,-86 198.16,-86 198.16,-122"/>
<text text-anchor="middle" x="111" y="-99.8" font-family="Times,serif" font-size="14.00">FuturisticLayoutComponent</text>
</g>
<!-- FuturisticLayoutModule -->
<g id="node2" class="node">
<title>FuturisticLayoutModule</title>
<polygon fill="#8dd3c7" stroke="black" points="896.37,-187 893.37,-191 872.37,-191 869.37,-187 743.63,-187 743.63,-151 896.37,-151 896.37,-187"/>
<text text-anchor="middle" x="820" y="-164.8" font-family="Times,serif" font-size="14.00">FuturisticLayoutModule</text>
</g>
<!-- FuturisticLayoutComponent&#45;&gt;FuturisticLayoutModule -->
<g id="edge1" class="edge">
<title>FuturisticLayoutComponent&#45;&gt;FuturisticLayoutModule</title>
<path fill="none" stroke="black" d="M111,-122.25C111,-145.02 111,-181 111,-181 111,-181 733.45,-181 733.45,-181"/>
<polygon fill="black" stroke="black" points="733.45,-184.5 743.45,-181 733.45,-177.5 733.45,-184.5"/>
</g>
<!-- FuturisticLayoutComponent  -->
<g id="node14" class="node">
<title>FuturisticLayoutComponent </title>
<polygon fill="#fb8072" stroke="black" points="909.16,-252 730.84,-252 730.84,-216 909.16,-216 909.16,-252"/>
<text text-anchor="middle" x="820" y="-229.8" font-family="Times,serif" font-size="14.00">FuturisticLayoutComponent </text>
</g>
<!-- FuturisticLayoutModule&#45;&gt;FuturisticLayoutComponent  -->
<g id="edge13" class="edge">
<title>FuturisticLayoutModule&#45;&gt;FuturisticLayoutComponent </title>
<path fill="none" stroke="black" stroke-dasharray="5,2" d="M820,-187.11C820,-187.11 820,-205.99 820,-205.99"/>
<polygon fill="black" stroke="black" points="816.5,-205.99 820,-215.99 823.5,-205.99 816.5,-205.99"/>
</g>
<!-- FuseFullscreenModule -->
<g id="node3" class="node">
<title>FuseFullscreenModule</title>
<polygon fill="#8dd3c7" stroke="black" points="1728.3,-122 1725.3,-126 1704.3,-126 1701.3,-122 1583.7,-122 1583.7,-86 1728.3,-86 1728.3,-122"/>
<text text-anchor="middle" x="1656" y="-99.8" font-family="Times,serif" font-size="14.00">FuseFullscreenModule</text>
</g>
<!-- FuseFullscreenModule&#45;&gt;FuturisticLayoutModule -->
<g id="edge2" class="edge">
<title>FuseFullscreenModule&#45;&gt;FuturisticLayoutModule</title>
<path fill="none" stroke="black" d="M1656,-122.25C1656,-145.02 1656,-181 1656,-181 1656,-181 906.41,-181 906.41,-181"/>
<polygon fill="black" stroke="black" points="906.41,-177.5 896.41,-181 906.41,-184.5 906.41,-177.5"/>
</g>
<!-- FuseLoadingBarModule -->
<g id="node4" class="node">
<title>FuseLoadingBarModule</title>
<polygon fill="#8dd3c7" stroke="black" points="1565.36,-122 1562.36,-126 1541.36,-126 1538.36,-122 1412.64,-122 1412.64,-86 1565.36,-86 1565.36,-122"/>
<text text-anchor="middle" x="1489" y="-99.8" font-family="Times,serif" font-size="14.00">FuseLoadingBarModule</text>
</g>
<!-- FuseLoadingBarModule&#45;&gt;FuturisticLayoutModule -->
<g id="edge3" class="edge">
<title>FuseLoadingBarModule&#45;&gt;FuturisticLayoutModule</title>
<path fill="none" stroke="black" d="M1489,-122.28C1489,-143.32 1489,-175 1489,-175 1489,-175 906.42,-175 906.42,-175"/>
<polygon fill="black" stroke="black" points="906.42,-171.5 896.42,-175 906.42,-178.5 906.42,-171.5"/>
</g>
<!-- FuseNavigationModule -->
<g id="node5" class="node">
<title>FuseNavigationModule</title>
<polygon fill="#8dd3c7" stroke="black" points="1394.2,-122 1391.2,-126 1370.2,-126 1367.2,-122 1245.8,-122 1245.8,-86 1394.2,-86 1394.2,-122"/>
<text text-anchor="middle" x="1320" y="-99.8" font-family="Times,serif" font-size="14.00">FuseNavigationModule</text>
</g>
<!-- FuseNavigationModule&#45;&gt;FuturisticLayoutModule -->
<g id="edge4" class="edge">
<title>FuseNavigationModule&#45;&gt;FuturisticLayoutModule</title>
<path fill="none" stroke="black" d="M1320,-122.11C1320,-141.34 1320,-169 1320,-169 1320,-169 906.48,-169 906.48,-169"/>
<polygon fill="black" stroke="black" points="906.48,-165.5 896.48,-169 906.48,-172.5 906.48,-165.5"/>
</g>
<!-- LanguagesModule -->
<g id="node6" class="node">
<title>LanguagesModule</title>
<polygon fill="#8dd3c7" stroke="black" points="1228.19,-122 1225.19,-126 1204.19,-126 1201.19,-122 1107.81,-122 1107.81,-86 1228.19,-86 1228.19,-122"/>
<text text-anchor="middle" x="1168" y="-99.8" font-family="Times,serif" font-size="14.00">LanguagesModule</text>
</g>
<!-- LanguagesModule&#45;&gt;FuturisticLayoutModule -->
<g id="edge5" class="edge">
<title>LanguagesModule&#45;&gt;FuturisticLayoutModule</title>
<path fill="none" stroke="black" d="M1168,-122.02C1168,-139.37 1168,-163 1168,-163 1168,-163 906.8,-163 906.8,-163"/>
<polygon fill="black" stroke="black" points="906.8,-159.5 896.8,-163 906.8,-166.5 906.8,-159.5"/>
</g>
<!-- MessagesModule -->
<g id="node7" class="node">
<title>MessagesModule</title>
<polygon fill="#8dd3c7" stroke="black" points="1089.97,-122 1086.97,-126 1065.97,-126 1062.97,-122 976.03,-122 976.03,-86 1089.97,-86 1089.97,-122"/>
<text text-anchor="middle" x="1033" y="-99.8" font-family="Times,serif" font-size="14.00">MessagesModule</text>
</g>
<!-- MessagesModule&#45;&gt;FuturisticLayoutModule -->
<g id="edge6" class="edge">
<title>MessagesModule&#45;&gt;FuturisticLayoutModule</title>
<path fill="none" stroke="black" d="M1033,-122.24C1033,-137.57 1033,-157 1033,-157 1033,-157 906.6,-157 906.6,-157"/>
<polygon fill="black" stroke="black" points="906.6,-153.5 896.6,-157 906.6,-160.5 906.6,-153.5"/>
</g>
<!-- NotificationsModule -->
<g id="node8" class="node">
<title>NotificationsModule</title>
<polygon fill="#8dd3c7" stroke="black" points="958.14,-122 955.14,-126 934.14,-126 931.14,-122 825.86,-122 825.86,-86 958.14,-86 958.14,-122"/>
<text text-anchor="middle" x="892" y="-99.8" font-family="Times,serif" font-size="14.00">NotificationsModule</text>
</g>
<!-- NotificationsModule&#45;&gt;FuturisticLayoutModule -->
<g id="edge7" class="edge">
<title>NotificationsModule&#45;&gt;FuturisticLayoutModule</title>
<path fill="none" stroke="black" d="M861.06,-122.11C861.06,-122.11 861.06,-140.99 861.06,-140.99"/>
<polygon fill="black" stroke="black" points="857.56,-140.99 861.06,-150.99 864.56,-140.99 857.56,-140.99"/>
</g>
<!-- QuickChatModule -->
<g id="node9" class="node">
<title>QuickChatModule</title>
<polygon fill="#8dd3c7" stroke="black" points="808.2,-122 805.2,-126 784.2,-126 781.2,-122 687.8,-122 687.8,-86 808.2,-86 808.2,-122"/>
<text text-anchor="middle" x="748" y="-99.8" font-family="Times,serif" font-size="14.00">QuickChatModule</text>
</g>
<!-- QuickChatModule&#45;&gt;FuturisticLayoutModule -->
<g id="edge8" class="edge">
<title>QuickChatModule&#45;&gt;FuturisticLayoutModule</title>
<path fill="none" stroke="black" d="M775.83,-122.11C775.83,-122.11 775.83,-140.99 775.83,-140.99"/>
<polygon fill="black" stroke="black" points="772.33,-140.99 775.83,-150.99 779.33,-140.99 772.33,-140.99"/>
</g>
<!-- SearchModule -->
<g id="node10" class="node">
<title>SearchModule</title>
<polygon fill="#8dd3c7" stroke="black" points="669.64,-122 666.64,-126 645.64,-126 642.64,-122 572.36,-122 572.36,-86 669.64,-86 669.64,-122"/>
<text text-anchor="middle" x="621" y="-99.8" font-family="Times,serif" font-size="14.00">SearchModule</text>
</g>
<!-- SearchModule&#45;&gt;FuturisticLayoutModule -->
<g id="edge9" class="edge">
<title>SearchModule&#45;&gt;FuturisticLayoutModule</title>
<path fill="none" stroke="black" d="M621,-122.24C621,-137.57 621,-157 621,-157 621,-157 733.35,-157 733.35,-157"/>
<polygon fill="black" stroke="black" points="733.35,-160.5 743.35,-157 733.35,-153.5 733.35,-160.5"/>
</g>
<!-- SharedModule -->
<g id="node11" class="node">
<title>SharedModule</title>
<polygon fill="#8dd3c7" stroke="black" points="554.42,-122 551.42,-126 530.42,-126 527.42,-122 455.58,-122 455.58,-86 554.42,-86 554.42,-122"/>
<text text-anchor="middle" x="505" y="-99.8" font-family="Times,serif" font-size="14.00">SharedModule</text>
</g>
<!-- SharedModule&#45;&gt;FuturisticLayoutModule -->
<g id="edge10" class="edge">
<title>SharedModule&#45;&gt;FuturisticLayoutModule</title>
<path fill="none" stroke="black" d="M505,-122.02C505,-139.37 505,-163 505,-163 505,-163 733.35,-163 733.35,-163"/>
<polygon fill="black" stroke="black" points="733.35,-166.5 743.35,-163 733.35,-159.5 733.35,-166.5"/>
</g>
<!-- ShortcutsModule -->
<g id="node12" class="node">
<title>ShortcutsModule</title>
<polygon fill="#8dd3c7" stroke="black" points="438.43,-122 435.43,-126 414.43,-126 411.43,-122 325.57,-122 325.57,-86 438.43,-86 438.43,-122"/>
<text text-anchor="middle" x="382" y="-99.8" font-family="Times,serif" font-size="14.00">ShortcutsModule</text>
</g>
<!-- ShortcutsModule&#45;&gt;FuturisticLayoutModule -->
<g id="edge11" class="edge">
<title>ShortcutsModule&#45;&gt;FuturisticLayoutModule</title>
<path fill="none" stroke="black" d="M382,-122.11C382,-141.34 382,-169 382,-169 382,-169 733.46,-169 733.46,-169"/>
<polygon fill="black" stroke="black" points="733.46,-172.5 743.46,-169 733.46,-165.5 733.46,-172.5"/>
</g>
<!-- UserModule -->
<g id="node13" class="node">
<title>UserModule</title>
<polygon fill="#8dd3c7" stroke="black" points="307.98,-122 304.98,-126 283.98,-126 280.98,-122 222.02,-122 222.02,-86 307.98,-86 307.98,-122"/>
<text text-anchor="middle" x="265" y="-99.8" font-family="Times,serif" font-size="14.00">UserModule</text>
</g>
<!-- UserModule&#45;&gt;FuturisticLayoutModule -->
<g id="edge12" class="edge">
<title>UserModule&#45;&gt;FuturisticLayoutModule</title>
<path fill="none" stroke="black" d="M265,-122.28C265,-143.32 265,-175 265,-175 265,-175 733.41,-175 733.41,-175"/>
<polygon fill="black" stroke="black" points="733.41,-178.5 743.41,-175 733.41,-171.5 733.41,-178.5"/>
</g>
</g>
</svg>
