<?xml version="1.0" encoding="UTF-8" standalone="no"?>
<!DOCTYPE svg PUBLIC "-//W3C//DTD SVG 1.1//EN"
 "http://www.w3.org/Graphics/SVG/1.1/DTD/svg11.dtd">
<!-- Generated by graphviz version 2.47.0 (20210316.0004)
 -->
<!-- Title: dependencies Pages: 1 -->
<svg width="504pt" height="211pt"
 viewBox="0.00 0.00 504.00 211.00" xmlns="http://www.w3.org/2000/svg" xmlns:xlink="http://www.w3.org/1999/xlink">
<g id="graph0" class="graph" transform="scale(1 1) rotate(0) translate(4 207)">
<title>dependencies</title>
<polygon fill="white" stroke="transparent" points="-4,4 -4,-207 500,-207 500,4 -4,4"/>
<text text-anchor="start" x="227.01" y="-42.4" font-family="Times-12" font-weight="bold" font-size="14.00">Legend</text>
<polygon fill="#ffffb3" stroke="transparent" points="14,-10 14,-30 34,-30 34,-10 14,-10"/>
<text text-anchor="start" x="37.63" y="-15.4" font-family="Times-12" font-size="14.00"> &#160;Declarations</text>
<polygon fill="#8dd3c7" stroke="transparent" points="127,-10 127,-30 147,-30 147,-10 127,-10"/>
<text text-anchor="start" x="150.73" y="-15.4" font-family="Times-12" font-size="14.00"> &#160;Module</text>
<polygon fill="#80b1d3" stroke="transparent" points="213,-10 213,-30 233,-30 233,-10 213,-10"/>
<text text-anchor="start" x="236.78" y="-15.4" font-family="Times-12" font-size="14.00"> &#160;Bootstrap</text>
<polygon fill="#fdb462" stroke="transparent" points="310,-10 310,-30 330,-30 330,-10 310,-10"/>
<text text-anchor="start" x="333.67" y="-15.4" font-family="Times-12" font-size="14.00"> &#160;Providers</text>
<polygon fill="#fb8072" stroke="transparent" points="406,-10 406,-30 426,-30 426,-10 406,-10"/>
<text text-anchor="start" x="429.73" y="-15.4" font-family="Times-12" font-size="14.00"> &#160;Exports</text>
<g id="clust1" class="cluster">
<title>cluster_AuthModule</title>
<polygon fill="none" stroke="black" stroke-dasharray="1,5" points="91,-70 91,-195 405,-195 405,-70 91,-70"/>
</g>
<g id="clust6" class="cluster">
<title>cluster_AuthModule_providers</title>
<polygon fill="none" stroke="black" points="99,-78 99,-130 397,-130 397,-78 99,-78"/>
</g>
<!-- AuthInterceptor -->
<g id="node1" class="node">
<title>AuthInterceptor</title>
<ellipse fill="#fdb462" stroke="black" cx="316" cy="-104" rx="72.91" ry="18"/>
<text text-anchor="middle" x="316" y="-99.8" font-family="Times,serif" font-size="14.00">AuthInterceptor</text>
</g>
<!-- AuthModule -->
<g id="node3" class="node">
<title>AuthModule</title>
<polygon fill="#8dd3c7" stroke="black" points="284.55,-187 281.55,-191 260.55,-191 257.55,-187 197.45,-187 197.45,-151 284.55,-151 284.55,-187"/>
<text text-anchor="middle" x="241" y="-164.8" font-family="Times,serif" font-size="14.00">AuthModule</text>
</g>
<!-- AuthInterceptor&#45;&gt;AuthModule -->
<g id="edge1" class="edge">
<title>AuthInterceptor&#45;&gt;AuthModule</title>
<path fill="none" stroke="black" d="M264.03,-116.84C264.03,-116.84 264.03,-140.52 264.03,-140.52"/>
<polygon fill="black" stroke="black" points="260.53,-140.52 264.03,-150.52 267.53,-140.52 260.53,-140.52"/>
</g>
<!-- AuthService -->
<g id="node2" class="node">
<title>AuthService</title>
<ellipse fill="#fdb462" stroke="black" cx="166" cy="-104" rx="59.11" ry="18"/>
<text text-anchor="middle" x="166" y="-99.8" font-family="Times,serif" font-size="14.00">AuthService</text>
</g>
<!-- AuthService&#45;&gt;AuthModule -->
<g id="edge2" class="edge">
<title>AuthService&#45;&gt;AuthModule</title>
<path fill="none" stroke="black" d="M211.27,-115.92C211.27,-115.92 211.27,-140.77 211.27,-140.77"/>
<polygon fill="black" stroke="black" points="207.77,-140.77 211.27,-150.77 214.77,-140.77 207.77,-140.77"/>
</g>
</g>
</svg>
