<?xml version="1.0" encoding="UTF-8" standalone="no"?>
<!DOCTYPE svg PUBLIC "-//W3C//DTD SVG 1.1//EN"
 "http://www.w3.org/Graphics/SVG/1.1/DTD/svg11.dtd">
<!-- Generated by graphviz version 2.47.0 (20210316.0004)
 -->
<!-- Title: dependencies Pages: 1 -->
<svg width="504pt" height="211pt"
 viewBox="0.00 0.00 504.00 211.00" xmlns="http://www.w3.org/2000/svg" xmlns:xlink="http://www.w3.org/1999/xlink">
<g id="graph0" class="graph" transform="scale(1 1) rotate(0) translate(4 207)">
<title>dependencies</title>
<polygon fill="white" stroke="transparent" points="-4,4 -4,-207 500,-207 500,4 -4,4"/>
<text text-anchor="start" x="227.01" y="-42.4" font-family="Times-12" font-weight="bold" font-size="14.00">Legend</text>
<polygon fill="#ffffb3" stroke="transparent" points="14,-10 14,-30 34,-30 34,-10 14,-10"/>
<text text-anchor="start" x="37.63" y="-15.4" font-family="Times-12" font-size="14.00"> &#160;Declarations</text>
<polygon fill="#8dd3c7" stroke="transparent" points="127,-10 127,-30 147,-30 147,-10 127,-10"/>
<text text-anchor="start" x="150.73" y="-15.4" font-family="Times-12" font-size="14.00"> &#160;Module</text>
<polygon fill="#80b1d3" stroke="transparent" points="213,-10 213,-30 233,-30 233,-10 213,-10"/>
<text text-anchor="start" x="236.78" y="-15.4" font-family="Times-12" font-size="14.00"> &#160;Bootstrap</text>
<polygon fill="#fdb462" stroke="transparent" points="310,-10 310,-30 330,-30 330,-10 310,-10"/>
<text text-anchor="start" x="333.67" y="-15.4" font-family="Times-12" font-size="14.00"> &#160;Providers</text>
<polygon fill="#fb8072" stroke="transparent" points="406,-10 406,-30 426,-30 426,-10 406,-10"/>
<text text-anchor="start" x="429.73" y="-15.4" font-family="Times-12" font-size="14.00"> &#160;Exports</text>
<g id="clust1" class="cluster">
<title>cluster_ECommerceModule</title>
<polygon fill="none" stroke="black" stroke-dasharray="1,5" points="15,-70 15,-195 481,-195 481,-70 15,-70"/>
</g>
<g id="clust5" class="cluster">
<title>cluster_ECommerceModule_imports</title>
<polygon fill="none" stroke="black" points="359,-78 359,-130 473,-130 473,-78 359,-78"/>
</g>
<g id="clust2" class="cluster">
<title>cluster_ECommerceModule_declarations</title>
<polygon fill="none" stroke="black" points="23,-78 23,-130 351,-130 351,-78 23,-78"/>
</g>
<!-- InventoryComponent -->
<g id="node1" class="node">
<title>InventoryComponent</title>
<polygon fill="#ffffb3" stroke="black" points="342.76,-122 207.24,-122 207.24,-86 342.76,-86 342.76,-122"/>
<text text-anchor="middle" x="275" y="-99.8" font-family="Times,serif" font-size="14.00">InventoryComponent</text>
</g>
<!-- ECommerceModule -->
<g id="node3" class="node">
<title>ECommerceModule</title>
<polygon fill="#8dd3c7" stroke="black" points="339.53,-187 336.53,-191 315.53,-191 312.53,-187 210.47,-187 210.47,-151 339.53,-151 339.53,-187"/>
<text text-anchor="middle" x="275" y="-164.8" font-family="Times,serif" font-size="14.00">ECommerceModule</text>
</g>
<!-- InventoryComponent&#45;&gt;ECommerceModule -->
<g id="edge1" class="edge">
<title>InventoryComponent&#45;&gt;ECommerceModule</title>
<path fill="none" stroke="black" d="M275,-122.11C275,-122.11 275,-140.99 275,-140.99"/>
<polygon fill="black" stroke="black" points="271.5,-140.99 275,-150.99 278.5,-140.99 271.5,-140.99"/>
</g>
<!-- InventoryListComponent -->
<g id="node2" class="node">
<title>InventoryListComponent</title>
<polygon fill="#ffffb3" stroke="black" points="188.54,-122 31.46,-122 31.46,-86 188.54,-86 188.54,-122"/>
<text text-anchor="middle" x="110" y="-99.8" font-family="Times,serif" font-size="14.00">InventoryListComponent</text>
</g>
<!-- InventoryListComponent&#45;&gt;ECommerceModule -->
<g id="edge2" class="edge">
<title>InventoryListComponent&#45;&gt;ECommerceModule</title>
<path fill="none" stroke="black" d="M110,-122.11C110,-141.34 110,-169 110,-169 110,-169 200.26,-169 200.26,-169"/>
<polygon fill="black" stroke="black" points="200.26,-172.5 210.26,-169 200.26,-165.5 200.26,-172.5"/>
</g>
<!-- SharedModule -->
<g id="node4" class="node">
<title>SharedModule</title>
<polygon fill="#8dd3c7" stroke="black" points="465.42,-122 462.42,-126 441.42,-126 438.42,-122 366.58,-122 366.58,-86 465.42,-86 465.42,-122"/>
<text text-anchor="middle" x="416" y="-99.8" font-family="Times,serif" font-size="14.00">SharedModule</text>
</g>
<!-- SharedModule&#45;&gt;ECommerceModule -->
<g id="edge3" class="edge">
<title>SharedModule&#45;&gt;ECommerceModule</title>
<path fill="none" stroke="black" d="M416,-122.11C416,-141.34 416,-169 416,-169 416,-169 349.72,-169 349.72,-169"/>
<polygon fill="black" stroke="black" points="349.72,-165.5 339.72,-169 349.72,-172.5 349.72,-165.5"/>
</g>
</g>
</svg>
