<?xml version="1.0" encoding="UTF-8" standalone="no"?>
<!DOCTYPE svg PUBLIC "-//W3C//DTD SVG 1.1//EN"
 "http://www.w3.org/Graphics/SVG/1.1/DTD/svg11.dtd">
<!-- Generated by graphviz version 2.47.0 (20210316.0004)
 -->
<!-- Title: dependencies Pages: 1 -->
<svg width="504pt" height="284pt"
 viewBox="0.00 0.00 504.00 284.00" xmlns="http://www.w3.org/2000/svg" xmlns:xlink="http://www.w3.org/1999/xlink">
<g id="graph0" class="graph" transform="scale(1 1) rotate(0) translate(4 280)">
<title>dependencies</title>
<polygon fill="white" stroke="transparent" points="-4,4 -4,-280 500,-280 500,4 -4,4"/>
<text text-anchor="start" x="227.01" y="-42.4" font-family="Times-12" font-weight="bold" font-size="14.00">Legend</text>
<polygon fill="#ffffb3" stroke="transparent" points="14,-10 14,-30 34,-30 34,-10 14,-10"/>
<text text-anchor="start" x="37.63" y="-15.4" font-family="Times-12" font-size="14.00"> &#160;Declarations</text>
<polygon fill="#8dd3c7" stroke="transparent" points="127,-10 127,-30 147,-30 147,-10 127,-10"/>
<text text-anchor="start" x="150.73" y="-15.4" font-family="Times-12" font-size="14.00"> &#160;Module</text>
<polygon fill="#80b1d3" stroke="transparent" points="213,-10 213,-30 233,-30 233,-10 213,-10"/>
<text text-anchor="start" x="236.78" y="-15.4" font-family="Times-12" font-size="14.00"> &#160;Bootstrap</text>
<polygon fill="#fdb462" stroke="transparent" points="310,-10 310,-30 330,-30 330,-10 310,-10"/>
<text text-anchor="start" x="333.67" y="-15.4" font-family="Times-12" font-size="14.00"> &#160;Providers</text>
<polygon fill="#fb8072" stroke="transparent" points="406,-10 406,-30 426,-30 426,-10 406,-10"/>
<text text-anchor="start" x="429.73" y="-15.4" font-family="Times-12" font-size="14.00"> &#160;Exports</text>
<g id="clust1" class="cluster">
<title>cluster_DemoSidebarModule</title>
<polygon fill="none" stroke="black" stroke-dasharray="1,5" points="67,-70 67,-268 429,-268 429,-70 67,-70"/>
</g>
<g id="clust4" class="cluster">
<title>cluster_DemoSidebarModule_imports</title>
<polygon fill="none" stroke="black" points="257,-78 257,-130 421,-130 421,-78 257,-78"/>
</g>
<g id="clust5" class="cluster">
<title>cluster_DemoSidebarModule_exports</title>
<polygon fill="none" stroke="black" points="159,-208 159,-260 337,-260 337,-208 159,-208"/>
</g>
<g id="clust2" class="cluster">
<title>cluster_DemoSidebarModule_declarations</title>
<polygon fill="none" stroke="black" points="75,-78 75,-130 249,-130 249,-78 75,-78"/>
</g>
<!-- DemoSidebarComponent -->
<g id="node1" class="node">
<title>DemoSidebarComponent</title>
<polygon fill="#ffffb3" stroke="black" points="241.31,-122 82.69,-122 82.69,-86 241.31,-86 241.31,-122"/>
<text text-anchor="middle" x="162" y="-99.8" font-family="Times,serif" font-size="14.00">DemoSidebarComponent</text>
</g>
<!-- DemoSidebarModule -->
<g id="node2" class="node">
<title>DemoSidebarModule</title>
<polygon fill="#8dd3c7" stroke="black" points="316.03,-187 313.03,-191 292.03,-191 289.03,-187 179.97,-187 179.97,-151 316.03,-151 316.03,-187"/>
<text text-anchor="middle" x="248" y="-164.8" font-family="Times,serif" font-size="14.00">DemoSidebarModule</text>
</g>
<!-- DemoSidebarComponent&#45;&gt;DemoSidebarModule -->
<g id="edge1" class="edge">
<title>DemoSidebarComponent&#45;&gt;DemoSidebarModule</title>
<path fill="none" stroke="black" d="M210.45,-122.11C210.45,-122.11 210.45,-140.99 210.45,-140.99"/>
<polygon fill="black" stroke="black" points="206.95,-140.99 210.45,-150.99 213.95,-140.99 206.95,-140.99"/>
</g>
<!-- DemoSidebarComponent  -->
<g id="node4" class="node">
<title>DemoSidebarComponent </title>
<polygon fill="#fb8072" stroke="black" points="328.81,-252 167.19,-252 167.19,-216 328.81,-216 328.81,-252"/>
<text text-anchor="middle" x="248" y="-229.8" font-family="Times,serif" font-size="14.00">DemoSidebarComponent </text>
</g>
<!-- DemoSidebarModule&#45;&gt;DemoSidebarComponent  -->
<g id="edge3" class="edge">
<title>DemoSidebarModule&#45;&gt;DemoSidebarComponent </title>
<path fill="none" stroke="black" stroke-dasharray="5,2" d="M248,-187.11C248,-187.11 248,-205.99 248,-205.99"/>
<polygon fill="black" stroke="black" points="244.5,-205.99 248,-215.99 251.5,-205.99 244.5,-205.99"/>
</g>
<!-- FuseNavigationModule -->
<g id="node3" class="node">
<title>FuseNavigationModule</title>
<polygon fill="#8dd3c7" stroke="black" points="413.2,-122 410.2,-126 389.2,-126 386.2,-122 264.8,-122 264.8,-86 413.2,-86 413.2,-122"/>
<text text-anchor="middle" x="339" y="-99.8" font-family="Times,serif" font-size="14.00">FuseNavigationModule</text>
</g>
<!-- FuseNavigationModule&#45;&gt;DemoSidebarModule -->
<g id="edge2" class="edge">
<title>FuseNavigationModule&#45;&gt;DemoSidebarModule</title>
<path fill="none" stroke="black" d="M290.58,-122.11C290.58,-122.11 290.58,-140.99 290.58,-140.99"/>
<polygon fill="black" stroke="black" points="287.08,-140.99 290.58,-150.99 294.08,-140.99 287.08,-140.99"/>
</g>
</g>
</svg>
