<?xml version="1.0" encoding="UTF-8" standalone="no"?>
<!DOCTYPE svg PUBLIC "-//W3C//DTD SVG 1.1//EN"
 "http://www.w3.org/Graphics/SVG/1.1/DTD/svg11.dtd">
<!-- Generated by graphviz version 2.47.0 (20210316.0004)
 -->
<!-- Title: dependencies Pages: 1 -->
<svg width="2111pt" height="211pt"
 viewBox="0.00 0.00 2111.00 211.00" xmlns="http://www.w3.org/2000/svg" xmlns:xlink="http://www.w3.org/1999/xlink">
<g id="graph0" class="graph" transform="scale(1 1) rotate(0) translate(4 207)">
<title>dependencies</title>
<polygon fill="white" stroke="transparent" points="-4,4 -4,-207 2107,-207 2107,4 -4,4"/>
<text text-anchor="start" x="1030.51" y="-42.4" font-family="Times-12" font-weight="bold" font-size="14.00">Legend</text>
<polygon fill="#ffffb3" stroke="transparent" points="817.5,-10 817.5,-30 837.5,-30 837.5,-10 817.5,-10"/>
<text text-anchor="start" x="841.13" y="-15.4" font-family="Times-12" font-size="14.00"> &#160;Declarations</text>
<polygon fill="#8dd3c7" stroke="transparent" points="930.5,-10 930.5,-30 950.5,-30 950.5,-10 930.5,-10"/>
<text text-anchor="start" x="954.23" y="-15.4" font-family="Times-12" font-size="14.00"> &#160;Module</text>
<polygon fill="#80b1d3" stroke="transparent" points="1016.5,-10 1016.5,-30 1036.5,-30 1036.5,-10 1016.5,-10"/>
<text text-anchor="start" x="1040.28" y="-15.4" font-family="Times-12" font-size="14.00"> &#160;Bootstrap</text>
<polygon fill="#fdb462" stroke="transparent" points="1113.5,-10 1113.5,-30 1133.5,-30 1133.5,-10 1113.5,-10"/>
<text text-anchor="start" x="1137.17" y="-15.4" font-family="Times-12" font-size="14.00"> &#160;Providers</text>
<polygon fill="#fb8072" stroke="transparent" points="1209.5,-10 1209.5,-30 1229.5,-30 1229.5,-10 1209.5,-10"/>
<text text-anchor="start" x="1233.23" y="-15.4" font-family="Times-12" font-size="14.00"> &#160;Exports</text>
<g id="clust1" class="cluster">
<title>cluster_ResetPasswordModule</title>
<polygon fill="none" stroke="black" stroke-dasharray="1,5" points="8,-70 8,-195 2095,-195 2095,-70 8,-70"/>
</g>
<g id="clust2" class="cluster">
<title>cluster_ResetPasswordModule_declarations</title>
<polygon fill="none" stroke="black" points="271,-78 271,-130 2087,-130 2087,-78 271,-78"/>
</g>
<g id="clust10" class="cluster">
<title>cluster_ResetPasswordModule_imports</title>
<polygon fill="none" stroke="black" points="16,-78 16,-130 263,-130 263,-78 16,-78"/>
</g>
<!-- ResetPasswordClassicComponent -->
<g id="node1" class="node">
<title>ResetPasswordClassicComponent</title>
<polygon fill="#ffffb3" stroke="black" points="2079.02,-122 1872.98,-122 1872.98,-86 2079.02,-86 2079.02,-122"/>
<text text-anchor="middle" x="1976" y="-99.8" font-family="Times,serif" font-size="14.00">ResetPasswordClassicComponent</text>
</g>
<!-- ResetPasswordModule -->
<g id="node8" class="node">
<title>ResetPasswordModule</title>
<polygon fill="#8dd3c7" stroke="black" points="1032.3,-187 1029.3,-191 1008.3,-191 1005.3,-187 887.7,-187 887.7,-151 1032.3,-151 1032.3,-187"/>
<text text-anchor="middle" x="960" y="-164.8" font-family="Times,serif" font-size="14.00">ResetPasswordModule</text>
</g>
<!-- ResetPasswordClassicComponent&#45;&gt;ResetPasswordModule -->
<g id="edge1" class="edge">
<title>ResetPasswordClassicComponent&#45;&gt;ResetPasswordModule</title>
<path fill="none" stroke="black" d="M1976,-122.01C1976,-144.49 1976,-180 1976,-180 1976,-180 1042.25,-180 1042.25,-180"/>
<polygon fill="black" stroke="black" points="1042.25,-176.5 1032.25,-180 1042.25,-183.5 1042.25,-176.5"/>
</g>
<!-- ResetPasswordFullscreenComponent -->
<g id="node2" class="node">
<title>ResetPasswordFullscreenComponent</title>
<polygon fill="#ffffb3" stroke="black" points="1855.4,-122 1630.6,-122 1630.6,-86 1855.4,-86 1855.4,-122"/>
<text text-anchor="middle" x="1743" y="-99.8" font-family="Times,serif" font-size="14.00">ResetPasswordFullscreenComponent</text>
</g>
<!-- ResetPasswordFullscreenComponent&#45;&gt;ResetPasswordModule -->
<g id="edge2" class="edge">
<title>ResetPasswordFullscreenComponent&#45;&gt;ResetPasswordModule</title>
<path fill="none" stroke="black" d="M1743,-122.13C1743,-142.57 1743,-173 1743,-173 1743,-173 1042.26,-173 1042.26,-173"/>
<polygon fill="black" stroke="black" points="1042.26,-169.5 1032.26,-173 1042.26,-176.5 1042.26,-169.5"/>
</g>
<!-- ResetPasswordFullscreenReversedComponent -->
<g id="node3" class="node">
<title>ResetPasswordFullscreenReversedComponent</title>
<polygon fill="#ffffb3" stroke="black" points="1613.49,-122 1336.51,-122 1336.51,-86 1613.49,-86 1613.49,-122"/>
<text text-anchor="middle" x="1475" y="-99.8" font-family="Times,serif" font-size="14.00">ResetPasswordFullscreenReversedComponent</text>
</g>
<!-- ResetPasswordFullscreenReversedComponent&#45;&gt;ResetPasswordModule -->
<g id="edge3" class="edge">
<title>ResetPasswordFullscreenReversedComponent&#45;&gt;ResetPasswordModule</title>
<path fill="none" stroke="black" d="M1475,-122.27C1475,-140.56 1475,-166 1475,-166 1475,-166 1042.42,-166 1042.42,-166"/>
<polygon fill="black" stroke="black" points="1042.42,-162.5 1032.42,-166 1042.42,-169.5 1042.42,-162.5"/>
</g>
<!-- ResetPasswordModernComponent -->
<g id="node4" class="node">
<title>ResetPasswordModernComponent</title>
<polygon fill="#ffffb3" stroke="black" points="1319.41,-122 1108.59,-122 1108.59,-86 1319.41,-86 1319.41,-122"/>
<text text-anchor="middle" x="1214" y="-99.8" font-family="Times,serif" font-size="14.00">ResetPasswordModernComponent</text>
</g>
<!-- ResetPasswordModernComponent&#45;&gt;ResetPasswordModule -->
<g id="edge4" class="edge">
<title>ResetPasswordModernComponent&#45;&gt;ResetPasswordModule</title>
<path fill="none" stroke="black" d="M1214,-122.01C1214,-138.05 1214,-159 1214,-159 1214,-159 1042.45,-159 1042.45,-159"/>
<polygon fill="black" stroke="black" points="1042.45,-155.5 1032.45,-159 1042.45,-162.5 1042.45,-155.5"/>
</g>
<!-- ResetPasswordModernReversedComponent -->
<g id="node5" class="node">
<title>ResetPasswordModernReversedComponent</title>
<polygon fill="#ffffb3" stroke="black" points="1091.49,-122 828.51,-122 828.51,-86 1091.49,-86 1091.49,-122"/>
<text text-anchor="middle" x="960" y="-99.8" font-family="Times,serif" font-size="14.00">ResetPasswordModernReversedComponent</text>
</g>
<!-- ResetPasswordModernReversedComponent&#45;&gt;ResetPasswordModule -->
<g id="edge5" class="edge">
<title>ResetPasswordModernReversedComponent&#45;&gt;ResetPasswordModule</title>
<path fill="none" stroke="black" d="M960,-122.11C960,-122.11 960,-140.99 960,-140.99"/>
<polygon fill="black" stroke="black" points="956.5,-140.99 960,-150.99 963.5,-140.99 956.5,-140.99"/>
</g>
<!-- ResetPasswordSplitScreenComponent -->
<g id="node6" class="node">
<title>ResetPasswordSplitScreenComponent</title>
<polygon fill="#ffffb3" stroke="black" points="810.13,-122 579.87,-122 579.87,-86 810.13,-86 810.13,-122"/>
<text text-anchor="middle" x="695" y="-99.8" font-family="Times,serif" font-size="14.00">ResetPasswordSplitScreenComponent</text>
</g>
<!-- ResetPasswordSplitScreenComponent&#45;&gt;ResetPasswordModule -->
<g id="edge6" class="edge">
<title>ResetPasswordSplitScreenComponent&#45;&gt;ResetPasswordModule</title>
<path fill="none" stroke="black" d="M695,-122.01C695,-138.05 695,-159 695,-159 695,-159 877.59,-159 877.59,-159"/>
<polygon fill="black" stroke="black" points="877.59,-162.5 887.59,-159 877.59,-155.5 877.59,-162.5"/>
</g>
<!-- ResetPasswordSplitScreenReversedComponent -->
<g id="node7" class="node">
<title>ResetPasswordSplitScreenReversedComponent</title>
<polygon fill="#ffffb3" stroke="black" points="561.21,-122 278.79,-122 278.79,-86 561.21,-86 561.21,-122"/>
<text text-anchor="middle" x="420" y="-99.8" font-family="Times,serif" font-size="14.00">ResetPasswordSplitScreenReversedComponent</text>
</g>
<!-- ResetPasswordSplitScreenReversedComponent&#45;&gt;ResetPasswordModule -->
<g id="edge7" class="edge">
<title>ResetPasswordSplitScreenReversedComponent&#45;&gt;ResetPasswordModule</title>
<path fill="none" stroke="black" d="M420,-122.27C420,-140.56 420,-166 420,-166 420,-166 877.73,-166 877.73,-166"/>
<polygon fill="black" stroke="black" points="877.73,-169.5 887.73,-166 877.73,-162.5 877.73,-169.5"/>
</g>
<!-- FuseAlertModule -->
<g id="node9" class="node">
<title>FuseAlertModule</title>
<polygon fill="#8dd3c7" stroke="black" points="255.25,-122 252.25,-126 231.25,-126 228.25,-122 140.75,-122 140.75,-86 255.25,-86 255.25,-122"/>
<text text-anchor="middle" x="198" y="-99.8" font-family="Times,serif" font-size="14.00">FuseAlertModule</text>
</g>
<!-- FuseAlertModule&#45;&gt;ResetPasswordModule -->
<g id="edge8" class="edge">
<title>FuseAlertModule&#45;&gt;ResetPasswordModule</title>
<path fill="none" stroke="black" d="M198,-122.13C198,-142.57 198,-173 198,-173 198,-173 877.63,-173 877.63,-173"/>
<polygon fill="black" stroke="black" points="877.63,-176.5 887.63,-173 877.63,-169.5 877.63,-176.5"/>
</g>
<!-- SharedModule -->
<g id="node10" class="node">
<title>SharedModule</title>
<polygon fill="#8dd3c7" stroke="black" points="122.42,-122 119.42,-126 98.42,-126 95.42,-122 23.58,-122 23.58,-86 122.42,-86 122.42,-122"/>
<text text-anchor="middle" x="73" y="-99.8" font-family="Times,serif" font-size="14.00">SharedModule</text>
</g>
<!-- SharedModule&#45;&gt;ResetPasswordModule -->
<g id="edge9" class="edge">
<title>SharedModule&#45;&gt;ResetPasswordModule</title>
<path fill="none" stroke="black" d="M73,-122.01C73,-144.49 73,-180 73,-180 73,-180 877.79,-180 877.79,-180"/>
<polygon fill="black" stroke="black" points="877.79,-183.5 887.79,-180 877.79,-176.5 877.79,-183.5"/>
</g>
</g>
</svg>
