<?xml version="1.0" encoding="UTF-8" standalone="no"?>
<!DOCTYPE svg PUBLIC "-//W3C//DTD SVG 1.1//EN"
 "http://www.w3.org/Graphics/SVG/1.1/DTD/svg11.dtd">
<!-- Generated by graphviz version 2.47.0 (20210316.0004)
 -->
<!-- Title: dependencies Pages: 1 -->
<svg width="504pt" height="211pt"
 viewBox="0.00 0.00 504.00 211.00" xmlns="http://www.w3.org/2000/svg" xmlns:xlink="http://www.w3.org/1999/xlink">
<g id="graph0" class="graph" transform="scale(1 1) rotate(0) translate(4 207)">
<title>dependencies</title>
<polygon fill="white" stroke="transparent" points="-4,4 -4,-207 500,-207 500,4 -4,4"/>
<text text-anchor="start" x="227.01" y="-42.4" font-family="Times-12" font-weight="bold" font-size="14.00">Legend</text>
<polygon fill="#ffffb3" stroke="transparent" points="14,-10 14,-30 34,-30 34,-10 14,-10"/>
<text text-anchor="start" x="37.63" y="-15.4" font-family="Times-12" font-size="14.00"> &#160;Declarations</text>
<polygon fill="#8dd3c7" stroke="transparent" points="127,-10 127,-30 147,-30 147,-10 127,-10"/>
<text text-anchor="start" x="150.73" y="-15.4" font-family="Times-12" font-size="14.00"> &#160;Module</text>
<polygon fill="#80b1d3" stroke="transparent" points="213,-10 213,-30 233,-30 233,-10 213,-10"/>
<text text-anchor="start" x="236.78" y="-15.4" font-family="Times-12" font-size="14.00"> &#160;Bootstrap</text>
<polygon fill="#fdb462" stroke="transparent" points="310,-10 310,-30 330,-30 330,-10 310,-10"/>
<text text-anchor="start" x="333.67" y="-15.4" font-family="Times-12" font-size="14.00"> &#160;Providers</text>
<polygon fill="#fb8072" stroke="transparent" points="406,-10 406,-30 426,-30 426,-10 406,-10"/>
<text text-anchor="start" x="429.73" y="-15.4" font-family="Times-12" font-size="14.00"> &#160;Exports</text>
<g id="clust1" class="cluster">
<title>cluster_ColorsModule</title>
<polygon fill="none" stroke="black" stroke-dasharray="1,5" points="33,-70 33,-195 463,-195 463,-70 33,-70"/>
</g>
<g id="clust4" class="cluster">
<title>cluster_ColorsModule_imports</title>
<polygon fill="none" stroke="black" points="183,-78 183,-130 455,-130 455,-78 183,-78"/>
</g>
<g id="clust2" class="cluster">
<title>cluster_ColorsModule_declarations</title>
<polygon fill="none" stroke="black" points="41,-78 41,-130 175,-130 175,-78 41,-78"/>
</g>
<!-- ColorsComponent -->
<g id="node1" class="node">
<title>ColorsComponent</title>
<polygon fill="#ffffb3" stroke="black" points="167.17,-122 48.83,-122 48.83,-86 167.17,-86 167.17,-122"/>
<text text-anchor="middle" x="108" y="-99.8" font-family="Times,serif" font-size="14.00">ColorsComponent</text>
</g>
<!-- ColorsModule -->
<g id="node2" class="node">
<title>ColorsModule</title>
<polygon fill="#8dd3c7" stroke="black" points="288.38,-187 285.38,-191 264.38,-191 261.38,-187 191.62,-187 191.62,-151 288.38,-151 288.38,-187"/>
<text text-anchor="middle" x="240" y="-164.8" font-family="Times,serif" font-size="14.00">ColorsModule</text>
</g>
<!-- ColorsComponent&#45;&gt;ColorsModule -->
<g id="edge1" class="edge">
<title>ColorsComponent&#45;&gt;ColorsModule</title>
<path fill="none" stroke="black" d="M108,-122.11C108,-141.34 108,-169 108,-169 108,-169 181.6,-169 181.6,-169"/>
<polygon fill="black" stroke="black" points="181.6,-172.5 191.6,-169 181.6,-165.5 181.6,-172.5"/>
</g>
<!-- FuseHighlightModule -->
<g id="node3" class="node">
<title>FuseHighlightModule</title>
<polygon fill="#8dd3c7" stroke="black" points="446.66,-122 443.66,-126 422.66,-126 419.66,-122 307.34,-122 307.34,-86 446.66,-86 446.66,-122"/>
<text text-anchor="middle" x="377" y="-99.8" font-family="Times,serif" font-size="14.00">FuseHighlightModule</text>
</g>
<!-- FuseHighlightModule&#45;&gt;ColorsModule -->
<g id="edge2" class="edge">
<title>FuseHighlightModule&#45;&gt;ColorsModule</title>
<path fill="none" stroke="black" d="M377,-122.11C377,-141.34 377,-169 377,-169 377,-169 298.69,-169 298.69,-169"/>
<polygon fill="black" stroke="black" points="298.69,-165.5 288.69,-169 298.69,-172.5 298.69,-165.5"/>
</g>
<!-- SharedModule -->
<g id="node4" class="node">
<title>SharedModule</title>
<polygon fill="#8dd3c7" stroke="black" points="289.42,-122 286.42,-126 265.42,-126 262.42,-122 190.58,-122 190.58,-86 289.42,-86 289.42,-122"/>
<text text-anchor="middle" x="240" y="-99.8" font-family="Times,serif" font-size="14.00">SharedModule</text>
</g>
<!-- SharedModule&#45;&gt;ColorsModule -->
<g id="edge3" class="edge">
<title>SharedModule&#45;&gt;ColorsModule</title>
<path fill="none" stroke="black" d="M240,-122.11C240,-122.11 240,-140.99 240,-140.99"/>
<polygon fill="black" stroke="black" points="236.5,-140.99 240,-150.99 243.5,-140.99 236.5,-140.99"/>
</g>
</g>
</svg>
