<?xml version="1.0" encoding="UTF-8" standalone="no"?>
<!DOCTYPE svg PUBLIC "-//W3C//DTD SVG 1.1//EN"
 "http://www.w3.org/Graphics/SVG/1.1/DTD/svg11.dtd">
<!-- Generated by graphviz version 2.47.0 (20210316.0004)
 -->
<!-- Title: dependencies Pages: 1 -->
<svg width="504pt" height="211pt"
 viewBox="0.00 0.00 504.00 211.00" xmlns="http://www.w3.org/2000/svg" xmlns:xlink="http://www.w3.org/1999/xlink">
<g id="graph0" class="graph" transform="scale(1 1) rotate(0) translate(4 207)">
<title>dependencies</title>
<polygon fill="white" stroke="transparent" points="-4,4 -4,-207 500,-207 500,4 -4,4"/>
<text text-anchor="start" x="227.01" y="-42.4" font-family="Times-12" font-weight="bold" font-size="14.00">Legend</text>
<polygon fill="#ffffb3" stroke="transparent" points="14,-10 14,-30 34,-30 34,-10 14,-10"/>
<text text-anchor="start" x="37.63" y="-15.4" font-family="Times-12" font-size="14.00"> &#160;Declarations</text>
<polygon fill="#8dd3c7" stroke="transparent" points="127,-10 127,-30 147,-30 147,-10 127,-10"/>
<text text-anchor="start" x="150.73" y="-15.4" font-family="Times-12" font-size="14.00"> &#160;Module</text>
<polygon fill="#80b1d3" stroke="transparent" points="213,-10 213,-30 233,-30 233,-10 213,-10"/>
<text text-anchor="start" x="236.78" y="-15.4" font-family="Times-12" font-size="14.00"> &#160;Bootstrap</text>
<polygon fill="#fdb462" stroke="transparent" points="310,-10 310,-30 330,-30 330,-10 310,-10"/>
<text text-anchor="start" x="333.67" y="-15.4" font-family="Times-12" font-size="14.00"> &#160;Providers</text>
<polygon fill="#fb8072" stroke="transparent" points="406,-10 406,-30 426,-30 426,-10 406,-10"/>
<text text-anchor="start" x="429.73" y="-15.4" font-family="Times-12" font-size="14.00"> &#160;Exports</text>
<g id="clust1" class="cluster">
<title>cluster_PricingSimpleModule</title>
<polygon fill="none" stroke="black" stroke-dasharray="1,5" points="24,-70 24,-195 472,-195 472,-70 24,-70"/>
</g>
<g id="clust4" class="cluster">
<title>cluster_PricingSimpleModule_imports</title>
<polygon fill="none" stroke="black" points="218,-78 218,-130 464,-130 464,-78 218,-78"/>
</g>
<g id="clust2" class="cluster">
<title>cluster_PricingSimpleModule_declarations</title>
<polygon fill="none" stroke="black" points="32,-78 32,-130 210,-130 210,-78 32,-78"/>
</g>
<!-- PricingSimpleComponent -->
<g id="node1" class="node">
<title>PricingSimpleComponent</title>
<polygon fill="#ffffb3" stroke="black" points="201.94,-122 40.06,-122 40.06,-86 201.94,-86 201.94,-122"/>
<text text-anchor="middle" x="121" y="-99.8" font-family="Times,serif" font-size="14.00">PricingSimpleComponent</text>
</g>
<!-- PricingSimpleModule -->
<g id="node2" class="node">
<title>PricingSimpleModule</title>
<polygon fill="#8dd3c7" stroke="black" points="344.66,-187 341.66,-191 320.66,-191 317.66,-187 205.34,-187 205.34,-151 344.66,-151 344.66,-187"/>
<text text-anchor="middle" x="275" y="-164.8" font-family="Times,serif" font-size="14.00">PricingSimpleModule</text>
</g>
<!-- PricingSimpleComponent&#45;&gt;PricingSimpleModule -->
<g id="edge1" class="edge">
<title>PricingSimpleComponent&#45;&gt;PricingSimpleModule</title>
<path fill="none" stroke="black" d="M201.94,-104C210.12,-104 215.48,-104 215.48,-104 215.48,-104 215.48,-140.89 215.48,-140.89"/>
<polygon fill="black" stroke="black" points="211.98,-140.89 215.48,-150.89 218.98,-140.89 211.98,-140.89"/>
</g>
<!-- FuseCardModule -->
<g id="node3" class="node">
<title>FuseCardModule</title>
<polygon fill="#8dd3c7" stroke="black" points="455.7,-122 452.7,-126 431.7,-126 428.7,-122 342.3,-122 342.3,-86 455.7,-86 455.7,-122"/>
<text text-anchor="middle" x="399" y="-99.8" font-family="Times,serif" font-size="14.00">FuseCardModule</text>
</g>
<!-- FuseCardModule&#45;&gt;PricingSimpleModule -->
<g id="edge2" class="edge">
<title>FuseCardModule&#45;&gt;PricingSimpleModule</title>
<path fill="none" stroke="black" d="M342.16,-104C336.79,-104 333.3,-104 333.3,-104 333.3,-104 333.3,-140.89 333.3,-140.89"/>
<polygon fill="black" stroke="black" points="329.8,-140.89 333.3,-150.89 336.8,-140.89 329.8,-140.89"/>
</g>
<!-- SharedModule -->
<g id="node4" class="node">
<title>SharedModule</title>
<polygon fill="#8dd3c7" stroke="black" points="324.42,-122 321.42,-126 300.42,-126 297.42,-122 225.58,-122 225.58,-86 324.42,-86 324.42,-122"/>
<text text-anchor="middle" x="275" y="-99.8" font-family="Times,serif" font-size="14.00">SharedModule</text>
</g>
<!-- SharedModule&#45;&gt;PricingSimpleModule -->
<g id="edge3" class="edge">
<title>SharedModule&#45;&gt;PricingSimpleModule</title>
<path fill="none" stroke="black" d="M275,-122.11C275,-122.11 275,-140.99 275,-140.99"/>
<polygon fill="black" stroke="black" points="271.5,-140.99 275,-150.99 278.5,-140.99 271.5,-140.99"/>
</g>
</g>
</svg>
