<?xml version="1.0" encoding="UTF-8" standalone="no"?>
<!DOCTYPE svg PUBLIC "-//W3C//DTD SVG 1.1//EN"
 "http://www.w3.org/Graphics/SVG/1.1/DTD/svg11.dtd">
<!-- Generated by graphviz version 2.47.0 (20210316.0004)
 -->
<!-- Title: dependencies Pages: 1 -->
<svg width="1669pt" height="211pt"
 viewBox="0.00 0.00 1669.00 211.00" xmlns="http://www.w3.org/2000/svg" xmlns:xlink="http://www.w3.org/1999/xlink">
<g id="graph0" class="graph" transform="scale(1 1) rotate(0) translate(4 207)">
<title>dependencies</title>
<polygon fill="white" stroke="transparent" points="-4,4 -4,-207 1665,-207 1665,4 -4,4"/>
<text text-anchor="start" x="809.51" y="-42.4" font-family="Times-12" font-weight="bold" font-size="14.00">Legend</text>
<polygon fill="#ffffb3" stroke="transparent" points="596.5,-10 596.5,-30 616.5,-30 616.5,-10 596.5,-10"/>
<text text-anchor="start" x="620.13" y="-15.4" font-family="Times-12" font-size="14.00"> &#160;Declarations</text>
<polygon fill="#8dd3c7" stroke="transparent" points="709.5,-10 709.5,-30 729.5,-30 729.5,-10 709.5,-10"/>
<text text-anchor="start" x="733.23" y="-15.4" font-family="Times-12" font-size="14.00"> &#160;Module</text>
<polygon fill="#80b1d3" stroke="transparent" points="795.5,-10 795.5,-30 815.5,-30 815.5,-10 795.5,-10"/>
<text text-anchor="start" x="819.28" y="-15.4" font-family="Times-12" font-size="14.00"> &#160;Bootstrap</text>
<polygon fill="#fdb462" stroke="transparent" points="892.5,-10 892.5,-30 912.5,-30 912.5,-10 892.5,-10"/>
<text text-anchor="start" x="916.17" y="-15.4" font-family="Times-12" font-size="14.00"> &#160;Providers</text>
<polygon fill="#fb8072" stroke="transparent" points="988.5,-10 988.5,-30 1008.5,-30 1008.5,-10 988.5,-10"/>
<text text-anchor="start" x="1012.23" y="-15.4" font-family="Times-12" font-size="14.00"> &#160;Exports</text>
<g id="clust1" class="cluster">
<title>cluster_ScrumboardModule</title>
<polygon fill="none" stroke="black" stroke-dasharray="1,5" points="8,-70 8,-195 1653,-195 1653,-70 8,-70"/>
</g>
<g id="clust10" class="cluster">
<title>cluster_ScrumboardModule_imports</title>
<polygon fill="none" stroke="black" points="1531,-78 1531,-130 1645,-130 1645,-78 1531,-78"/>
</g>
<g id="clust2" class="cluster">
<title>cluster_ScrumboardModule_declarations</title>
<polygon fill="none" stroke="black" points="16,-78 16,-130 1523,-130 1523,-78 16,-78"/>
</g>
<!-- ScrumboardBoardAddCardComponent -->
<g id="node1" class="node">
<title>ScrumboardBoardAddCardComponent</title>
<polygon fill="#ffffb3" stroke="black" points="1514.79,-122 1279.21,-122 1279.21,-86 1514.79,-86 1514.79,-122"/>
<text text-anchor="middle" x="1397" y="-99.8" font-family="Times,serif" font-size="14.00">ScrumboardBoardAddCardComponent</text>
</g>
<!-- ScrumboardModule -->
<g id="node8" class="node">
<title>ScrumboardModule</title>
<polygon fill="#8dd3c7" stroke="black" points="881.97,-187 878.97,-191 857.97,-191 854.97,-187 754.03,-187 754.03,-151 881.97,-151 881.97,-187"/>
<text text-anchor="middle" x="818" y="-164.8" font-family="Times,serif" font-size="14.00">ScrumboardModule</text>
</g>
<!-- ScrumboardBoardAddCardComponent&#45;&gt;ScrumboardModule -->
<g id="edge1" class="edge">
<title>ScrumboardBoardAddCardComponent&#45;&gt;ScrumboardModule</title>
<path fill="none" stroke="black" d="M1397,-122.11C1397,-141.34 1397,-169 1397,-169 1397,-169 892.18,-169 892.18,-169"/>
<polygon fill="black" stroke="black" points="892.18,-165.5 882.18,-169 892.18,-172.5 892.18,-165.5"/>
</g>
<!-- ScrumboardBoardAddListComponent -->
<g id="node2" class="node">
<title>ScrumboardBoardAddListComponent</title>
<polygon fill="#ffffb3" stroke="black" points="1260.85,-122 1031.15,-122 1031.15,-86 1260.85,-86 1260.85,-122"/>
<text text-anchor="middle" x="1146" y="-99.8" font-family="Times,serif" font-size="14.00">ScrumboardBoardAddListComponent</text>
</g>
<!-- ScrumboardBoardAddListComponent&#45;&gt;ScrumboardModule -->
<g id="edge2" class="edge">
<title>ScrumboardBoardAddListComponent&#45;&gt;ScrumboardModule</title>
<path fill="none" stroke="black" d="M1146,-122.03C1146,-138.4 1146,-160 1146,-160 1146,-160 892.02,-160 892.02,-160"/>
<polygon fill="black" stroke="black" points="892.02,-156.5 882.02,-160 892.02,-163.5 892.02,-156.5"/>
</g>
<!-- ScrumboardBoardComponent -->
<g id="node3" class="node">
<title>ScrumboardBoardComponent</title>
<polygon fill="#ffffb3" stroke="black" points="1012.97,-122 829.03,-122 829.03,-86 1012.97,-86 1012.97,-122"/>
<text text-anchor="middle" x="921" y="-99.8" font-family="Times,serif" font-size="14.00">ScrumboardBoardComponent</text>
</g>
<!-- ScrumboardBoardComponent&#45;&gt;ScrumboardModule -->
<g id="edge3" class="edge">
<title>ScrumboardBoardComponent&#45;&gt;ScrumboardModule</title>
<path fill="none" stroke="black" d="M855.5,-122.11C855.5,-122.11 855.5,-140.99 855.5,-140.99"/>
<polygon fill="black" stroke="black" points="852,-140.99 855.5,-150.99 859,-140.99 852,-140.99"/>
</g>
<!-- ScrumboardBoardsComponent -->
<g id="node4" class="node">
<title>ScrumboardBoardsComponent</title>
<polygon fill="#ffffb3" stroke="black" points="810.91,-122 621.09,-122 621.09,-86 810.91,-86 810.91,-122"/>
<text text-anchor="middle" x="716" y="-99.8" font-family="Times,serif" font-size="14.00">ScrumboardBoardsComponent</text>
</g>
<!-- ScrumboardBoardsComponent&#45;&gt;ScrumboardModule -->
<g id="edge4" class="edge">
<title>ScrumboardBoardsComponent&#45;&gt;ScrumboardModule</title>
<path fill="none" stroke="black" d="M782.36,-122.11C782.36,-122.11 782.36,-140.99 782.36,-140.99"/>
<polygon fill="black" stroke="black" points="778.86,-140.99 782.36,-150.99 785.86,-140.99 778.86,-140.99"/>
</g>
<!-- ScrumboardCardComponent -->
<g id="node5" class="node">
<title>ScrumboardCardComponent</title>
<polygon fill="#ffffb3" stroke="black" points="603.47,-122 426.53,-122 426.53,-86 603.47,-86 603.47,-122"/>
<text text-anchor="middle" x="515" y="-99.8" font-family="Times,serif" font-size="14.00">ScrumboardCardComponent</text>
</g>
<!-- ScrumboardCardComponent&#45;&gt;ScrumboardModule -->
<g id="edge5" class="edge">
<title>ScrumboardCardComponent&#45;&gt;ScrumboardModule</title>
<path fill="none" stroke="black" d="M515,-122.03C515,-138.4 515,-160 515,-160 515,-160 743.74,-160 743.74,-160"/>
<polygon fill="black" stroke="black" points="743.74,-163.5 753.74,-160 743.74,-156.5 743.74,-163.5"/>
</g>
<!-- ScrumboardCardDetailsComponent -->
<g id="node6" class="node">
<title>ScrumboardCardDetailsComponent</title>
<polygon fill="#ffffb3" stroke="black" points="408.12,-122 191.88,-122 191.88,-86 408.12,-86 408.12,-122"/>
<text text-anchor="middle" x="300" y="-99.8" font-family="Times,serif" font-size="14.00">ScrumboardCardDetailsComponent</text>
</g>
<!-- ScrumboardCardDetailsComponent&#45;&gt;ScrumboardModule -->
<g id="edge6" class="edge">
<title>ScrumboardCardDetailsComponent&#45;&gt;ScrumboardModule</title>
<path fill="none" stroke="black" d="M300,-122.11C300,-141.34 300,-169 300,-169 300,-169 743.96,-169 743.96,-169"/>
<polygon fill="black" stroke="black" points="743.96,-172.5 753.96,-169 743.96,-165.5 743.96,-172.5"/>
</g>
<!-- ScrumboardComponent -->
<g id="node7" class="node">
<title>ScrumboardComponent</title>
<polygon fill="#ffffb3" stroke="black" points="173.76,-122 24.24,-122 24.24,-86 173.76,-86 173.76,-122"/>
<text text-anchor="middle" x="99" y="-99.8" font-family="Times,serif" font-size="14.00">ScrumboardComponent</text>
</g>
<!-- ScrumboardComponent&#45;&gt;ScrumboardModule -->
<g id="edge7" class="edge">
<title>ScrumboardComponent&#45;&gt;ScrumboardModule</title>
<path fill="none" stroke="black" d="M99,-122.29C99,-144.21 99,-178 99,-178 99,-178 743.88,-178 743.88,-178"/>
<polygon fill="black" stroke="black" points="743.88,-181.5 753.88,-178 743.88,-174.5 743.88,-181.5"/>
</g>
<!-- SharedModule -->
<g id="node9" class="node">
<title>SharedModule</title>
<polygon fill="#8dd3c7" stroke="black" points="1637.42,-122 1634.42,-126 1613.42,-126 1610.42,-122 1538.58,-122 1538.58,-86 1637.42,-86 1637.42,-122"/>
<text text-anchor="middle" x="1588" y="-99.8" font-family="Times,serif" font-size="14.00">SharedModule</text>
</g>
<!-- SharedModule&#45;&gt;ScrumboardModule -->
<g id="edge8" class="edge">
<title>SharedModule&#45;&gt;ScrumboardModule</title>
<path fill="none" stroke="black" d="M1588,-122.29C1588,-144.21 1588,-178 1588,-178 1588,-178 892,-178 892,-178"/>
<polygon fill="black" stroke="black" points="892,-174.5 882,-178 892,-181.5 892,-174.5"/>
</g>
</g>
</svg>
